<?xml version="1.0" encoding="utf-8"?>
<!-- Generator: Adobe Illustrator 24.1.3, SVG Export Plug-In . SVG Version: 6.00 Build 0)  -->
<svg version="1.1" id="Layer_1" xmlns="http://www.w3.org/2000/svg" xmlns:xlink="http://www.w3.org/1999/xlink" x="0px" y="0px"
	 viewBox="0 0 1000 800" style="enable-background:new 0 0 1000 800;" xml:space="preserve">
<style type="text/css">
	.st0{fill:url(#SVGID_1_);}
	.st1{fill:url(#SVGID_2_);}
	.st2{fill:url(#SVGID_3_);}
	.st3{fill:#FFFFFF;stroke:#000000;stroke-miterlimit:10;}
	.st4{fill:#FFFFFF;}
	.st5{opacity:0.3;fill:#BADED3;}
	.st6{fill:url(#SVGID_4_);}
	.st7{fill:#D7DDDD;}
</style>
<linearGradient id="SVGID_1_" gradientUnits="userSpaceOnUse" x1="474.2668" y1="421.4206" x2="594.1251" y2="421.4206">
	<stop  offset="0" style="stop-color:#FEEFD7"/>
	<stop  offset="3.736244e-02" style="stop-color:#EFDCBE"/>
	<stop  offset="0.167" style="stop-color:#BE9D6D"/>
	<stop  offset="0.2264" style="stop-color:#AB844D"/>
	<stop  offset="0.2933" style="stop-color:#AE8852"/>
	<stop  offset="0.3725" style="stop-color:#B79360"/>
	<stop  offset="0.4579" style="stop-color:#C5A678"/>
	<stop  offset="0.5477" style="stop-color:#D9C099"/>
	<stop  offset="0.64" style="stop-color:#F3E1C4"/>
	<stop  offset="0.6563" style="stop-color:#F8E7CC"/>
	<stop  offset="0.826" style="stop-color:#D0B38A"/>
	<stop  offset="0.9956" style="stop-color:#AA824B"/>
</linearGradient>
<path class="st0" d="M594.1,378.1c0,0.4,0,0.9,0,1.3h-21.2c0-0.4,0-0.9,0-1.3c0-19.3-17.3-35-38.7-35c-21.1,0-38.3,15.3-38.7,34.3
	v0.1c0,0.2,0,0.4,0,0.6c0,0.2,0,0.4,0,0.6v140.1h-21.2V377.4c0.4-29.6,27.1-53.4,59.9-53.4C567.3,324,594.1,348.2,594.1,378.1z"/>
<linearGradient id="SVGID_2_" gradientUnits="userSpaceOnUse" x1="405.8749" y1="411.5861" x2="455.3849" y2="411.5861">
	<stop  offset="0" style="stop-color:#FAEAD0"/>
	<stop  offset="0.3514" style="stop-color:#B18B56"/>
	<stop  offset="0.3932" style="stop-color:#BF9D6D"/>
	<stop  offset="0.4776" style="stop-color:#D7BD95"/>
	<stop  offset="0.5546" style="stop-color:#E9D4B3"/>
	<stop  offset="0.6209" style="stop-color:#F4E2C5"/>
	<stop  offset="0.6687" style="stop-color:#F8E7CB"/>
	<stop  offset="0.7048" style="stop-color:#ECD8B8"/>
	<stop  offset="0.7977" style="stop-color:#D2B68D"/>
	<stop  offset="0.8812" style="stop-color:#BF9D6D"/>
	<stop  offset="0.9514" style="stop-color:#B38E5A"/>
	<stop  offset="1" style="stop-color:#AF8953"/>
</linearGradient>
<path class="st1" d="M455.4,396.8v29.6c0,7.7-6.3,13.9-13.9,13.9c-7.7,0-13.9-6.3-13.9-13.9v-23.9h-21.7v-6h21.7
	c0.1-7.5,6.3-13.6,13.9-13.6c3.8,0,7.3,1.6,9.8,4.1C453.8,389.5,455.4,393,455.4,396.8z"/>
<linearGradient id="SVGID_3_" gradientUnits="userSpaceOnUse" x1="515.6699" y1="410.2962" x2="565.1799" y2="410.2962">
	<stop  offset="0" style="stop-color:#FAEAD0"/>
	<stop  offset="8.735470e-02" style="stop-color:#F2E0C3"/>
	<stop  offset="0.2493" style="stop-color:#DEC5A0"/>
	<stop  offset="0.4666" style="stop-color:#BC9A69"/>
	<stop  offset="0.5354" style="stop-color:#B18B56"/>
	<stop  offset="0.553" style="stop-color:#BF9D6D"/>
	<stop  offset="0.5884" style="stop-color:#D7BD95"/>
	<stop  offset="0.6208" style="stop-color:#E9D4B3"/>
	<stop  offset="0.6486" style="stop-color:#F4E2C5"/>
	<stop  offset="0.6687" style="stop-color:#F8E7CB"/>
	<stop  offset="0.7639" style="stop-color:#E5CFAC"/>
	<stop  offset="0.9709" style="stop-color:#B6925E"/>
	<stop  offset="1" style="stop-color:#AF8953"/>
</linearGradient>
<path class="st2" d="M515.7,395.5v29.6c0,7.7,6.3,13.9,13.9,13.9c7.7,0,13.9-6.3,13.9-13.9v-23.9h21.7v-6h-21.7
	c-0.1-7.5-6.3-13.6-13.9-13.6c-3.8,0-7.3,1.6-9.8,4.1C517.2,388.2,515.7,391.7,515.7,395.5z"/>
<path class="st3" d="M39.1,548.1v1.5c0-0.3,0-0.5,0-0.8S39,548.3,39.1,548.1z"/>
<path class="st4" d="M958,445.3c-5,2.4-12.6,4.8-22.7,7c-66.1,14.8-236.1,25.3-435.4,25.3c-199.3,0-369.2-10.5-435.4-25.3
	c-10-2.2-17.7-4.6-22.7-7c37.9-18.4,228.6-32.3,458-32.3S920.1,426.9,958,445.3z"/>
<g>
	<path class="st5" d="M135.1,454c-5.1,0-9.2,4.1-9.2,9.2c0,5.1,4.1,9.2,9.2,9.2c5.1,0,9.2-4.1,9.2-9.2
		C144.4,458.1,140.2,454,135.1,454z M127.7,461.6c-0.4,0-0.7-0.3-0.7-0.7c0-0.4,0.3-0.7,0.7-0.7c0.4,0,0.7,0.3,0.7,0.7
		C128.4,461.2,128.1,461.6,127.7,461.6z M128.9,460.5l-1.2-1.2c0.6-1,1.4-2,2.3-2.7l1.1,1.1C130.2,458.4,129.4,459.4,128.9,460.5z"
		/>
	<path class="st5" d="M152.3,458.5c-6.2,0-11.2,5-11.2,11.2c0,6.2,5,11.2,11.2,11.2c6.2,0,11.2-5,11.2-11.2
		C163.5,463.5,158.5,458.5,152.3,458.5z M143.3,467.7c-0.5,0-0.9-0.4-0.9-0.9c0-0.5,0.4-0.9,0.9-0.9c0.5,0,0.9,0.4,0.9,0.9
		C144.2,467.3,143.8,467.7,143.3,467.7z M144.7,466.4l-1.4-1.4c0.7-1.3,1.7-2.4,2.8-3.3l1.4,1.4
		C146.3,463.9,145.4,465.1,144.7,466.4z"/>
	<path class="st5" d="M145.3,449.1c-3.9,0-7.1,3.2-7.1,7.1c0,3.9,3.2,7.1,7.1,7.1c3.9,0,7.1-3.2,7.1-7.1
		C152.3,452.2,149.2,449.1,145.3,449.1z M139.5,454.9c-0.3,0-0.6-0.2-0.6-0.6c0-0.3,0.3-0.6,0.6-0.6c0.3,0,0.6,0.3,0.6,0.6
		C140.1,454.6,139.9,454.9,139.5,454.9z M140.5,454l-0.9-0.9c0.5-0.8,1.1-1.5,1.8-2.1l0.9,0.9C141.4,452.5,140.8,453.2,140.5,454z"
		/>
	<path class="st5" d="M163.5,455.9c-2.5,0-4.6,2.1-4.6,4.6c0,2.5,2.1,4.6,4.6,4.6c2.5,0,4.6-2.1,4.6-4.6
		C168.1,457.9,166.1,455.9,163.5,455.9z M159.8,459.7c-0.2,0-0.4-0.2-0.4-0.4c0-0.2,0.2-0.4,0.4-0.4c0.2,0,0.4,0.2,0.4,0.4
		C160.2,459.5,160,459.7,159.8,459.7z M160.4,459.1l-0.6-0.6c0.3-0.5,0.7-1,1.1-1.4l0.6,0.6C161,458.1,160.6,458.6,160.4,459.1z"/>
</g>
<g>
	<path class="st5" d="M168.6,461.4c-5.1,0-9.2,4.1-9.2,9.2c0,5.1,4.1,9.2,9.2,9.2c5.1,0,9.2-4.1,9.2-9.2
		C177.9,465.6,173.7,461.4,168.6,461.4z M161.2,469c-0.4,0-0.7-0.3-0.7-0.7c0-0.4,0.3-0.7,0.7-0.7c0.4,0,0.7,0.3,0.7,0.7
		C161.9,468.7,161.6,469,161.2,469z M162.4,467.9l-1.2-1.2c0.6-1,1.4-2,2.3-2.7l1.1,1.1C163.7,465.9,162.9,466.8,162.4,467.9z"/>
	<path class="st5" d="M185.8,466c-6.2,0-11.2,5-11.2,11.2c0,6.2,5,11.2,11.2,11.2c6.2,0,11.2-5,11.2-11.2C197,471,192,466,185.8,466
		z M176.8,475.1c-0.5,0-0.9-0.4-0.9-0.9c0-0.5,0.4-0.9,0.9-0.9c0.5,0,0.9,0.4,0.9,0.9C177.7,474.8,177.3,475.1,176.8,475.1z
		 M178.3,473.8l-1.4-1.4c0.7-1.3,1.7-2.4,2.8-3.3l1.4,1.4C179.8,471.3,178.9,472.5,178.3,473.8z"/>
	<path class="st5" d="M178.8,456.5c-3.9,0-7.1,3.2-7.1,7.1c0,3.9,3.2,7.1,7.1,7.1c3.9,0,7.1-3.2,7.1-7.1
		C185.8,459.7,182.7,456.5,178.8,456.5z M173.1,462.3c-0.3,0-0.6-0.2-0.6-0.6c0-0.3,0.3-0.6,0.6-0.6c0.3,0,0.6,0.3,0.6,0.6
		C173.6,462.1,173.4,462.3,173.1,462.3z M174,461.5l-0.9-0.9c0.5-0.8,1.1-1.5,1.8-2.1l0.9,0.9C175,459.9,174.4,460.7,174,461.5z"/>
	<path class="st5" d="M197,463.3c-2.5,0-4.6,2.1-4.6,4.6c0,2.5,2.1,4.6,4.6,4.6c2.5,0,4.6-2.1,4.6-4.6
		C201.6,465.4,199.6,463.3,197,463.3z M193.3,467.1c-0.2,0-0.4-0.2-0.4-0.4c0-0.2,0.2-0.4,0.4-0.4c0.2,0,0.4,0.2,0.4,0.4
		C193.7,466.9,193.5,467.1,193.3,467.1z M193.9,466.6l-0.6-0.6c0.3-0.5,0.7-1,1.1-1.4l0.6,0.6C194.5,465.5,194.2,466,193.9,466.6z"
		/>
</g>
<g>
	<path class="st5" d="M296.1,458.7c-5.1,0-9.2,4.1-9.2,9.2c0,5.1,4.1,9.2,9.2,9.2c5.1,0,9.2-4.1,9.2-9.2
		C305.3,462.8,301.2,458.7,296.1,458.7z M288.6,466.3c-0.4,0-0.7-0.3-0.7-0.7c0-0.4,0.3-0.7,0.7-0.7c0.4,0,0.7,0.3,0.7,0.7
		C289.3,466,289,466.3,288.6,466.3z M289.8,465.2l-1.2-1.2c0.6-1,1.4-2,2.3-2.7l1.1,1.1C291.1,463.1,290.3,464.1,289.8,465.2z"/>
	<path class="st5" d="M313.3,463.2c-6.2,0-11.2,5-11.2,11.2c0,6.2,5,11.2,11.2,11.2c6.2,0,11.2-5,11.2-11.2
		C324.4,468.2,319.4,463.2,313.3,463.2z M304.2,472.4c-0.5,0-0.9-0.4-0.9-0.9c0-0.5,0.4-0.9,0.9-0.9c0.5,0,0.9,0.4,0.9,0.9
		C305.1,472,304.7,472.4,304.2,472.4z M305.7,471.1l-1.4-1.4c0.7-1.3,1.7-2.4,2.8-3.3l1.4,1.4C307.2,468.6,306.3,469.8,305.7,471.1z
		"/>
	<path class="st5" d="M306.2,453.8c-3.9,0-7.1,3.2-7.1,7.1c0,3.9,3.2,7.1,7.1,7.1c3.9,0,7.1-3.2,7.1-7.1
		C313.3,457,310.1,453.8,306.2,453.8z M300.5,459.6c-0.3,0-0.6-0.2-0.6-0.6c0-0.3,0.3-0.6,0.6-0.6c0.3,0,0.6,0.3,0.6,0.6
		C301,459.3,300.8,459.6,300.5,459.6z M301.4,458.8l-0.9-0.9c0.5-0.8,1.1-1.5,1.8-2.1l0.9,0.9C302.4,457.2,301.8,457.9,301.4,458.8z
		"/>
	<path class="st5" d="M324.4,460.6c-2.5,0-4.6,2.1-4.6,4.6c0,2.5,2.1,4.6,4.6,4.6c2.5,0,4.6-2.1,4.6-4.6
		C329.1,462.7,327,460.6,324.4,460.6z M320.7,464.4c-0.2,0-0.4-0.2-0.4-0.4c0-0.2,0.2-0.4,0.4-0.4c0.2,0,0.4,0.2,0.4,0.4
		C321.1,464.2,320.9,464.4,320.7,464.4z M321.3,463.8l-0.6-0.6c0.3-0.5,0.7-1,1.1-1.4l0.6,0.6C322,462.8,321.6,463.3,321.3,463.8z"
		/>
</g>
<g>
	<path class="st5" d="M472.2,455c-5.1,0-9.2,4.1-9.2,9.2c0,5.1,4.1,9.2,9.2,9.2c5.1,0,9.2-4.1,9.2-9.2
		C481.4,459.1,477.3,455,472.2,455z M464.7,462.5c-0.4,0-0.7-0.3-0.7-0.7c0-0.4,0.3-0.7,0.7-0.7c0.4,0,0.7,0.3,0.7,0.7
		C465.4,462.2,465.1,462.5,464.7,462.5z M465.9,461.4l-1.2-1.2c0.6-1,1.4-2,2.3-2.7l1.1,1.1C467.2,459.4,466.4,460.3,465.9,461.4z"
		/>
	<path class="st5" d="M489.4,459.5c-6.2,0-11.2,5-11.2,11.2c0,6.2,5,11.2,11.2,11.2c6.2,0,11.2-5,11.2-11.2
		C500.5,464.5,495.5,459.5,489.4,459.5z M480.3,468.7c-0.5,0-0.9-0.4-0.9-0.9c0-0.5,0.4-0.9,0.9-0.9c0.5,0,0.9,0.4,0.9,0.9
		C481.2,468.3,480.8,468.7,480.3,468.7z M481.8,467.3l-1.4-1.4c0.7-1.3,1.7-2.4,2.8-3.3l1.4,1.4C483.3,464.8,482.4,466,481.8,467.3z
		"/>
	<path class="st5" d="M482.3,450c-3.9,0-7.1,3.2-7.1,7.1c0,3.9,3.2,7.1,7.1,7.1c3.9,0,7.1-3.2,7.1-7.1
		C489.4,453.2,486.2,450,482.3,450z M476.6,455.8c-0.3,0-0.6-0.2-0.6-0.6s0.3-0.6,0.6-0.6c0.3,0,0.6,0.3,0.6,0.6
		S476.9,455.8,476.6,455.8z M477.5,455l-0.9-0.9c0.5-0.8,1.1-1.5,1.8-2.1l0.9,0.9C478.5,453.4,477.9,454.2,477.5,455z"/>
	<path class="st5" d="M500.5,456.8c-2.5,0-4.6,2.1-4.6,4.6c0,2.5,2.1,4.6,4.6,4.6c2.5,0,4.6-2.1,4.6-4.6
		C505.2,458.9,503.1,456.8,500.5,456.8z M496.8,460.6c-0.2,0-0.4-0.2-0.4-0.4c0-0.2,0.2-0.4,0.4-0.4c0.2,0,0.4,0.2,0.4,0.4
		C497.2,460.5,497,460.6,496.8,460.6z M497.4,460.1l-0.6-0.6c0.3-0.5,0.7-1,1.1-1.4l0.6,0.6C498.1,459,497.7,459.5,497.4,460.1z"/>
</g>
<g>
	<path class="st5" d="M451.1,458.7c-5.1,0-9.2,4.1-9.2,9.2c0,5.1,4.1,9.2,9.2,9.2c5.1,0,9.2-4.1,9.2-9.2
		C460.3,462.8,456.2,458.7,451.1,458.7z M443.6,466.3c-0.4,0-0.7-0.3-0.7-0.7c0-0.4,0.3-0.7,0.7-0.7c0.4,0,0.7,0.3,0.7,0.7
		C444.3,466,444,466.3,443.6,466.3z M444.8,465.2l-1.2-1.2c0.6-1,1.4-2,2.3-2.7l1.1,1.1C446.1,463.1,445.3,464.1,444.8,465.2z"/>
	<path class="st5" d="M468.3,463.2c-6.2,0-11.2,5-11.2,11.2c0,6.2,5,11.2,11.2,11.2c6.2,0,11.2-5,11.2-11.2
		C479.4,468.2,474.4,463.2,468.3,463.2z M459.2,472.4c-0.5,0-0.9-0.4-0.9-0.9c0-0.5,0.4-0.9,0.9-0.9c0.5,0,0.9,0.4,0.9,0.9
		C460.1,472,459.7,472.4,459.2,472.4z M460.7,471.1l-1.4-1.4c0.7-1.3,1.7-2.4,2.8-3.3l1.4,1.4C462.2,468.6,461.3,469.8,460.7,471.1z
		"/>
	<path class="st5" d="M461.2,453.8c-3.9,0-7.1,3.2-7.1,7.1c0,3.9,3.2,7.1,7.1,7.1c3.9,0,7.1-3.2,7.1-7.1
		C468.3,457,465.1,453.8,461.2,453.8z M455.5,459.6c-0.3,0-0.6-0.2-0.6-0.6c0-0.3,0.3-0.6,0.6-0.6s0.6,0.3,0.6,0.6
		C456,459.3,455.8,459.6,455.5,459.6z M456.4,458.8l-0.9-0.9c0.5-0.8,1.1-1.5,1.8-2.1l0.9,0.9C457.4,457.2,456.8,457.9,456.4,458.8z
		"/>
	<path class="st5" d="M479.4,460.6c-2.5,0-4.6,2.1-4.6,4.6c0,2.5,2.1,4.6,4.6,4.6c2.5,0,4.6-2.1,4.6-4.6
		C484.1,462.7,482,460.6,479.4,460.6z M475.7,464.4c-0.2,0-0.4-0.2-0.4-0.4c0-0.2,0.2-0.4,0.4-0.4c0.2,0,0.4,0.2,0.4,0.4
		C476.1,464.2,475.9,464.4,475.7,464.4z M476.3,463.8l-0.6-0.6c0.3-0.5,0.7-1,1.1-1.4l0.6,0.6C477,462.8,476.6,463.3,476.3,463.8z"
		/>
</g>
<g>
	<path class="st5" d="M415.1,449.9c-5.1,0-9.2,4.1-9.2,9.2c0,5.1,4.1,9.2,9.2,9.2c5.1,0,9.2-4.1,9.2-9.2
		C424.3,454,420.2,449.9,415.1,449.9z M407.7,457.4c-0.4,0-0.7-0.3-0.7-0.7c0-0.4,0.3-0.7,0.7-0.7c0.4,0,0.7,0.3,0.7,0.7
		C408.4,457.1,408.1,457.4,407.7,457.4z M408.8,456.4l-1.2-1.2c0.6-1,1.4-2,2.3-2.7l1.1,1.1C410.1,454.3,409.3,455.3,408.8,456.4z"
		/>
	<path class="st5" d="M432.3,454.4c-6.2,0-11.2,5-11.2,11.2c0,6.2,5,11.2,11.2,11.2c6.2,0,11.2-5,11.2-11.2
		C443.5,459.4,438.5,454.4,432.3,454.4z M423.3,463.6c-0.5,0-0.9-0.4-0.9-0.9c0-0.5,0.4-0.9,0.9-0.9c0.5,0,0.9,0.4,0.9,0.9
		C424.1,463.2,423.7,463.6,423.3,463.6z M424.7,462.3l-1.4-1.4c0.7-1.3,1.7-2.4,2.8-3.3l1.4,1.4
		C426.3,459.8,425.3,460.9,424.7,462.3z"/>
	<path class="st5" d="M425.2,444.9c-3.9,0-7.1,3.2-7.1,7.1c0,3.9,3.2,7.1,7.1,7.1c3.9,0,7.1-3.2,7.1-7.1
		C432.3,448.1,429.1,444.9,425.2,444.9z M419.5,450.8c-0.3,0-0.6-0.2-0.6-0.6c0-0.3,0.3-0.6,0.6-0.6s0.6,0.3,0.6,0.6
		C420.1,450.5,419.8,450.8,419.5,450.8z M420.4,449.9l-0.9-0.9c0.5-0.8,1.1-1.5,1.8-2.1l0.9,0.9
		C421.4,448.3,420.8,449.1,420.4,449.9z"/>
	<path class="st5" d="M443.5,451.8c-2.5,0-4.6,2.1-4.6,4.6c0,2.5,2.1,4.6,4.6,4.6c2.5,0,4.6-2.1,4.6-4.6
		C448.1,453.8,446,451.8,443.5,451.8z M439.8,455.5c-0.2,0-0.4-0.2-0.4-0.4c0-0.2,0.2-0.4,0.4-0.4c0.2,0,0.4,0.2,0.4,0.4
		C440.1,455.4,440,455.5,439.8,455.5z M440.3,455l-0.6-0.6c0.3-0.5,0.7-1,1.1-1.4l0.6,0.6C441,454,440.6,454.4,440.3,455z"/>
</g>
<g>
	<path class="st5" d="M403.2,466.2c-5.1,0-9.2,4.1-9.2,9.2c0,5.1,4.1,9.2,9.2,9.2c5.1,0,9.2-4.1,9.2-9.2
		C412.4,470.3,408.3,466.2,403.2,466.2z M395.8,473.7c-0.4,0-0.7-0.3-0.7-0.7c0-0.4,0.3-0.7,0.7-0.7c0.4,0,0.7,0.3,0.7,0.7
		C396.5,473.4,396.2,473.7,395.8,473.7z M397,472.7l-1.2-1.2c0.6-1,1.4-2,2.3-2.7l1.1,1.1C398.2,470.6,397.5,471.6,397,472.7z"/>
	<path class="st5" d="M420.4,470.7c-6.2,0-11.2,5-11.2,11.2c0,6.2,5,11.2,11.2,11.2c6.2,0,11.2-5,11.2-11.2
		C431.6,475.7,426.6,470.7,420.4,470.7z M411.4,479.9c-0.5,0-0.9-0.4-0.9-0.9c0-0.5,0.4-0.9,0.9-0.9c0.5,0,0.9,0.4,0.9,0.9
		C412.3,479.5,411.9,479.9,411.4,479.9z M412.8,478.6l-1.4-1.4c0.7-1.3,1.7-2.4,2.8-3.3l1.4,1.4
		C414.4,476.1,413.4,477.2,412.8,478.6z"/>
	<path class="st5" d="M413.3,461.2c-3.9,0-7.1,3.2-7.1,7.1c0,3.9,3.2,7.1,7.1,7.1c3.9,0,7.1-3.2,7.1-7.1
		C420.4,464.4,417.2,461.2,413.3,461.2z M407.6,467c-0.3,0-0.6-0.2-0.6-0.6c0-0.3,0.3-0.6,0.6-0.6c0.3,0,0.6,0.3,0.6,0.6
		C408.2,466.8,407.9,467,407.6,467z M408.5,466.2l-0.9-0.9c0.5-0.8,1.1-1.5,1.8-2.1l0.9,0.9C409.5,464.6,408.9,465.4,408.5,466.2z"
		/>
	<path class="st5" d="M431.6,468c-2.5,0-4.6,2.1-4.6,4.6c0,2.5,2.1,4.6,4.6,4.6c2.5,0,4.6-2.1,4.6-4.6
		C436.2,470.1,434.1,468,431.6,468z M427.9,471.8c-0.2,0-0.4-0.2-0.4-0.4c0-0.2,0.2-0.4,0.4-0.4c0.2,0,0.4,0.2,0.4,0.4
		C428.2,471.7,428.1,471.8,427.9,471.8z M428.5,471.3l-0.6-0.6c0.3-0.5,0.7-1,1.1-1.4l0.6,0.6C429.1,470.3,428.7,470.7,428.5,471.3z
		"/>
</g>
<g>
	<path class="st5" d="M435.2,474.6c-5.1,0-9.2,4.1-9.2,9.2c0,5.1,4.1,9.2,9.2,9.2c5.1,0,9.2-4.1,9.2-9.2
		C444.4,478.8,440.3,474.6,435.2,474.6z M427.7,482.2c-0.4,0-0.7-0.3-0.7-0.7c0-0.4,0.3-0.7,0.7-0.7c0.4,0,0.7,0.3,0.7,0.7
		C428.4,481.9,428.1,482.2,427.7,482.2z M428.9,481.1l-1.2-1.2c0.6-1,1.4-2,2.3-2.7l1.1,1.1C430.2,479.1,429.4,480,428.9,481.1z"/>
	<path class="st5" d="M452.4,479.1c-6.2,0-11.2,5-11.2,11.2c0,6.2,5,11.2,11.2,11.2c6.2,0,11.2-5,11.2-11.2
		C463.5,484.2,458.5,479.1,452.4,479.1z M443.3,488.3c-0.5,0-0.9-0.4-0.9-0.9c0-0.5,0.4-0.9,0.9-0.9c0.5,0,0.9,0.4,0.9,0.9
		C444.2,487.9,443.8,488.3,443.3,488.3z M444.8,487l-1.4-1.4c0.7-1.3,1.7-2.4,2.8-3.3l1.4,1.4C446.3,484.5,445.4,485.7,444.8,487z"
		/>
	<path class="st5" d="M445.3,469.7c-3.9,0-7.1,3.2-7.1,7.1c0,3.9,3.2,7.1,7.1,7.1c3.9,0,7.1-3.2,7.1-7.1
		C452.4,472.9,449.2,469.7,445.3,469.7z M439.6,475.5c-0.3,0-0.6-0.2-0.6-0.6c0-0.3,0.3-0.6,0.6-0.6c0.3,0,0.6,0.3,0.6,0.6
		C440.1,475.3,439.9,475.5,439.6,475.5z M440.5,474.7l-0.9-0.9c0.5-0.8,1.1-1.5,1.8-2.1l0.9,0.9
		C441.5,473.1,440.9,473.8,440.5,474.7z"/>
	<path class="st5" d="M463.5,476.5c-2.5,0-4.6,2.1-4.6,4.6c0,2.5,2.1,4.6,4.6,4.6c2.5,0,4.6-2.1,4.6-4.6
		C468.2,478.6,466.1,476.5,463.5,476.5z M459.8,480.3c-0.2,0-0.4-0.2-0.4-0.4c0-0.2,0.2-0.4,0.4-0.4c0.2,0,0.4,0.2,0.4,0.4
		C460.2,480.1,460,480.3,459.8,480.3z M460.4,479.7l-0.6-0.6c0.3-0.5,0.7-1,1.1-1.4l0.6,0.6C461.1,478.7,460.7,479.2,460.4,479.7z"
		/>
</g>
<g>
	<path class="st5" d="M316.7,456.2c-5.1,0-9.2,4.1-9.2,9.2c0,5.1,4.1,9.2,9.2,9.2c5.1,0,9.2-4.1,9.2-9.2
		C325.9,460.3,321.8,456.2,316.7,456.2z M309.3,463.8c-0.4,0-0.7-0.3-0.7-0.7c0-0.4,0.3-0.7,0.7-0.7c0.4,0,0.7,0.3,0.7,0.7
		C310,463.4,309.7,463.8,309.3,463.8z M310.5,462.7l-1.2-1.2c0.6-1,1.4-2,2.3-2.7l1.1,1.1C311.8,460.6,311,461.6,310.5,462.7z"/>
	<path class="st5" d="M333.9,460.7c-6.2,0-11.2,5-11.2,11.2c0,6.2,5,11.2,11.2,11.2c6.2,0,11.2-5,11.2-11.2
		C345.1,465.7,340.1,460.7,333.9,460.7z M324.9,469.9c-0.5,0-0.9-0.4-0.9-0.9c0-0.5,0.4-0.9,0.9-0.9c0.5,0,0.9,0.4,0.9,0.9
		C325.8,469.5,325.4,469.9,324.9,469.9z M326.3,468.6l-1.4-1.4c0.7-1.3,1.7-2.4,2.8-3.3l1.4,1.4
		C327.9,466.1,326.9,467.3,326.3,468.6z"/>
	<path class="st5" d="M326.9,451.3c-3.9,0-7.1,3.2-7.1,7.1c0,3.9,3.2,7.1,7.1,7.1c3.9,0,7.1-3.2,7.1-7.1
		C333.9,454.4,330.8,451.3,326.9,451.3z M321.1,457.1c-0.3,0-0.6-0.2-0.6-0.6c0-0.3,0.3-0.6,0.6-0.6c0.3,0,0.6,0.3,0.6,0.6
		C321.7,456.8,321.5,457.1,321.1,457.1z M322.1,456.3l-0.9-0.9c0.5-0.8,1.1-1.5,1.8-2.1l0.9,0.9C323,454.7,322.4,455.4,322.1,456.3z
		"/>
	<path class="st5" d="M345.1,458.1c-2.5,0-4.6,2.1-4.6,4.6c0,2.5,2.1,4.6,4.6,4.6c2.5,0,4.6-2.1,4.6-4.6
		C349.7,460.1,347.7,458.1,345.1,458.1z M341.4,461.9c-0.2,0-0.4-0.2-0.4-0.4c0-0.2,0.2-0.4,0.4-0.4c0.2,0,0.4,0.2,0.4,0.4
		C341.7,461.7,341.6,461.9,341.4,461.9z M342,461.3l-0.6-0.6c0.3-0.5,0.7-1,1.1-1.4l0.6,0.6C342.6,460.3,342.2,460.8,342,461.3z"/>
</g>
<g>
	<path class="st5" d="M338.3,458c-5.1,0-9.2,4.1-9.2,9.2c0,5.1,4.1,9.2,9.2,9.2c5.1,0,9.2-4.1,9.2-9.2
		C347.5,462.2,343.4,458,338.3,458z M330.8,465.6c-0.4,0-0.7-0.3-0.7-0.7c0-0.4,0.3-0.7,0.7-0.7c0.4,0,0.7,0.3,0.7,0.7
		C331.6,465.3,331.2,465.6,330.8,465.6z M332,464.5l-1.2-1.2c0.6-1,1.4-2,2.3-2.7l1.1,1.1C333.3,462.5,332.5,463.4,332,464.5z"/>
	<path class="st5" d="M355.5,462.6c-6.2,0-11.2,5-11.2,11.2c0,6.2,5,11.2,11.2,11.2c6.2,0,11.2-5,11.2-11.2
		C366.7,467.6,361.6,462.6,355.5,462.6z M346.4,471.7c-0.5,0-0.9-0.4-0.9-0.9c0-0.5,0.4-0.9,0.9-0.9c0.5,0,0.9,0.4,0.9,0.9
		C347.3,471.3,346.9,471.7,346.4,471.7z M347.9,470.4l-1.4-1.4c0.7-1.3,1.7-2.4,2.8-3.3l1.4,1.4
		C349.4,467.9,348.5,469.1,347.9,470.4z"/>
	<path class="st5" d="M348.4,453.1c-3.9,0-7.1,3.2-7.1,7.1c0,3.9,3.2,7.1,7.1,7.1c3.9,0,7.1-3.2,7.1-7.1
		C355.5,456.3,352.3,453.1,348.4,453.1z M342.7,458.9c-0.3,0-0.6-0.2-0.6-0.6c0-0.3,0.3-0.6,0.6-0.6c0.3,0,0.6,0.3,0.6,0.6
		C343.2,458.7,343,458.9,342.7,458.9z M343.6,458.1l-0.9-0.9c0.5-0.8,1.1-1.5,1.8-2.1l0.9,0.9C344.6,456.5,344,457.2,343.6,458.1z"
		/>
	<path class="st5" d="M366.7,459.9c-2.5,0-4.6,2.1-4.6,4.6c0,2.5,2.1,4.6,4.6,4.6c2.5,0,4.6-2.1,4.6-4.6
		C371.3,462,369.2,459.9,366.7,459.9z M362.9,463.7c-0.2,0-0.4-0.2-0.4-0.4c0-0.2,0.2-0.4,0.4-0.4c0.2,0,0.4,0.2,0.4,0.4
		C363.3,463.5,363.1,463.7,362.9,463.7z M363.5,463.2l-0.6-0.6c0.3-0.5,0.7-1,1.1-1.4l0.6,0.6C364.2,462.1,363.8,462.6,363.5,463.2z
		"/>
</g>
<g>
	<path class="st5" d="M370.2,466.2c-5.1,0-9.2,4.1-9.2,9.2c0,5.1,4.1,9.2,9.2,9.2c5.1,0,9.2-4.1,9.2-9.2
		C379.4,470.3,375.3,466.2,370.2,466.2z M362.8,473.7c-0.4,0-0.7-0.3-0.7-0.7c0-0.4,0.3-0.7,0.7-0.7c0.4,0,0.7,0.3,0.7,0.7
		C363.5,473.4,363.2,473.7,362.8,473.7z M364,472.7l-1.2-1.2c0.6-1,1.4-2,2.3-2.7l1.1,1.1C365.3,470.6,364.5,471.6,364,472.7z"/>
	<path class="st5" d="M387.4,470.7c-6.2,0-11.2,5-11.2,11.2c0,6.2,5,11.2,11.2,11.2c6.2,0,11.2-5,11.2-11.2
		C398.6,475.7,393.6,470.7,387.4,470.7z M378.4,479.9c-0.5,0-0.9-0.4-0.9-0.9c0-0.5,0.4-0.9,0.9-0.9c0.5,0,0.9,0.4,0.9,0.9
		C379.3,479.5,378.9,479.9,378.4,479.9z M379.8,478.6l-1.4-1.4c0.7-1.3,1.7-2.4,2.8-3.3l1.4,1.4
		C381.4,476.1,380.4,477.2,379.8,478.6z"/>
	<path class="st5" d="M380.3,461.2c-3.9,0-7.1,3.2-7.1,7.1c0,3.9,3.2,7.1,7.1,7.1c3.9,0,7.1-3.2,7.1-7.1
		C387.4,464.4,384.2,461.2,380.3,461.2z M374.6,467c-0.3,0-0.6-0.2-0.6-0.6c0-0.3,0.3-0.6,0.6-0.6c0.3,0,0.6,0.3,0.6,0.6
		C375.2,466.8,374.9,467,374.6,467z M375.5,466.2l-0.9-0.9c0.5-0.8,1.1-1.5,1.8-2.1l0.9,0.9C376.5,464.6,375.9,465.4,375.5,466.2z"
		/>
	<path class="st5" d="M398.6,468c-2.5,0-4.6,2.1-4.6,4.6c0,2.5,2.1,4.6,4.6,4.6c2.5,0,4.6-2.1,4.6-4.6
		C403.2,470.1,401.1,468,398.6,468z M394.9,471.8c-0.2,0-0.4-0.2-0.4-0.4c0-0.2,0.2-0.4,0.4-0.4c0.2,0,0.4,0.2,0.4,0.4
		C395.2,471.7,395.1,471.8,394.9,471.8z M395.5,471.3l-0.6-0.6c0.3-0.5,0.7-1,1.1-1.4l0.6,0.6C396.1,470.3,395.7,470.7,395.5,471.3z
		"/>
</g>
<g>
	<path class="st5" d="M506.9,467.1c-5.1,0-9.2,4.1-9.2,9.2c0,5.1,4.1,9.2,9.2,9.2c5.1,0,9.2-4.1,9.2-9.2
		C516.1,471.3,512,467.1,506.9,467.1z M499.5,474.7c-0.4,0-0.7-0.3-0.7-0.7c0-0.4,0.3-0.7,0.7-0.7c0.4,0,0.7,0.3,0.7,0.7
		C500.2,474.4,499.9,474.7,499.5,474.7z M500.7,473.6l-1.2-1.2c0.6-1,1.4-2,2.3-2.7l1.1,1.1C501.9,471.6,501.2,472.5,500.7,473.6z"
		/>
	<path class="st5" d="M524.1,471.7c-6.2,0-11.2,5-11.2,11.2c0,6.2,5,11.2,11.2,11.2c6.2,0,11.2-5,11.2-11.2
		C535.3,476.7,530.3,471.7,524.1,471.7z M515.1,480.8c-0.5,0-0.9-0.4-0.9-0.9c0-0.5,0.4-0.9,0.9-0.9c0.5,0,0.9,0.4,0.9,0.9
		C515.9,480.5,515.6,480.8,515.1,480.8z M516.5,479.5l-1.4-1.4c0.7-1.3,1.7-2.4,2.8-3.3l1.4,1.4C518.1,477,517.1,478.2,516.5,479.5z
		"/>
	<path class="st5" d="M517,462.2c-3.9,0-7.1,3.2-7.1,7.1c0,3.9,3.2,7.1,7.1,7.1s7.1-3.2,7.1-7.1C524.1,465.4,520.9,462.2,517,462.2z
		 M511.3,468c-0.3,0-0.6-0.2-0.6-0.6c0-0.3,0.3-0.6,0.6-0.6c0.3,0,0.6,0.3,0.6,0.6C511.9,467.8,511.6,468,511.3,468z M512.2,467.2
		l-0.9-0.9c0.5-0.8,1.1-1.5,1.8-2.1l0.9,0.9C513.2,465.6,512.6,466.3,512.2,467.2z"/>
	<path class="st5" d="M535.3,469c-2.5,0-4.6,2.1-4.6,4.6c0,2.5,2.1,4.6,4.6,4.6c2.5,0,4.6-2.1,4.6-4.6
		C539.9,471.1,537.8,469,535.3,469z M531.6,472.8c-0.2,0-0.4-0.2-0.4-0.4c0-0.2,0.2-0.4,0.4-0.4s0.4,0.2,0.4,0.4
		C531.9,472.6,531.8,472.8,531.6,472.8z M532.2,472.3l-0.6-0.6c0.3-0.5,0.7-1,1.1-1.4l0.6,0.6C532.8,471.2,532.4,471.7,532.2,472.3z
		"/>
</g>
<g>
	<path class="st5" d="M195.1,453c-5.1,0-9.2,4.1-9.2,9.2c0,5.1,4.1,9.2,9.2,9.2c5.1,0,9.2-4.1,9.2-9.2
		C204.3,457.1,200.2,453,195.1,453z M187.6,460.6c-0.4,0-0.7-0.3-0.7-0.7c0-0.4,0.3-0.7,0.7-0.7c0.4,0,0.7,0.3,0.7,0.7
		C188.3,460.3,188,460.6,187.6,460.6z M188.8,459.5l-1.2-1.2c0.6-1,1.4-2,2.3-2.7l1.1,1.1C190.1,457.4,189.3,458.4,188.8,459.5z"/>
	<path class="st5" d="M212.3,457.5c-6.2,0-11.2,5-11.2,11.2c0,6.2,5,11.2,11.2,11.2c6.2,0,11.2-5,11.2-11.2
		C223.4,462.6,218.4,457.5,212.3,457.5z M203.2,466.7c-0.5,0-0.9-0.4-0.9-0.9c0-0.5,0.4-0.9,0.9-0.9c0.5,0,0.9,0.4,0.9,0.9
		C204.1,466.3,203.7,466.7,203.2,466.7z M204.7,465.4l-1.4-1.4c0.7-1.3,1.7-2.4,2.8-3.3l1.4,1.4
		C206.2,462.9,205.3,464.1,204.7,465.4z"/>
	<path class="st5" d="M205.2,448.1c-3.9,0-7.1,3.2-7.1,7.1c0,3.9,3.2,7.1,7.1,7.1c3.9,0,7.1-3.2,7.1-7.1
		C212.3,451.3,209.1,448.1,205.2,448.1z M199.5,453.9c-0.3,0-0.6-0.2-0.6-0.6c0-0.3,0.3-0.6,0.6-0.6c0.3,0,0.6,0.3,0.6,0.6
		C200,453.7,199.8,453.9,199.5,453.9z M200.4,453.1l-0.9-0.9c0.5-0.8,1.1-1.5,1.8-2.1l0.9,0.9C201.4,451.5,200.8,452.2,200.4,453.1z
		"/>
	<path class="st5" d="M223.4,454.9c-2.5,0-4.6,2.1-4.6,4.6c0,2.5,2.1,4.6,4.6,4.6c2.5,0,4.6-2.1,4.6-4.6
		C228.1,457,226,454.9,223.4,454.9z M219.7,458.7c-0.2,0-0.4-0.2-0.4-0.4c0-0.2,0.2-0.4,0.4-0.4c0.2,0,0.4,0.2,0.4,0.4
		C220.1,458.5,219.9,458.7,219.7,458.7z M220.3,458.1l-0.6-0.6c0.3-0.5,0.7-1,1.1-1.4l0.6,0.6C221,457.1,220.6,457.6,220.3,458.1z"
		/>
</g>
<g>
	<path class="st5" d="M228.6,461.8c-5.1,0-9.2,4.1-9.2,9.2c0,5.1,4.1,9.2,9.2,9.2c5.1,0,9.2-4.1,9.2-9.2
		C237.8,465.9,233.7,461.8,228.6,461.8z M221.1,469.4c-0.4,0-0.7-0.3-0.7-0.7c0-0.4,0.3-0.7,0.7-0.7c0.4,0,0.7,0.3,0.7,0.7
		C221.9,469.1,221.5,469.4,221.1,469.4z M222.3,468.3l-1.2-1.2c0.6-1,1.4-2,2.3-2.7l1.1,1.1C223.6,466.2,222.8,467.2,222.3,468.3z"
		/>
	<path class="st5" d="M245.8,466.3c-6.2,0-11.2,5-11.2,11.2c0,6.2,5,11.2,11.2,11.2c6.2,0,11.2-5,11.2-11.2
		C257,471.3,251.9,466.3,245.8,466.3z M236.7,475.5c-0.5,0-0.9-0.4-0.9-0.9c0-0.5,0.4-0.9,0.9-0.9c0.5,0,0.9,0.4,0.9,0.9
		C237.6,475.1,237.2,475.5,236.7,475.5z M238.2,474.2l-1.4-1.4c0.7-1.3,1.7-2.4,2.8-3.3l1.4,1.4
		C239.7,471.7,238.8,472.9,238.2,474.2z"/>
	<path class="st5" d="M238.7,456.9c-3.9,0-7.1,3.2-7.1,7.1c0,3.9,3.2,7.1,7.1,7.1c3.9,0,7.1-3.2,7.1-7.1
		C245.8,460.1,242.6,456.9,238.7,456.9z M233,462.7c-0.3,0-0.6-0.2-0.6-0.6c0-0.3,0.3-0.6,0.6-0.6c0.3,0,0.6,0.3,0.6,0.6
		C233.5,462.4,233.3,462.7,233,462.7z M233.9,461.9L233,461c0.5-0.8,1.1-1.5,1.8-2.1l0.9,0.9C234.9,460.3,234.3,461,233.9,461.9z"/>
	<path class="st5" d="M257,463.7c-2.5,0-4.6,2.1-4.6,4.6c0,2.5,2.1,4.6,4.6,4.6c2.5,0,4.6-2.1,4.6-4.6
		C261.6,465.8,259.5,463.7,257,463.7z M253.2,467.5c-0.2,0-0.4-0.2-0.4-0.4c0-0.2,0.2-0.4,0.4-0.4c0.2,0,0.4,0.2,0.4,0.4
		C253.6,467.3,253.4,467.5,253.2,467.5z M253.8,466.9l-0.6-0.6c0.3-0.5,0.7-1,1.1-1.4l0.6,0.6C254.5,465.9,254.1,466.4,253.8,466.9z
		"/>
</g>
<g>
	<path class="st5" d="M245.6,450.5c-5.1,0-9.2,4.1-9.2,9.2c0,5.1,4.1,9.2,9.2,9.2c5.1,0,9.2-4.1,9.2-9.2
		C254.8,454.6,250.7,450.5,245.6,450.5z M238.1,458.1c-0.4,0-0.7-0.3-0.7-0.7c0-0.4,0.3-0.7,0.7-0.7c0.4,0,0.7,0.3,0.7,0.7
		C238.8,457.8,238.5,458.1,238.1,458.1z M239.3,457l-1.2-1.2c0.6-1,1.4-2,2.3-2.7l1.1,1.1C240.6,454.9,239.8,455.9,239.3,457z"/>
	<path class="st5" d="M262.8,455c-6.2,0-11.2,5-11.2,11.2c0,6.2,5,11.2,11.2,11.2c6.2,0,11.2-5,11.2-11.2
		C273.9,460,268.9,455,262.8,455z M253.7,464.2c-0.5,0-0.9-0.4-0.9-0.9c0-0.5,0.4-0.9,0.9-0.9c0.5,0,0.9,0.4,0.9,0.9
		C254.6,463.8,254.2,464.2,253.7,464.2z M255.2,462.9l-1.4-1.4c0.7-1.3,1.7-2.4,2.8-3.3l1.4,1.4
		C256.7,460.4,255.8,461.6,255.2,462.9z"/>
	<path class="st5" d="M255.7,445.6c-3.9,0-7.1,3.2-7.1,7.1c0,3.9,3.2,7.1,7.1,7.1c3.9,0,7.1-3.2,7.1-7.1
		C262.8,448.8,259.6,445.6,255.7,445.6z M250,451.4c-0.3,0-0.6-0.2-0.6-0.6c0-0.3,0.3-0.6,0.6-0.6c0.3,0,0.6,0.3,0.6,0.6
		C250.5,451.1,250.3,451.4,250,451.4z M250.9,450.6l-0.9-0.9c0.5-0.8,1.1-1.5,1.8-2.1l0.9,0.9C251.9,449,251.3,449.7,250.9,450.6z"
		/>
	<path class="st5" d="M273.9,452.4c-2.5,0-4.6,2.1-4.6,4.6c0,2.5,2.1,4.6,4.6,4.6c2.5,0,4.6-2.1,4.6-4.6
		C278.6,454.5,276.5,452.4,273.9,452.4z M270.2,456.2c-0.2,0-0.4-0.2-0.4-0.4c0-0.2,0.2-0.4,0.4-0.4c0.2,0,0.4,0.2,0.4,0.4
		C270.6,456,270.4,456.2,270.2,456.2z M270.8,455.6l-0.6-0.6c0.3-0.5,0.7-1,1.1-1.4l0.6,0.6C271.5,454.6,271.1,455.1,270.8,455.6z"
		/>
</g>
<g>
	<path class="st5" d="M543.4,455.5c-5.1,0-9.2,4.1-9.2,9.2c0,5.1,4.1,9.2,9.2,9.2c5.1,0,9.2-4.1,9.2-9.2
		C552.6,459.6,548.5,455.5,543.4,455.5z M536,463.1c-0.4,0-0.7-0.3-0.7-0.7c0-0.4,0.3-0.7,0.7-0.7c0.4,0,0.7,0.3,0.7,0.7
		C536.7,462.8,536.4,463.1,536,463.1z M537.2,462l-1.2-1.2c0.6-1,1.4-2,2.3-2.7l1.1,1.1C538.4,459.9,537.7,460.9,537.2,462z"/>
	<path class="st5" d="M560.6,460c-6.2,0-11.2,5-11.2,11.2c0,6.2,5,11.2,11.2,11.2s11.2-5,11.2-11.2C571.8,465,566.8,460,560.6,460z
		 M551.6,469.2c-0.5,0-0.9-0.4-0.9-0.9c0-0.5,0.4-0.9,0.9-0.9s0.9,0.4,0.9,0.9C552.5,468.8,552.1,469.2,551.6,469.2z M553,467.9
		l-1.4-1.4c0.7-1.3,1.7-2.4,2.8-3.3l1.4,1.4C554.6,465.4,553.6,466.6,553,467.9z"/>
	<path class="st5" d="M553.5,450.6c-3.9,0-7.1,3.2-7.1,7.1c0,3.9,3.2,7.1,7.1,7.1c3.9,0,7.1-3.2,7.1-7.1
		C560.6,453.8,557.4,450.6,553.5,450.6z M547.8,456.4c-0.3,0-0.6-0.2-0.6-0.6c0-0.3,0.3-0.6,0.6-0.6s0.6,0.3,0.6,0.6
		C548.4,456.1,548.1,456.4,547.8,456.4z M548.7,455.6l-0.9-0.9c0.5-0.8,1.1-1.5,1.8-2.1l0.9,0.9C549.7,454,549.1,454.7,548.7,455.6z
		"/>
	<path class="st5" d="M571.8,457.4c-2.5,0-4.6,2.1-4.6,4.6c0,2.5,2.1,4.6,4.6,4.6s4.6-2.1,4.6-4.6
		C576.4,459.5,574.3,457.4,571.8,457.4z M568.1,461.2c-0.2,0-0.4-0.2-0.4-0.4c0-0.2,0.2-0.4,0.4-0.4c0.2,0,0.4,0.2,0.4,0.4
		C568.4,461,568.3,461.2,568.1,461.2z M568.7,460.6l-0.6-0.6c0.3-0.5,0.7-1,1.2-1.4l0.6,0.6C569.3,459.6,568.9,460.1,568.7,460.6z"
		/>
</g>
<radialGradient id="SVGID_4_" cx="500" cy="594.61" r="493.1964" gradientUnits="userSpaceOnUse">
	<stop  offset="0" style="stop-color:#FFFFFF"/>
	<stop  offset="0.4972" style="stop-color:#FDFDFD"/>
	<stop  offset="0.6883" style="stop-color:#F6F6F6"/>
	<stop  offset="0.8266" style="stop-color:#EAEAEA"/>
	<stop  offset="0.9389" style="stop-color:#D9D9D9"/>
	<stop  offset="1" style="stop-color:#CCCCCC"/>
</radialGradient>
<path class="st6" d="M964.9,452.3v103.6c-0.6,11.8-3,23.3-6.8,34.6c-20.1,59.1-82.4,110.8-170.3,146.5H212.5
	c-87.9-35.7-150.2-87.3-170.3-146.5c-4.5-13.3-6.9-26.9-7-40.8v-97.3h0c1.8,21.5,209.2,38.8,464.9,38.8S963,473.8,964.9,452.3
	L964.9,452.3z"/>
<g>
	<path class="st5" d="M638.8,460.7c-5.1,0-9.2,4.1-9.2,9.2c0,5.1,4.1,9.2,9.2,9.2c5.1,0,9.2-4.1,9.2-9.2
		C648,464.8,643.9,460.7,638.8,460.7z M631.3,468.2c-0.4,0-0.7-0.3-0.7-0.7c0-0.4,0.3-0.7,0.7-0.7c0.4,0,0.7,0.3,0.7,0.7
		C632.1,467.9,631.7,468.2,631.3,468.2z M632.5,467.2l-1.2-1.2c0.6-1,1.4-2,2.3-2.7l1.1,1.1C633.8,465.1,633,466.1,632.5,467.2z"/>
	<path class="st5" d="M656,465.2c-6.2,0-11.2,5-11.2,11.2c0,6.2,5,11.2,11.2,11.2c6.2,0,11.2-5,11.2-11.2
		C667.2,470.2,662.2,465.2,656,465.2z M647,474.4c-0.5,0-0.9-0.4-0.9-0.9c0-0.5,0.4-0.9,0.9-0.9c0.5,0,0.9,0.4,0.9,0.9
		C647.8,474,647.4,474.4,647,474.4z M648.4,473.1l-1.4-1.4c0.7-1.3,1.7-2.4,2.8-3.3l1.4,1.4C650,470.6,649,471.7,648.4,473.1z"/>
	<path class="st5" d="M648.9,455.7c-3.9,0-7.1,3.2-7.1,7.1c0,3.9,3.2,7.1,7.1,7.1c3.9,0,7.1-3.2,7.1-7.1
		C656,458.9,652.8,455.7,648.9,455.7z M643.2,461.6c-0.3,0-0.6-0.2-0.6-0.6c0-0.3,0.3-0.6,0.6-0.6s0.6,0.3,0.6,0.6
		C643.8,461.3,643.5,461.6,643.2,461.6z M644.1,460.7l-0.9-0.9c0.5-0.8,1.1-1.5,1.8-2.1l0.9,0.9
		C645.1,459.1,644.5,459.9,644.1,460.7z"/>
	<path class="st5" d="M667.2,462.6c-2.5,0-4.6,2.1-4.6,4.6c0,2.5,2.1,4.6,4.6,4.6s4.6-2.1,4.6-4.6
		C671.8,464.6,669.7,462.6,667.2,462.6z M663.4,466.3c-0.2,0-0.4-0.2-0.4-0.4c0-0.2,0.2-0.4,0.4-0.4c0.2,0,0.4,0.2,0.4,0.4
		C663.8,466.2,663.6,466.3,663.4,466.3z M664,465.8l-0.6-0.6c0.3-0.5,0.7-1,1.2-1.4l0.6,0.6C664.7,464.8,664.3,465.2,664,465.8z"/>
</g>
<g>
	<path class="st5" d="M659.9,455c-5.1,0-9.2,4.1-9.2,9.2c0,5.1,4.1,9.2,9.2,9.2c5.1,0,9.2-4.1,9.2-9.2
		C669.1,459.1,665,455,659.9,455z M652.5,462.5c-0.4,0-0.7-0.3-0.7-0.7c0-0.4,0.3-0.7,0.7-0.7c0.4,0,0.7,0.3,0.7,0.7
		C653.2,462.2,652.9,462.5,652.5,462.5z M653.6,461.4l-1.2-1.2c0.6-1,1.4-2,2.3-2.7l1.1,1.1C654.9,459.4,654.1,460.3,653.6,461.4z"
		/>
	<path class="st5" d="M677.1,459.5c-6.2,0-11.2,5-11.2,11.2c0,6.2,5,11.2,11.2,11.2c6.2,0,11.2-5,11.2-11.2
		C688.3,464.5,683.3,459.5,677.1,459.5z M668.1,468.7c-0.5,0-0.9-0.4-0.9-0.9c0-0.5,0.4-0.9,0.9-0.9s0.9,0.4,0.9,0.9
		C668.9,468.3,668.5,468.7,668.1,468.7z M669.5,467.3l-1.4-1.4c0.7-1.3,1.7-2.4,2.8-3.3l1.4,1.4C671.1,464.8,670.1,466,669.5,467.3z
		"/>
	<path class="st5" d="M670,450c-3.9,0-7.1,3.2-7.1,7.1c0,3.9,3.2,7.1,7.1,7.1c3.9,0,7.1-3.2,7.1-7.1C677.1,453.2,673.9,450,670,450z
		 M664.3,455.8c-0.3,0-0.6-0.2-0.6-0.6s0.3-0.6,0.6-0.6c0.3,0,0.6,0.3,0.6,0.6S664.6,455.8,664.3,455.8z M665.2,455l-0.9-0.9
		c0.5-0.8,1.1-1.5,1.8-2.1l0.9,0.9C666.2,453.4,665.6,454.2,665.2,455z"/>
	<path class="st5" d="M688.3,456.8c-2.5,0-4.6,2.1-4.6,4.6c0,2.5,2.1,4.6,4.6,4.6c2.5,0,4.6-2.1,4.6-4.6
		C692.9,458.9,690.8,456.8,688.3,456.8z M684.6,460.6c-0.2,0-0.4-0.2-0.4-0.4c0-0.2,0.2-0.4,0.4-0.4s0.4,0.2,0.4,0.4
		C684.9,460.5,684.8,460.6,684.6,460.6z M685.1,460.1l-0.6-0.6c0.3-0.5,0.7-1,1.1-1.4l0.6,0.6C685.8,459,685.4,459.5,685.1,460.1z"
		/>
</g>
<g>
	<path class="st5" d="M794.9,453.7c-5.1,0-9.2,4.1-9.2,9.2c0,5.1,4.1,9.2,9.2,9.2c5.1,0,9.2-4.1,9.2-9.2
		C804.2,457.9,800,453.7,794.9,453.7z M787.5,461.3c-0.4,0-0.7-0.3-0.7-0.7c0-0.4,0.3-0.7,0.7-0.7c0.4,0,0.7,0.3,0.7,0.7
		C788.2,461,787.9,461.3,787.5,461.3z M788.7,460.2l-1.2-1.2c0.6-1,1.4-2,2.3-2.7l1.1,1.1C790,458.2,789.2,459.1,788.7,460.2z"/>
	<path class="st5" d="M812.1,458.3c-6.2,0-11.2,5-11.2,11.2c0,6.2,5,11.2,11.2,11.2s11.2-5,11.2-11.2
		C823.3,463.3,818.3,458.3,812.1,458.3z M803.1,467.4c-0.5,0-0.9-0.4-0.9-0.9c0-0.5,0.4-0.9,0.9-0.9s0.9,0.4,0.9,0.9
		C804,467.1,803.6,467.4,803.1,467.4z M804.6,466.1l-1.4-1.4c0.7-1.3,1.7-2.4,2.8-3.3l1.4,1.4C806.1,463.6,805.2,464.8,804.6,466.1z
		"/>
	<path class="st5" d="M805.1,448.8c-3.9,0-7.1,3.2-7.1,7.1c0,3.9,3.2,7.1,7.1,7.1c3.9,0,7.1-3.2,7.1-7.1
		C812.1,452,809,448.8,805.1,448.8z M799.4,454.6c-0.3,0-0.6-0.2-0.6-0.6c0-0.3,0.3-0.6,0.6-0.6s0.6,0.3,0.6,0.6
		C799.9,454.4,799.7,454.6,799.4,454.6z M800.3,453.8l-0.9-0.9c0.5-0.8,1.1-1.5,1.8-2.1l0.9,0.9C801.3,452.2,800.7,453,800.3,453.8z
		"/>
	<path class="st5" d="M823.3,455.6c-2.5,0-4.6,2.1-4.6,4.6c0,2.5,2.1,4.6,4.6,4.6s4.6-2.1,4.6-4.6
		C827.9,457.7,825.9,455.6,823.3,455.6z M819.6,459.4c-0.2,0-0.4-0.2-0.4-0.4c0-0.2,0.2-0.4,0.4-0.4c0.2,0,0.4,0.2,0.4,0.4
		C820,459.2,819.8,459.4,819.6,459.4z M820.2,458.9l-0.6-0.6c0.3-0.5,0.7-1,1.2-1.4l0.6,0.6C820.8,457.8,820.5,458.3,820.2,458.9z"
		/>
</g>
<g>
	<path class="st5" d="M727.4,457.1c-5.1,0-9.2,4.1-9.2,9.2c0,5.1,4.1,9.2,9.2,9.2c5.1,0,9.2-4.1,9.2-9.2
		C736.6,461.2,732.5,457.1,727.4,457.1z M720,464.6c-0.4,0-0.7-0.3-0.7-0.7c0-0.4,0.3-0.7,0.7-0.7c0.4,0,0.7,0.3,0.7,0.7
		C720.7,464.3,720.4,464.6,720,464.6z M721.2,463.5l-1.2-1.2c0.6-1,1.4-2,2.3-2.7l1.1,1.1C722.5,461.5,721.7,462.4,721.2,463.5z"/>
	<path class="st5" d="M744.6,461.6c-6.2,0-11.2,5-11.2,11.2c0,6.2,5,11.2,11.2,11.2c6.2,0,11.2-5,11.2-11.2
		C755.8,466.6,750.8,461.6,744.6,461.6z M735.6,470.8c-0.5,0-0.9-0.4-0.9-0.9c0-0.5,0.4-0.9,0.9-0.9c0.5,0,0.9,0.4,0.9,0.9
		C736.5,470.4,736.1,470.8,735.6,470.8z M737,469.5l-1.4-1.4c0.7-1.3,1.7-2.4,2.8-3.3l1.4,1.4C738.6,467,737.6,468.1,737,469.5z"/>
	<path class="st5" d="M737.5,452.1c-3.9,0-7.1,3.2-7.1,7.1c0,3.9,3.2,7.1,7.1,7.1s7.1-3.2,7.1-7.1
		C744.6,455.3,741.4,452.1,737.5,452.1z M731.8,457.9c-0.3,0-0.6-0.2-0.6-0.6c0-0.3,0.3-0.6,0.6-0.6s0.6,0.3,0.6,0.6
		C732.4,457.7,732.1,457.9,731.8,457.9z M732.7,457.1l-0.9-0.9c0.5-0.8,1.1-1.5,1.8-2.1l0.9,0.9
		C733.7,455.5,733.1,456.3,732.7,457.1z"/>
	<path class="st5" d="M755.8,458.9c-2.5,0-4.6,2.1-4.6,4.6c0,2.5,2.1,4.6,4.6,4.6s4.6-2.1,4.6-4.6
		C760.4,461,758.3,458.9,755.8,458.9z M752.1,462.7c-0.2,0-0.4-0.2-0.4-0.4c0-0.2,0.2-0.4,0.4-0.4c0.2,0,0.4,0.2,0.4,0.4
		C752.4,462.6,752.3,462.7,752.1,462.7z M752.7,462.2l-0.6-0.6c0.3-0.5,0.7-1,1.2-1.4l0.6,0.6C753.3,461.2,752.9,461.6,752.7,462.2z
		"/>
</g>
<g>
	<path class="st5" d="M266.8,459.7c-3.6,0-6.5,2.9-6.5,6.5c0,3.6,2.9,6.5,6.5,6.5c3.6,0,6.5-2.9,6.5-6.5
		C273.3,462.6,270.4,459.7,266.8,459.7z M261.6,465.1c-0.3,0-0.5-0.2-0.5-0.5c0-0.3,0.2-0.5,0.5-0.5c0.3,0,0.5,0.2,0.5,0.5
		C262.1,464.8,261.9,465.1,261.6,465.1z M262.4,464.3l-0.8-0.8c0.4-0.7,1-1.4,1.6-1.9l0.8,0.8C263.3,462.9,262.8,463.5,262.4,464.3z
		"/>
	<path class="st5" d="M278.9,462.9c-4.3,0-7.9,3.5-7.9,7.9c0,4.3,3.5,7.9,7.9,7.9c4.3,0,7.9-3.5,7.9-7.9
		C286.8,466.4,283.3,462.9,278.9,462.9z M272.6,469.4c-0.3,0-0.6-0.3-0.6-0.6c0-0.3,0.3-0.6,0.6-0.6c0.3,0,0.6,0.3,0.6,0.6
		C273.2,469.1,272.9,469.4,272.6,469.4z M273.6,468.5l-1-1c0.5-0.9,1.2-1.7,2-2.3l1,1C274.7,466.7,274,467.5,273.6,468.5z"/>
	<path class="st5" d="M273.9,456.3c-2.7,0-5,2.2-5,5c0,2.7,2.2,5,5,5c2.7,0,5-2.2,5-5C278.9,458.5,276.7,456.3,273.9,456.3z
		 M269.9,460.4c-0.2,0-0.4-0.2-0.4-0.4c0-0.2,0.2-0.4,0.4-0.4c0.2,0,0.4,0.2,0.4,0.4C270.3,460.2,270.1,460.4,269.9,460.4z
		 M270.6,459.8l-0.6-0.6c0.3-0.6,0.7-1.1,1.2-1.5l0.6,0.6C271.3,458.7,270.8,459.2,270.6,459.8z"/>
	<path class="st5" d="M286.8,461.1c-1.8,0-3.2,1.5-3.2,3.2s1.5,3.2,3.2,3.2s3.2-1.5,3.2-3.2S288.6,461.1,286.8,461.1z M284.2,463.7
		c-0.1,0-0.3-0.1-0.3-0.3s0.1-0.3,0.3-0.3c0.1,0,0.3,0.1,0.3,0.3S284.3,463.7,284.2,463.7z M284.6,463.3l-0.4-0.4
		c0.2-0.4,0.5-0.7,0.8-1l0.4,0.4C285,462.6,284.8,463,284.6,463.3z"/>
</g>
<g>
	<path class="st5" d="M528.2,462.5c-3.6,0-6.5,2.9-6.5,6.5c0,3.6,2.9,6.5,6.5,6.5c3.6,0,6.5-2.9,6.5-6.5
		C534.6,465.4,531.7,462.5,528.2,462.5z M522.9,467.9c-0.3,0-0.5-0.2-0.5-0.5c0-0.3,0.2-0.5,0.5-0.5s0.5,0.2,0.5,0.5
		C523.4,467.6,523.2,467.9,522.9,467.9z M523.8,467.1l-0.8-0.8c0.4-0.7,1-1.4,1.6-1.9l0.8,0.8C524.7,465.6,524.1,466.3,523.8,467.1z
		"/>
	<path class="st5" d="M540.3,465.7c-4.3,0-7.9,3.5-7.9,7.9s3.5,7.9,7.9,7.9c4.3,0,7.9-3.5,7.9-7.9S544.6,465.7,540.3,465.7z
		 M533.9,472.2c-0.3,0-0.6-0.3-0.6-0.6c0-0.3,0.3-0.6,0.6-0.6s0.6,0.3,0.6,0.6C534.5,471.9,534.3,472.2,533.9,472.2z M534.9,471.2
		l-1-1c0.5-0.9,1.2-1.7,2-2.3l1,1C536,469.5,535.3,470.3,534.9,471.2z"/>
	<path class="st5" d="M535.3,459.1c-2.7,0-5,2.2-5,5c0,2.7,2.2,5,5,5c2.7,0,5-2.2,5-5C540.3,461.3,538,459.1,535.3,459.1z
		 M531.3,463.1c-0.2,0-0.4-0.2-0.4-0.4c0-0.2,0.2-0.4,0.4-0.4c0.2,0,0.4,0.2,0.4,0.4C531.7,463,531.5,463.1,531.3,463.1z
		 M531.9,462.6l-0.6-0.6c0.3-0.6,0.7-1.1,1.2-1.5l0.6,0.6C532.6,461.5,532.2,462,531.9,462.6z"/>
	<path class="st5" d="M548.1,463.9c-1.8,0-3.2,1.5-3.2,3.2c0,1.8,1.5,3.2,3.2,3.2s3.2-1.5,3.2-3.2
		C551.4,465.3,549.9,463.9,548.1,463.9z M545.5,466.5c-0.1,0-0.3-0.1-0.3-0.3c0-0.1,0.1-0.3,0.3-0.3c0.1,0,0.3,0.1,0.3,0.3
		C545.8,466.4,545.6,466.5,545.5,466.5z M545.9,466.1l-0.4-0.4c0.2-0.4,0.5-0.7,0.8-1l0.4,0.4C546.4,465.4,546.1,465.7,545.9,466.1z
		"/>
</g>
<g>
	<path class="st5" d="M829.8,455.7c-3.6,0-6.5,2.9-6.5,6.5c0,3.6,2.9,6.5,6.5,6.5c3.6,0,6.5-2.9,6.5-6.5
		C836.3,458.6,833.4,455.7,829.8,455.7z M824.6,461c-0.3,0-0.5-0.2-0.5-0.5c0-0.3,0.2-0.5,0.5-0.5s0.5,0.2,0.5,0.5
		C825.1,460.8,824.9,461,824.6,461z M825.4,460.3l-0.8-0.8c0.4-0.7,1-1.4,1.6-1.9l0.8,0.8C826.3,458.8,825.8,459.5,825.4,460.3z"/>
	<path class="st5" d="M841.9,458.9c-4.3,0-7.9,3.5-7.9,7.9c0,4.3,3.5,7.9,7.9,7.9c4.3,0,7.9-3.5,7.9-7.9
		C849.8,462.4,846.2,458.9,841.9,458.9z M835.6,465.4c-0.3,0-0.6-0.3-0.6-0.6c0-0.3,0.3-0.6,0.6-0.6s0.6,0.3,0.6,0.6
		C836.2,465.1,835.9,465.4,835.6,465.4z M836.6,464.4l-1-1c0.5-0.9,1.2-1.7,2-2.3l1,1C837.7,462.7,837,463.5,836.6,464.4z"/>
	<path class="st5" d="M836.9,452.3c-2.7,0-5,2.2-5,5s2.2,5,5,5c2.7,0,5-2.2,5-5S839.7,452.3,836.9,452.3z M832.9,456.3
		c-0.2,0-0.4-0.2-0.4-0.4c0-0.2,0.2-0.4,0.4-0.4c0.2,0,0.4,0.2,0.4,0.4C833.3,456.2,833.1,456.3,832.9,456.3z M833.6,455.8l-0.6-0.6
		c0.3-0.6,0.7-1.1,1.2-1.5l0.6,0.6C834.2,454.6,833.8,455.2,833.6,455.8z"/>
	<path class="st5" d="M849.8,457c-1.8,0-3.2,1.5-3.2,3.2s1.5,3.2,3.2,3.2c1.8,0,3.2-1.5,3.2-3.2S851.5,457,849.8,457z M847.1,459.7
		c-0.1,0-0.3-0.1-0.3-0.3c0-0.1,0.1-0.3,0.3-0.3c0.1,0,0.3,0.1,0.3,0.3C847.4,459.6,847.3,459.7,847.1,459.7z M847.6,459.3l-0.4-0.4
		c0.2-0.4,0.5-0.7,0.8-1l0.4,0.4C848,458.6,847.7,458.9,847.6,459.3z"/>
</g>
<g>
	<path class="st5" d="M689.4,462c-4.5,0-8.1,3.6-8.1,8.1c0,4.5,3.6,8.1,8.1,8.1c4.5,0,8.1-3.6,8.1-8.1
		C697.5,465.6,693.9,462,689.4,462z M682.9,468.7c-0.4,0-0.6-0.3-0.6-0.6c0-0.4,0.3-0.6,0.6-0.6s0.6,0.3,0.6,0.6
		C683.6,468.4,683.3,468.7,682.9,468.7z M684,467.7l-1-1c0.5-0.9,1.2-1.7,2-2.4l1,1C685.1,465.9,684.4,466.8,684,467.7z"/>
	<path class="st5" d="M704.5,466c-5.4,0-9.8,4.4-9.8,9.8c0,5.4,4.4,9.8,9.8,9.8s9.8-4.4,9.8-9.8C714.3,470.4,709.9,466,704.5,466z
		 M696.6,474c-0.4,0-0.8-0.3-0.8-0.8c0-0.4,0.4-0.8,0.8-0.8c0.4,0,0.8,0.4,0.8,0.8C697.4,473.7,697,474,696.6,474z M697.9,472.9
		l-1.3-1.3c0.6-1.1,1.5-2.1,2.4-2.9l1.2,1.2C699.2,470.7,698.4,471.7,697.9,472.9z"/>
	<path class="st5" d="M698.3,457.7c-3.4,0-6.2,2.8-6.2,6.2c0,3.4,2.8,6.2,6.2,6.2c3.4,0,6.2-2.8,6.2-6.2
		C704.5,460.5,701.7,457.7,698.3,457.7z M693.3,462.8c-0.3,0-0.5-0.2-0.5-0.5s0.2-0.5,0.5-0.5c0.3,0,0.5,0.2,0.5,0.5
		S693.6,462.8,693.3,462.8z M694.1,462.1l-0.8-0.8c0.4-0.7,0.9-1.3,1.5-1.8l0.8,0.8C695,460.7,694.5,461.3,694.1,462.1z"/>
	<path class="st5" d="M714.3,463.7c-2.2,0-4,1.8-4,4c0,2.2,1.8,4,4,4s4-1.8,4-4C718.4,465.5,716.6,463.7,714.3,463.7z M711.1,467
		c-0.2,0-0.3-0.1-0.3-0.3s0.1-0.3,0.3-0.3c0.2,0,0.3,0.1,0.3,0.3S711.2,467,711.1,467z M711.6,466.5l-0.5-0.5c0.3-0.5,0.6-0.9,1-1.2
		l0.5,0.5C712.1,465.6,711.8,466,711.6,466.5z"/>
</g>
<g>
	<path class="st5" d="M749,459.4c-3.6,0-6.5,2.9-6.5,6.5c0,3.6,2.9,6.5,6.5,6.5s6.5-2.9,6.5-6.5C755.5,462.3,752.6,459.4,749,459.4z
		 M743.8,464.8c-0.3,0-0.5-0.2-0.5-0.5c0-0.3,0.2-0.5,0.5-0.5c0.3,0,0.5,0.2,0.5,0.5C744.3,464.5,744.1,464.8,743.8,464.8z
		 M744.7,464l-0.8-0.8c0.4-0.7,1-1.4,1.6-1.9l0.8,0.8C745.6,462.6,745,463.2,744.7,464z"/>
	<path class="st5" d="M761.1,462.6c-4.3,0-7.9,3.5-7.9,7.9c0,4.3,3.5,7.9,7.9,7.9c4.3,0,7.9-3.5,7.9-7.9
		C769,466.1,765.5,462.6,761.1,462.6z M754.8,469.1c-0.3,0-0.6-0.3-0.6-0.6c0-0.3,0.3-0.6,0.6-0.6c0.3,0,0.6,0.3,0.6,0.6
		C755.4,468.8,755.1,469.1,754.8,469.1z M755.8,468.2l-1-1c0.5-0.9,1.2-1.7,2-2.3l1,1C756.9,466.4,756.2,467.2,755.8,468.2z"/>
	<path class="st5" d="M756.2,456c-2.7,0-5,2.2-5,5c0,2.7,2.2,5,5,5s5-2.2,5-5C761.1,458.2,758.9,456,756.2,456z M752.1,460.1
		c-0.2,0-0.4-0.2-0.4-0.4c0-0.2,0.2-0.4,0.4-0.4c0.2,0,0.4,0.2,0.4,0.4C752.5,459.9,752.4,460.1,752.1,460.1z M752.8,459.5l-0.6-0.6
		c0.3-0.6,0.7-1.1,1.2-1.5l0.6,0.6C753.5,458.4,753.1,458.9,752.8,459.5z"/>
	<path class="st5" d="M769,460.8c-1.8,0-3.2,1.5-3.2,3.2s1.5,3.2,3.2,3.2c1.8,0,3.2-1.5,3.2-3.2S770.8,460.8,769,460.8z
		 M766.4,463.4c-0.1,0-0.3-0.1-0.3-0.3s0.1-0.3,0.3-0.3s0.3,0.1,0.3,0.3S766.5,463.4,766.4,463.4z M766.8,463l-0.4-0.4
		c0.2-0.4,0.5-0.7,0.8-1l0.4,0.4C767.2,462.3,767,462.7,766.8,463z"/>
</g>
<g>
	<path class="st5" d="M772.2,458c-3.6,0-6.5,2.9-6.5,6.5c0,3.6,2.9,6.5,6.5,6.5s6.5-2.9,6.5-6.5C778.7,460.9,775.8,458,772.2,458z
		 M767,463.3c-0.3,0-0.5-0.2-0.5-0.5c0-0.3,0.2-0.5,0.5-0.5c0.3,0,0.5,0.2,0.5,0.5C767.5,463.1,767.3,463.3,767,463.3z M767.8,462.5
		l-0.8-0.8c0.4-0.7,1-1.4,1.6-1.9l0.8,0.8C768.7,461.1,768.2,461.8,767.8,462.5z"/>
	<path class="st5" d="M784.3,461.2c-4.3,0-7.9,3.5-7.9,7.9c0,4.3,3.5,7.9,7.9,7.9c4.3,0,7.9-3.5,7.9-7.9
		C792.2,464.7,788.7,461.2,784.3,461.2z M778,467.6c-0.3,0-0.6-0.3-0.6-0.6c0-0.3,0.3-0.6,0.6-0.6c0.3,0,0.6,0.3,0.6,0.6
		C778.6,467.3,778.3,467.6,778,467.6z M779,466.7l-1-1c0.5-0.9,1.2-1.7,2-2.3l1,1C780.1,464.9,779.4,465.7,779,466.7z"/>
	<path class="st5" d="M779.3,454.5c-2.7,0-5,2.2-5,5c0,2.7,2.2,5,5,5s5-2.2,5-5C784.3,456.7,782.1,454.5,779.3,454.5z M775.3,458.6
		c-0.2,0-0.4-0.2-0.4-0.4c0-0.2,0.2-0.4,0.4-0.4s0.4,0.2,0.4,0.4C775.7,458.4,775.6,458.6,775.3,458.6z M776,458l-0.6-0.6
		c0.3-0.6,0.7-1.1,1.2-1.5l0.6,0.6C776.7,456.9,776.2,457.4,776,458z"/>
	<path class="st5" d="M792.2,459.3c-1.8,0-3.2,1.5-3.2,3.2s1.5,3.2,3.2,3.2c1.8,0,3.2-1.5,3.2-3.2S794,459.3,792.2,459.3z
		 M789.6,462c-0.1,0-0.3-0.1-0.3-0.3s0.1-0.3,0.3-0.3s0.3,0.1,0.3,0.3S789.7,462,789.6,462z M790,461.6l-0.4-0.4
		c0.2-0.4,0.5-0.7,0.8-1l0.4,0.4C790.4,460.8,790.2,461.2,790,461.6z"/>
</g>
<g>
	<path class="st5" d="M615.5,452.6c-3.6,0-6.5,2.9-6.5,6.5c0,3.6,2.9,6.5,6.5,6.5c3.6,0,6.5-2.9,6.5-6.5
		C622,455.5,619.1,452.6,615.5,452.6z M610.3,458c-0.3,0-0.5-0.2-0.5-0.5c0-0.3,0.2-0.5,0.5-0.5s0.5,0.2,0.5,0.5
		C610.8,457.7,610.6,458,610.3,458z M611.1,457.2l-0.8-0.8c0.4-0.7,1-1.4,1.6-1.9l0.8,0.8C612,455.8,611.5,456.4,611.1,457.2z"/>
	<path class="st5" d="M627.6,455.8c-4.3,0-7.9,3.5-7.9,7.9c0,4.3,3.5,7.9,7.9,7.9c4.3,0,7.9-3.5,7.9-7.9
		C635.5,459.3,631.9,455.8,627.6,455.8z M621.2,462.3c-0.3,0-0.6-0.3-0.6-0.6c0-0.3,0.3-0.6,0.6-0.6s0.6,0.3,0.6,0.6
		C621.9,462,621.6,462.3,621.2,462.3z M622.3,461.4l-1-1c0.5-0.9,1.2-1.7,2-2.3l1,1C623.4,459.6,622.7,460.4,622.3,461.4z"/>
	<path class="st5" d="M622.6,449.2c-2.7,0-5,2.2-5,5c0,2.7,2.2,5,5,5c2.7,0,5-2.2,5-5C627.6,451.4,625.4,449.2,622.6,449.2z
		 M618.6,453.3c-0.2,0-0.4-0.2-0.4-0.4c0-0.2,0.2-0.4,0.4-0.4c0.2,0,0.4,0.2,0.4,0.4C619,453.1,618.8,453.3,618.6,453.3z
		 M619.3,452.7l-0.6-0.6c0.3-0.6,0.7-1.1,1.2-1.5l0.6,0.6C619.9,451.6,619.5,452.1,619.3,452.7z"/>
	<path class="st5" d="M635.5,454c-1.8,0-3.2,1.5-3.2,3.2c0,1.8,1.5,3.2,3.2,3.2s3.2-1.5,3.2-3.2C638.7,455.4,637.2,454,635.5,454z
		 M632.8,456.6c-0.1,0-0.3-0.1-0.3-0.3s0.1-0.3,0.3-0.3s0.3,0.1,0.3,0.3S633,456.6,632.8,456.6z M633.3,456.2l-0.4-0.4
		c0.2-0.4,0.5-0.7,0.8-1l0.4,0.4C633.7,455.5,633.4,455.9,633.3,456.2z"/>
</g>
<g>
	<path class="st5" d="M574.3,462.6c-4.5,0-8.1,3.6-8.1,8.1c0,4.5,3.6,8.1,8.1,8.1c4.5,0,8.1-3.6,8.1-8.1
		C582.4,466.2,578.8,462.6,574.3,462.6z M567.8,469.2c-0.4,0-0.6-0.3-0.6-0.6c0-0.4,0.3-0.6,0.6-0.6c0.4,0,0.6,0.3,0.6,0.6
		C568.4,468.9,568.1,469.2,567.8,469.2z M568.8,468.2l-1-1c0.5-0.9,1.2-1.7,2-2.4l1,1C570,466.4,569.3,467.3,568.8,468.2z"/>
	<path class="st5" d="M589.4,466.5c-5.4,0-9.8,4.4-9.8,9.8c0,5.4,4.4,9.8,9.8,9.8c5.4,0,9.8-4.4,9.8-9.8
		C599.2,470.9,594.8,466.5,589.4,466.5z M581.5,474.6c-0.4,0-0.8-0.3-0.8-0.8c0-0.4,0.4-0.8,0.8-0.8c0.4,0,0.8,0.4,0.8,0.8
		C582.2,474.2,581.9,474.6,581.5,474.6z M582.7,473.4l-1.3-1.3c0.6-1.1,1.5-2.1,2.4-2.9l1.2,1.2
		C584.1,471.2,583.3,472.3,582.7,473.4z"/>
	<path class="st5" d="M583.2,458.2c-3.4,0-6.2,2.8-6.2,6.2c0,3.4,2.8,6.2,6.2,6.2s6.2-2.8,6.2-6.2
		C589.4,461,586.6,458.2,583.2,458.2z M578.2,463.3c-0.3,0-0.5-0.2-0.5-0.5c0-0.3,0.2-0.5,0.5-0.5s0.5,0.2,0.5,0.5
		C578.7,463.1,578.5,463.3,578.2,463.3z M579,462.6l-0.8-0.8c0.4-0.7,0.9-1.3,1.5-1.8l0.8,0.8C579.8,461.2,579.3,461.9,579,462.6z"
		/>
	<path class="st5" d="M599.2,464.2c-2.2,0-4,1.8-4,4c0,2.2,1.8,4,4,4s4-1.8,4-4C603.2,466,601.4,464.2,599.2,464.2z M595.9,467.5
		c-0.2,0-0.3-0.1-0.3-0.3s0.1-0.3,0.3-0.3c0.2,0,0.3,0.1,0.3,0.3S596.1,467.5,595.9,467.5z M596.5,467l-0.5-0.5
		c0.3-0.5,0.6-0.9,1-1.2l0.5,0.5C597,466.1,596.7,466.6,596.5,467z"/>
</g>
<g>
	<path class="st5" d="M592.1,457.7c-3.6,0-6.5,2.9-6.5,6.5c0,3.6,2.9,6.5,6.5,6.5s6.5-2.9,6.5-6.5
		C598.6,460.6,595.7,457.7,592.1,457.7z M586.8,463c-0.3,0-0.5-0.2-0.5-0.5c0-0.3,0.2-0.5,0.5-0.5s0.5,0.2,0.5,0.5
		C587.4,462.8,587.1,463,586.8,463z M587.7,462.3l-0.8-0.8c0.4-0.7,1-1.4,1.6-1.9l0.8,0.8C588.6,460.8,588,461.5,587.7,462.3z"/>
	<path class="st5" d="M604.2,460.9c-4.3,0-7.9,3.5-7.9,7.9c0,4.3,3.5,7.9,7.9,7.9s7.9-3.5,7.9-7.9
		C612,464.4,608.5,460.9,604.2,460.9z M597.8,467.4c-0.3,0-0.6-0.3-0.6-0.6c0-0.3,0.3-0.6,0.6-0.6s0.6,0.3,0.6,0.6
		C598.4,467.1,598.2,467.4,597.8,467.4z M598.8,466.4l-1-1c0.5-0.9,1.2-1.7,2-2.3l1,1C599.9,464.7,599.3,465.5,598.8,466.4z"/>
	<path class="st5" d="M599.2,454.3c-2.7,0-5,2.2-5,5s2.2,5,5,5c2.7,0,5-2.2,5-5S601.9,454.3,599.2,454.3z M595.2,458.3
		c-0.2,0-0.4-0.2-0.4-0.4c0-0.2,0.2-0.4,0.4-0.4s0.4,0.2,0.4,0.4C595.6,458.2,595.4,458.3,595.2,458.3z M595.8,457.8l-0.6-0.6
		c0.3-0.6,0.7-1.1,1.2-1.5l0.6,0.6C596.5,456.6,596.1,457.2,595.8,457.8z"/>
	<path class="st5" d="M612,459c-1.8,0-3.2,1.5-3.2,3.2s1.5,3.2,3.2,3.2c1.8,0,3.2-1.5,3.2-3.2S613.8,459,612,459z M609.4,461.7
		c-0.1,0-0.3-0.1-0.3-0.3c0-0.1,0.1-0.3,0.3-0.3s0.3,0.1,0.3,0.3C609.7,461.6,609.5,461.7,609.4,461.7z M609.8,461.3l-0.4-0.4
		c0.2-0.4,0.5-0.7,0.8-1l0.4,0.4C610.3,460.6,610,460.9,609.8,461.3z"/>
</g>
<g>
	<path class="st5" d="M611.4,469.2c-3.6,0-6.5,2.9-6.5,6.5c0,3.6,2.9,6.5,6.5,6.5s6.5-2.9,6.5-6.5
		C617.9,472.1,615,469.2,611.4,469.2z M606.1,474.5c-0.3,0-0.5-0.2-0.5-0.5c0-0.3,0.2-0.5,0.5-0.5c0.3,0,0.5,0.2,0.5,0.5
		C606.7,474.2,606.4,474.5,606.1,474.5z M607,473.7l-0.8-0.8c0.4-0.7,1-1.4,1.6-1.9l0.8,0.8C607.9,472.3,607.3,472.9,607,473.7z"/>
	<path class="st5" d="M623.5,472.3c-4.3,0-7.9,3.5-7.9,7.9c0,4.3,3.5,7.9,7.9,7.9c4.3,0,7.9-3.5,7.9-7.9
		C631.3,475.9,627.8,472.3,623.5,472.3z M617.1,478.8c-0.3,0-0.6-0.3-0.6-0.6c0-0.3,0.3-0.6,0.6-0.6c0.3,0,0.6,0.3,0.6,0.6
		C617.7,478.5,617.5,478.8,617.1,478.8z M618.1,477.9l-1-1c0.5-0.9,1.2-1.7,2-2.3l1,1C619.2,476.1,618.6,476.9,618.1,477.9z"/>
	<path class="st5" d="M618.5,465.7c-2.7,0-5,2.2-5,5c0,2.7,2.2,5,5,5s5-2.2,5-5C623.5,467.9,621.2,465.7,618.5,465.7z M614.5,469.8
		c-0.2,0-0.4-0.2-0.4-0.4c0-0.2,0.2-0.4,0.4-0.4s0.4,0.2,0.4,0.4C614.9,469.6,614.7,469.8,614.5,469.8z M615.1,469.2l-0.6-0.6
		c0.3-0.6,0.7-1.1,1.2-1.5l0.6,0.6C615.8,468.1,615.4,468.6,615.1,469.2z"/>
	<path class="st5" d="M631.3,470.5c-1.8,0-3.2,1.5-3.2,3.2c0,1.8,1.5,3.2,3.2,3.2c1.8,0,3.2-1.5,3.2-3.2
		C634.6,471.9,633.1,470.5,631.3,470.5z M628.7,473.1c-0.1,0-0.3-0.1-0.3-0.3s0.1-0.3,0.3-0.3s0.3,0.1,0.3,0.3
		S628.8,473.1,628.7,473.1z M629.1,472.8l-0.4-0.4c0.2-0.4,0.5-0.7,0.8-1l0.4,0.4C629.6,472,629.3,472.4,629.1,472.8z"/>
</g>
<path class="st7" d="M964.9,452c0,0.1,0,0.2,0,0.3c-1.8,21.5-209.2,38.8-464.9,38.8S37,473.8,35.1,452.3c0-0.1,0-0.2,0-0.3
	c0-2.3,2.3-4.5,6.9-6.7c5,2.4,12.6,4.8,22.7,7c66.1,14.8,236.1,25.3,435.4,25.3c199.3,0,369.2-10.5,435.4-25.3
	c10-2.2,17.7-4.6,22.7-7C962.5,447.5,964.9,449.7,964.9,452z"/>
</svg>
