<?xml version="1.0" encoding="utf-8"?>
<!-- Generator: Adobe Illustrator 24.1.3, SVG Export Plug-In . SVG Version: 6.00 Build 0)  -->
<svg version="1.1" id="Layer_1" xmlns="http://www.w3.org/2000/svg" xmlns:xlink="http://www.w3.org/1999/xlink" x="0px" y="0px"
	 viewBox="0 0 800 800" style="enable-background:new 0 0 800 800;" xml:space="preserve">
<style type="text/css">
	.st0{opacity:0.4;fill:#BADED3;}
	.st1{opacity:0.7;fill:#BADED3;}
	.st2{opacity:0.66;fill:#BADED3;}
	.st3{opacity:0.76;fill:#BADED3;}
	.st4{opacity:0.86;fill:#BADED3;}
	.st5{opacity:0.94;fill:#BADED3;}
	.st6{opacity:0.88;fill:#BADED3;}
	.st7{opacity:0.84;fill:#BADED3;}
	.st8{opacity:0.5;fill:#FFFFFF;}
</style>
<path class="st0" d="M406.5,316.6l13.7,34.6c1.3,3.4,5.1,5.2,8.6,4.1l35.6-10.9c6.1-1.9,11.3,4.7,8.2,10.2L454,387
	c-1.8,3.2-0.9,7.2,2.1,9.3l30.7,21c5.3,3.6,3.4,11.8-2.9,12.7l-36.8,5.6c-3.6,0.6-6.2,3.8-5.9,7.5l2.7,37.1c0.5,6.4-7.1,10-11.8,5.7
	l-27.3-25.3c-2.7-2.5-6.8-2.5-9.5,0L367.9,486c-4.7,4.3-12.2,0.7-11.8-5.7l2.7-37.1c0.3-3.7-2.3-6.9-5.9-7.5l-36.8-5.6
	c-6.3-1-8.2-9.1-2.9-12.7l30.7-21c3-2.1,3.9-6.1,2.1-9.3l-18.6-32.3c-3.2-5.5,2.1-12.1,8.2-10.2l35.6,10.9c3.5,1.1,7.2-0.7,8.6-4.1
	l13.7-34.6C395.8,310.7,404.2,310.7,406.5,316.6z"/>
<ellipse transform="matrix(0.5 -0.866 0.866 0.5 -132.8671 434.7719)" class="st1" cx="310.1" cy="332.5" rx="9.1" ry="15.3"/>
<ellipse transform="matrix(0.818 -0.5752 0.5752 0.818 -104.4911 343.0795)" class="st2" cx="489.9" cy="336.7" rx="12.5" ry="5.3"/>
<ellipse transform="matrix(0.8854 -0.4648 0.4648 0.8854 -185.441 266.2322)" class="st3" cx="447.3" cy="509.2" rx="9.1" ry="15.3"/>
<circle class="st4" cx="400" cy="299.4" r="5.2"/>
<circle class="st5" cx="298.3" cy="427.8" r="5.2"/>
<ellipse class="st6" cx="352.7" cy="501.5" rx="6.8" ry="8.7"/>
<circle class="st7" cx="506" cy="427.8" r="5.2"/>
<path class="st8" d="M405.2,361l6.4,16.2c0.6,1.6,2.4,2.4,4,1.9l16.6-5.1c2.8-0.9,5.3,2.2,3.8,4.8l-8.7,15.1c-0.9,1.5-0.4,3.4,1,4.3
	l14.4,9.8c2.5,1.7,1.6,5.5-1.4,6l-17.2,2.6c-1.7,0.3-2.9,1.8-2.8,3.5l1.3,17.3c0.2,3-3.3,4.7-5.5,2.7l-12.8-11.8
	c-1.3-1.2-3.2-1.2-4.5,0l-12.8,11.8c-2.2,2-5.7,0.3-5.5-2.7l1.3-17.3c0.1-1.7-1.1-3.2-2.8-3.5l-17.2-2.6c-2.9-0.4-3.8-4.3-1.4-6
	l14.4-9.8c1.4-1,1.8-2.9,1-4.3l-8.7-15.1c-1.5-2.6,1-5.6,3.8-4.8l16.6,5.1c1.6,0.5,3.4-0.3,4-1.9l6.4-16.2
	C400.2,358.3,404.1,358.3,405.2,361z"/>
</svg>
