<?xml version="1.0" encoding="utf-8"?>
<!-- Generator: Adobe Illustrator 24.1.3, SVG Export Plug-In . SVG Version: 6.00 Build 0)  -->
<svg version="1.1" id="Layer_1" xmlns="http://www.w3.org/2000/svg" xmlns:xlink="http://www.w3.org/1999/xlink" x="0px" y="0px"
	 viewBox="0 0 800 800" style="enable-background:new 0 0 800 800;" xml:space="preserve">
<style type="text/css">
	.st0{fill:url(#SVGID_1_);}
	.st1{fill:url(#SVGID_2_);stroke:url(#SVGID_3_);stroke-width:4;stroke-miterlimit:10;}
	.st2{fill:url(#SVGID_4_);}
	.st3{fill:url(#SVGID_5_);stroke:url(#SVGID_6_);stroke-width:4;stroke-miterlimit:10;}
	.st4{fill:#7F7D7A;}
	.st5{opacity:0.25;}
	.st6{fill:#FFFFFF;}
	.st7{fill:url(#SVGID_7_);}
	.st8{fill:url(#SVGID_8_);}
	.st9{fill:none;}
</style>
<g>
	
		<radialGradient id="SVGID_1_" cx="492.9" cy="527.3384" r="88.1512" fx="492.894" fy="536.598" gradientTransform="matrix(1 0 0 -1 0 800)" gradientUnits="userSpaceOnUse">
		<stop  offset="0.1083" style="stop-color:#FFF9F0"/>
		<stop  offset="0.3056" style="stop-color:#FFF5E5"/>
		<stop  offset="0.634" style="stop-color:#FEF0DB"/>
		<stop  offset="1" style="stop-color:#FEEFD7"/>
	</radialGradient>
	<path class="st0" d="M614,253.8c0,16.1-54.2,29.1-121.1,29.1s-121.1-13-121.1-29.1s54.2-29.1,121.1-29.1
		C559.8,224.7,614,237.7,614,253.8z"/>
	<g>
		
			<image style="overflow:visible;enable-background:new    ;" width="247" height="63" xlink:href="7547151A14368E3B.png"  transform="matrix(0.9962 0 0 0.9962 369.8643 222.4018)">
		</image>
	</g>
</g>
<linearGradient id="SVGID_2_" gradientUnits="userSpaceOnUse" x1="371.8" y1="294" x2="614" y2="294" gradientTransform="matrix(1 0 0 -1 0 800)">
	<stop  offset="0" style="stop-color:#FDDFB0"/>
	<stop  offset="0.5053" style="stop-color:#FBDDAF"/>
	<stop  offset="0.6873" style="stop-color:#F4D8AC"/>
	<stop  offset="0.817" style="stop-color:#E9CFA6"/>
	<stop  offset="0.9211" style="stop-color:#D8C19D"/>
	<stop  offset="1" style="stop-color:#C5B294"/>
</linearGradient>
<linearGradient id="SVGID_3_" gradientUnits="userSpaceOnUse" x1="369.8" y1="293" x2="616" y2="293" gradientTransform="matrix(1 0 0 -1 0 800)">
	<stop  offset="0" style="stop-color:#FDDFB0"/>
	<stop  offset="0.5053" style="stop-color:#FBDDAF"/>
	<stop  offset="0.6873" style="stop-color:#F4D8AC"/>
	<stop  offset="0.817" style="stop-color:#E9CFA6"/>
	<stop  offset="0.9211" style="stop-color:#D8C19D"/>
	<stop  offset="1" style="stop-color:#C5B294"/>
</linearGradient>
<path class="st1" d="M614,253.8v475.3c0,16.1-54.2,29.1-121.1,29.1s-121.1-13-121.1-29.1V253.8c0,16.1,54.2,29.1,121.1,29.1
	S614,269.9,614,253.8z"/>
<g>
	
		<radialGradient id="SVGID_4_" cx="291" cy="341.145" r="88.1949" fx="290.994" fy="350.4092" gradientTransform="matrix(1 0 0 -1 0 800)" gradientUnits="userSpaceOnUse">
		<stop  offset="0.1083" style="stop-color:#FFF9F0"/>
		<stop  offset="0.3056" style="stop-color:#FFF5E5"/>
		<stop  offset="0.634" style="stop-color:#FEF0DB"/>
		<stop  offset="1" style="stop-color:#FEEFD7"/>
	</radialGradient>
	<path class="st2" d="M412.1,440c0,16.1-54.2,29.1-121.1,29.1s-121.1-13-121.1-29.1s54.2-29.1,121.1-29.1S412.1,423.9,412.1,440z"/>
	<g>
		
			<image style="overflow:visible;enable-background:new    ;" width="248" height="64" xlink:href="7547151A14368E3E.png"  transform="matrix(0.9915 0 0 0.9915 168.1227 408.2487)">
		</image>
	</g>
</g>
<linearGradient id="SVGID_5_" gradientUnits="userSpaceOnUse" x1="169.9" y1="190.5" x2="412.1" y2="190.5" gradientTransform="matrix(1 0 0 -1 0 800)">
	<stop  offset="0" style="stop-color:#FDDFB0"/>
	<stop  offset="0.5053" style="stop-color:#FBDDAF"/>
	<stop  offset="0.6873" style="stop-color:#F4D8AC"/>
	<stop  offset="0.817" style="stop-color:#E9CFA6"/>
	<stop  offset="0.9211" style="stop-color:#D8C19D"/>
	<stop  offset="1" style="stop-color:#C5B294"/>
</linearGradient>
<linearGradient id="SVGID_6_" gradientUnits="userSpaceOnUse" x1="167.9" y1="189.5" x2="414.1" y2="189.5" gradientTransform="matrix(1 0 0 -1 0 800)">
	<stop  offset="0" style="stop-color:#FDDFB0"/>
	<stop  offset="0.5053" style="stop-color:#FBDDAF"/>
	<stop  offset="0.6873" style="stop-color:#F4D8AC"/>
	<stop  offset="0.817" style="stop-color:#E9CFA6"/>
	<stop  offset="0.9211" style="stop-color:#D8C19D"/>
	<stop  offset="1" style="stop-color:#C5B294"/>
</linearGradient>
<path class="st3" d="M412.1,440v309.9c0,16.1-54.2,29.1-121.1,29.1s-121.1-13-121.1-29.1V440c0,16.1,54.2,29.1,121.1,29.1
	S412.1,456.1,412.1,440z"/>
<path class="st4" d="M297.7,449.8v15.6h-6.6v-15.6c0-1.1,1.5-2,3.3-2C296.2,447.8,297.7,448.7,297.7,449.8z"/>
<g class="st5">
	<circle class="st6" cx="295.1" cy="411.2" r="54.3"/>
	<g>
		<g>
			<g>
				<g>
					<path class="st6" d="M267.8,479.7c-0.5-0.5-1.6,2.7-1.9,3.2C267.3,482.6,268.1,478.9,267.8,479.7z"/>
					<path class="st6" d="M280.3,475.6l-0.5,1.3c0.7-1,1.5-1.9,2.2-2.9C281.4,474.5,280.9,475.1,280.3,475.6z"/>
					<path class="st6" d="M289.6,477.2c-0.2-2.9-1-2.8-2-2.2c-1,0.6-2.2,1.6-2.9,0.4l-0.1-1.3c-0.5,1.5-1,3-1.5,4.4
						c1.1-0.2,2.5-1,3.6-1.5C287.9,476.6,289,476.3,289.6,477.2z"/>
					<path class="st6" d="M294.6,489.7c-0.4-2.2,1.3-1.9-1.4-0.7c0.1,0.2,0.2,0.4,0.2,0.6C293.7,489.5,294,489.6,294.6,489.7z"/>
					<path class="st6" d="M293.5,489.6C292.3,489.7,294.2,491.5,293.5,489.6L293.5,489.6z"/>
					<path class="st6" d="M298.9,488.2c-0.5,0.7-1,1.4-1.5,2.1c0.4,1.3,1.8,1.5,1.3,2.5C300.3,491.6,299.9,490.3,298.9,488.2z"/>
					<path class="st6" d="M300,484l-0.7,0.9C299.5,485.4,299.7,485.6,300,484z"/>
					<path class="st6" d="M297.8,486.7c0.5-0.6,1-1.2,1.5-1.9c-0.3-0.9-0.4-2.8-0.7,0.7C298.7,483.8,298.4,485.5,297.8,486.7z"/>
					<path class="st6" d="M296.8,485.9c-0.9-1.2-1.9-2-0.5-4c-1.3,0.4-1.9,1.6-1.8,2.6S295.4,486.4,296.8,485.9z"/>
					<path class="st6" d="M290.6,471.3c-0.3-0.6-0.5-1.1-0.7-1.7l-0.9,1.8c0.2-0.4,0.6,0,1,0.3C290.2,472,290.5,472.2,290.6,471.3z"
						/>
					<path class="st6" d="M308.9,490.1c-0.1-1.2-1.1-3.1-1.4-4.6l-0.9,1.6C307.2,487.7,308.5,488.3,308.9,490.1z"/>
					<path class="st6" d="M307.4,485.4c0.4-0.8,0.8-1.5,1.2-2.3C307.2,483.1,307.1,484.1,307.4,485.4z"/>
					<path class="st6" d="M299.8,477.6c-0.7,1.5-1.4,3-2.2,4.5c1-1.5,1.9-3.1,2.7-4.6L299.8,477.6z"/>
					<path class="st6" d="M315.5,488.8l-0.3,3c0.3-1.5,0.5-3,0.7-4.6L315.5,488.8z"/>
					<path class="st6" d="M319.6,487.1c0,2.5,2.2,3.4,1.9,5c1.1-0.8,1.5-3.1,1.7-5.1C322.6,488.3,321.5,488.5,319.6,487.1z"/>
					<path class="st6" d="M323.7,484c-0.2,0.7-0.4,1.8-0.5,3C323.5,486.3,323.7,485.4,323.7,484z"/>
					<path class="st6" d="M311.5,483.2c0.3,0.7,0.9,2.5,2.1,3.1l-1.4-3.2C311.9,483.1,311.7,483.1,311.5,483.2z"/>
					<path class="st6" d="M312.1,482.9L312.1,482.9c0.7,0,1.2,0,1.4-0.1C313.3,482.9,312.9,482.9,312.1,482.9z"/>
					<path class="st6" d="M311.3,483.2c0.1,0,0.1,0,0.2,0C311.4,482.8,311.3,482.7,311.3,483.2z"/>
					<path class="st6" d="M304.1,480.3c0.7-2,2-4.3,0-7C303.8,475.8,305,477.3,304.1,480.3z"/>
					<path class="st6" d="M309.7,479.2c-0.6-0.1-1.2-0.3-1.7-0.5c0.2,0.9,0.7,2.1,0.5,3.1C308.8,481,309.3,480.1,309.7,479.2z"/>
					<polygon class="st6" points="310.2,477.9 309.7,479.2 310.3,479.3 					"/>
					<path class="st6" d="M319.7,482.1c0.2-1.7,0.9-2.1,1.7-2.6c-1.2-0.3-2.2-0.3-3.1,0C318.5,480.6,318.7,482.6,319.7,482.1z"/>
					<path class="st6" d="M315.9,482.3c0-0.1,0.1-0.1,0.1-0.2C315.8,481.9,315.7,481.8,315.9,482.3z"/>
					<path class="st6" d="M329.6,475.8c-0.1-0.2-0.3-0.3-0.4-0.5c0.1,0.2,0.2,0.3,0.2,0.5H329.6z"/>
					<path class="st6" d="M318,479c-0.9-0.4-1,0.6-1.1,1.7c0.4-0.5,0.9-0.9,1.5-1.1C318.2,479.1,318.1,478.8,318,479z"/>
					<path class="st6" d="M325.5,481.6c-0.6-0.5-1.3-0.9-1.9-1.2C324.4,481.2,325.8,482.5,325.5,481.6z"/>
					<path class="st6" d="M316.5,482.9c0,0.1,0,0.1-0.1,0.2C316.9,483.8,316.8,483.4,316.5,482.9z"/>
					<path class="st6" d="M316.5,482.9c0.2-0.6,0.3-1.5,0.3-2.3c-0.3,0.4-0.6,0.8-0.8,1.4C316.2,482.3,316.4,482.6,316.5,482.9z"/>
					<path class="st6" d="M320.9,455.5c0.8,1.4,1.2,2.9,1.1,3.8c-0.1,0.4-0.2,0.7-0.6,0.8c-0.4,0-0.9-0.3-1.5-0.9
						c0,2.6,5.2,11.7,9.3,16.2c-0.6-1.3-1.2-2.3-0.7-4.8c-0.7-0.6-1.9-1-3-1.8s-2-1.8-2.1-3.3c0.5-1.1,0.9-1.1,1.5-0.6
						s1.2,1.4,2,1.8c-1.3-1.5-1.5-3.1-1.8-4.8c-0.3-1.8-0.8-3.7-2.5-6.1c0,0.8-0.1,1.7-0.2,2.5C321.9,457.5,321.6,456,320.9,455.5z"
						/>
					<path class="st6" d="M326.2,476.5l-0.5,0.7c0.9,0.2,2,1.1,4.1,2.8c0.4-1.9,0-3.1-0.4-4l-3.3,1.1L326.2,476.5z"/>
					<path class="st6" d="M322.9,478.4c-0.8-3.4,0-5.4-2.4-8.4c-1.5,0.9-0.1,3.1-0.6,4.9c1.3-0.9,1.3-0.4,1.3,0.5s0,2.1,1.5,2.6
						c-0.4,0.8-0.9,1.1-1.3,1.5c0.7,0.2,1.4,0.5,2.2,0.9c-0.1-0.1-0.1-0.1-0.2-0.2l0,0l0,0c-0.3-0.4-0.4-0.6-0.2-0.4v-0.1
						C323.1,479.2,323,478.8,322.9,478.4c1.2,0.3,0.5,0.8,0.4,1.3c0.1,0.2,0.1,0.3,0.2,0.5l0,0c0.8-1,1.5-2.1,2.3-3.1
						C324.9,476.9,324.2,477.5,322.9,478.4z"/>
					<path class="st6" d="M304.3,465.8c0.1,0.3,0.2,0.5,0.2,0.8C304.6,466.2,304.6,465.9,304.3,465.8z"/>
					<path class="st6" d="M305.7,467.7c-0.1,0.5,0,1.9-0.7,1.6c-0.7-0.9-0.3-1.6-0.5-2.7c-0.2,1-0.9,2.7,0.6,4.1l0.1-0.5
						c1.2,1,3.6,5,3.5,5.5C307.7,472.7,306.9,470.6,305.7,467.7z"/>
					<path class="st6" d="M313.5,472.7c0.6-0.7,1.2-1.6,1.7-2.3c-0.7-0.8-1.4-1.6-2-2.4l0.6,1.7
						C312.3,469.4,313.2,471.4,313.5,472.7z"/>
					<path class="st6" d="M330.7,477.2l1.4,3.4c-0.3-1.7-0.7-3.6-1-5.3L330.7,477.2z"/>
					<polygon class="st6" points="333.6,475 335.1,477.8 335,475.6 					"/>
					<path class="st6" d="M289.9,376.3l-0.2,0.9C289.8,377,289.8,376.7,289.9,376.3z"/>
					<path class="st6" d="M292.7,376.2v-1.6C292.5,375.5,292.5,376.2,292.7,376.2z"/>
					<path class="st6" d="M368.2,398.8c2.7-1.6,7-4,3.5-3.1l-3.3,1.1C369.1,397.4,368.8,398.1,368.2,398.8z"/>
					<path class="st6" d="M324.6,366.6c-0.1,0.3-0.2,0.7-0.4,1c0.8-0.9,1.6-1.7,2.3-2.4C325.9,365.6,325.3,366,324.6,366.6z"/>
					<path class="st6" d="M316.3,378.3c0.2-0.8,0.3-1.5,0.5-2.3C316.5,376.8,316.3,377.5,316.3,378.3z"/>
					<path class="st6" d="M277.6,384.8c0.5,1,1.1,2.1,1.6,3.1C279.7,387.7,278.6,386.3,277.6,384.8z"/>
					<path class="st6" d="M358.3,448.1c1.7-0.2,2.6-0.6,3.1-1.2C359,447.1,356,446.4,358.3,448.1z"/>
					<path class="st6" d="M286.6,339.6c-0.4,0.7-0.5,1.4-0.4,2.2C286.6,341.1,286.8,340.4,286.6,339.6z"/>
					<path class="st6" d="M362.8,444.2c-0.4,0-0.6,0.1-1,0.1c0.2,0.9,0.3,1.9-0.3,2.6C363.2,446.8,364.5,446.2,362.8,444.2z"/>
					<path class="st6" d="M266.4,430.4c-0.1,0.1-0.1,0.2-0.3,0.3C266.6,430.5,266.6,430.5,266.4,430.4z"/>
					<path class="st6" d="M260.6,471.5c-0.4,0-0.8-0.2-1.3-0.4C259.4,471.4,259.8,471.6,260.6,471.5z"/>
					<path class="st6" d="M346.3,467.4C345.9,468.1,346.5,467.7,346.3,467.4L346.3,467.4z"/>
					<path class="st6" d="M334.7,459.3c-0.1-0.4-0.4-0.8-0.9-1.5C334.3,458.5,334.6,459,334.7,459.3z"/>
					<path class="st6" d="M345.5,429.7L345.5,429.7C344.8,429.6,345,429.6,345.5,429.7z"/>
					<path class="st6" d="M344.4,467c0.5,0.1,1,0.2,1.4,0.1C345.5,467,345,467,344.4,467z"/>
					<path class="st6" d="M345.6,468.1c-0.3,0.1-0.5,0.1-0.7,0.2C345.1,468.8,345.5,469,345.6,468.1z"/>
					<path class="st6" d="M347,466.5c-0.3,0.3-0.7,0.5-1.2,0.6c0.3,0.1,0.5,0.2,0.5,0.3C346.4,467.2,346.6,466.9,347,466.5z"/>
					<path class="st6" d="M252.7,400.2c-0.1,0-0.2,0-0.3,0C253.7,401,253.5,400.8,252.7,400.2z"/>
					<path class="st6" d="M329.6,395.1c0,0,0.1,0,0.2,0l0.1-0.1L329.6,395.1z"/>
					<path class="st6" d="M326.7,395c4.1-1.4,3.8-0.8,3.2,0c3-1.6,5.9-3.1,8.8-4.8C334.6,391.7,330.6,393.3,326.7,395z"/>
					<path class="st6" d="M283.7,378.9c0.6,0.9,1.2,1.8,1.8,2.6c0.7,5.2-0.3,3.7,1.7,7.6c-0.9-2.6-1.2-4-1.2-4.8s0.3-1.1,0.6-1.3
						c0.6-0.4,1.3-0.9,0.1-6.2c0.4,0.7,0.7,1.4,1.1,2.1c-0.2-0.1-0.1,0.6-0.2,0.5c1.1,2.4,0.8,0.4,0.6-2c-0.2-2.4-0.4-5.3,0.5-4.7
						c0.7,0.7,1.3,2.2,1.1,3.6c0.3-1,0.5-1.9,0.8-2.9c0.4,0.2,0.5,2,0.1,1.9c0.6-0.4,1.2-0.6,1.8-1v0.3c0.1-1.7,0.7-4.4,1-5.5
						c0.6,1.5-0.2,1.2,0,2.5c0.3-0.9,0.7-1.8,1.1-2.7c0.3,1.4,0.1,2.8-0.1,3.8s-0.6,1.6-1,1.4c0.7,5.4,0.8,4.7,1.1,3.4
						c0.3-1.2,0.9-3,1.7,0.2c-0.3,0.4-0.6,0.9-0.9,1.3c0.2,3.1,0.5,4.1,0.7,4.8c0.3,0.7,0.6,1.1,0.8,3c0-1-0.2-3.4-0.4-5.9
						c-0.2-2.5-0.3-5.1,0.3-6.4c0.3,0.8,0.6,1.2,1.4-0.9c-0.3,3.9,0.3,3,1,2.9l-0.7,5.1c0.8-1.4,1.2-4,2-6.2
						c0.8,0.6,0.3,4.5-0.2,7.8c0.4,0.5,0.6-1.1,0.8-2.9c0.2-1.8,0.4-3.9,1.3-4.1c0.4,1.1,0.8,1.2,1.5,0.6c0.7-0.5,1.6-1.7,2.7-2.9
						c0.3,2-1.1,2.9-1.2,4.4c0.6-1.2,1.3-2.4,2-3.6c0.1,0.2-0.3,1.3-0.6,1.9c1.1-1.3,1.7-4.8,3.3-5.8c1.1-2.6,1-0.5,0.9,1.6
						s-0.2,4.1,1.8,1.5c-0.3,1.4-1.5,2.8-2.2,4.6c1.7-1.6,2.4-2.1,3.1-2.8c0.8-0.7,1.5-1.5,3.6-3.5c-0.2,1.2-0.3,2.4-0.5,3.6
						c0.6-1.9,1.7-3.7,3.1-5.3c1.4-1.6,3.1-3,4.7-4.2c0.6-1.8,1.2-3.4,1.4-4.1c1.2-0.4,2.4-0.7,3.6-1c-0.2,0.9-1.5,2.2-3,3.7
						c0.4-0.3,0.7-0.5,1-0.8c-0.4,2.1-2.5,4.2-4.5,6.2c0.4-1,0.8-2.1,1.2-3.1c-2.2,2.3-4.4,5-6,7.6c0.4-0.4,0.9-0.8,1.3-0.9
						c-0.6,0.6-1,1.2-1.3,1.7c-0.2,0.5,0.5-0.4,1.5-1.3c-1,1.7-1.9,3.3-2.9,5l1.4-1.8c-0.1,1.4-0.2,2.8-0.4,4.1c1.2-0.9,2.5-2,3.8-3
						s2.7-2,4.1-2.8c2.8-1.7,5.6-2.9,7.6-2.5c-3.5,2.3-5,4.7-8.5,8.1c1.6-2.1,0.8-2.1-0.4-1.7c-1.2,0.4-2.7,1.2-2.8,0.3
						c0.1,0.9-1.6,2.5-2.2,3.1c1.6-0.7,3.2-1.4,4.9-2c-2.9,2.9-1.8,2.5-2.6,4.1c5.4-5.9,5-2.4,7.6-3.2c-2,1.8-4.3,3.4-4.5,2.1
						c-1.8,2.5,0.2,1.2,2.3-0.1c2.2-1.3,4.5-2.5,2.9-0.4c-0.2-0.2,0-0.6-1.1,0.2c2.3-0.9,1.8,1.7-0.3,2.7l-0.2-0.2
						c0.1,0.5,0.3,1.1,0.8,1.5c0.4,0.5,0.9,1,1.6,1.2c1.4,0.6,3.7,0.6,6.8-0.9c-0.8,0.4-7.3,3.6-8.6,4.2c7.2-2.7,14.6-4.9,22.3-6.5
						c-2.8,1-7.1,3.3-11.3,5.2c-4.2,1.9-8.2,3.5-10,3.6c-0.3,0.4-0.6,0.8-0.5,1c0,0.3,0.5,0.5,1.6,0.5c0.7-0.6,7.5-4,8.2-3.8
						c-2.8,1.9-3.5,2.4-4.1,2.9s-1.1,1-3.5,2.6c0.5-0.4,3-1.3,5.3-2s4.5-1,4.6-0.6c-1.3,0.3-8.5,2.9-9.5,3c3-0.4,6.1-0.8,9.2-0.9
						c-1.7,0-7.3,2.1-9.7,3.2c1.7-0.6,0.2,1.4,1.2,1.6c0.6-0.4,1.2-0.8,1.8-1.2c-0.4,1.1,2.8,0.9,6.1,0.8c3.3-0.1,6.7-0.1,6.7,1.3
						c-1.9-0.1-11.4,1.1-12.4,2.3c2.3-0.1,7.9-0.3,13.4,0c5.4,0.3,10.8,1.2,12.6,2.6L358,409c1,0.7,2.1,1.4,3.1,2.1
						c-3.4-0.7-8.9-1.8-14.2-2.6c-5.3-0.8-10.4-1.3-13.2-1.6c-2,0.9-3.1,0.5-2.8,1.5c-2.4,0.5-3.8-0.2-3.9-0.4l-1.5,2.1
						c2.7-0.2,4.1,0.2,5.3,0.6c1.2,0.4,2.3,0.9,4.6,0.9c-1.8-1-3.8-1.8-5.7-2.5c2.7-0.2,6.5-0.1,9.6,0.5c1.5,0.3,2.9,0.7,3.8,1.2
						s1.3,1.1,1,1.6c-1.1,0.3-3.5,0.1-5.8-0.1s-4.6-0.4-5.5-0.4c1.8,0.2,3.5,1.8,2.2,1.9c-1-0.3-1.9-0.6-2.9-0.9
						c-1,0.4,0.7,0.9,2.1,1.4s2.3,1.2-0.4,1.5c-0.2,0.2-2,0.3-3.3,0.3c-1.3,0.1-2.2,0.1-0.6,0.4c6.1,0.4,25,2.5,29.5,3.9
						c-0.2,0.1-1.8,0.8-3.7,1.4c-1.9,0.6-4.2,1.1-5.8,1.1c-2.5,0-5.2-1-7.8-1.9c-2.6-0.9-5.2-1.7-7.3-1.8c1.4,0.3,3.1,1.1,3.6,1.4
						c-1.3,0.2-4.4-1.2-4-0.1c5.3,1.4-0.9,1.9,4.4,1.6c0.6,0.7,0.3,0.9-0.2,1.1s-1.1,0.3-1.2,0.9c1.7,0.3,4.5,1.4,7,2.8
						c2.4,1.3,4.6,2.9,5.1,3.8c-1.3-0.5-3.1-0.9-3.9-1c-0.3,0.6-0.7,1-1.2,1.4s-1,0.7-1.5,1c-1,0.6-2,1.1-2.5,2.2
						c-1.3-0.4-3.1-0.2-5-1.7c0.7,0.7,2.2,1.8,1.9,2.5c-4.7-1.3,0.1-1.6-5.3-3.5c2.7,1.6,3,3.5,4.2,5.4c2.1,1.2,2.7,0.8,2.5-0.1
						s-1.1-2.2-1.7-3.1c3,1.6,5.8,3.6,8,5.8c2.2,2.2,3.7,4.6,4.3,6.7c0.1,1.5-1,1.1-2,0.4s-1.9-1.5-1.6-1.1
						c-1.7,1.4,0.1,3.8,1.5,6.1c0.7,1.1,1.3,2.2,1.4,2.9c0.1,0.8-0.5,1.2-2.1,1.2c-2.1-0.8-3.7-2.3-5.1-3.7
						c-1.4-1.4-2.6-2.8-3.9-3.7c0-1.2,0.9-1.2,2-1.1c1,0.1,2.2,0.3,2.5-0.3c-0.8,0-1.7,0-2.5-0.1c-0.8-1.4-1-2.9,0.4-2.6
						c-0.9-0.4-1.7-0.2-2.3,0.1c-0.3,0.2-0.6,0.4-0.9,0.7c-0.3,0.3-0.7,0.6-1,0.9c-1.3,1.2-2.7,2.8-5.1,2.3c0.6,1.4,1,3.1,2.4,4.1
						l0.3-1.1c1.5,1,2,2.1,2.3,3.1s0.5,1.8,1.6,2c0.3,1.4,0.8,3.1,0.8,4.4c0,0.7-0.1,1.3-0.4,1.7c-0.3,0.4-0.8,0.6-1.5,0.5l-3.3-3.6
						c0.9,1.1,2.9,1.5,2.4,0c0.4,1.1-1.3,0.3-2.6-0.2c-1.3-0.4-2.2-0.5-0.7,2.4c1,0.6,2.1,1.3,3.2,1.9c0.1,1.4,0.6,3.5,0.6,5.2
						c0.1,1.8-0.3,3.1-1.6,2.9c1.7,1.8,1.7,1.6,1.9,1.5c0.1-0.1,0.4-0.2,2.6,1.7c-2.5-2.5-1.4-3.3-0.3-4c1-0.7,1.9-1.4-1.1-3.8
						c2.6,2.2,3.5,2.3,4.5,2.4c0.9,0,1.9-0.1,4.5,1.3c-1.1-1.2-2.6-1.9-0.7-2.5c-0.2-0.4-0.5-1-0.6-1.3c0.1,0,0.1,0,0.2,0
						c-0.1,0-0.1-0.1-0.2-0.1c-0.1-0.2-0.1-0.3-0.1,0c-0.8-0.3-1.6-0.7-2.3-1.3c-1.8-3.4,0.2-5-0.5-7c1.2-0.1,1,1.6,2.6,2.5
						c-0.3-1-0.7-2-1.1-3c1.3,1.2,2.8,1.8,4,2.4s2.1,1.4,1.9,3l1.7-1.6c2.4,0.4,4.3-0.6,3.9-2.4c1.3-0.4-1.5-4.6,0.2-2.2
						c0.1-1.4,0.2-2.8,0.3-4.2l0.8,0.5c1.3-1.3,0.9-3.6,1.2-5.6c0.3-1.9,1.3-3.4,5-3.8c-0.3-1.5-0.8-3,0.9-4.3l3,0.9
						c-0.1-0.9,0.9-1.7,1.8-2.5c0.8-0.8,1.4-1.7,0-2.5c2.1,0.3,3.4,0,4.3-0.7c0.4-0.3,0.7-0.7,0.9-1.2c0.2-0.5,0.3-1,0.3-1.5
						c0.1-2.2-0.6-4.6,0.4-5.9l-4-0.9c0.6-1.8-0.4-3.8-1.7-6.2l-3.6-0.3c-1.4-1.1-0.5-2.1,0.5-3.4c1-1.2,2.3-2.7,2.2-4.2
						c1.4,0.2,1,1,0.1,1.5c2.1-0.8,2.7-1.8,2.7-2.8c-0.1-1-1-1.9-1.9-2.8s-1.9-1.7-2.3-2.6c-0.4-0.8-0.2-1.7,1.1-2.7
						c-1.4-0.6-1.1-1.2-0.3-1.9c0,0.1,0.1,0.1,0.2,0.2c0-0.1,0-0.2,0-0.3c0.6-0.4,1.2-0.9,1.7-1.4c-0.8,0.5-1.5,0.9-1.7,1.3
						c-0.2-0.6-0.8-1.5-1.8-2.2l3.7-1.1c-0.1-0.1-0.1-0.1-0.1-0.2c1.2-1.2-1.9-0.4-4.7,0.7c-0.7-0.3-1.6-0.6-2.5-0.7
						c2.9-1,2.3-1.5,1.7-2c-0.6-0.5-1.2-1,1.9-2.3c-1.6,0.1-2.5-0.8-3.8-1.6c-1.4-0.7-3.2-1.2-6.4-0.3c0.8-0.3,1.1-0.7,1.4-0.3
						c0.4-1.1,0.8-2.3-1.3-2.4l4.4-2.2c-1.1,0.1-2.3,0.2-3.4,0.3c-1.2,0.1-2.3,0.2-3.4,0.4c2.2-2.3,3.5-3.6,7.5-3.9
						c-3.3-0.3-4.1-0.5-4.8-0.8c-0.7-0.3-1.4-0.5-4.5-0.2l2.8-1.4c-0.6-0.8-5,0.2-3-1.6c1-1.2,1.3-2.4,1-3.6
						c-0.1-0.6-0.4-1.2-0.7-1.8c-0.3-0.6-0.7-1.2-1.1-1.8c-1.6-2.6-3.8-5.1-3.7-9.1c-3,3.7-2.6,2.5-2.3,1c0.3-1.5,0.7-3.3-1.9-0.7
						c1.3-1.8,1.5-3.3,3.5-4c-1.8-0.2-2.1-1.6-2.6-2.6s-1.3-1.5-4,0.4c1.1-2,2.5-2.2,3.1-3.4c-0.5,0.2-1.9,0.9-1.4-0.3
						c0.5-1.2,1.5-1.2,2.5-1.7c-2.8-1.7-7,3.7-10.8,8.8c0.3-1.6,0.3-2.5-0.3-2.5c-0.5,0-1.5,0.7-3.1,2.2c0.7-2,1.2-4.3,3.1-4
						c-0.3-0.4-1.2-1.8-2.4-2.6c-1.2-0.8-2.6-0.9-3.8,1.4c0.3-1.3-1-0.9-1.5-0.5c-1.8-1.2-1.8-1.7-3.8-2.1l0.2,1
						c-1.6,2.7-2,2.8-2.4,2.3c-0.3-0.5-0.6-1.6-1.5-1.5l0.3-0.6c-1-2.7-1.6-2.4-2.1-2.1c-0.3,0.2-0.5,0.3-0.8,0
						c-0.2-0.1-0.3-0.4-0.5-0.8s-0.5-0.9-0.8-1.6l-0.8,3.8c-1.3,3.9-1.6,2.6-2.2,0.6c-0.5-2-1.3-4.8-2.7-3.5l0.3,2.3
						c-0.8,1.2-1-1.6-1.4-5c-0.3-3.4-0.7-7.2-1.4-7.8c-0.2-0.8,0.6-1.1,1.1-1.5c-3.1-5.3-1.1,4.9-3.8,5.8c-0.2-2.7,1.3-6.8-0.5-7.5
						c-0.4-1.1-1.9,1-3.5,2.8c-0.8,0.9-1.6,1.7-2.3,1.9c-0.4,0.1-0.7,0.1-1.1-0.1c-0.3-0.2-0.7-0.6-1-1.2c0.6,2.1,1.1,4.1,0,5.8
						c-0.8,0.4-2.1-1.5-3.4-2.6s-2.6-1.6-3,1.8c-0.3-0.5-0.4-1.1-0.5-1.6c-1.2,1.9-4,3.5-4,7.1c-1.9-6.4-3.7-4.2-5.1-2.1
						c-0.7,1.1-1.3,2.1-1.9,2.3c-0.6,0.1-1.4-0.7-2.3-3.6l-3.7,2.1l-0.4-1.2c-1.4,0.1-2,1-2.3,2.2c-0.2,1.2,0,2.7,0.2,4.2
						c-0.9-0.5-1-1.7-1.2-2.3c-2.3-0.3-3.5-0.2-4.1,0.8s-0.5,2.9-0.2,6.3l-2.4-3.2c0.1,0.6-0.3,0.7-1.1,0.7c-0.8,0-1.8-0.1-2.9-0.1
						s-2.2,0.2-3.1,0.7c-0.9,0.5-1.5,1.4-1.5,3c-0.3-0.4-0.7-1-0.8-1.6c-0.1,1.6-1,2.3-2.3,2.7c-1.3,0.4-3,0.4-4.3,0.8
						c-2.7,0.7-4.4,2.1,0.6,7.3c0.3,1.4,0.7,2.9,1.1,4.4c1.5-1,2.6,0.1,3.7,1.4c1.1,1.4,2.3,3,3.6,3.2c0,0.7-1.3,0.7-2.6,0.2
						c-1.3-0.4-2.6-1.2-2.4-2l0.7,0.2c-2.8-2.5-4-2.1-5-1.4s-1.7,1.6-3.8,0.2c-0.8,1.6-1.9,3-3.1,4.3c-0.6,0.7-1.2,1.4-1.8,2.1
						s-1.2,1.4-1.8,2.1s-1.2,1.4-1.8,2.1s-1.1,1.5-1.6,2.2c-1,1.5-1.9,3.1-2.5,4.8c1.9,0.3,3.9,0.6,5.8,0.9
						c-0.3,0.7-0.6,1.4-0.9,2.1c-1.5,0.2-4.6-0.3-4-1.9c-1.7,0-1.2,0.9-0.1,1.8c1.1,0.9,2.8,1.8,3.4,1.9c-1.5,1.3-3.1,0.7-4.4-0.2
						c-1.3-0.9-2.1-2.1-2.3-1.6l0.1,1.5l0.7-0.2c1,0.8,2.2,1.4,3,1.9c0.8,0.6,1.2,1.2,1,2.1c-1.3,1.1-3.7,0.1-3.9,0.6
						c-0.4-0.1-0.6,0.1-0.3,0.8l-0.9,3c1.6-0.3,3.2-0.5,4.7-0.7c2.1,1.5-0.6,2.6,4.8,1.8c-4.1,0.5-4.9,3.3-5,5.9
						c0,2.6,0.9,5.1-0.3,5.8c0.9,0.4,1.5,0.8,2,1.2c0.5,0.4,0.9,0.8,1.1,1.2c0.5,0.9,0.5,1.8,0.5,2.9c0.9-0.7,5.9-1.8,5.6-0.1
						c-5.3,0.7-6.4,1.7-6.9,3s-0.5,2.7-4,4.5c2.3-1.4,2.9-0.1,3.8,1c0.9,1.1,2.2,1.8,5.2-0.3c-0.3,1.7-3.8,1.3-5.8,3.3
						c1.3,0.6,2,1.4,2.3,2.4c0.2,0.5,0.2,1,0.3,1.6s0.1,1.2,0.1,1.8c0.1,2.4-0.2,5.4,1.8,7.1c1.3-0.7,2.7-2.4,5-2.6
						c-1.6,1.9-3.2,3.8-4.7,5.8c0.5,0.2,2.4-0.7,3.6-1.1c1.3-0.5,2-0.5,0.5,1.6c0.8-0.9,2.1-2.2,2.8-1.9c0,1.4,0.2,2.6,0.6,3.8
						c0.2,0.6,0.5,1.1,0.8,1.6s0.7,0.9,1.1,1.4c0.8,0.9,1.7,1.7,2.6,2.4c0.5,0.4,0.9,0.8,1.4,1.1l1.5,1c2,1.3,3.7,2.8,5.2,4.8
						c0.7,1,1.3,2.2,1.8,3.6c0.5,1.5,0.9,3.1,1.1,5.1c0.3-3,1.2-2.8,2.1-2.4c-0.2-0.9,1.8-3,2.7-4.7c0.2,2.1,0.4,4.4,0.8,6.6
						c1.6-2.2,2.5-1.8,3.5-1.5c0.9,0.4,1.8,0.7,3-1.5l-1.5,0.3c2-2.4,2.8-5.7,3.7-9.1c0.9-3.5,2-7.1,3.8-10.5
						c-1,1.4-1.5,1.4-1.6,0.8s0.1-1.9,0.2-3c0.3-2.3,0.6-4.2-2.9-0.6c0.5-1.5,1.7-1.9,2.4-3.5c-2.2,2.6-3.1,2.7-3.1,0.9l0.6-0.6
						c-1.4-0.6-2-1.6-2.1-3.1c-0.1-0.7-0.1-1.5-0.1-2.3s-0.1-1.7-0.2-2.6l-2.6,2.8c-0.1-0.9,0.7-1.8,1.2-2.7c-4.8,3.3,1,1.7-4,5.5
						c2.4-3.1,1.7-4,1-5c-0.4-0.5-0.6-1.1-0.4-1.8c0.2-0.8,1-1.8,2.6-3.2c-0.5-0.8-3.4,2.8-3.9,2l1.8-1.6l-2.7,1.5
						c0-0.9,2.3-2.8,4-3.9c-0.1,0.3,0.7,0.1,0.9,0.1c1-1.1,0.5-1.4-0.1-1.6s-1.5-0.2-1.2-0.5c-0.3,0.5-0.5,1-0.8,1.5
						c-0.8-0.3-1.4-0.7-1.8-1.3c-0.4-0.6-0.7-1.3-1-1.9c-0.2-0.3-0.4-0.6-0.6-0.9s-0.5-0.6-0.8-0.9c-0.6-0.5-1.6-1-2.9-1.2l-1.6,0.8
						c-0.5-0.1-0.8-0.3-1.1-0.4c-0.2-0.2-0.3-0.3-0.4-0.5c-0.1-0.3,0.2-0.6,0.4-1c0.6-0.7,1.4-1.4,0.3-2.3h0.4
						c-1.9-0.1-2.9-0.6-2.8-1.3c1.1,0.1,2-0.4,3-0.8s2-0.8,3.2-0.7c-1.9-0.8-2.7-1-3.8-1c-1.1-0.1-2.6,0.1-6-0.4l2.9-0.7
						c-2.7-0.3-4.1-0.3-5-1.6c1.3,0.5,2.4,0.2,3.6,0c1.2-0.3,2.5-0.5,4.3,0c1.6-0.7,1.9-1.2,1.7-1.7c-0.2-0.5-0.9-0.9-1.5-1.2
						c-1.2-0.7-2.1-1.5,2.7-1.7c-8.2-1.7-4.6,2-6.4,1.2c-1.4,0.3-2.9,0-4-0.5s-1.7-1.2-1.3-1.7c0.1-0.5,2.7-0.7,5.4-1
						c2.6-0.3,5.3-0.6,5.3-1.5c-0.1,0.2,0.6,0.3,0.5,0.5c1.1-0.2,0.4-0.6-0.1-1.1c-0.2-0.2-0.5-0.5-0.4-0.6c0.1-0.2,0.5-0.3,1.4-0.4
						c-2.4-0.7-2.2-1-2.3-1.3c0-0.3-0.3-0.5-3.3-1.3l1,2.2c-0.7-0.7-2.8-1.7-4.2-2.7s-2.1-2.1-0.2-2.6c1.2,0.5,2.7,1.5,3.5,2.1
						c1.9,0-1-1.4,1.1-1.4c3,1,3.2,1.6,3.2,2.3c0,0.7-0.2,1.5,2,2.5c1.4,0,0.4-0.6-0.2-1.2c-0.5-0.5-0.6-0.8,2.7,0.3
						c-4.1-1.4-3.8-1.9-3.1-2.2c0.7-0.4,1.6-0.6-1.3-2.3l3.6,1.3c-0.5-0.4-2.1-1.4-1.8-1.7c1.5,0.8,2.9,1.5,4.4,2.3
						c-1.8-1.1-0.8-1.3,0.4-1.3c1.2,0,2.7,0.2,1.8-0.6c-0.3,0.8-1.4,0.5-2.8-0.1s-3.1-1.5-4.5-1.6c-1.8-2.2,0.7-1.6,3.5-0.8
						c2.8,0.8,5.9,2,5.6,0.5c0.3,0.5-2.5,0.1-3.9-1.2c0.5-0.1,1.1-0.1,1.8,0c0.8,0.1,1.6,0.3,2.6,0.7c0.1-0.9-0.8-1.3-1.9-1.7
						c-1.1-0.4-2.5-0.8-3.3-1.7c4.3,1.8-1.2-1.7-1.9-3.3l3.3,2.1c0.4-0.1,0.6-0.2,0.6-0.3c0.1-0.2,0-0.4-0.2-0.6
						c-0.4-0.5-1.2-1.1-1.9-1.7c-1.5-1.2-3-2.4-1.1-2.4c1.3,1.3,2.5,2.6,3.8,3.8c-0.2-0.5-0.4-1.1-0.5-1.6l3.4,2.8
						c-1-1.4-1.3-2-1.1-2.3c0.2-0.3,0.8-0.3,1.6-0.2c-2.2-1.6-5.3-4.6-4.6-5.5c2.2,1,2.5,2.7,3,1.3c1.5,1.9,3.6,4.1,0.6,2.2
						c0.9,0.9,1.6,1.8,2.5,2.7c2.4,1.3,1.4-0.7,1.7-1.1c-0.2,0-0.5,0-0.9-0.3c-0.5-0.8-0.9-1.7-1.3-2.5s-0.8-1.7-1.1-2.6
						c1.2,0.8,1.8,1.9,2.5,2.8c0-0.5-1-2-0.8-2.7c2,2.4,4.2,4.8,4.7,6.4c-0.4-1.2-0.8-2.4-1.2-3.7c1,0.9,3,2.3,3.6,3.4
						c0.9,0.5,0.3-1-0.1-2.4c-0.4-1.5-0.7-3.1,0.5-2.3c-0.3-0.5-0.5-1.1-0.5-1.6c0.7,0,1.7,0.7,2.4,0.9c0.4,0.1,0.6,0,0.8-0.3
						c0.2-0.3,0.2-0.9,0-2c1.1,1.6,2.1,3.1,3.1,4.7c0.1-0.8-0.8-2.3-1.7-3.9c-0.9-1.6-1.9-3.4-1.5-4.8c0.5-2.3,2.3,4.2,3.4,5.4
						c-0.3-1.4-0.7-3.5-0.6-4.9c0.1-1.3,0.6-1.8,1.9,0.1C284.4,379.1,283.9,378.4,283.7,378.9z M296.9,374.5c-0.3,0.8-0.9,3.3-1.1,1
						C296.3,371.1,296.5,373.2,296.9,374.5z M322.6,374.3c-1,0.9-0.9,0.1-0.4-1.3C322.6,372.9,322.9,373.3,322.6,374.3z M350,459.2
						c0-0.1-0.1-0.1-0.1-0.2C351.8,459.1,351.1,459,350,459.2z M347,459.9c0.2,0.6,0.6,0.9,1.1,1.2c-0.6-0.8-0.3-1.3,0.4-1.6
						C347.6,459,346.9,458.8,347,459.9z M226.1,401.2l1.1-0.3C228.1,402.1,227.2,401.6,226.1,401.2z"/>
					<path class="st6" d="M317.2,377c0.3-0.6,0.6-1.2,1-1.8C317.8,375.6,317.4,376.2,317.2,377z"/>
					<path class="st6" d="M277.3,384.3C277.3,384.2,277.3,384.3,277.3,384.3c0,0.2,0.2,0.4,0.3,0.6L277.3,384.3z"/>
					<path class="st6" d="M332.7,419.3c0.6-0.2,1.3-0.2,2.1-0.1C333.9,419,333.1,418.9,332.7,419.3z"/>
					<path class="st6" d="M341,473.9l0.8-1.8c-0.6,0.7-1.3,0.2-2-0.1C340.4,472.7,341.4,473.6,341,473.9z"/>
					<path class="st6" d="M317.9,460c0,0.5-0.3,0.2-0.3,0.7l0.8,1.6C319.1,461.9,319,460.3,317.9,460z"/>
					<path class="st6" d="M332.4,464.4c-2-2.6-2-1.1-2.5-0.1c0,0,0.1-0.1,0.2-0.1c1.1,2,1.7,2.5,2,2.3
						C332.3,466.3,332.4,465.3,332.4,464.4z"/>
					<path class="st6" d="M329.7,464.5c-0.2,0.3-0.4,0.5-0.7,0.5C329.8,466.6,329.5,465.1,329.7,464.5z"/>
					<path class="st6" d="M346.3,463.7c-1-0.2,2.6,3.2,1.5,2.5c1.2,1.7,1,0.1,0.4-1.3c-0.3-0.7-0.7-1.5-1.1-1.8
						C346.8,462.8,346.5,462.8,346.3,463.7z"/>
					<polygon class="st6" points="325.7,456 328.2,459.2 326.8,456.2 					"/>
					<path class="st6" d="M332.9,454.1l-1.8,0.1c0.4,0.5,0.6,0.9,0.6,1.3C332.5,455,333.7,455,332.9,454.1z"/>
					<path class="st6" d="M331.7,455.5c-0.4,0.2-0.7,0.6-0.5,1.2C331.4,456.5,331.8,456.1,331.7,455.5z"/>
					<polygon class="st6" points="326.5,454 327.3,454.4 328.2,454.1 					"/>
					<path class="st6" d="M343.6,442.9l-0.2-2c-1.1-0.8-2-0.9-1.8-0.2C342.3,441.6,342.4,442.4,343.6,442.9z"/>
					<path class="st6" d="M332.2,440.1c0.9,0.2,1.6,0.8,2.8,1.4l-3.9-3L332.2,440.1z"/>
					<path class="st6" d="M333.4,436.4c-1.1-0.9-2.5-3.6-2.9-2.2C331.6,435.1,331.8,436.7,333.4,436.4z"/>
					<polygon class="st6" points="346.5,420 346.5,420.4 354.5,421.8 					"/>
					<path class="st6" d="M327.1,404.9c-1.8,1.4,5-0.6,2.7,0.8c1.9,0,1.8-1.2,3.5-1.2C331.2,404.2,332.3,403.6,327.1,404.9z"/>
					<path class="st6" d="M333.4,404.5c0.3,0.1,0.7,0.1,1.3,0.2C334.1,404.6,333.7,404.5,333.4,404.5z"/>
					<path class="st6" d="M263.4,477.9l0.7,2.2c0.1-1,0.1-1.9,0.2-2.9L263.4,477.9z"/>
					<path class="st6" d="M268.5,473.6l-1.7,4.9c0.9-1.3,1.7-2.6,2.6-4C269,474.6,268.2,474.7,268.5,473.6z"/>
					<path class="st6" d="M297.9,385l0.2-1.2c0.1-1.4-0.1-1.5-0.3-1.7C297.8,383.1,297.8,384.1,297.9,385z"/>
					<polygon class="st6" points="289.8,381.5 290,381.6 288.9,377 					"/>
					<path class="st6" d="M285.4,389c0.3,0.1,0.1-1,0.5-0.9C285.7,389,283,383.7,285.4,389z"/>
				</g>
			</g>
		</g>
	</g>
</g>
<radialGradient id="SVGID_7_" cx="294.0727" cy="359.001" r="20.0113" fx="294.2249" fy="369.4904" gradientTransform="matrix(1 0 0 -1 0 800)" gradientUnits="userSpaceOnUse">
	<stop  offset="0" style="stop-color:#FFFFFF"/>
	<stop  offset="6.925797e-02" style="stop-color:#FFFBF4;stop-opacity:0.9931"/>
	<stop  offset="0.5119" style="stop-color:#FDE1B3;stop-opacity:0.9488"/>
	<stop  offset="0.834" style="stop-color:#FBD08B;stop-opacity:0.9166"/>
	<stop  offset="1" style="stop-color:#FBCA7B;stop-opacity:0.9"/>
</radialGradient>
<path class="st7" d="M311.2,447.7c0,2.1-0.4,4.1-1.2,5.9c-1.1,2.6-3,4.9-5.3,6.6c-3,2.2-6.8,3.3-10.6,3.3l0,0h-0.3
	c-4,0-7.9-1.3-10.9-3.8c-2-1.6-3.6-3.7-4.6-6.1c-0.8-1.8-1.2-3.9-1.2-6c0-5,2.4-9.5,6.3-12.4c2.3-1.7,4.1-4,5.1-6.5l3.4-8.4
	c1.1-2.6,4.5-2.6,5.5,0.1l3.4,8.9c0.9,2.5,2.6,4.6,4.7,6.4C308.9,438.7,311.2,442.9,311.2,447.7z"/>
<path class="st4" d="M496.7,263.5v15.6h-6.6v-15.6c0-1.1,1.5-2,3.3-2C495.2,261.5,496.7,262.4,496.7,263.5z"/>
<g class="st5">
	<circle class="st6" cx="492.1" cy="212" r="67.3"/>
	<g>
		<g>
			<g>
				<g>
					<path class="st6" d="M460,292.6c-0.6-0.6-1.6,2.7-2,3.2C459.6,295.6,460.3,291.8,460,292.6z"/>
					<path class="st6" d="M474.4,289.2l-0.5,1.3c0.8-1,1.7-1.9,2.5-2.9C475.7,288.1,475,288.6,474.4,289.2z"/>
					<path class="st6" d="M485.6,291c-0.3-2.9-1.3-2.8-2.5-2.2c-1.2,0.6-2.6,1.5-3.4,0.4l-0.1-1.3c-0.5,1.5-1.1,2.9-1.7,4.4
						c1.3-0.2,2.9-0.8,4.3-1.3C483.5,290.3,484.8,290.1,485.6,291z"/>
					<path class="st6" d="M491.5,303.6c-0.4-2.2,1.5-1.9-1.6-0.7c0.2,0.2,0.2,0.4,0.3,0.6C490.5,303.4,490.9,303.4,491.5,303.6z"/>
					<path class="st6" d="M490.2,303.4C488.8,303.6,491.1,305.3,490.2,303.4L490.2,303.4z"/>
					<path class="st6" d="M496.5,302.1l-1.7,2.1c0.4,1.3,2.1,1.5,1.5,2.5C498.2,305.5,497.7,304.2,496.5,302.1z"/>
					<path class="st6" d="M497.9,297.8c-0.3,0.3-0.6,0.6-0.8,0.9C497.3,299.3,497.5,299.5,497.9,297.8z"/>
					<path class="st6" d="M495.3,300.6l1.8-1.8c-0.3-0.9-0.4-2.8-0.8,0.7C496.3,297.7,496,299.3,495.3,300.6z"/>
					<path class="st6" d="M494.1,299.7c-1-1.2-2.2-2-0.6-4c-1.6,0.4-2.3,1.6-2.2,2.6C491.5,299.3,492.5,300.2,494.1,299.7z"/>
					<path class="st6" d="M486.6,285.1c-0.3-0.6-0.6-1.2-0.9-1.8l-1.1,1.8C485.1,284.3,486.5,286.9,486.6,285.1z"/>
					<path class="st6" d="M508.1,303.7c-0.1-1.2-1.2-3.1-1.5-4.6c-0.3,0.5-0.7,1.1-1.1,1.6C506.3,301.5,507.7,302,508.1,303.7z"/>
					<path class="st6" d="M506.6,299.2c0.5-0.8,1-1.6,1.5-2.4C506.4,296.8,506.2,297.9,506.6,299.2z"/>
					<path class="st6" d="M497.8,291.5c-0.8,1.6-1.8,3-2.7,4.5c1.2-1.5,2.2-3,3.3-4.6L497.8,291.5z"/>
					<path class="st6" d="M515.8,302.2c-0.1,1-0.3,2-0.4,3c0.3-1.5,0.7-3.1,0.9-4.6L515.8,302.2z"/>
					<path class="st6" d="M520.6,300.3c-0.1,2.5,2.4,3.4,1.9,5c1.3-0.9,1.8-3.2,2.2-5.2C524,301.4,522.7,301.6,520.6,300.3z"/>
					<path class="st6" d="M525.5,297c-0.3,0.7-0.5,1.9-0.7,3.1C525.1,299.4,525.4,298.4,525.5,297z"/>
					<path class="st6" d="M511.4,296.7c0.3,0.7,1,2.5,2.3,3l-1.5-3.1C511.9,296.6,511.6,296.6,511.4,296.7z"/>
					<path class="st6" d="M512.1,296.5L512.1,296.5c0.9,0,1.4-0.1,1.7-0.1C513.5,296.4,513,296.4,512.1,296.5z"/>
					<path class="st6" d="M511.2,296.7c0.1,0,0.1,0,0.2,0C511.2,296.4,511.2,296.3,511.2,296.7z"/>
					<path class="st6" d="M502.7,294.1c0.8-2,2.6-4.4,0.1-7C502.5,289.5,503.9,291,502.7,294.1z"/>
					<path class="st6" d="M509.4,292.7c-0.7-0.1-1.4-0.3-2-0.4c0.2,0.9,0.8,2.1,0.5,3.1C508.3,294.6,508.9,293.7,509.4,292.7z"/>
					<polygon class="st6" points="510.1,291.5 509.4,292.7 510.1,292.9 					"/>
					<path class="st6" d="M521,295.2c0.3-1.7,1.2-2.1,2.1-2.7c-1.3-0.2-2.5-0.2-3.6,0.2C519.7,293.8,519.8,295.8,521,295.2z"/>
					<path class="st6" d="M516.6,295.7c0-0.1,0.1-0.1,0.1-0.2C516.5,295.2,516.4,295.1,516.6,295.7z"/>
					<path class="st6" d="M532.7,288.1c-0.1-0.2-0.3-0.3-0.4-0.5c0.1,0.2,0.2,0.3,0.2,0.5H532.7z"/>
					<path class="st6" d="M519.1,292.2c-1-0.4-1.2,0.6-1.4,1.8c0.5-0.5,1.1-1,1.8-1.2C519.4,292.2,519.3,291.9,519.1,292.2z"/>
					<path class="st6" d="M527.7,294.4c-0.7-0.5-1.4-0.8-2.1-1.1C526.4,294.1,527.9,295.2,527.7,294.4z"/>
					<path class="st6" d="M517.3,296.2c0,0.1,0,0.1-0.1,0.2C517.7,297,517.5,296.7,517.3,296.2z"/>
					<path class="st6" d="M517.3,296.2c0.3-0.6,0.4-1.5,0.5-2.3c-0.4,0.4-0.8,0.9-1,1.5C516.9,295.6,517.1,296,517.3,296.2z"/>
					<path class="st6" d="M524.5,267.6c0.8,1.4,1.1,2.9,0.9,3.9c-0.2,1-1,1.3-2.5,0.1c-0.2,2.8,5.2,11.7,9.4,16.1
						c-0.6-1.3-1.2-2.4-0.4-4.9c-0.7-0.6-2.1-1-3.3-1.7s-2.2-1.6-2.2-3.2c1.2-2.5,2.1,0.1,4,1c-1.4-1.5-1.5-3.1-1.7-4.9
						s-0.6-3.8-2.3-6.2c-0.1,0.9-0.3,1.8-0.5,2.7C525.5,269.6,525.3,268.1,524.5,267.6z"/>
					<path class="st6" d="M528.8,289.1l-0.6,0.7c1.1,0.1,2.2,1,4.5,2.6c0.6-2,0.2-3.2-0.2-4.2c-1.3,0.5-2.5,1-3.8,1.4L528.8,289.1z"
						/>
					<path class="st6" d="M524.9,291.2c-0.7-3.4,0.3-5.5-2.2-8.5c-1.9,1.1-0.3,3.2-1,5.1c1.5-1.1,1.5-0.5,1.4,0.4
						c0,0.9-0.1,2.2,1.5,2.6c-0.5,0.8-1,1.2-1.6,1.6c0.8,0.1,1.6,0.4,2.5,0.7c-0.1-0.1-0.1-0.1-0.2-0.2l0,0l0,0
						c-0.3-0.3-0.5-0.6-0.2-0.4v-0.1C525,292.1,525,291.7,524.9,291.2c1.3,0.3,0.5,0.8,0.3,1.3c0.1,0.2,0.1,0.3,0.2,0.5l0,0
						c1-1.1,1.9-2.2,2.8-3.3C527.2,289.7,526.4,290.2,524.9,291.2z"/>
					<path class="st6" d="M503.4,279.5c0.1,0.3,0.2,0.5,0.2,0.8C503.8,279.9,503.8,279.6,503.4,279.5z"/>
					<path class="st6" d="M505.1,281.3c-0.1,0.5-0.1,1.9-0.9,1.7c-0.8-0.9-0.3-1.6-0.5-2.7c-0.3,1-1.2,2.7,0.5,4.1l0.1-0.5
						c1.5,0.9,4.1,4.8,4,5.3C507.3,286.3,506.5,284.2,505.1,281.3z"/>
					<path class="st6" d="M514.2,286c0.8-0.8,1.5-1.6,2.2-2.5c-0.8-0.8-1.5-1.6-2.3-2.4l0.6,1.7C513,282.7,514,284.7,514.2,286z"/>
					<path class="st6" d="M533.8,289.5l1.3,3.4c-0.2-1.8-0.5-3.6-0.8-5.4L533.8,289.5z"/>
					<polygon class="st6" points="537.3,287 538.8,289.8 538.8,287.5 					"/>
					<path class="st6" d="M484.9,164.3l-0.4,1C484.7,164.9,484.9,164.6,484.9,164.3z"/>
					<path class="st6" d="M488.8,164.1v-1.6C488.6,163.4,488.6,164,488.8,164.1z"/>
					<path class="st6" d="M578,197.4c2.7-1.8,6.8-4.4,3.4-3.5l-3.3,1.1C578.9,195.8,578.7,196.7,578,197.4z"/>
					<path class="st6" d="M528.7,156.6c-0.1,0.3-0.2,0.7-0.3,1c0.9-0.8,1.7-1.6,2.4-2.3C530.2,155.7,529.5,156.1,528.7,156.6z"/>
					<path class="st6" d="M520.3,168.2c0.1-0.8,0.2-1.7,0.2-2.5C520.4,166.6,520.3,167.4,520.3,168.2z"/>
					<path class="st6" d="M467.5,174.8c0.5,1.1,1,2.2,1.5,3.2C469.6,177.6,468.4,176.3,467.5,174.8z"/>
					<path class="st6" d="M566.6,255.5c1.8-0.4,2.7-0.9,3.3-1.6C567.4,254.3,564.3,253.8,566.6,255.5z"/>
					<path class="st6" d="M482.1,127.5c-0.5,0.7-0.6,1.4-0.5,2.2C482,129,482.3,128.3,482.1,127.5z"/>
					<path class="st6" d="M571.5,250.8c-0.4,0-0.7,0.2-1,0.2c0.1,1,0.2,2.1-0.6,2.9C571.7,253.7,573.1,252.9,571.5,250.8z"/>
					<path class="st6" d="M452.7,238.5c-0.1,0.1-0.1,0.2-0.2,0.4C452.8,238.6,452.8,238.6,452.7,238.5z"/>
					<path class="st6" d="M451.1,283.6c-0.4,0-1-0.3-1.5-0.5C449.8,283.4,450.2,283.7,451.1,283.6z"/>
					<path class="st6" d="M552.1,277.9C551.5,278.7,552.2,278.3,552.1,277.9L552.1,277.9z"/>
					<path class="st6" d="M540,270.2c-0.1-0.4-0.3-0.9-0.8-1.5C539.6,269.4,539.9,269.9,540,270.2z"/>
					<path class="st6" d="M554.7,235C554.7,235,554.8,235,554.7,235C554,234.9,554.2,234.9,554.7,235z"/>
					<path class="st6" d="M550,277.6c0.5,0.1,1.1,0.1,1.6,0C551.2,277.5,550.7,277.5,550,277.6z"/>
					<path class="st6" d="M551.2,278.7c-0.3,0.1-0.6,0.2-0.8,0.3C550.7,279.5,551,279.7,551.2,278.7z"/>
					<path class="st6" d="M552.9,276.9c-0.3,0.4-0.8,0.6-1.3,0.8c0.3,0.1,0.5,0.1,0.5,0.3C552.2,277.6,552.5,277.3,552.9,276.9z"/>
					<path class="st6" d="M437.1,197.8c-0.1,0-0.2,0-0.3,0C438,198.7,437.9,198.4,437.1,197.8z"/>
					<path class="st6" d="M538.4,190.4c0,0,0.1,0,0.2,0l0.1-0.1L538.4,190.4z"/>
					<path class="st6" d="M535.3,189.9c4.2-1.3,4-0.6,3.4,0.4c2.9-1.6,5.9-3.2,8.7-4.9C543.3,186.8,539.3,188.3,535.3,189.9z"/>
					<path class="st6" d="M476.3,167.5c0.7,0.9,1.4,1.7,2.1,2.6c0.3,5.3-1,3.9,1.4,7.7c-1.8-5.1-0.9-5.8,0.1-6.3
						c0.5-0.3,1-0.6,1.2-1.4c0.2-0.8,0.2-2.3-0.4-5c0.5,0.7,0.9,1.4,1.3,2c-0.2,0-0.1,0.6-0.4,0.5c1.3,2.4,1.1,0.4,1-2.1
						c-0.2-2.4-0.2-5.3,1-4.8c0.9,0.7,1.6,2.2,1.3,3.5c0.4-1,0.8-1.9,1.3-2.9c0.5,0.1,0.6,2,0.1,1.9c0.8-0.4,1.6-0.7,2.4-1.1v0.3
						c0.2-1.7,1-4.4,1.4-5.5c0.8,1.5-0.3,1.2-0.1,2.5c0.5-0.9,0.9-1.8,1.5-2.7c0.3,1.4,0.2,2.8-0.2,3.8c-0.3,1-0.8,1.6-1.3,1.4
						c0.9,5.4,1,4.7,1.5,3.4c0.4-1.2,1.2-3,2.4,0.1c-0.4,0.4-0.8,0.9-1.2,1.4c0.3,3.1,0.7,4,1.1,4.8c0.4,0.7,0.9,1.2,1.3,3.1
						c0-1-0.4-3.4-0.8-6c-0.3-2.5-0.5-5.1,0.3-6.5c0.4,0.8,0.9,1.3,1.9-0.9c-0.3,3.9,0.5,3,1.5,2.9l-0.7,5.1
						c1.1-1.4,1.4-3.9,2.4-6.1c1.1,0.7,0.6,4.6,0.2,8c0.7,0.6,0.8-1,0.9-2.9c0.1-1.8,0.2-3.9,1.4-4.1c0.3,0.6,0.6,0.9,0.9,1
						s0.7,0,1.1-0.2c0.8-0.5,1.9-1.5,3.3-2.7c0.6,2-1.1,2.9-1.2,4.4c0.7-1.2,1.5-2.4,2.2-3.6c0.2,0.2-0.3,1.3-0.5,1.9
						c1.3-1.2,1.7-4.8,3.6-5.6c1.2-2.6,1.2-0.4,1.3,1.8s0.3,4.3,2.4,1.8c-0.2,1.5-1.5,2.7-2.3,4.6c1.9-1.4,2.7-1.8,3.6-2.5
						c0.9-0.6,1.7-1.4,4-3.4c0,1.3-0.1,2.5-0.2,3.8c0.5-2,1.6-3.7,3.1-5.3c1.5-1.5,3.3-2.8,5.1-3.9c0.6-1.8,1-3.5,1.1-4.3
						c1.3-0.3,2.7-0.5,4-0.6c-0.2,0.9-1.4,2.2-3,3.7c0.4-0.2,0.8-0.5,1.1-0.7c-0.2,2.1-2.4,4.2-4.6,6.2c0.3-1.1,0.7-2.1,1-3.2
						c-2.3,2.2-4.6,4.8-6.1,7.4c0.4-0.4,1-0.7,1.4-0.8c-0.6,0.6-1.1,1.2-1.3,1.7s0.6-0.3,1.6-1.2c-0.9,1.7-1.8,3.4-2.8,5l1.4-1.8
						c0.1,1.5,0.2,3,0.2,4.5c1.4-0.9,2.7-1.8,4.1-2.7c1.4-0.9,2.9-1.8,4.4-2.6s3-1.4,4.4-1.7s2.8-0.4,3.9-0.1
						c-3.7,2.2-5,4.7-8.6,8.1c1.5-2.2,0.6-2.3-0.7-2c-1.3,0.2-3,0.9-3.3-0.1c0.3,1-1.4,2.6-2.1,3.1c1.8-0.6,3.6-1,5.4-1.5
						c-2.9,2.8-1.7,2.6-2.4,4.3c5.3-6,5.5-2,8.1-2.6c-2,1.8-4.3,3.3-4.8,1.8c-1.7,2.6,0.4,1.4,2.6,0.3c2.3-1.2,4.6-2.3,3.2,0
						c-0.3-0.3-0.1-0.7-1.3,0c1.2-0.4,1.8,0.2,1.8,0.9c0,0.8-0.6,1.7-1.7,2.2l-0.3-0.3c0.2,0.7,0.5,1.4,1,2c0.5,0.7,1.2,1.3,2,1.7
						c1.6,0.9,4,1.2,7.1-0.2c-0.8,0.4-7.4,3.6-8.7,4.1c7.3-2.4,15-4.3,22.8-5.5c-2.8,1-7.1,3.3-11.3,5.2s-8.2,3.5-10.1,3.3
						c-0.5,0.9-1.1,1.8,1.2,2.1c0.6-0.6,7.4-4.2,8.1-3.9c-2.7,2-3.4,2.6-4,3.2c-0.6,0.6-1,1.1-3.3,2.9c0.5-0.5,2.9-1.4,5.3-2
						c2.3-0.6,4.6-0.9,4.6-0.3c-1.3,0.3-8.5,3-9.6,2.9c3.1-0.3,6.2-0.4,9.3-0.4c-1.7-0.2-7.3,2.1-9.7,3.3c0.8-0.4,0.9,0.1,0.9,0.7
						c0,0.6-0.1,1.3,0.4,1.5c0.6-0.5,1.2-0.9,1.8-1.4c-0.4,1.4,2.9,1.3,6.2,1.4c3.3,0.1,6.9,0.2,6.8,1.9c-1.9-0.2-11.4,0.9-12.4,2.4
						c2.3,0,7.9-0.1,13.4,0.5c5.5,0.5,10.9,1.7,12.7,3.4l-2.6,0.8c1,0.8,2.1,1.7,3.1,2.5c-3.4-0.8-8.9-2.2-14.2-3.3
						s-10.5-1.9-13.4-2.4c-2,1.2-3.1,0.6-2.7,1.9c-2.4,0.6-3.8-0.4-4-0.7c-0.5,1-0.9,2-1.4,3c2.7-0.2,4.1,0.3,5.3,0.9
						c1.2,0.6,2.3,1.2,4.6,1.2c-1.8-1.3-3.8-2.4-5.6-3.4c2.7-0.2,6.5,0,9.6,0.8s5.3,2.2,4.8,3.6c-1.1,0.3-3.5,0.1-5.8-0.1
						c-2.3-0.3-4.7-0.5-5.5-0.5c1.9,0.3,3.5,2.4,2.1,2.6c-0.9-0.4-1.9-0.8-2.8-1.2c-1.1,0.6,0.7,1.2,2.1,1.9c1.4,0.7,2.3,1.5-0.4,2
						c-0.2,0.3-1.9,0.4-3.3,0.6c-1.3,0.1-2.2,0.3-0.7,0.6c6.2,0.2,25.1,2.2,29.5,3.8c-0.2,0.1-1.9,1-3.8,1.8
						c-1.9,0.8-4.3,1.5-5.8,1.6c-2.5,0.1-5.2-1-7.8-2s-5.2-1.9-7.3-1.9c1.4,0.3,3.1,1.2,3.6,1.6c-1.4,0.3-4.4-1.2-4,0.2
						c5.2,1.5-1.2,2.5,4.3,1.7c1.1,1.7-1.4,1.1-1.7,2.7c1.8,0.3,4.5,1.5,6.9,2.9c2.4,1.5,4.5,3.2,4.9,4.3c-1.3-0.6-3.1-0.8-3.9-1
						c-0.4,0.7-0.9,1.3-1.4,1.8s-1.1,0.9-1.7,1.3c-0.6,0.4-1.1,0.8-1.6,1.3c-0.5,0.4-0.9,0.9-1.3,1.6c-1.3-0.3-3.3,0.1-5.1-1.5
						c0.7,0.8,2.1,2,1.8,2.8c-4.9-0.9,0.3-2-5.3-3.6c2.7,1.6,2.8,4,3.8,6c2.2,1.1,2.8,0.6,2.7-0.4s-1-2.6-1.5-3.6
						c3,1.6,5.8,3.7,7.9,6.1c2.1,2.4,3.5,5,3.8,7.4c-0.2,3.4-4.3-1.4-3.8-0.4c-1,0.9-1,2-0.7,3.2c0.3,1.2,1.1,2.4,1.7,3.6
						c1.3,2.4,2.2,4.5-1.2,4.7c-2.2-0.7-3.8-2.1-5.2-3.6c-1.4-1.4-2.6-2.9-3.9-3.8c0.1-1.3,1.1-1.5,2.3-1.5c1.1,0,2.4,0.1,2.7-0.5
						c-0.9,0.1-1.8,0.1-2.7,0.2c-0.7-1.4-0.7-3.2,0.7-3c-1-0.3-1.8-0.1-2.6,0.4c-0.4,0.2-0.8,0.6-1.1,0.9c-0.4,0.3-0.8,0.7-1.2,1.1
						c-0.4,0.4-0.8,0.8-1.2,1.2s-0.9,0.7-1.4,1.1c-1,0.7-2.1,1-3.3,1c0.5,1.5,0.7,3.4,2.3,4.3l0.4-1.3c1.6,0.9,2,2.1,2.3,3.2
						s0.4,2,1.5,2c0.2,1.5,0.5,3.3,0.4,4.7c-0.1,0.7-0.2,1.4-0.6,1.8c-0.4,0.5-0.9,0.7-1.8,0.7l-3.4-3.6c0.9,1.1,3.1,1.3,2.7-0.3
						c0.3,1.2-1.5,0.5-2.9,0.1c-1.4-0.3-2.5-0.3-1.1,2.6c1.1,0.6,2.3,1.2,3.4,1.7c0,1.5,0.3,3.7,0.2,5.5s-0.7,3.3-2.1,3.3
						c3.6,3.5,0.1-0.7,4.8,3c-2.6-2.5-1.2-3.3,0-4.2c1.2-0.8,2.3-1.6-0.9-3.9c2.7,2.1,3.7,2.2,4.7,2.1s2.1-0.3,4.8,1
						c-1.1-1.2-2.7-1.8-0.5-2.6c-0.2-0.4-0.5-1-0.6-1.4c0.1,0,0.1,0,0.2,0c-0.1,0-0.1-0.1-0.2-0.1c-0.1-0.2-0.1-0.3-0.1,0
						c-0.9-0.2-1.7-0.6-2.4-1.2c-0.8-1.7-0.6-3.1-0.3-4.3c0.3-1.2,0.7-2.3,0.4-3.3c1.4-0.2,0.9,1.7,2.6,2.5
						c-0.3-1.1-0.6-2.1-0.9-3.2c1.3,1.2,2.9,1.7,4.2,2.3c1.2,0.6,2.1,1.3,1.8,3.1l2-1.8c2.5,0.2,4.7-1,4.3-3c1.4-0.5-1.2-5,0.4-2.4
						c0.3-1.6,0.5-3.1,0.7-4.7l0.8,0.5c1.4-1.5,1.3-4.2,1.8-6.3c0.4-2.2,1.5-4,5.4-4.7c-0.1-0.8-0.2-1.7-0.1-2.5
						c0.1-0.9,0.4-1.7,1.4-2.5l3,0.8c-0.1-1,1.1-2,2-3s1.5-2,0.1-2.9c4.2,0.4,5.5-1.7,5.7-4.2c0.1-1.3,0.1-2.6,0-3.8
						c0-1.2,0.1-2.3,0.6-3l-4-0.9c0.4-1,0.3-2.2,0-3.3c-0.3-1.2-0.8-2.5-1.5-3.9L573,221c-1.4-1.3-0.5-2.5,0.5-4
						c0.5-0.7,1.1-1.5,1.6-2.4c0.4-0.8,0.7-1.7,0.6-2.6c1.4,0.2,1,1.2,0.2,1.8c2-1,2.7-2.1,2.6-3.3c-0.1-1.1-1-2.2-1.9-3.3
						s-2-2.1-2.4-3c-0.4-1-0.3-2,1-3.1c-1.4-0.8-1.1-1.5-0.3-2.3c0,0.1,0.1,0.2,0.2,0.2c0-0.1,0-0.2,0-0.4c0.6-0.5,1.2-1.1,1.7-1.6
						c-0.8,0.6-1.4,1-1.7,1.4c-0.2-0.7-0.8-1.8-1.9-2.6l3.7-1.2c-0.1-0.1-0.1-0.2-0.2-0.2c1.2-1.4-1.9-0.5-4.7,0.7
						c-0.7-0.4-1.6-0.7-2.6-0.9c2.9-1.1,2.3-1.7,1.6-2.3c-0.6-0.6-1.2-1.2,1.8-2.7c-1.7,0.1-2.6-1.1-4-2s-3.3-1.6-6.5-0.7
						c0.8-0.3,1.1-0.7,1.4-0.3c0.4-1.3,0.7-2.7-1.5-2.9l4.4-2.3c-2.3,0-4.7,0.1-7,0.3c2.1-2.5,3.4-3.9,7.5-4c-3.4-0.5-4.2-0.9-5-1.3
						c-0.8-0.3-1.5-0.7-4.8-0.6l2.9-1.4c-0.7-0.9-5.2-0.3-3.2-2.1c2-2.6,0.5-5.4-1.5-8.3c-2.1-3-4.5-6.1-4.9-10.4
						c-2.9,3.7-2.7,2.4-2.4,0.9c0.2-1.6,0.5-3.5-2.1-1c1.2-1.9,1.4-3.4,3.5-4.1c-2-0.4-2.4-1.9-3.1-3c-0.6-1.1-1.6-1.7-4.4,0
						c1-2,2.6-2.1,3.1-3.3c-0.5,0.2-2.1,0.8-1.6-0.5s1.5-1.1,2.6-1.5c-1.6-1-3.5-0.2-5.4,1.6c-1.9,1.7-4,4.3-5.9,6.9
						c0.2-1.7,0.1-2.6-0.6-2.7c-0.6-0.1-1.7,0.6-3.3,2.1c0.7-2,1-4.4,3.1-4c-0.4-0.4-1.5-2.1-2.9-3s-3-1.1-4.3,1.1
						c0.3-1.3-1.3-1.1-1.8-0.6c-2.1-1.4-2.2-1.9-4.7-2.4l0.3,1c-1.6,2.7-2.2,2.8-2.7,2.2c-0.4-0.5-0.8-1.7-1.8-1.7l0.3-0.6
						c-1.4-2.9-2.1-2.5-2.7-2.2c-0.6,0.3-1.1,0.5-2.6-2.6l-0.8,3.8c-1.3,3.9-1.8,2.5-2.6,0.4c-0.7-2.1-1.8-4.8-3.4-3.5l0.5,2.3
						c-0.9,1.2-1.3-1.7-1.8-5.1c-0.5-3.4-1.1-7.3-1.8-7.9c-0.3-0.7,0.7-1.1,1.3-1.5c-1.8-2.7-2.2-1.4-2.4,0.6c-0.2,2-0.4,4.8-2,5.2
						c-0.3-2.8,1.4-6.8-0.7-7.5c-0.5-1.1-2.2,1-4,2.7c-1.8,1.8-3.7,3.2-5.2,0.7c0.7,2.1,1.3,4.1,0,5.7c-1,0.4-2.5-1.5-4-2.6
						s-3-1.5-3.6,1.9c-0.3-0.5-0.5-1.1-0.6-1.6c-0.7,1-1.9,1.8-2.9,3c-1,1.1-1.9,2.5-2,4.3c-1-3.2-2.1-4.2-3.1-4.2s-2,1.1-2.9,2.3
						c-1.7,2.3-3,4.7-4.9-1.1c-1.5,0.7-3,1.5-4.4,2.3l-0.3-1.2c-1.7,0.2-2.4,1.2-2.8,2.4c-0.3,1.2-0.2,2.8,0,4.3
						c-1-0.4-1-1.7-1.3-2.3c-2.6-0.1-4,0.1-4.7,1.2c-0.7,1.1-0.9,3-0.8,6.6l-2.4-3.1c0.2,1.2-2,0.8-4.5,1c-0.6,0-1.3,0.1-1.9,0.3
						s-1.2,0.4-1.7,0.7c-1,0.7-1.8,1.7-1.9,3.3c-0.3-0.4-0.7-1-0.8-1.7c-0.2,1.8-1.4,2.5-2.8,3.1s-3.3,0.8-4.8,1.3
						c-3,0.9-4.9,2.7,0,8c0.2,1.6,0.5,3.2,0.7,4.8c1.7-1.3,2.8-0.1,3.9,1.3c1.1,1.4,2.1,3.1,3.6,3.3c-0.1,0.8-1.5,0.9-2.9,0.5
						c-1.3-0.3-2.6-1.1-2.4-2.1l0.8,0.2c-2.8-2.6-4.1-2-5.2-1c-1.1,0.9-2,2.1-4.1,0.6c-2.2,3.6-4.9,6.8-7.6,10.2s-5.1,7-6.5,10.9
						c2,0.2,3.9,0.5,5.9,0.7c-0.4,0.8-0.7,1.7-1,2.5c-1.5,0.3-4.7-0.2-3.9-2.1c-1.7,0.1-1.3,1.1-0.2,2.1c1,1,2.7,2,3.3,2.2
						c-1.6,1.6-3.2,0.9-4.4-0.1c-1.2-1-2.1-2.4-2.3-1.8l0.1,1.8l0.8-0.2c2.1,1.9,4.5,2.4,3.8,4.7c-1.4,1.3-3.7,0.2-4,0.8
						c-0.4-0.1-0.6,0.1-0.3,0.9c-0.3,1.2-0.6,2.4-0.9,3.6c1.6-0.3,3.2-0.7,4.7-1c2.1,1.8-0.6,3.2,4.8,2.1c-4.1,0.7-5.1,4-5.1,7.1
						c0,1.6,0.2,3.1,0.3,4.3c0.1,1.2,0,2.2-0.6,2.6c1.8,0.9,2.7,1.9,3.2,2.9s0.5,2.2,0.6,3.5c0.8-0.8,5.9-2,5.6,0.1
						c-5.3,0.6-6.3,1.8-6.8,3.3c-0.4,1.5-0.5,3.2-3.9,5.2c2.2-1.5,3,0,4,1.3s2.3,2.3,5.3,0c-0.2,2-3.8,1.4-5.7,3.5
						c1.3,0.8,2.1,1.7,2.5,2.9s0.5,2.5,0.6,4c0.1,1.4,0.2,2.9,0.5,4.4s0.9,2.8,1.9,3.9c1.3-0.6,2.7-2.5,5.1-2.5
						c-1.6,2-3,4.1-4.4,6.2c0.6,0.3,2.5-0.6,3.8-1s2.1-0.4,0.7,1.8c0.8-0.9,2-2.3,2.8-1.9c0.1,1.6,0.4,3,1,4.3s1.3,2.5,2.3,3.5
						c0.5,0.5,0.9,1,1.4,1.5s1.1,0.9,1.6,1.4c1.1,0.9,2.2,1.7,3.4,2.6c2.3,1.7,4.5,3.4,6.2,5.7c1.8,2.3,3.2,5.2,4,9.5
						c0.1-3.2,1.1-2.8,2.2-2.3c-0.3-1,1.8-3,2.6-4.7c0.4,2.3,0.9,4.6,1.5,6.9c1.6-2.1,2.8-1.7,3.9-1.2s2.2,0.9,3.4-1.3l-1.7,0.3
						c2.1-2.3,2.8-5.6,3.6-9.1c0.8-3.5,1.7-7.3,3.5-10.6c-1.1,1.3-1.6,1.3-1.9,0.7c-0.2-0.7-0.2-2-0.1-3.2c0-2.4,0.1-4.5-3.6-1.1
						c0.4-1.6,1.7-1.8,2.5-3.5c-2.3,2.5-3.4,2.5-3.7,0.5l0.6-0.6c-0.9-0.4-1.5-1-2-1.6s-0.7-1.4-1-2.2c-0.2-0.8-0.4-1.7-0.5-2.7
						c-0.2-1-0.4-2-0.7-3.1l-2.5,2.9c-0.3-1,0.5-2,0.9-2.9c-5,3.1,1.5,2.1-3.7,5.8c1.2-1.6,1.5-2.7,1.4-3.5s-0.6-1.5-1-2.1
						c-0.9-1.3-1.6-2.7,1.7-5.6c-0.7-1.1-3.3,2.9-4.1,1.8l1.7-1.7l-2.7,1.5c-0.1-1.1,2.1-3.1,3.8-4.2c-0.1,0.3,0.8,0.2,1,0.3
						c0.9-1.2,0.3-1.7-0.5-2s-1.6-0.5-1.3-0.9c-0.2,0.6-0.4,1.2-0.6,1.8c-1.9-1-2.7-2.9-3.6-4.6c-0.2-0.4-0.5-0.9-0.8-1.3
						c-0.3-0.4-0.6-0.8-0.9-1.2c-0.8-0.7-1.7-1.4-3.2-1.9l-1.6,0.8c-2.1-0.9-1.7-1.7-1.2-2.4c0.5-0.8,1.3-1.6,0.2-3h0.4
						c-1.9-0.2-2.9-0.9-2.9-1.9c1.1,0.2,2-0.4,3-0.9s2-1,3.2-0.7c-2-1.1-2.7-1.5-3.8-1.6c-1.1-0.1-2.6,0-6-0.8l2.9-0.8
						c-2.7-0.5-4.2-0.5-5-2.2c1.3,0.7,2.4,0.3,3.6,0s2.5-0.6,4.3,0.1c1.6-0.9,2-1.6,1.8-2.2c-0.2-0.6-0.9-1.1-1.5-1.6
						c-1.3-1-2.1-1.9,2.7-2.3c-8.1-2.1-4.7,2.7-6.4,1.7c-1.3,0.3-2.9,0-4-0.6s-1.7-1.5-1.2-2.1c0.1-0.6,2.8-0.9,5.4-1.4
						c2.7-0.4,5.2-0.9,5.4-2.2c-0.1,0.2,0.5,0.4,0.5,0.6c1.1-0.3,0.5-0.9,0-1.4c-0.5-0.6-0.7-1.2,1.1-1.4c-2.4-0.8-2.2-1.2-2.2-1.5
						s-0.2-0.7-3.3-1.5l0.9,2.8c-0.7-0.8-2.7-2-4.1-3.2s-2-2.5,0-3.2c1.2,0.6,2.6,1.7,3.4,2.4c2-0.2-0.9-1.7,1.2-1.8
						c3,1,3.1,1.8,3.1,2.7c0,0.4-0.1,0.9,0.1,1.4s0.7,1.1,1.8,1.7c1.4,0,0.4-0.9-0.1-1.5s-0.5-0.9,2.7,0.2c-4.1-1.5-3.7-2.1-3-2.7
						c0.7-0.5,1.7-1-1.2-2.9l3.6,1.3c-0.5-0.4-2-1.6-1.7-2c1.4,0.9,2.9,1.7,4.3,2.5c-1.7-1.3-0.6-1.6,0.6-1.7c1.3-0.2,2.8-0.1,2-1.1
						c-0.4,1.2-1.6,0.9-2.9,0.3c-1.4-0.6-3-1.5-4.5-1.5c-1.7-2.6,0.9-2.2,3.7-1.4c2.8,0.7,6.1,1.7,6-0.2c0.3,0.6-2.8,0.5-4.1-0.9
						c1-0.3,2.7-0.4,4.7,0.3c0.2-1.2-0.7-1.6-1.8-2c-1.1-0.4-2.5-0.6-3.3-1.7c4.4,1.6-1-2-1.6-3.8l3.3,2.1c3.6-1-6.2-5.1-2.2-5.7
						c1.2,1.4,2.4,2.7,3.7,4.1c-0.1-0.6-0.3-1.3-0.3-1.9l3.4,2.8c-1.7-3-0.8-3,1-3.2c-2.3-1.5-5.2-4.6-4.4-5.8
						c2.3,0.9,2.4,2.8,3.2,1.1c1.5,2,3.4,4.3,0.3,2.5c0.9,0.9,1.6,1.9,2.5,2.8c2.5,1.1,1.9-1.1,2.3-1.6c-0.3,0.1-0.6,0.1-1.1-0.2
						c-0.4-0.9-0.7-1.8-1.1-2.8c-0.3-0.9-0.6-1.9-0.9-2.8c1.3,0.8,1.8,1.9,2.4,2.9c0.1-0.6-0.9-2.2-0.5-3c1.9,2.5,4.1,4.8,4.4,6.6
						c-0.3-1.4-0.5-2.7-0.7-4.1c1,0.9,3.3,2.1,3.8,3.2c1,0.4,0.6-1.2,0.4-2.9c-0.2-1.6-0.3-3.3,1.1-2.7c-0.3-0.6-0.4-1.1-0.4-1.7
						c0.4-0.1,1,0,1.5,0.2c0.5,0.1,1.1,0.3,1.5,0.4c0.5,0,0.8-0.1,1.1-0.5c0.3-0.4,0.4-1.1,0.3-2.3c1.2,1.5,2.3,3,3.4,4.6
						c0.3-0.8-0.7-2.3-1.7-3.9c-1-1.6-2-3.3-1.2-4.8c1-2.4,2.5,4.1,3.7,5.3c-0.2-1.5-0.4-3.7-0.2-5.1c0.2-1.4,1-1.9,2.5,0
						C477.3,167.6,476.7,166.9,476.3,167.5z M494.5,162.3c-0.4,0.8-1.2,3.2-1.4,1C493.6,158.9,494,161,494.5,162.3z M527.4,164.7
						c-1,0.8-1.1,0-0.7-1.5C527.2,163.2,527.6,163.6,527.4,164.7z M556.8,268.6c0-0.1-0.1-0.1-0.1-0.2
						C558.8,268.3,558,268.3,556.8,268.6z M553.5,269.7c0.2,0.6,0.6,0.9,1.1,1.2c-0.6-0.8-0.2-1.3,0.6-1.7
						C554.3,268.6,553.5,268.4,553.5,269.7z M410.2,200.2l1.1-0.4C412.2,201.2,411.2,200.7,410.2,200.2z"/>
					<path class="st6" d="M521.3,166.9c0.3-0.6,0.6-1.2,1-1.9C521.8,165.5,521.4,166.1,521.3,166.9z"/>
					<path class="st6" d="M467.2,174.2L467.2,174.2c0,0.2,0.1,0.4,0.3,0.6L467.2,174.2z"/>
					<path class="st6" d="M542.4,222.9c0.6-0.2,1.4-0.3,2.1-0.3C543.6,222.4,542.8,222.4,542.4,222.9z"/>
					<path class="st6" d="M545.7,285.3c0.4-0.7,0.7-1.3,1-2c-0.7,0.7-1.4,0.3-2.2,0.1C545.1,284.1,546.2,284.9,545.7,285.3z"/>
					<path class="st6" d="M520.5,272.6c0,0.5-0.4,0.2-0.4,0.8l0.8,1.6C521.7,274.5,521.7,272.9,520.5,272.6z"/>
					<path class="st6" d="M536.8,275.9c-2-2.6-2.2-1-2.9,0.1c0.1,0,0.1-0.1,0.2-0.1C536.3,279.8,536.7,277.9,536.8,275.9z"/>
					<path class="st6" d="M533.8,276.2c-0.2,0.3-0.5,0.6-0.9,0.7C533.8,278.5,533.5,276.9,533.8,276.2z"/>
					<path class="st6" d="M552.4,273.9c-1-0.2,2.6,3.3,1.4,2.6c1.2,1.8,1.1,0.1,0.6-1.5S552.9,271.9,552.4,273.9z"/>
					<polygon class="st6" points="530,267.6 532.6,270.7 531.2,267.7 					"/>
					<path class="st6" d="M538.5,264.7l-2,0.3c0.5,0.5,0.5,0.9,0.5,1.4C537.9,265.8,539.3,265.6,538.5,264.7z"/>
					<path class="st6" d="M537,266.4c-0.5,0.3-0.9,0.7-0.7,1.4C536.5,267.5,537,267,537,266.4z"/>
					<path class="st6" d="M531.2,265.3l0.9,0.4l1.1-0.5C532.5,265.2,531.9,265.3,531.2,265.3z"/>
					<path class="st6" d="M551.5,250.9l0.1-2.2c-1.1-0.9-2.1-0.9-2,0C550.2,249.5,550.2,250.4,551.5,250.9z"/>
					<path class="st6" d="M539.4,248.9c0.9,0.2,1.7,0.7,2.9,1.3l-3.9-3L539.4,248.9z"/>
					<path class="st6" d="M541.3,244.4c-1.1-0.9-2.1-4-2.9-2.2C539.4,243,539.5,245,541.3,244.4z"/>
					<polygon class="st6" points="556.3,223.1 556.3,223.5 564.3,224.9 					"/>
					<path class="st6" d="M536.9,203.3c-1.7,1.8,5-0.5,2.9,1.3c2,0.1,1.8-1.5,3.5-1.4C541,202.5,542.1,201.8,536.9,203.3z"/>
					<path class="st6" d="M543.2,203.2c0.3,0.1,0.8,0.2,1.3,0.3C544,203.3,543.6,203.2,543.2,203.2z"/>
					<path class="st6" d="M454.8,290.5c0.3,0.8,0.6,1.5,0.9,2.3l0.1-3L454.8,290.5z"/>
					<path class="st6" d="M460.4,286.4l-1.7,4.9c0.9-1.3,1.9-2.6,2.8-3.9C461,287.4,460.2,287.6,460.4,286.4z"/>
					<path class="st6" d="M496.3,173l0.2-1.2c0-1.4-0.2-1.5-0.6-1.7C496,171,496.2,172,496.3,173z"/>
					<polygon class="st6" points="484.6,169.5 484.8,169.6 483.6,165 					"/>
					<path class="st6" d="M477.2,178c0.4,0,0.4-1.1,0.8-1C477.6,178,474.7,172.6,477.2,178z"/>
				</g>
			</g>
		</g>
	</g>
</g>
<radialGradient id="SVGID_8_" cx="493.5" cy="559.8669" r="32.44" fx="493.7467" fy="576.8711" gradientTransform="matrix(1 0 0 -1 0 800)" gradientUnits="userSpaceOnUse">
	<stop  offset="0" style="stop-color:#FFFFFF"/>
	<stop  offset="6.925797e-02" style="stop-color:#FFFBF4;stop-opacity:0.9931"/>
	<stop  offset="0.5119" style="stop-color:#FDE1B3;stop-opacity:0.9488"/>
	<stop  offset="0.834" style="stop-color:#FBD08B;stop-opacity:0.9166"/>
	<stop  offset="1" style="stop-color:#FBCA7B;stop-opacity:0.9"/>
</radialGradient>
<path class="st8" d="M521.2,251c0,3.4-0.7,6.6-2,9.6c-1.8,4.3-4.8,8-8.6,10.8c-4.9,3.6-11,5.4-17.2,5.3l0,0h-0.5
	c-6.5-0.1-12.8-2.1-17.7-6.2c-3.2-2.7-5.8-6-7.4-9.8c-1.3-3-2-6.3-2-9.7c0-8.1,4-15.3,10.2-20.1c3.7-2.8,6.6-6.4,8.3-10.6l5.6-13.6
	c1.7-4.2,7.3-4.2,8.9,0.1l5.5,14.5c1.5,4,4.2,7.5,7.6,10.3C517.6,236.3,521.2,243.3,521.2,251z"/>
<rect x="168.1" y="66.6" class="st9" width="447.8" height="188.9"/>
</svg>
