<?xml version="1.0" encoding="utf-8"?>
<!-- Generator: Adobe Illustrator 24.1.3, SVG Export Plug-In . SVG Version: 6.00 Build 0)  -->
<svg version="1.1" id="Layer_1" xmlns="http://www.w3.org/2000/svg" xmlns:xlink="http://www.w3.org/1999/xlink" x="0px" y="0px"
	 viewBox="0 0 800 800" style="enable-background:new 0 0 800 800;" xml:space="preserve">
<style type="text/css">
	.st0{fill:url(#SVGID_1_);}
	.st1{fill:url(#SVGID_2_);stroke:url(#SVGID_3_);stroke-width:4;stroke-miterlimit:10;}
	.st2{fill:#7F7D7A;}
	.st3{opacity:0.25;}
	.st4{fill:#FFFFFF;}
	.st5{fill:url(#SVGID_4_);}
</style>
<g>
	
		<radialGradient id="SVGID_1_" cx="399.5432" cy="441.4883" r="88.1627" fx="399.5372" fy="450.7491" gradientUnits="userSpaceOnUse">
		<stop  offset="0.1083" style="stop-color:#FFF9F0"/>
		<stop  offset="0.3056" style="stop-color:#FFF5E5"/>
		<stop  offset="0.634" style="stop-color:#FEF0DB"/>
		<stop  offset="1" style="stop-color:#FEEFD7"/>
	</radialGradient>
	<path class="st0" d="M520.6,422.6c0,16.1-54.2,29.1-121.1,29.1c-66.9,0-121.1-13-121.1-29.1c0-16.1,54.2-29.1,121.1-29.1
		C466.4,393.5,520.6,406.5,520.6,422.6z"/>
	<g>
		
			<image style="overflow:visible;" width="246.2" height="62.2" xlink:href="34BD918C6901491E.png"  transform="matrix(1 0 0 1 276.4548 391.5085)"/>
	</g>
</g>
<linearGradient id="SVGID_2_" gradientUnits="userSpaceOnUse" x1="278.4543" y1="592.1333" x2="520.6321" y2="592.1333">
	<stop  offset="0" style="stop-color:#FDDFB0"/>
	<stop  offset="0.5053" style="stop-color:#FBDDAF"/>
	<stop  offset="0.6873" style="stop-color:#F4D8AC"/>
	<stop  offset="0.817" style="stop-color:#E9CFA6"/>
	<stop  offset="0.9211" style="stop-color:#D8C19D"/>
	<stop  offset="1" style="stop-color:#C5B294"/>
</linearGradient>
<linearGradient id="SVGID_3_" gradientUnits="userSpaceOnUse" x1="276.4543" y1="593.1333" x2="522.6321" y2="593.1333">
	<stop  offset="0" style="stop-color:#FDDFB0"/>
	<stop  offset="0.5053" style="stop-color:#FBDDAF"/>
	<stop  offset="0.6873" style="stop-color:#F4D8AC"/>
	<stop  offset="0.817" style="stop-color:#E9CFA6"/>
	<stop  offset="0.9211" style="stop-color:#D8C19D"/>
	<stop  offset="1" style="stop-color:#C5B294"/>
</linearGradient>
<path class="st1" d="M520.6,422.6v309.9c0,16.1-54.2,29.1-121.1,29.1c-66.9,0-121.1-13-121.1-29.1V422.6
	c0,16.1,54.2,29.1,121.1,29.1C466.4,451.7,520.6,438.7,520.6,422.6z"/>
<path class="st2" d="M406.8,434.1v15.6h-6.6v-15.6c0-1.1,1.5-2,3.3-2C405.3,432.1,406.8,433,406.8,434.1z"/>
<g class="st3">
	<circle class="st4" cx="405.2" cy="404.9" r="43.9"/>
	<g>
		<g>
			<g>
				<g>
					<path class="st4" d="M381.8,463.8c-0.4-0.5-1.5,2.7-1.8,3.2C381.2,466.7,382.1,462.9,381.8,463.8z"/>
					<path class="st4" d="M392.7,459.2l-0.5,1.3c0.7-1,1.3-2,1.9-3C393.7,458.1,393.2,458.6,392.7,459.2z"/>
					<path class="st4" d="M400.6,460.5c-0.1-2.9-0.8-2.7-1.7-2.2c-0.8,0.6-1.9,1.6-2.4,0.5l0-1.3c-0.5,1.5-0.9,3-1.4,4.4
						c1-0.2,2.1-1,3.1-1.5C399.2,459.9,400.1,459.7,400.6,460.5z"/>
					<path class="st4" d="M404.8,473c-0.3-2.2,1.1-1.9-1.2-0.7c0.1,0.2,0.1,0.4,0.2,0.6C404,472.8,404.3,472.9,404.8,473z"/>
					<path class="st4" d="M403.8,472.9C402.8,473,404.4,474.8,403.8,472.9L403.8,472.9z"/>
					<path class="st4" d="M408.5,471.5c-0.4,0.7-0.8,1.4-1.3,2.1c0.3,1.3,1.6,1.5,1.2,2.5C409.8,474.9,409.4,473.6,408.5,471.5z"/>
					<path class="st4" d="M409.5,467.3l-0.6,0.9C409,468.7,409.2,468.9,409.5,467.3z"/>
					<path class="st4" d="M407.5,470c0.5-0.6,0.9-1.2,1.3-1.9c-0.2-0.9-0.3-2.8-0.6,0.7C408.3,467.2,408.1,468.8,407.5,470z"/>
					<path class="st4" d="M406.7,469.2c-0.8-1.2-1.6-2-0.4-4c-1.1,0.4-1.7,1.6-1.6,2.6C404.8,468.8,405.5,469.7,406.7,469.2z"/>
					<path class="st4" d="M401.5,454.7c-0.2-0.6-0.4-1.1-0.6-1.7l-0.8,1.8c0.2-0.5,0.5,0,0.8,0.3
						C401.2,455.4,401.4,455.5,401.5,454.7z"/>
					<path class="st4" d="M417.2,473.5c-0.1-1.2-1-3.1-1.4-4.6l-0.7,1.5C415.7,471.2,416.8,471.8,417.2,473.5z"/>
					<path class="st4" d="M415.9,468.9c0.4-0.8,0.7-1.5,1-2.3C415.6,466.6,415.6,467.6,415.9,468.9z"/>
					<path class="st4" d="M409.2,461c-0.6,1.5-1.2,3-1.9,4.5c0.8-1.5,1.6-3.1,2.3-4.6L409.2,461z"/>
					<path class="st4" d="M423,472.4l-0.2,2.9c0.2-1.5,0.3-3,0.4-4.5L423,472.4z"/>
					<path class="st4" d="M426.5,470.9c0.1,2.4,2.1,3.4,1.9,5c0.9-0.8,1.2-3,1.3-5C429.2,472.2,428.2,472.3,426.5,470.9z"/>
					<path class="st4" d="M430,468.1c-0.2,0.7-0.2,1.8-0.3,2.9C430,470.3,430.1,469.4,430,468.1z"/>
					<path class="st4" d="M419.3,466.7c0.3,0.7,0.9,2.5,1.9,3.1l-1.4-3.2C419.7,466.7,419.5,466.7,419.3,466.7z"/>
					<path class="st4" d="M419.8,466.5L419.8,466.5c0.6,0,1.1,0,1.2,0C420.9,466.5,420.5,466.5,419.8,466.5z"/>
					<path class="st4" d="M419.2,466.7c0.1,0,0.1,0,0.1,0C419.2,466.4,419.1,466.3,419.2,466.7z"/>
					<path class="st4" d="M412.8,463.7c0.5-2,1.6-4.3-0.2-6.9C412.5,459.2,413.6,460.7,412.8,463.7z"/>
					<path class="st4" d="M417.6,462.7c-0.5-0.1-1-0.3-1.5-0.5c0.2,0.9,0.7,2.1,0.5,3.1C417,464.5,417.3,463.6,417.6,462.7z"/>
					<polygon class="st4" points="418,461.5 417.6,462.7 418.2,462.9 					"/>
					<path class="st4" d="M426.4,466c0.1-1.6,0.7-2,1.4-2.5c-1-0.3-1.9-0.4-2.7-0.1C425.3,464.5,425.6,466.4,426.4,466z"/>
					<path class="st4" d="M423.1,466.1c0-0.1,0.1-0.1,0.1-0.2C423,465.6,423,465.5,423.1,466.1z"/>
					<path class="st4" d="M434.8,460.4c-0.1-0.2-0.3-0.3-0.4-0.5c0.1,0.2,0.2,0.3,0.3,0.5L434.8,460.4z"/>
					<path class="st4" d="M424.8,462.8c-0.8-0.4-0.9,0.5-0.9,1.6c0.3-0.5,0.7-0.9,1.2-1.1C425,462.9,424.9,462.6,424.8,462.8z"/>
					<path class="st4" d="M431.5,465.7c-0.6-0.5-1.2-0.9-1.8-1.3C430.5,465.3,431.8,466.6,431.5,465.7z"/>
					<path class="st4" d="M423.7,466.7c0,0.1,0,0.1,0,0.2C424.1,467.5,423.9,467.2,423.7,466.7z"/>
					<path class="st4" d="M423.7,466.7c0.2-0.6,0.2-1.4,0.2-2.2c-0.3,0.4-0.5,0.8-0.7,1.4C423.4,466,423.5,466.4,423.7,466.7z"/>
					<path class="st4" d="M425.8,440.2c0.8,1.4,1.3,2.9,1.2,3.7c0,0.9-0.6,1-1.8-0.3c0.2,2.5,5.3,11.6,9.2,16.2
						c-0.6-1.2-1.2-2.3-0.9-4.7c-0.6-0.6-1.7-1.1-2.7-1.9c-1-0.8-1.9-1.8-2.1-3.3c0.3-1,0.7-1,1.2-0.5c0.5,0.5,1.2,1.4,1.9,1.9
						c-1.3-1.5-1.5-3.1-1.9-4.8c-0.4-1.7-1-3.6-2.6-6c0,0.8,0.1,1.6,0.1,2.4C426.9,442.2,426.5,440.8,425.8,440.2z"/>
					<path class="st4" d="M431.8,460.8l-0.4,0.6c0.8,0.2,1.8,1.2,3.8,3c0.2-1.8-0.1-3-0.6-3.9l-2.8,0.9L431.8,460.8z"/>
					<path class="st4" d="M429.1,462.5c-0.9-3.3-0.3-5.3-2.5-8.3c-1.3,0.8,0.1,3-0.2,4.8c1.1-0.9,1.1-0.3,1.1,0.5
						c0.1,0.9,0.1,2.1,1.4,2.7c-0.3,0.7-0.7,1.1-1.1,1.4c0.6,0.2,1.3,0.5,2,0.9c-0.1-0.1-0.1-0.1-0.1-0.2l0,0c0,0,0,0,0,0
						c-0.3-0.4-0.4-0.6-0.2-0.4c0,0,0-0.1,0-0.1C429.3,463.3,429.2,462.9,429.1,462.5c1,0.4,0.5,0.8,0.4,1.3
						c0.1,0.2,0.1,0.3,0.2,0.5l0,0c0.7-0.9,1.2-1.9,1.8-2.9C430.7,461.2,430.1,461.6,429.1,462.5z"/>
					<path class="st4" d="M412.7,449.3c0.1,0.3,0.2,0.5,0.2,0.8C412.9,449.6,412.9,449.3,412.7,449.3z"/>
					<path class="st4" d="M413.9,451.2c-0.1,0.5,0.1,1.9-0.5,1.6c-0.6-0.9-0.3-1.6-0.5-2.7c-0.1,0.9-0.7,2.6,0.6,4.1l0.1-0.5
						c1,1,3.2,5,3.1,5.5C415.7,456.2,415,454.1,413.9,451.2z"/>
					<path class="st4" d="M420.6,456.5c0.5-0.7,0.9-1.5,1.4-2.2c-0.6-0.8-1.2-1.7-1.8-2.5l0.6,1.7
						C419.5,453.1,420.4,455.1,420.6,456.5z"/>
					<path class="st4" d="M435.9,461.7l1.4,3.4c-0.4-1.7-0.8-3.5-1.2-5.2L435.9,461.7z"/>
					<polygon class="st4" points="438.4,459.8 439.9,462.5 439.6,460.5 					"/>
					<path class="st4" d="M401.5,380.3l-0.1,0.9C401.5,380.9,401.5,380.6,401.5,380.3z"/>
					<path class="st4" d="M403.5,380.3l-0.1-1.6C403.4,379.6,403.4,380.2,403.5,380.3z"/>
					<path class="st4" d="M468.1,394.2c2.8-1.5,7-3.7,3.6-2.8l-3.3,1C469,392.9,468.8,393.6,468.1,394.2z"/>
					<path class="st4" d="M429,368.9c-0.1,0.3-0.3,0.6-0.4,1c0.8-0.9,1.6-1.7,2.2-2.5C430.2,367.9,429.6,368.3,429,368.9z"/>
					<path class="st4" d="M420.8,380.7c0.2-0.7,0.4-1.5,0.6-2.2C421.1,379.2,420.9,380,420.8,380.7z"/>
					<path class="st4" d="M393.5,387.2c0.6,1,1.1,2,1.8,3.1C395.5,390,394.4,388.6,393.5,387.2z"/>
					<path class="st4" d="M459.5,436.6c1.6-0.1,2.5-0.4,2.9-0.9C460.1,435.7,457.1,434.9,459.5,436.6z"/>
					<path class="st4" d="M397.9,343.5c-0.3,0.7-0.4,1.4-0.3,2.2C398,345.1,398.1,344.4,397.9,343.5z"/>
					<path class="st4" d="M463.6,433.3c-0.4,0-0.6,0.1-0.9,0.1c0.2,0.8,0.4,1.7-0.2,2.3C464.1,435.7,465.3,435.2,463.6,433.3z"/>
					<path class="st4" d="M385.2,418.3c-0.1,0.1-0.2,0.2-0.3,0.3C385.3,418.4,385.3,418.3,385.2,418.3z"/>
					<path class="st4" d="M375.9,456.2c-0.3,0.1-0.7-0.2-1.1-0.3C374.8,456.1,375.1,456.3,375.9,456.2z"/>
					<path class="st4" d="M449.4,453.4C449.1,454,449.6,453.7,449.4,453.4L449.4,453.4z"/>
					<path class="st4" d="M438.2,445c-0.2-0.4-0.4-0.8-0.9-1.4C437.8,444.2,438.1,444.7,438.2,445z"/>
					<path class="st4" d="M445.9,419.8C445.9,419.8,445.9,419.8,445.9,419.8C445.2,419.6,445.4,419.7,445.9,419.8z"/>
					<path class="st4" d="M447.6,452.9c0.5,0.2,0.9,0.2,1.3,0.2C448.7,453,448.2,452.9,447.6,452.9z"/>
					<path class="st4" d="M448.8,454c-0.3,0-0.5,0.1-0.7,0.1C448.5,454.7,448.8,454.9,448.8,454z"/>
					<path class="st4" d="M450,452.6c-0.2,0.3-0.6,0.4-1.1,0.5c0.3,0.1,0.4,0.2,0.5,0.3C449.5,453.2,449.7,453,450,452.6z"/>
					<path class="st4" d="M372.9,396.5c-0.1,0-0.2,0-0.3,0C373.9,397.2,373.7,397,372.9,396.5z"/>
					<path class="st4" d="M430.3,393.1c0,0,0.1,0,0.2,0c0,0,0.1-0.1,0.1-0.1L430.3,393.1z"/>
					<path class="st4" d="M427.6,393.4c4-1.6,3.7-1.1,3-0.4c3-1.5,5.9-3.1,8.9-4.7C435.5,389.9,431.5,391.6,427.6,393.4z"/>
					<path class="st4" d="M397.2,382.3c0.5,0.9,1.1,1.8,1.5,2.7c1,5.1,0.2,3.5,2,7.5c-1.8-5.1-1.5-5.6-1.1-6
						c0.4-0.4,0.8-0.8-0.4-6.1c0.3,0.7,0.6,1.4,0.9,2.1c-0.1-0.1,0,0.6-0.1,0.5c0.9,2.4,0.6,0.5,0.3-1.9c-0.3-2.4-0.6-5.3,0.2-4.6
						c0.6,0.8,1,2.3,1,3.6c0.1-0.9,0.3-1.9,0.5-2.8c0.3,0.2,0.4,2.1,0.2,1.9c0.4-0.4,0.8-0.6,1.2-0.9l0,0.3c0.1-1.7,0.4-4.4,0.6-5.5
						c0.5,1.5-0.2,1.2,0,2.5c0.2-0.9,0.5-1.8,0.8-2.7c0.2,1.4,0.1,2.8-0.1,3.8c-0.2,1-0.4,1.6-0.7,1.4c0.6,5.4,0.6,4.7,0.8,3.4
						c0.2-1.2,0.6-3,1.2,0.2c-0.2,0.5-0.4,0.9-0.6,1.3c0.1,3.1,0.3,4.1,0.4,4.8c0.2,0.7,0.4,1.1,0.4,3c0-1,0-3.4-0.1-5.9
						c-0.1-2.5-0.2-5.1,0.3-6.4c0.2,0.8,0.4,1.2,1-1c-0.3,3.9,0.1,3,0.6,2.8l-0.7,5.1c0.6-1.4,1-4,1.6-6.2c0.6,0.6,0,4.5-0.6,7.8
						c0.3,0.5,0.5-1.1,0.7-2.9c0.2-1.8,0.5-3.8,1.2-4.2c0.2,1.1,0.5,1.1,1,0.5c0.5-0.6,1.3-1.8,2.2-3c0.1,1.9-1,2.9-1.3,4.4
						c0.6-1.2,1.2-2.5,1.8-3.7c0.1,0.1-0.4,1.3-0.6,1.9c1-1.3,1.7-4.8,3-5.9c1.1-2.6,0.9-0.5,0.6,1.5c-0.3,2.1-0.6,4,1.3,1.3
						c-0.4,1.4-1.5,2.8-2.2,4.6c1.4-1.7,2.1-2.2,2.7-2.9c0.8-0.9,1.5-1.7,3.3-3.7c-0.2,1.2-0.5,2.3-0.8,3.4c0.7-1.8,1.8-3.6,3.1-5.2
						c1.3-1.6,2.9-3.1,4.4-4.4c0.7-1.7,1.3-3.3,1.5-4c1.1-0.4,2.1-0.9,3.2-1.2c-0.3,0.8-1.5,2.2-2.9,3.7c0.3-0.3,0.7-0.5,1-0.8
						c-0.5,2-2.6,4.1-4.5,6.3c0.4-1,0.9-2,1.3-3c-2.1,2.4-4.2,5.1-5.8,7.7c0.4-0.5,0.8-0.8,1.1-0.9c-0.5,0.7-1,1.3-1.2,1.7
						c-0.3,0.5,0.5-0.4,1.4-1.4c-1,1.6-2,3.3-3,4.9l1.3-1.8c-0.2,1.3-0.5,2.6-0.9,3.8c1.1-1,2.3-2.1,3.6-3.2c1.3-1.1,2.6-2.1,3.9-3
						c2.6-1.8,5.2-3.2,7-3.1c-3.4,2.5-4.9,4.7-8.5,8.2c1.7-2,1-1.9-0.1-1.4c-1.1,0.5-2.5,1.4-2.5,0.6c0,0.8-1.7,2.4-2.3,3
						c1.4-0.9,2.9-1.7,4.5-2.4c-2.9,2.9-1.9,2.4-2.8,3.9c5.5-5.8,4.7-2.7,7.1-3.7c-2,1.8-4.2,3.4-4.3,2.4c-1.9,2.3,0,1,2.1-0.4
						c2.1-1.4,4.3-2.7,2.6-0.7c-0.2-0.1,0.1-0.5-1.1,0.3c2.2-1,1.5,1.2-0.6,2.3l-0.2-0.1c0,0.4,0.2,0.8,0.5,1.2
						c0.3,0.4,0.7,0.7,1.4,0.8c1.3,0.3,3.4,0.1,6.5-1.4c-0.8,0.4-7.3,3.7-8.6,4.3c7-3,14.3-5.4,21.9-7.2c-2.7,1-7.1,3.3-11.4,5.2
						c-4.2,1.9-8.2,3.5-9.9,3.8c-0.6,0.6-1.3,1.3,0.8,1.1c0.7-0.5,7.6-3.8,8.2-3.7c-2.8,1.7-3.6,2.2-4.2,2.6
						c-0.6,0.4-1.1,0.9-3.6,2.3c0.5-0.4,3-1.2,5.3-1.9c2.3-0.7,4.5-1.2,4.5-0.8c-1.3,0.3-8.6,2.9-9.5,3.1c3-0.6,6-1,9-1.4
						c-1.7,0.1-7.3,2.1-9.7,3.1c1.7-0.6,0.1,1.1,1.1,1.1c0.6-0.3,1.3-0.7,1.9-1c-0.5,0.9,2.7,0.5,6,0.3c3.3-0.2,6.7-0.3,6.6,0.8
						c-1.9,0-11.4,1.3-12.4,2.2c2.3-0.2,7.9-0.5,13.3-0.3c5.4,0.1,10.8,0.8,12.6,2l-2.6,0.6c1,0.5,2.1,1.1,3,1.7
						c-3.4-0.6-8.9-1.5-14.2-2.1c-5.3-0.6-10.4-0.9-13.2-1c-2,0.7-3.1,0.5-2.8,1.2c-2.5,0.4-3.7,0-3.9-0.2c-0.5,0.5-1,1-1.5,1.5
						c2.7-0.1,4.1,0.1,5.3,0.4c1.2,0.3,2.3,0.6,4.6,0.6c-1.8-0.7-3.8-1.3-5.6-1.7c2.7-0.2,6.5-0.2,9.6,0.3c1.5,0.2,2.9,0.5,3.8,0.9
						c0.9,0.4,1.3,0.8,1,1.3c-1.1,0.2-3.5,0-5.8-0.1c-2.3-0.2-4.6-0.4-5.5-0.4c1.8,0.2,3.5,1.4,2.2,1.4c-1-0.3-1.9-0.5-2.9-0.7
						c-1,0.3,0.8,0.6,2.1,1.1c1.4,0.4,2.3,0.9-0.3,1.1c-0.2,0.1-1.9,0.1-3.2,0.1c-1.3,0-2.2,0-0.6,0.3c6.1,0.6,25,2.7,29.5,4
						c-0.2,0.1-1.8,0.6-3.6,1.1c-1.9,0.5-4.2,0.8-5.7,0.7c-2.4-0.1-5.2-1-7.8-1.9c-2.7-0.8-5.3-1.6-7.3-1.7c1.4,0.3,3.1,1,3.7,1.2
						c-1.3,0.1-4.4-1.1-3.9-0.3c5.3,1.4-0.8,1.4,4.4,1.5c1.3,1.2-1.2,0.6-1.3,1.5c1.7,0.4,4.5,1.4,7,2.7c2.5,1.2,4.6,2.7,5.2,3.5
						c-1.3-0.5-3.1-0.9-3.9-1.1c-0.3,0.5-0.7,0.8-1.1,1.1c-0.4,0.3-1,0.5-1.4,0.7c-1,0.4-1.8,0.8-2.2,1.6c-1.2-0.4-3-0.4-4.9-1.9
						c0.7,0.6,2.2,1.7,2.1,2.2c-4.6-1.5-0.1-1.3-5.4-3.4c2.8,1.6,3.2,3.2,4.5,4.9c2.1,1.2,2.6,0.9,2.3,0.1c-0.3-0.8-1.3-2-1.9-2.8
						c3,1.6,5.8,3.5,8.1,5.6c2.3,2.1,3.9,4.3,4.6,6.2c0.2,1.3-0.9,0.9-1.9,0.2c-1-0.7-1.9-1.5-1.6-1.1c-1.5,1.1,0.4,3.4,1.9,5.6
						c1.5,2.1,2.6,4-0.4,3.7c-2.1-0.9-3.6-2.4-5.1-3.7c-1.4-1.4-2.7-2.8-3.9-3.7c-0.1-1.1,0.7-1,1.7-0.8c1,0.2,2.1,0.4,2.3,0
						c-0.8-0.1-1.6-0.2-2.3-0.3c-0.8-1.3-1.2-2.6,0.1-2.3c-0.9-0.4-1.6-0.4-2.2-0.1c-0.3,0.1-0.5,0.3-0.8,0.5
						c-0.3,0.2-0.5,0.4-0.8,0.7c-1.1,1-2.2,2.2-4.4,1.6c0.7,1.3,1.2,2.9,2.6,4l0.2-1c1.5,1,2,2.1,2.4,3.1c0.4,0.9,0.6,1.7,1.6,1.9
						c0.4,1.3,1,2.9,1.1,4.2c0.1,0.6,0,1.2-0.2,1.5c-0.3,0.3-0.7,0.5-1.3,0.4l-3.3-3.7c0.9,1.1,2.7,1.6,2.1,0.2
						c0.4,1.1-1.2,0.2-2.4-0.4c-1.2-0.5-2-0.6-0.5,2.2c1,0.7,2,1.4,3,2c0.2,1.4,0.8,3.4,0.9,5c0.2,1.7-0.1,2.9-1.3,2.7
						c3.3,3.6,0-0.6,4.3,3.4c-2.4-2.6-1.4-3.2-0.6-3.8c0.9-0.6,1.7-1.2-1.3-3.7c2.5,2.3,3.4,2.5,4.2,2.5c0.9,0.1,1.7,0,4.2,1.6
						c-1.1-1.2-2.5-1.9-0.8-2.4c-0.3-0.4-0.5-1-0.7-1.3c0.1,0,0.1,0,0.2,0c-0.1,0-0.1-0.1-0.2-0.1c-0.1-0.2-0.1-0.3-0.1,0
						c-0.7-0.3-1.5-0.7-2.2-1.3c-1.9-3.3-0.2-4.7-1-6.6c1.1,0,1,1.6,2.6,2.5c-0.4-0.9-0.8-1.9-1.2-2.8c1.3,1.2,2.8,1.9,3.9,2.5
						c1.2,0.7,2,1.4,2,2.9l1.5-1.3c2.3,0.5,4-0.2,3.5-2c1.2-0.3-1.7-4.3,0-2c0-1.3,0-2.5,0-3.8l0.7,0.5c1.1-1.1,0.6-3.2,0.8-4.9
						c0.2-1.7,1-3,4.6-3.1c-0.4-1.3-1-2.7,0.7-3.8l3,0.9c-0.2-0.8,0.8-1.5,1.6-2.2c0.8-0.7,1.3-1.4-0.1-2.2c2.1,0.3,3.4,0.1,4.2-0.4
						c0.8-0.5,1.1-1.4,1.1-2.4c0.1-1.9-0.7-4.1,0.3-5.1l-4-0.9c0.5-1.5-0.4-3.3-1.8-5.4l-3.6-0.3c-1.4-0.9-0.6-1.8,0.4-2.9
						c1-1,2.3-2.3,2.2-3.6c1.4,0.2,1,0.9,0.1,1.3c2.1-0.7,2.7-1.6,2.7-2.4c-0.1-0.8-1-1.6-1.9-2.4c-0.9-0.8-1.9-1.5-2.3-2.2
						c-0.4-0.7-0.2-1.4,1.1-2.3c-1.4-0.5-1-1-0.2-1.7c0,0.1,0.1,0.1,0.2,0.1c0-0.1,0-0.2,0-0.3c0.6-0.4,1.2-0.8,1.7-1.3
						c-0.8,0.4-1.5,0.8-1.8,1.1c-0.2-0.5-0.7-1.3-1.7-1.9l3.7-1.1c-0.1-0.1-0.1-0.1-0.1-0.2c1.2-1.1-1.9-0.2-4.7,0.7
						c-0.7-0.3-1.5-0.4-2.5-0.5c3-1,2.3-1.4,1.7-1.8c-0.6-0.4-1.1-0.8,2-2.1c-1.6,0.2-2.5-0.6-3.7-1.2c-1.3-0.6-3-0.9-6.3,0
						c0.8-0.3,1.2-0.7,1.3-0.3c0.5-1,0.9-2-1.1-2l4.4-2.1c-2.2,0.2-4.5,0.6-6.7,1c2.3-2.1,3.6-3.3,7.6-3.9c-3.2,0-3.9-0.2-4.6-0.4
						c-0.7-0.2-1.3-0.4-4.3,0.1l2.8-1.4c-0.5-0.6-4.8,0.5-2.8-1.2c1.1-1.1,1.4-2.2,1.2-3.3c-0.1-1.1-0.8-2.1-1.5-3.1
						c-1.3-2.2-3.2-4.3-2.8-8c-3,3.6-2.6,2.5-2.2,1.1c0.4-1.4,0.9-3.1-1.7-0.5c1.3-1.8,1.6-3.2,3.5-4c-1.7-0.1-1.8-1.3-2.2-2.2
						c-0.4-0.9-1.1-1.3-3.7,0.6c1.1-1.9,2.4-2.2,3-3.4c-0.5,0.2-1.8,1-1.3-0.2c0.6-1.2,1.4-1.2,2.4-1.7c-2.5-1.4-6.6,4-10.4,9.1
						c0.4-1.6,0.4-2.4,0-2.4c-0.5,0-1.4,0.8-2.9,2.3c0.8-2,1.3-4.2,3-4.1c-0.3-0.3-0.9-1.6-1.9-2.3c-1-0.7-2.2-0.7-3.4,1.6
						c0.4-1.3-0.8-0.8-1.3-0.4c-1.5-1-1.4-1.5-3.2-1.8l0.1,1c-1.5,2.7-1.9,2.9-2.2,2.4c-0.3-0.4-0.4-1.6-1.2-1.4l0.3-0.6
						c-0.7-2.6-1.3-2.2-1.7-1.9c-0.2,0.2-0.4,0.3-0.7,0c-0.3-0.3-0.5-0.9-1-2.3l-0.8,3.7c-1.2,3.9-1.5,2.6-1.9,0.6
						c-0.4-2-0.9-4.7-2.1-3.3l0.2,2.3c-0.7,1.3-0.8-1.6-1-4.9c-0.2-3.3-0.5-7.2-1-7.8c-0.2-0.7,0.5-1.1,1-1.6
						c-2.6-5.3-1.1,4.9-3.3,5.8c-0.2-2.7,1.2-6.8-0.3-7.5c-0.3-1.1-1.7,1-3,2.8c-1.4,1.8-2.7,3.1-3.8,0.6c0.5,2.1,0.9,4.1,0,5.7
						c-0.7,0.4-1.8-1.5-2.9-2.7c-1.1-1.2-2.3-1.6-2.5,1.8c-0.3-0.5-0.4-1.1-0.5-1.6c-1,1.9-3.3,3.4-3.2,7c-1.8-6.4-3.3-4.3-4.4-2.3
						c-0.5,1.1-1,2.1-1.5,2.2c-0.5,0.1-1.2-0.8-2.2-3.7l-3.1,1.8l-0.4-1.2c-1.2,0-1.7,0.9-1.9,2c-0.1,1.2,0.2,2.7,0.5,4.1
						c-0.8-0.5-1-1.7-1.2-2.3c-4-0.8-4.3,0.1-3.3,6.6l-2.4-3.2c0.3,1.2-1.5,0.4-3.5,0.3c-1-0.1-2,0-2.8,0.4
						c-0.8,0.4-1.3,1.2-1.1,2.7c-0.3-0.4-0.7-1-0.9-1.6c0,1.5-0.8,2.1-1.9,2.4c-1.2,0.3-2.7,0.2-3.9,0.4c-2.5,0.4-4,1.7,1.1,6.8
						c0.4,1.3,0.9,2.7,1.4,4c1.3-0.8,2.4,0.3,3.6,1.6c1.2,1.3,2.4,2.8,3.6,3.2c0.1,0.6-1.2,0.5-2.4,0c-1.2-0.5-2.5-1.3-2.4-2
						l0.7,0.3c-2.9-2.5-3.9-2.2-4.8-1.6c-0.9,0.5-1.5,1.3-3.6-0.1c-0.7,1.3-1.6,2.5-2.7,3.6c-0.5,0.5-1,1.1-1.6,1.7
						c-0.5,0.6-1.1,1.1-1.6,1.7c-0.6,0.6-1.1,1.2-1.6,1.7c-0.5,0.6-1,1.2-1.4,1.9c-0.9,1.3-1.7,2.6-2.2,4c1.9,0.3,3.9,0.6,5.8,1
						c-0.3,0.6-0.5,1.2-0.8,1.8c-1.4,0.1-4.6-0.4-4-1.8c-1.7-0.1-1.2,0.7-0.1,1.6c1.1,0.8,2.8,1.6,3.4,1.8c-1.5,1-3.1,0.5-4.4-0.3
						c-1.3-0.8-2.2-1.9-2.4-1.4l0.1,1.3l0.7-0.1c1.1,0.7,2.2,1.2,3,1.8c0.8,0.5,1.3,1,1,1.9c-1.3,0.9-3.6,0-3.9,0.4
						c-0.4-0.1-0.6,0.1-0.3,0.7l-0.8,2.6c1.6-0.2,3.2-0.4,4.7-0.5c2.1,1.3-0.5,2.2,4.8,1.6c-4.1,0.4-4.9,2.7-5,4.9
						c0,2.2,0.9,4.3-0.4,4.9c0.9,0.3,1.5,0.6,2,0.9c0.5,0.3,0.9,0.7,1.1,1c0.5,0.7,0.5,1.5,0.4,2.4c0.9-0.6,6-1.7,5.6-0.2
						c-5.3,0.7-6.4,1.7-6.9,2.8c-0.5,1.1-0.6,2.4-4.2,4c2.3-1.3,2.9-0.2,3.8,0.7c0.9,0.9,2,1.5,5.2-0.5c-0.4,1.5-3.8,1.3-5.8,3.1
						c1.3,0.4,1.9,1.1,2.2,2c0.1,0.4,0.2,0.9,0.2,1.4c0,0.5,0,1,0,1.5c-0.1,2.1-0.5,4.7,1.3,6.2c1.2-0.7,2.8-2.3,5-2.6
						c-1.7,1.8-3.3,3.6-4.9,5.5c0.5,0.2,2.3-0.8,3.6-1.3c1.3-0.5,1.9-0.6,0.4,1.4c0.8-0.8,2.1-2.1,2.8-1.9c-0.1,1.2,0,2.4,0.3,3.4
						c0.2,0.5,0.4,1,0.6,1.4c0.2,0.4,0.6,0.8,0.9,1.2c0.7,0.7,1.4,1.4,2.2,2c0.4,0.3,0.8,0.6,1.2,0.9l1.3,0.8
						c1.7,1.1,3.2,2.3,4.4,4.1c0.6,0.9,1,2,1.3,3.3c0.3,1.4,0.6,2.9,0.7,4.8c0.4-2.9,1.2-2.7,2-2.4c-0.1-0.8,1.8-3,2.7-4.7
						c0,2,0.1,4.2,0.3,6.3c1.5-2.2,2.3-1.9,3.1-1.6c0.8,0.3,1.6,0.6,2.7-1.6l-1.3,0.4c1.8-2.4,2.8-5.7,3.8-9.1c1-3.4,2.2-7,4-10.4
						c-1,1.4-1.3,1.5-1.4,0.9c-0.1-0.6,0.2-1.8,0.5-2.9c0.5-2.2,1-4-2.3-0.3c0.6-1.5,1.6-1.9,2.4-3.5c-2.1,2.6-2.9,2.8-2.7,1.2
						l0.5-0.6c-1.1-0.4-1.5-1.3-1.4-2.6c0-0.6,0.1-1.3,0.2-2.1c0.1-0.7,0.1-1.4,0.2-2.2l-2.6,2.8c0-0.7,0.8-1.6,1.4-2.4
						c-4.6,3.4,0.7,1.3-4.2,5.3c2.5-3,2-3.7,1.5-4.4c-0.5-0.8-0.7-1.7,2.7-4.4c-0.4-0.6-3.4,2.8-3.8,2.1l1.8-1.5l-2.6,1.6
						c0.1-0.7,2.5-2.6,4.2-3.7c-0.1,0.2,0.6,0,0.8,0c1-1,0.7-1.2,0.1-1.2c-0.6,0-1.3,0.1-1-0.2c-0.3,0.4-0.6,0.8-0.9,1.3
						c-0.7-0.1-1.2-0.4-1.5-0.8c-0.3-0.4-0.5-0.9-0.8-1.4c-0.1-0.2-0.3-0.4-0.5-0.6c-0.2-0.2-0.4-0.4-0.7-0.6
						c-0.6-0.3-1.4-0.6-2.8-0.7l-1.6,0.7c-1-0.1-1.3-0.3-1.4-0.6c-0.1-0.2,0.2-0.5,0.5-0.8c0.6-0.5,1.4-1.1,0.4-1.8l0.4,0
						c-1.9,0.1-2.8-0.3-2.7-0.9c1.1,0.1,2-0.4,3-0.7c1-0.4,2-0.7,3.2-0.6c-1.9-0.5-2.6-0.6-3.7-0.6c-1.1,0-2.6,0.2-5.9-0.2l2.9-0.6
						c-2.7-0.2-4.1-0.1-5-1.2c1.3,0.4,2.4,0.1,3.6-0.1c1.2-0.2,2.5-0.4,4.3-0.1c1.6-0.6,2-0.9,1.8-1.2c-0.2-0.3-0.9-0.6-1.5-0.9
						c-1.2-0.6-2.1-1.1,2.6-1.2c-8.2-1.4-4.6,1.4-6.3,0.9c-1.3,0.2-2.9,0-4-0.4c-1.1-0.4-1.7-1-1.3-1.3c0.1-0.4,2.7-0.5,5.4-0.6
						c2.6-0.2,5.2-0.3,5.2-1c-0.1,0.1,0.6,0.2,0.5,0.4c1.1-0.1,0.4-0.4-0.1-0.8c-0.3-0.2-0.5-0.4-0.4-0.5c0.1-0.1,0.4-0.2,1.3-0.2
						c-2.4-0.7-2.3-0.9-2.3-1.1c-0.1-0.2-0.3-0.4-3.3-1.2c0.4,0.6,0.7,1.2,1.1,1.7c-0.7-0.5-2.8-1.4-4.3-2.3
						c-1.4-0.9-2.2-1.8-0.3-2.1c1.2,0.5,2.7,1.4,3.6,1.9c1.9,0.1-1-1.1,1-1c3,1,3.2,1.5,3.3,2c0,0.5-0.1,1.1,2.1,1.9
						c1.4,0.1,0.3-0.4-0.2-0.9c-0.5-0.4-0.6-0.6,2.7,0.4c-4.2-1.3-3.8-1.6-3.2-1.8c0.6-0.2,1.5-0.3-1.5-1.9l3.6,1.3
						c-0.5-0.3-2.1-1.2-1.9-1.4c1.5,0.7,3,1.4,4.5,2.1c-1.9-1-0.9-1,0.3-0.9c1.1,0.1,2.6,0.4,1.7-0.3c-0.2,0.6-1.3,0.2-2.7-0.4
						c-1.4-0.6-3.1-1.4-4.5-1.6c-2-1.9,0.5-1.2,3.2-0.3c2.8,0.9,5.8,2.2,5.3,1c0.4,0.4-2.4-0.2-3.8-1.4c0.8,0,2.4,0.3,4.2,1.1
						c-0.1-0.6-0.9-1.1-2-1.6c-1.1-0.5-2.4-0.9-3.3-1.8c4.2,2-1.3-1.5-2.2-2.9l3.3,2.1c0.7,0,0.6-0.3,0.3-0.7c-0.4-0.4-1.2-1-2-1.6
						c-1.6-1.2-3-2.3-1.3-2.1c1.3,1.2,2.6,2.5,4,3.6c-0.2-0.5-0.5-0.9-0.7-1.4l3.4,2.7c-1.1-1.2-1.4-1.8-1.3-2
						c0.1-0.2,0.6-0.1,1.4,0.1c-2.2-1.6-5.3-4.6-4.8-5.3c2,1.2,2.5,2.7,2.8,1.5c1.6,1.8,3.7,4,0.8,1.9c0.9,0.9,1.7,1.7,2.6,2.6
						c2.3,1.4,1.1-0.3,1.3-0.6c-0.2,0-0.4-0.1-0.8-0.4c-0.5-0.8-1-1.6-1.5-2.4c-0.5-0.8-0.9-1.6-1.3-2.4c1.2,0.9,1.8,1.9,2.5,2.8
						c-0.1-0.5-1.2-1.9-1.1-2.4c2,2.4,4.2,4.8,4.9,6.2c-0.6-1.1-1.1-2.2-1.5-3.3c0.9,1,2.8,2.5,3.4,3.5c0.8,0.6,0.1-0.8-0.5-2.2
						c-0.6-1.4-1-2.8,0-2c-0.3-0.5-0.5-1.1-0.6-1.5c0.5,0.1,1.4,0.9,2,1.1c0.3,0.1,0.5,0.1,0.5-0.2c0.1-0.3,0-0.9-0.3-1.9
						c1,1.6,2,3.2,2.9,4.9c0-0.7-0.9-2.3-1.8-3.9c-0.9-1.7-1.8-3.4-1.6-4.7c0.2-2.1,2.2,4.2,3.1,5.6c-0.4-1.4-0.9-3.5-1-4.7
						c-0.1-1.3,0.3-1.7,1.4,0.3C397.8,382.6,397.4,381.9,397.2,382.3z M406.5,378.5c-0.3,0.8-0.7,3.3-0.8,1
						C406.1,375.1,406.2,377.2,406.5,378.5z M426.5,376.3c-0.9,0.9-0.8,0.2-0.2-1.2C426.7,375,426.9,375.3,426.5,376.3z M452.3,446
						c0-0.1-0.1-0.1-0.1-0.2C454,446,453.3,445.9,452.3,446z M449.6,446.5c0.2,0.5,0.6,0.9,1.1,1.2c-0.6-0.8-0.3-1.2,0.2-1.4
						C450.1,445.7,449.4,445.4,449.6,446.5z M346.5,396.3l1.1-0.2C348.5,397.1,347.5,396.7,346.5,396.3z"/>
					<path class="st4" d="M421.7,379.3c0.3-0.6,0.7-1.2,1-1.8C422.3,378,421.9,378.7,421.7,379.3z"/>
					<path class="st4" d="M393.2,386.6C393.1,386.6,393.1,386.6,393.2,386.6c0.1,0.2,0.2,0.4,0.3,0.6L393.2,386.6z"/>
					<path class="st4" d="M432.7,410.8c0.6-0.1,1.3-0.1,2,0C433.8,410.6,433,410.5,432.7,410.8z"/>
					<path class="st4" d="M445,459.2l0.6-1.7c-0.5,0.6-1.2,0.1-1.8-0.2C444.4,458,445.4,458.9,445,459.2z"/>
					<path class="st4" d="M423.7,444.3c0.1,0.5-0.3,0.2-0.2,0.7l0.8,1.6C424.8,446.2,424.6,444.7,423.7,444.3z"/>
					<path class="st4" d="M436.5,449.6c-2-2.6-1.9-1.2-2.3-0.3c0,0,0.1-0.1,0.1-0.1C436.7,453.1,436.7,451.4,436.5,449.6z"/>
					<path class="st4" d="M434.2,449.4c-0.1,0.3-0.3,0.5-0.6,0.5C434.4,451.5,434,450.1,434.2,449.4z"/>
					<path class="st4" d="M449.2,450c-0.9-0.3,2.7,3.2,1.5,2.4c1.2,1.7,1,0.2,0.3-1.2C450.4,449.7,449.4,448.3,449.2,450z"/>
					<polygon class="st4" points="430,441.1 432.4,444.3 430.9,441.4 					"/>
					<path class="st4" d="M436.2,440l-1.6-0.1c0.4,0.5,0.6,0.9,0.6,1.3C435.9,440.8,437,440.9,436.2,440z"/>
					<path class="st4" d="M435.2,441.2c-0.3,0.2-0.6,0.5-0.3,1.1C435,442.1,435.3,441.8,435.2,441.2z"/>
					<polygon class="st4" points="430.5,439.3 431.2,439.8 432,439.5 					"/>
					<path class="st4" d="M445.1,430.9l-0.3-1.7c-1.1-0.8-2-1-1.8-0.3C443.7,429.7,443.9,430.4,445.1,430.9z"/>
					<path class="st4" d="M434.1,427.4c0.8,0.3,1.5,0.8,2.7,1.5l-3.9-3L434.1,427.4z"/>
					<path class="st4" d="M434.9,424.4c-1.1-0.9-2.7-3.3-3-2.1C433,423.1,433.4,424.5,434.9,424.4z"/>
					<polygon class="st4" points="446.4,411.9 446.4,412.2 454.4,413.6 					"/>
					<path class="st4" d="M427.1,400.6c-1.8,1.1,5-0.7,2.7,0.4c1.9-0.1,1.9-0.9,3.5-1C431.2,399.8,432.3,399.4,427.1,400.6z"/>
					<path class="st4" d="M433.3,400c0.3,0,0.7,0.1,1.3,0.1C434,400,433.6,400,433.3,400z"/>
					<path class="st4" d="M378,462.2c0.2,0.7,0.3,1.4,0.5,2.1c0.1-1,0.2-1.9,0.4-2.9L378,462.2z"/>
					<path class="st4" d="M382.7,457.7l-1.8,4.9c0.8-1.3,1.7-2.7,2.5-4C383,458.7,382.4,458.9,382.7,457.7z"/>
					<path class="st4" d="M406.9,389l0.2-1.2c0.1-1.4,0-1.5-0.1-1.7C406.9,387.1,406.9,388,406.9,389z"/>
					<polygon class="st4" points="401.8,385.4 401.9,385.5 400.9,380.9 					"/>
					<path class="st4" d="M399.7,392.2c0.2,0.1-0.1-0.9,0.2-0.8C399.9,392.3,397.3,386.9,399.7,392.2z"/>
				</g>
			</g>
		</g>
	</g>
</g>
<radialGradient id="SVGID_4_" cx="401.3121" cy="422.1093" r="23.3682" fx="401.4898" fy="434.3583" gradientTransform="matrix(0.7968 0.1794 -0.1375 0.6106 143.3573 100.9567)" gradientUnits="userSpaceOnUse">
	<stop  offset="0" style="stop-color:#FFFFFF"/>
	<stop  offset="6.925797e-02" style="stop-color:#FFFBF4;stop-opacity:0.9931"/>
	<stop  offset="0.5119" style="stop-color:#FDE1B3;stop-opacity:0.9488"/>
	<stop  offset="0.834" style="stop-color:#FBD08B;stop-opacity:0.9166"/>
	<stop  offset="1" style="stop-color:#FBCA7B;stop-opacity:0.9"/>
</radialGradient>
<path class="st5" d="M419.9,439.1c-0.3,1.5-1.1,2.8-2.1,4c-1.5,1.6-3.5,2.9-6,3.6c-3.2,1-6.9,0.9-10.4,0.1l0,0l-0.3-0.1
	c-3.7-0.9-7.1-2.6-9.5-5c-1.6-1.6-2.7-3.4-3.3-5.3c-0.4-1.5-0.5-3-0.2-4.5c0.8-3.6,3.8-6.2,7.8-7.5c2.4-0.8,4.4-2,5.8-3.6l4.6-5.3
	c1.4-1.6,4.6-0.9,5.1,1.2l1.7,7.1c0.5,2,1.7,3.8,3.3,5.5C419.3,432.2,420.7,435.7,419.9,439.1z"/>
</svg>
