<?xml version="1.0" encoding="utf-8"?>
<!-- Generator: Adobe Illustrator 24.1.3, SVG Export Plug-In . SVG Version: 6.00 Build 0)  -->
<svg version="1.1" id="Layer_1" xmlns="http://www.w3.org/2000/svg" xmlns:xlink="http://www.w3.org/1999/xlink" x="0px" y="0px"
	 viewBox="0 0 800 800" style="enable-background:new 0 0 800 800;" xml:space="preserve">
<style type="text/css">
	.st0{fill:url(#SVGID_1_);}
	.st1{fill:url(#SVGID_2_);stroke:url(#SVGID_3_);stroke-width:4;stroke-miterlimit:10;}
	.st2{fill:url(#SVGID_4_);}
	.st3{fill:url(#SVGID_5_);stroke:url(#SVGID_6_);stroke-width:4;stroke-miterlimit:10;}
	.st4{fill:#7F7D7A;}
	.st5{opacity:0.25;}
	.st6{fill:#FFFFFF;}
	.st7{fill:url(#SVGID_7_);}
	.st8{fill:url(#SVGID_8_);}
	.st9{fill:none;}
</style>
<g>
	
		<radialGradient id="SVGID_1_" cx="492.9" cy="527.3384" r="88.1512" fx="492.894" fy="536.598" gradientTransform="matrix(1 0 0 -1 0 800)" gradientUnits="userSpaceOnUse">
		<stop  offset="0.1083" style="stop-color:#FFF9F0"/>
		<stop  offset="0.3056" style="stop-color:#FFF5E5"/>
		<stop  offset="0.634" style="stop-color:#FEF0DB"/>
		<stop  offset="1" style="stop-color:#FEEFD7"/>
	</radialGradient>
	<path class="st0" d="M614,253.8c0,16.1-54.2,29.1-121.1,29.1s-121.1-13-121.1-29.1s54.2-29.1,121.1-29.1
		C559.8,224.7,614,237.7,614,253.8z"/>
	<g>
		
			<image style="overflow:visible;enable-background:new    ;" width="247" height="63" xlink:href="75474F58B175368F.png"  transform="matrix(0.9962 0 0 0.9962 369.8643 222.4018)">
		</image>
	</g>
</g>
<linearGradient id="SVGID_2_" gradientUnits="userSpaceOnUse" x1="371.8" y1="294" x2="614" y2="294" gradientTransform="matrix(1 0 0 -1 0 800)">
	<stop  offset="0" style="stop-color:#FDDFB0"/>
	<stop  offset="0.5053" style="stop-color:#FBDDAF"/>
	<stop  offset="0.6873" style="stop-color:#F4D8AC"/>
	<stop  offset="0.817" style="stop-color:#E9CFA6"/>
	<stop  offset="0.9211" style="stop-color:#D8C19D"/>
	<stop  offset="1" style="stop-color:#C5B294"/>
</linearGradient>
<linearGradient id="SVGID_3_" gradientUnits="userSpaceOnUse" x1="369.8" y1="293" x2="616" y2="293" gradientTransform="matrix(1 0 0 -1 0 800)">
	<stop  offset="0" style="stop-color:#FDDFB0"/>
	<stop  offset="0.5053" style="stop-color:#FBDDAF"/>
	<stop  offset="0.6873" style="stop-color:#F4D8AC"/>
	<stop  offset="0.817" style="stop-color:#E9CFA6"/>
	<stop  offset="0.9211" style="stop-color:#D8C19D"/>
	<stop  offset="1" style="stop-color:#C5B294"/>
</linearGradient>
<path class="st1" d="M614,253.8v475.3c0,16.1-54.2,29.1-121.1,29.1s-121.1-13-121.1-29.1V253.8c0,16.1,54.2,29.1,121.1,29.1
	S614,269.9,614,253.8z"/>
<g>
	
		<radialGradient id="SVGID_4_" cx="291" cy="341.145" r="88.1949" fx="290.994" fy="350.4092" gradientTransform="matrix(1 0 0 -1 0 800)" gradientUnits="userSpaceOnUse">
		<stop  offset="0.1083" style="stop-color:#FFF9F0"/>
		<stop  offset="0.3056" style="stop-color:#FFF5E5"/>
		<stop  offset="0.634" style="stop-color:#FEF0DB"/>
		<stop  offset="1" style="stop-color:#FEEFD7"/>
	</radialGradient>
	<path class="st2" d="M412.1,440c0,16.1-54.2,29.1-121.1,29.1s-121.1-13-121.1-29.1s54.2-29.1,121.1-29.1S412.1,423.9,412.1,440z"/>
	<g>
		
			<image style="overflow:visible;enable-background:new    ;" width="248" height="64" xlink:href="75474F58B175368D.png"  transform="matrix(0.9915 0 0 0.9915 168.1227 408.2487)">
		</image>
	</g>
</g>
<linearGradient id="SVGID_5_" gradientUnits="userSpaceOnUse" x1="169.9" y1="190.5" x2="412.1" y2="190.5" gradientTransform="matrix(1 0 0 -1 0 800)">
	<stop  offset="0" style="stop-color:#FDDFB0"/>
	<stop  offset="0.5053" style="stop-color:#FBDDAF"/>
	<stop  offset="0.6873" style="stop-color:#F4D8AC"/>
	<stop  offset="0.817" style="stop-color:#E9CFA6"/>
	<stop  offset="0.9211" style="stop-color:#D8C19D"/>
	<stop  offset="1" style="stop-color:#C5B294"/>
</linearGradient>
<linearGradient id="SVGID_6_" gradientUnits="userSpaceOnUse" x1="167.9" y1="189.5" x2="414.1" y2="189.5" gradientTransform="matrix(1 0 0 -1 0 800)">
	<stop  offset="0" style="stop-color:#FDDFB0"/>
	<stop  offset="0.5053" style="stop-color:#FBDDAF"/>
	<stop  offset="0.6873" style="stop-color:#F4D8AC"/>
	<stop  offset="0.817" style="stop-color:#E9CFA6"/>
	<stop  offset="0.9211" style="stop-color:#D8C19D"/>
	<stop  offset="1" style="stop-color:#C5B294"/>
</linearGradient>
<path class="st3" d="M412.1,440v309.9c0,16.1-54.2,29.1-121.1,29.1s-121.1-13-121.1-29.1V440c0,16.1,54.2,29.1,121.1,29.1
	S412.1,456.1,412.1,440z"/>
<path class="st4" d="M297.7,449.8v15.6h-6.6v-15.6c0-1.1,1.5-2,3.3-2C296.2,447.8,297.7,448.7,297.7,449.8z"/>
<g class="st5">
	<circle class="st6" cx="297.1" cy="426.2" r="40"/>
	<g>
		<g>
			<g>
				<g>
					<path class="st6" d="M275.1,481.5c-0.4-0.5-1.5,2.7-1.8,3.2C274.5,484.4,275.4,480.7,275.1,481.5z"/>
					<path class="st6" d="M285.5,476.7L285,478c0.6-1,1.3-2,1.9-3C286.4,475.6,285.9,476.2,285.5,476.7z"/>
					<path class="st6" d="M292.8,478c-0.1-2.9-0.7-2.7-1.5-2.1s-1.8,1.6-2.3,0.5v-1.3c-0.4,1.5-0.9,3-1.4,4.4c0.9-0.2,2-1,2.9-1.6
						C291.5,477.4,292.3,477.1,292.8,478z"/>
					<path class="st6" d="M296.7,490.5c-0.3-2.2,1.1-1.9-1.1-0.7c0.1,0.2,0.1,0.4,0.2,0.6C296,490.3,296.2,490.3,296.7,490.5z"/>
					<path class="st6" d="M295.8,490.3C294.8,490.5,296.4,492.2,295.8,490.3L295.8,490.3z"/>
					<path class="st6" d="M300.2,489c-0.4,0.7-0.8,1.4-1.2,2.1c0.3,1.3,1.5,1.5,1.1,2.5C301.4,492.4,301,491.1,300.2,489z"/>
					<path class="st6" d="M301.1,484.8l-0.6,0.9C300.7,486.2,300.8,486.4,301.1,484.8z"/>
					<path class="st6" d="M299.3,487.5c0.4-0.6,0.8-1.2,1.2-1.8c-0.2-0.9-0.3-2.8-0.6,0.7C300,484.6,299.8,486.3,299.3,487.5z"/>
					<path class="st6" d="M298.5,486.6c-0.7-1.2-1.5-2-0.4-4c-1.1,0.4-1.5,1.6-1.5,2.6C296.7,486.2,297.4,487.1,298.5,486.6z"/>
					<path class="st6" d="M293.6,472.1c-0.2-0.6-0.4-1.1-0.5-1.7l-0.8,1.8c0.2-0.5,0.5,0,0.7,0.3C293.3,472.8,293.6,473,293.6,472.1
						z"/>
					<path class="st6" d="M308.4,491c-0.1-1.2-1-3.1-1.3-4.6l-0.7,1.5C307,488.7,308,489.3,308.4,491z"/>
					<path class="st6" d="M307.1,486.4c0.3-0.8,0.6-1.5,0.9-2.3C306.9,484.1,306.8,485.1,307.1,486.4z"/>
					<path class="st6" d="M300.8,478.4c-0.5,1.5-1.1,3-1.7,4.5c0.8-1.5,1.5-3.1,2.1-4.6L300.8,478.4z"/>
					<path class="st6" d="M313.8,490l-0.1,2.9c0.1-1.5,0.3-3,0.4-4.5L313.8,490z"/>
					<path class="st6" d="M317.2,488.5c0.1,2.4,2,3.5,1.8,5c0.9-0.7,1.1-2.9,1.2-4.9C319.8,489.9,318.9,490,317.2,488.5z"/>
					<path class="st6" d="M320.5,485.8c-0.2,0.7-0.2,1.7-0.3,2.9C320.5,488,320.6,487.1,320.5,485.8z"/>
					<path class="st6" d="M310.3,484.3c0.3,0.7,0.9,2.5,1.8,3.1l-1.3-3.2C310.7,484.2,310.5,484.2,310.3,484.3z"/>
					<path class="st6" d="M310.8,484.1L310.8,484.1c0.6,0,1,0,1.2,0C311.8,484.1,311.5,484.1,310.8,484.1z"/>
					<path class="st6" d="M310.2,484.3h0.1C310.2,483.9,310.1,483.8,310.2,484.3z"/>
					<path class="st6" d="M304.2,481.2c0.5-2,1.5-4.2-0.2-6.9C303.9,476.7,304.9,478.2,304.2,481.2z"/>
					<path class="st6" d="M308.7,480.3c-0.5-0.2-0.9-0.4-1.4-0.5c0.2,0.9,0.7,2.1,0.5,3.1C308.1,482,308.4,481.1,308.7,480.3z"/>
					<polygon class="st6" points="309,479 308.7,480.3 309.2,480.4 					"/>
					<path class="st6" d="M317,483.6c0.1-1.6,0.6-1.9,1.2-2.4c-1-0.4-1.8-0.4-2.6-0.2C316,482.1,316.3,484.1,317,483.6z"/>
					<path class="st6" d="M313.9,483.7c0-0.1,0.1-0.1,0.1-0.2C313.8,483.2,313.7,483.1,313.9,483.7z"/>
					<path class="st6" d="M324.9,478.3c-0.1-0.2-0.3-0.3-0.4-0.5c0.1,0.2,0.2,0.3,0.3,0.5H324.9z"/>
					<path class="st6" d="M315.4,480.5c-0.7-0.4-0.8,0.5-0.8,1.6c0.3-0.5,0.7-0.8,1.1-1C315.6,480.6,315.5,480.3,315.4,480.5z"/>
					<path class="st6" d="M321.9,483.5c-0.6-0.5-1.1-0.9-1.7-1.3C320.9,483.1,322.1,484.4,321.9,483.5z"/>
					<path class="st6" d="M314.5,484.3c0,0.1,0,0.1,0,0.2C314.8,485.1,314.7,484.8,314.5,484.3z"/>
					<path class="st6" d="M314.5,484.3c0.2-0.6,0.1-1.4,0.1-2.2c-0.3,0.4-0.5,0.8-0.6,1.4C314.1,483.7,314.3,484,314.5,484.3z"/>
					<path class="st6" d="M315.7,458.2c0.8,1.4,1.3,2.8,1.3,3.7c0,0.8-0.5,1-1.7-0.3c0.3,2.5,5.3,11.6,9.2,16.2
						c-0.6-1.2-1.2-2.3-1-4.6c-0.6-0.6-1.7-1.2-2.6-2c-1-0.8-1.8-1.8-2-3.3c0.5-2.1,1.5,0.4,3,1.5c-1.2-1.6-1.5-3-2-4.7
						c-0.4-1.7-1.1-3.5-2.7-5.9c0.1,0.8,0.1,1.5,0.1,2.3C316.8,460.2,316.4,458.8,315.7,458.2z"/>
					<path class="st6" d="M322,478.6l-0.3,0.6c0.8,0.2,1.7,1.2,3.7,3c0.2-1.8-0.2-2.9-0.6-3.9l-2.7,0.8L322,478.6z"/>
					<path class="st6" d="M319.4,480.2c-0.9-3.3-0.4-5.2-2.6-8.3c-1.2,0.8,0.2,3-0.1,4.7c1-0.8,1-0.3,1.1,0.5
						c0.1,0.9,0.2,2.1,1.4,2.7c-0.3,0.7-0.6,1.1-1,1.3c0.6,0.2,1.2,0.5,1.9,1c-0.1-0.1-0.1-0.1-0.1-0.2l0,0l0,0
						c-0.3-0.4-0.4-0.6-0.2-0.4v-0.1C319.7,481,319.6,480.6,319.4,480.2c1,0.4,0.5,0.8,0.4,1.3c0.1,0.2,0.1,0.3,0.2,0.5l0,0
						c0.6-0.9,1.1-1.9,1.7-2.8C321,479,320.4,479.4,319.4,480.2z"/>
					<path class="st6" d="M303.9,466.8c0.1,0.3,0.1,0.5,0.2,0.8C304.1,467.1,304.1,466.8,303.9,466.8z"/>
					<path class="st6" d="M305,468.7c0,0.5,0.1,1.9-0.5,1.6c-0.6-1-0.3-1.6-0.5-2.7c-0.1,0.9-0.6,2.6,0.6,4.1l0.1-0.5
						c1,1,3,5.1,3,5.5C306.8,473.7,306.1,471.6,305,468.7z"/>
					<path class="st6" d="M311.4,474.1c0.4-0.7,0.8-1.4,1.2-2.2c-0.6-0.8-1.2-1.7-1.8-2.5l0.6,1.7
						C310.3,470.7,311.1,472.7,311.4,474.1z"/>
					<path class="st6" d="M325.9,479.7l1.4,3.3c-0.4-1.7-0.8-3.5-1.3-5.2L325.9,479.7z"/>
					<polygon class="st6" points="328.2,477.8 329.8,480.5 329.5,478.5 					"/>
					<path class="st6" d="M294,405.4l-0.1,0.9C293.9,406.1,294,405.7,294,405.4z"/>
					<path class="st6" d="M295.6,405.5l-0.1-1.6C295.6,404.8,295.6,405.4,295.6,405.5z"/>
					<path class="st6" d="M356.1,416.1c2.8-1.4,7-3.5,3.6-2.7l-3.3,1C357.1,415,356.8,415.6,356.1,416.1z"/>
					<path class="st6" d="M318.7,393.5c-0.1,0.3-0.3,0.6-0.4,1c0.8-0.9,1.5-1.7,2.2-2.5C319.9,392.4,319.3,392.9,318.7,393.5z"/>
					<path class="st6" d="M310.5,405.3c0.3-0.7,0.5-1.4,0.7-2.2C311,403.9,310.7,404.6,310.5,405.3z"/>
					<path class="st6" d="M287.5,411.7c0.6,1,1.2,2,1.8,3C289.5,414.6,288.4,413.2,287.5,411.7z"/>
					<path class="st6" d="M348,455.9c1.6,0,2.4-0.3,2.9-0.8C348.6,455.1,345.6,454.3,348,455.9z"/>
					<path class="st6" d="M290.3,368.7c-0.3,0.7-0.4,1.4-0.3,2.2C290.3,370.3,290.5,369.6,290.3,368.7z"/>
					<path class="st6" d="M352,453c-0.4,0-0.6,0-0.9,0c0.3,0.8,0.4,1.6-0.1,2.1C352.6,455.2,353.8,454.8,352,453z"/>
					<path class="st6" d="M280.3,437.5c-0.1,0.1-0.2,0.2-0.3,0.3C280.4,437.5,280.4,437.5,280.3,437.5z"/>
					<path class="st6" d="M269.7,474.1c-0.3,0.1-0.7-0.1-1-0.3C268.7,474.1,269,474.3,269.7,474.1z"/>
					<path class="st6" d="M338.7,471.9C338.4,472.5,338.9,472.2,338.7,471.9L338.7,471.9z"/>
					<path class="st6" d="M327.7,463.3c-0.2-0.4-0.4-0.8-0.9-1.4C327.2,462.6,327.5,463,327.7,463.3z"/>
					<path class="st6" d="M334.1,439.8L334.1,439.8C333.5,439.6,333.6,439.7,334.1,439.8z"/>
					<path class="st6" d="M336.9,471.3c0.5,0.2,0.9,0.2,1.3,0.2C337.9,471.4,337.5,471.4,336.9,471.3z"/>
					<path class="st6" d="M338.1,472.5c-0.3,0-0.5,0.1-0.6,0.1C337.8,473.1,338.1,473.3,338.1,472.5z"/>
					<path class="st6" d="M339.2,471.1c-0.2,0.3-0.6,0.4-1,0.4c0.3,0.1,0.4,0.2,0.5,0.3C338.8,471.7,338.9,471.5,339.2,471.1z"/>
					<path class="st6" d="M268.5,418.8c-0.1,0-0.2,0-0.3,0C269.5,419.4,269.3,419.2,268.5,418.8z"/>
					<path class="st6" d="M318.7,416.1c0.1,0,0.1,0,0.2,0l0.1-0.1L318.7,416.1z"/>
					<path class="st6" d="M316,416.5c4-1.6,3.6-1.1,2.9-0.5c3-1.5,5.9-3,8.9-4.6C323.8,413,319.9,414.7,316,416.5z"/>
					<path class="st6" d="M290.4,407.3c0.5,0.9,1,1.8,1.5,2.8c1.1,5.1,0.4,3.4,2.1,7.5c-1.8-5.1-1.6-5.6-1.3-5.9
						c0.3-0.3,0.6-0.7-0.6-6c0.3,0.7,0.6,1.4,0.9,2.1c-0.1-0.1,0,0.6-0.1,0.5c0.9,2.5,0.5,0.5,0.2-1.9s-0.7-5.2,0-4.6
						c0.5,0.8,0.9,2.3,0.9,3.6c0.1-0.9,0.2-1.9,0.4-2.8c0.3,0.2,0.4,2.1,0.2,1.9c0.3-0.3,0.7-0.6,1-0.9v0.3c0-1.7,0.3-4.4,0.5-5.5
						c0.4,1.5-0.1,1.2,0,2.5c0.2-0.9,0.4-1.8,0.7-2.7c0.2,1.4,0.1,2.8-0.1,3.8s-0.4,1.6-0.6,1.4c0.5,5.4,0.5,4.7,0.7,3.4
						c0.1-1.2,0.5-3,1,0.2c-0.2,0.5-0.4,0.9-0.5,1.4c0.1,3.1,0.2,4.1,0.3,4.8c0.1,0.7,0.3,1.1,0.3,3c0.1-1,0.1-3.4,0-5.9
						c0-2.5-0.1-5.1,0.3-6.4c0.2,0.8,0.3,1.2,0.9-1c-0.3,3.9,0.1,3,0.5,2.8l-0.7,5.1c0.5-1.4,0.9-4,1.5-6.2c0.5,0.6-0.2,4.5-0.7,7.8
						c0.2,0.5,0.4-1.1,0.7-2.9c0.3-1.8,0.5-3.8,1.1-4.2c0.1,1,0.4,1.1,0.9,0.5s1.1-1.8,2.1-3c0,1.9-1,3-1.3,4.4
						c0.5-1.2,1.1-2.5,1.7-3.7c0.1,0.1-0.4,1.3-0.6,1.9c0.9-1.4,1.7-4.8,2.9-5.9c1.1-2.6,0.8-0.6,0.5,1.4s-0.7,3.9,1.1,1.2
						c-0.4,1.4-1.4,2.8-2.2,4.6c1.4-1.7,2-2.3,2.6-3s1.3-1.6,3.2-3.8c-0.3,1.1-0.6,2.3-0.9,3.4c0.7-1.8,1.8-3.6,3.1-5.2
						c1.3-1.6,2.8-3.1,4.3-4.4c0.7-1.7,1.4-3.2,1.6-4c1-0.5,2-0.9,3.1-1.3c-0.3,0.8-1.5,2.2-2.9,3.8c0.3-0.3,0.7-0.6,1-0.8
						c-0.6,1.9-2.6,4.1-4.5,6.3c0.4-1,0.9-2,1.3-2.9c-2.1,2.4-4.2,5.1-5.7,7.7c0.4-0.5,0.8-0.8,1.1-1c-0.5,0.7-1,1.3-1.2,1.7
						c-0.3,0.5,0.5-0.4,1.4-1.4c-1,1.6-2,3.3-3,4.9l1.3-1.8c-0.3,1.3-0.6,2.5-1,3.7c1.1-1,2.3-2.1,3.5-3.2s2.5-2.2,3.8-3.1
						c2.5-1.9,5.1-3.3,6.8-3.3c-3.4,2.5-4.9,4.7-8.5,8.2c1.7-2,1-1.9,0-1.3c-1,0.5-2.4,1.4-2.4,0.8c0,0.7-1.7,2.4-2.3,3
						c1.4-0.9,2.8-1.8,4.3-2.5c-2.9,2.9-1.9,2.4-2.9,3.8c5.6-5.8,4.6-2.8,7-3.9c-2,1.8-4.2,3.4-4.2,2.5c-2,2.3-0.1,0.9,2-0.5
						s4.3-2.7,2.6-0.8c-0.2-0.1,0.1-0.5-1,0.3c2.2-1.1,1.4,1-0.7,2.2l-0.2-0.1c0,0.4,0.1,0.8,0.4,1.1c0.3,0.3,0.7,0.6,1.3,0.7
						c1.2,0.2,3.3-0.1,6.4-1.6c-0.8,0.4-7.3,3.7-8.5,4.3c7-3.1,14.3-5.6,21.8-7.5c-2.7,1-7.2,3.3-11.4,5.2c-4.2,1.9-8.2,3.5-9.9,3.8
						c-0.7,0.6-1.4,1.2,0.7,0.9c0.7-0.5,7.6-3.8,8.2-3.7c-2.8,1.7-3.6,2.1-4.3,2.5c-0.6,0.4-1.2,0.8-3.6,2.2c0.5-0.3,3-1.2,5.3-1.9
						c2.3-0.7,4.5-1.2,4.5-0.9c-1.3,0.4-8.6,2.9-9.5,3.1c3-0.6,6-1.1,9-1.5c-1.6,0.1-7.3,2.1-9.7,3c1.7-0.6,0.1,0.9,1,1
						c0.6-0.3,1.3-0.6,1.9-0.9c-0.5,0.8,2.7,0.4,6,0.1s6.7-0.4,6.6,0.6c-1.9,0-11.4,1.3-12.4,2.1c2.3-0.2,7.9-0.6,13.3-0.5
						s10.8,0.7,12.6,1.7l-2.6,0.5c1,0.5,2.1,1,3,1.6c-3.4-0.5-8.9-1.4-14.1-1.9c-5.3-0.5-10.3-0.7-13.2-0.8c-2,0.7-3.1,0.5-2.8,1
						c-2.5,0.4-3.7,0-3.9-0.1c-0.5,0.4-1,0.8-1.5,1.2c2.7-0.1,4.1,0,5.3,0.3c1.2,0.2,2.3,0.5,4.6,0.5c-1.8-0.6-3.8-1.1-5.6-1.5
						c2.7-0.2,6.5-0.2,9.6,0.2c1.5,0.2,2.9,0.5,3.8,0.8s1.3,0.8,1,1.1c-1.1,0.2-3.5,0-5.8-0.1c-2.3-0.2-4.6-0.3-5.5-0.3
						c1.8,0.1,3.5,1.2,2.2,1.3c-1-0.2-1.9-0.4-2.9-0.6c-1,0.2,0.8,0.6,2.1,0.9c1.4,0.4,2.3,0.8-0.3,0.9c-0.2,0.1-1.9,0.1-3.2,0
						c-1.3,0-2.1-0.1-0.6,0.2c6.1,0.6,25,2.8,29.5,4c-0.2,0.1-1.8,0.6-3.6,0.9c-1.8,0.4-4.1,0.6-5.7,0.6c-2.4-0.2-5.2-1.1-7.8-1.8
						c-2.7-0.8-5.3-1.5-7.3-1.7c1.4,0.3,3.1,0.9,3.7,1.2c-1.3,0-4.4-1.1-3.9-0.3c5.3,1.4-0.8,1.2,4.4,1.4c1.3,1.1-1.2,0.5-1.3,1.3
						c1.7,0.4,4.5,1.4,7,2.6s4.7,2.6,5.2,3.3c-1.3-0.5-3.1-0.9-3.9-1.1c-0.3,0.4-0.6,0.7-1,1c-0.4,0.2-0.9,0.4-1.4,0.6
						c-0.9,0.4-1.8,0.7-2.1,1.4c-1.2-0.4-3-0.5-4.9-1.9c0.8,0.6,2.3,1.7,2.1,2.1c-4.5-1.6-0.1-1.2-5.4-3.4c2.8,1.5,3.3,3.1,4.6,4.7
						c2.1,1.2,2.6,1,2.3,0.2c-0.3-0.7-1.3-1.9-2-2.6c3,1.6,5.9,3.5,8.2,5.5c2.3,2,4,4.2,4.7,6c0.4,2.5-4.1-1.8-3.4-1
						c-1.4,1,0.5,3.3,2.1,5.4s2.7,4-0.2,3.5c-2-1-3.6-2.4-5-3.8s-2.7-2.7-3.9-3.7c-0.2-1,0.7-0.9,1.6-0.7c0.9,0.2,2,0.5,2.2,0.1
						c-0.8-0.1-1.5-0.2-2.3-0.4c-0.9-1.2-1.2-2.5,0-2.2c-0.9-0.4-1.5-0.4-2.1-0.2c-0.3,0.1-0.5,0.3-0.7,0.5
						c-0.3,0.2-0.5,0.4-0.8,0.6c-1,0.9-2.1,2-4.1,1.3c0.7,1.3,1.2,2.8,2.6,3.9l0.1-0.9c1.4,1,2,2.1,2.4,3.1c0.4,0.9,0.7,1.7,1.6,1.9
						c0.4,1.3,1,2.8,1.2,4.1c0.1,0.6,0,1.1-0.2,1.5c-0.2,0.3-0.6,0.5-1.3,0.3l-3.2-3.7c0.9,1.1,2.6,1.7,2,0.2c0.4,1-1.1,0.1-2.3-0.4
						c-1.2-0.5-1.9-0.7-0.4,2.1c1,0.7,1.9,1.4,2.9,2.1c0.3,1.3,0.8,3.3,1,4.9s0,2.8-1.1,2.6c3.3,3.7,0-0.6,4.2,3.4
						c-2.4-2.6-1.5-3.2-0.6-3.8c0.8-0.6,1.6-1.1-1.3-3.6c2.4,2.3,3.3,2.5,4.1,2.6c0.8,0.1,1.6,0.1,4.1,1.6c-1.1-1.2-2.4-2-0.8-2.3
						c-0.3-0.4-0.5-1-0.7-1.3c0.1,0,0.1,0,0.2,0c-0.1,0-0.1-0.1-0.2-0.1c-0.1-0.2-0.1-0.3-0.1,0c-0.7-0.3-1.5-0.8-2.2-1.4
						c-1.9-3.3-0.3-4.6-1.2-6.4c1.1,0,1.1,1.5,2.6,2.5c-0.4-0.9-0.8-1.8-1.3-2.8c1.3,1.2,2.7,1.9,3.9,2.6c1.1,0.7,2,1.4,2.1,2.9
						l1.4-1.3c2.2,0.6,3.9-0.1,3.3-1.8c1.2-0.2-1.8-4.2,0-1.9c0-1.2,0-2.4-0.1-3.6l0.7,0.5c1.1-1,0.5-3.1,0.6-4.7s0.9-2.8,4.4-2.8
						c-0.4-1.3-1-2.6,0.6-3.6l3,0.9c-0.2-0.8,0.8-1.4,1.6-2c0.8-0.6,1.3-1.3-0.2-2.1c2.1,0.4,3.4,0.2,4.2-0.3
						c0.8-0.5,1.1-1.3,1.1-2.2c0-1.8-0.8-3.9,0.2-4.9l-4-0.9c0.5-1.4-0.4-3.1-1.8-5.1l-3.6-0.3c-1.4-0.9-0.6-1.7,0.4-2.7
						s2.3-2.1,2.2-3.3c1.4,0.2,1,0.8,0.1,1.2c2-0.7,2.7-1.5,2.7-2.2c-0.1-0.8-1-1.5-1.9-2.2c-1.9-1.4-3.9-2.6-1.2-4.2
						c-1.4-0.5-1-1-0.2-1.6c0,0.1,0.1,0.1,0.2,0.1c0-0.1,0-0.2,0-0.3c0.6-0.4,1.2-0.8,1.7-1.2c-0.8,0.4-1.5,0.8-1.8,1.1
						c-0.2-0.5-0.7-1.2-1.7-1.7l3.7-1.1c-0.1-0.1-0.1-0.1-0.1-0.2c1.3-1.1-1.9-0.2-4.7,0.7c-0.7-0.2-1.5-0.4-2.5-0.4
						c3-0.9,2.3-1.3,1.8-1.7c-0.6-0.4-1.1-0.7,2-2c-1.6,0.2-2.4-0.5-3.7-1.1c-1.3-0.5-3-0.8-6.3,0.2c0.8-0.3,1.2-0.6,1.3-0.3
						c0.5-0.9,0.9-1.9-1.1-1.8l4.4-2.1c-2.2,0.3-4.5,0.6-6.7,1.1c2.3-2,3.7-3.2,7.6-3.8c-3.2,0-3.9-0.1-4.6-0.3
						c-0.7-0.1-1.3-0.3-4.3,0.2l2.8-1.4c-0.5-0.6-4.7,0.6-2.7-1.1c1.1-1.1,1.4-2.1,1.3-3.1s-0.7-1.9-1.3-2.9c-1.2-2.1-3-4-2.5-7.6
						c-3.1,3.6-2.6,2.5-2.1,1.1c0.5-1.3,1-3-1.6-0.5c1.3-1.8,1.7-3.1,3.6-4c-1.6,0-1.7-1.2-2-2.1c-0.3-0.8-1-1.2-3.5,0.7
						c1.1-1.9,2.4-2.2,3-3.4c-0.5,0.3-1.8,1.1-1.2-0.2c0.6-1.2,1.4-1.3,2.3-1.8c-2.4-1.3-6.5,4.1-10.3,9.2c0.4-1.5,0.5-2.3,0-2.3
						s-1.4,0.8-2.8,2.4c0.8-1.9,1.4-4.1,3-4.1c-0.2-0.3-0.8-1.6-1.8-2.2c-0.9-0.6-2.1-0.6-3.3,1.6c0.4-1.3-0.8-0.8-1.2-0.3
						c-1.3-1-1.3-1.5-3-1.7l0.1,1c-1.5,2.7-1.9,2.9-2.1,2.5s-0.3-1.5-1-1.4l0.2-0.6c-0.6-2.6-1.1-2.2-1.6-1.9
						c-0.2,0.2-0.4,0.3-0.7,0.1c-0.2-0.3-0.5-0.9-0.9-2.3l-0.9,3.7c-1.2,3.9-1.4,2.6-1.7,0.7c-0.3-2-0.8-4.7-1.9-3.3l0.2,2.3
						c-0.7,1.3-0.7-1.6-0.9-4.9c-0.1-3.3-0.4-7.2-0.9-7.8c-0.2-0.7,0.5-1.1,0.9-1.6c-2.4-5.2-1,4.9-3.2,5.8
						c-0.1-2.7,1.2-6.8-0.3-7.5c-0.3-1.1-1.6,1-2.8,2.8c-1.3,1.8-2.5,3.1-3.5,0.6c0.5,2.1,0.9,4.1,0,5.7c-0.7,0.4-1.7-1.5-2.7-2.7
						s-2.1-1.6-2.3,1.8c-0.2-0.5-0.4-1.1-0.5-1.6c-0.9,1.8-3.1,3.3-2.9,6.9c-1.8-6.4-3.2-4.4-4.1-2.3c-1,2-1.6,4.2-3.5-1.5l-2.9,1.8
						l-0.4-1.2c-1.2,0-1.6,0.8-1.7,2c-0.1,1.1,0.2,2.6,0.5,4.1c-0.8-0.6-1-1.7-1.2-2.3c-3.8-0.9-4.1,0-2.9,6.3l-2.3-3.2
						c0.3,1.1-1.4,0.4-3.3,0.2c-0.9-0.1-1.9-0.1-2.6,0.3s-1.2,1.2-1,2.6c-0.3-0.4-0.7-1-0.9-1.6c0.1,1.5-0.7,2-1.8,2.2
						c-1.1,0.2-2.6,0.1-3.8,0.3c-2.4,0.3-3.8,1.5,1.3,6.6c0.4,1.3,0.9,2.6,1.5,3.9c1.2-0.7,2.4,0.4,3.6,1.7c1.2,1.3,2.4,2.8,3.6,3.2
						c0.1,0.6-1.1,0.4-2.3-0.1c-1.2-0.5-2.5-1.3-2.4-2l0.7,0.3c-2.9-2.5-3.9-2.2-4.7-1.7c-0.8,0.5-1.4,1.2-3.5-0.2
						c-0.6,1.2-1.5,2.3-2.5,3.4c-0.5,0.5-1,1-1.5,1.6c-0.5,0.5-1,1-1.6,1.6c-0.5,0.5-1.1,1.1-1.6,1.6c-0.5,0.6-0.9,1.1-1.4,1.7
						c-0.9,1.2-1.7,2.4-2.1,3.7c1.9,0.3,3.8,0.7,5.8,1c-0.3,0.5-0.5,1.1-0.8,1.6c-1.4,0.1-4.6-0.5-4-1.8c-1.7-0.1-1.2,0.7,0,1.5
						c1.1,0.8,2.8,1.6,3.4,1.7c-1.4,1-3.1,0.4-4.3-0.4c-1.3-0.8-2.2-1.8-2.4-1.4l0.2,1.2l0.7-0.1c1.1,0.7,2.2,1.2,3,1.7s1.3,1,1,1.7
						c-1.3,0.8-3.6,0-3.9,0.3c-0.4-0.1-0.6,0.1-0.3,0.6l-0.8,2.4c1.6-0.2,3.1-0.3,4.7-0.5c2.1,1.2-0.5,2.1,4.8,1.5
						c-4.1,0.3-4.9,2.5-5,4.5c0,2.1,0.8,4-0.4,4.6c0.9,0.3,1.5,0.6,2,0.9s0.9,0.6,1.1,0.9c0.5,0.7,0.5,1.4,0.4,2.3
						c0.9-0.6,6-1.6,5.5-0.3c-5.3,0.8-6.4,1.6-6.9,2.7c-0.5,1-0.7,2.2-4.2,3.9c2.3-1.2,2.9-0.2,3.7,0.6c0.8,0.8,2,1.3,5.1-0.6
						c-0.4,1.4-3.8,1.3-5.9,3c1.2,0.4,1.8,1,2.1,1.8c0.1,0.4,0.2,0.8,0.2,1.3s0,0.9,0,1.5c-0.2,2-0.6,4.5,1.1,5.8
						c1.2-0.7,2.8-2.3,5-2.7c-1.7,1.7-3.4,3.5-5,5.4c0.5,0.2,2.3-0.8,3.5-1.3s1.9-0.6,0.3,1.3c0.9-0.8,2.2-2.1,2.8-1.9
						c-0.2,1.2-0.1,2.3,0.2,3.2c0.3,0.9,0.7,1.8,1.4,2.4c0.6,0.7,1.3,1.3,2.1,1.9c0.4,0.3,0.7,0.6,1.1,0.8l1.2,0.7
						c1.6,1,3,2.1,4.1,3.8c0.5,0.9,0.9,1.9,1.2,3.2c0.3,1.3,0.5,2.8,0.5,4.7c0.5-2.9,1.3-2.7,2-2.4c-0.1-0.8,1.8-3,2.7-4.7
						c-0.1,2-0.1,4.1,0.1,6.1c1.5-2.2,2.3-2,3-1.7s1.4,0.6,2.6-1.7l-1.2,0.4c1.8-2.5,2.7-5.7,3.8-9.1c1.1-3.4,2.3-6.9,4.1-10.3
						c-0.9,1.4-1.3,1.5-1.3,1s0.3-1.7,0.6-2.8c0.5-2.2,1.1-3.9-2.1-0.2c0.6-1.4,1.6-2,2.4-3.5c-2,2.6-2.8,2.9-2.5,1.3l0.5-0.6
						c-1-0.3-1.3-1.1-1.1-2.4c0.1-0.6,0.2-1.3,0.3-1.9c0.1-0.7,0.2-1.4,0.4-2.1l-2.6,2.7c0.1-0.7,0.9-1.6,1.4-2.4
						c-4.6,3.5,0.6,1.1-4.3,5.2c2.5-2.9,2.1-3.5,1.6-4.2c-0.4-0.7-0.6-1.5,2.9-4.2c-0.3-0.5-3.4,2.7-3.8,2.2l1.8-1.5l-2.6,1.6
						c0.1-0.7,2.5-2.5,4.2-3.6c-0.2,0.2,0.6-0.1,0.8-0.1c1.1-1,0.7-1.1,0.2-1.1s-1.3,0.2-0.9-0.1c-0.3,0.4-0.7,0.8-1,1.2
						c-0.7-0.1-1.1-0.3-1.4-0.7c-0.3-0.4-0.4-0.8-0.7-1.2c-0.1-0.2-0.3-0.4-0.5-0.5c-0.2-0.2-0.4-0.3-0.6-0.5
						c-0.5-0.3-1.4-0.4-2.7-0.5l-1.6,0.7c-0.9-0.1-1.3-0.3-1.3-0.5s0.2-0.4,0.5-0.7c0.6-0.5,1.4-1,0.5-1.6h0.4
						c-1.8,0.1-2.8-0.2-2.6-0.7c1.1,0,2-0.4,3-0.7c1-0.3,2-0.6,3.2-0.6c-1.9-0.4-2.6-0.5-3.7-0.5s-2.6,0.2-5.9-0.1l2.9-0.6
						c-2.7-0.1-4.1-0.1-4.9-1c1.3,0.3,2.4,0.1,3.6-0.1s2.5-0.3,4.3-0.1c1.6-0.5,2-0.8,1.8-1.1c-0.2-0.3-0.9-0.5-1.5-0.8
						c-1.2-0.5-2.1-1,2.6-1.1c-8.2-1.3-4.6,1.2-6.3,0.7c-1.3,0.2-2.9,0-4-0.4s-1.7-0.9-1.3-1.2c0.1-0.3,2.7-0.4,5.4-0.5
						c2.6-0.1,5.2-0.2,5.2-0.8c-0.1,0.1,0.6,0.2,0.5,0.3c1.1-0.1,0.4-0.4-0.1-0.7c-0.5-0.3-0.9-0.7,0.9-0.6c-2.4-0.6-2.3-0.8-2.3-1
						c-0.1-0.2-0.3-0.4-3.4-1.1c0.4,0.5,0.7,1.1,1.1,1.6c-0.7-0.5-2.9-1.3-4.3-2.1c-1.5-0.8-2.2-1.7-0.3-1.9
						c1.2,0.5,2.7,1.3,3.6,1.8c1.9,0.1-1.1-1,0.9-0.9c3,1,3.2,1.4,3.3,1.8c0.1,0.4-0.1,0.9,2.2,1.8c1.3,0.1,0.3-0.4-0.3-0.7
						c-0.6-0.4-0.6-0.5,2.7,0.5c-4.2-1.3-3.8-1.5-3.3-1.7c0.6-0.2,1.5-0.2-1.5-1.7l3.6,1.3c-0.5-0.3-2.1-1.1-2-1.3
						c1.5,0.7,3,1.4,4.5,2c-1.9-1-0.9-0.9,0.2-0.7c1.1,0.2,2.6,0.5,1.6-0.1c-0.2,0.5-1.3,0.1-2.6-0.5c-1.4-0.6-3.1-1.4-4.5-1.6
						c-2-1.8,0.4-1.1,3.2-0.1c2.7,1,5.8,2.2,5.2,1.2c0.4,0.4-2.3-0.4-3.8-1.5c0.8,0.1,2.3,0.4,4.1,1.3c-0.1-0.6-1-1-2-1.5
						c-1.1-0.5-2.4-1-3.2-1.8c4.2,2-1.4-1.4-2.3-2.7l3.3,2.1c2.7,0.3-6.5-4.8-3.2-4.2c1.3,1.2,2.7,2.4,4,3.6
						c-0.3-0.4-0.5-0.9-0.7-1.3l3.5,2.7c-1.1-1.2-1.5-1.7-1.4-1.9c0.1-0.2,0.6,0,1.3,0.2c-2.2-1.6-5.3-4.6-4.9-5.2
						c2,1.2,2.6,2.6,2.7,1.6c1.6,1.8,3.8,4,0.9,1.8c0.9,0.9,1.7,1.7,2.6,2.6c2.2,1.5,1-0.2,1.1-0.5c-0.2,0-0.4-0.1-0.8-0.4
						c-0.5-0.7-1.1-1.5-1.6-2.3s-1-1.5-1.4-2.3c1.1,0.9,1.8,1.9,2.5,2.8c-0.1-0.4-1.2-1.9-1.2-2.3c2,2.4,4.2,4.8,4.9,6.1
						c-0.6-1-1.2-2.1-1.7-3.2c0.9,1,2.7,2.6,3.4,3.5c0.7,0.6,0-0.7-0.6-2s-1.1-2.7-0.2-1.9c-0.3-0.5-0.6-1-0.7-1.5
						c0.5,0.1,1.3,0.9,1.8,1.2c0.3,0.1,0.4,0.1,0.4-0.1c0-0.3-0.1-0.8-0.4-1.9c1,1.6,1.9,3.2,2.8,4.9c-0.1-0.7-0.9-2.2-1.8-3.9
						c-0.9-1.7-1.8-3.4-1.7-4.6c0.1-2,2.2,4.3,3,5.6c-0.4-1.4-1-3.4-1.1-4.7c-0.1-1.3,0.2-1.7,1.2,0.4
						C290.9,407.6,290.5,406.9,290.4,407.3z M298.2,403.7c-0.2,0.8-0.6,3.3-0.6,1C297.8,400.3,298,402.4,298.2,403.7z M316.1,400.7
						c-0.9,0.9-0.7,0.3-0.1-1.1C316.3,399.5,316.4,399.8,316.1,400.7z M341.2,464.8c0-0.1-0.1-0.1-0.1-0.2
						C342.9,464.9,342.2,464.7,341.2,464.8z M338.6,465.2c0.3,0.5,0.7,0.9,1.1,1.2c-0.6-0.8-0.4-1.2,0.2-1.4
						C339.1,464.4,338.4,464.1,338.6,465.2z M242.2,418.2l1.1-0.2C244.2,419,243.3,418.6,242.2,418.2z"/>
					<path class="st6" d="M311.5,403.9c0.3-0.6,0.7-1.2,1.1-1.8C312.1,402.6,311.7,403.3,311.5,403.9z"/>
					<path class="st6" d="M287.2,411.2C287.1,411.1,287.1,411.2,287.2,411.2c0.1,0.2,0.2,0.4,0.3,0.6L287.2,411.2z"/>
					<path class="st6" d="M320.8,431.3c0.6-0.1,1.3,0,2,0.1C321.9,431.2,321.1,431.1,320.8,431.3z"/>
					<path class="st6" d="M334.6,477.4l0.5-1.6c-0.4,0.6-1.1,0-1.8-0.3C333.9,476.2,334.9,477.1,334.6,477.4z"/>
					<path class="st6" d="M313.9,462.1c0.1,0.5-0.2,0.2-0.1,0.7l0.8,1.6C315,464,314.7,462.5,313.9,462.1z"/>
					<path class="st6" d="M326.2,467.7c-1.9-2.6-1.8-1.3-2.2-0.4l0.1-0.1C326.4,471.2,326.4,469.5,326.2,467.7z"/>
					<path class="st6" d="M323.9,467.5c-0.1,0.3-0.3,0.4-0.6,0.4C324.3,469.5,323.8,468.1,323.9,467.5z"/>
					<path class="st6" d="M338.4,468.5c-0.9-0.3,2.7,3.2,1.6,2.4c1.2,1.7,1,0.2,0.3-1.2C339.5,468.3,338.5,466.9,338.4,468.5z"/>
					<polygon class="st6" points="319.6,459.3 322.1,462.4 320.6,459.5 					"/>
					<path class="st6" d="M325.5,458.4l-1.5-0.1c0.4,0.5,0.6,0.9,0.7,1.2C325.2,459.2,326.3,459.3,325.5,458.4z"/>
					<path class="st6" d="M324.6,459.5c-0.3,0.2-0.5,0.4-0.3,1.1C324.5,460.4,324.7,460.1,324.6,459.5z"/>
					<polygon class="st6" points="320,457.5 320.8,458 321.5,457.8 					"/>
					<path class="st6" d="M333.7,450.1l-0.4-1.6c-1.1-0.8-2-1-1.7-0.4C332.3,448.9,332.5,449.6,333.7,450.1z"/>
					<path class="st6" d="M322.9,446.3c0.8,0.3,1.5,0.8,2.7,1.5l-3.9-3L322.9,446.3z"/>
					<path class="st6" d="M323.5,443.6c-1.1-0.9-2.8-3.1-3-2.1C321.6,442.3,322.1,443.6,323.5,443.6z"/>
					<polygon class="st6" points="334.4,432.6 334.5,432.9 342.5,434.3 					"/>
					<path class="st6" d="M315.1,422.7c-1.8,0.9,5-0.8,2.7,0.3c1.9-0.1,1.9-0.9,3.5-1C319.3,421.9,320.4,421.5,315.1,422.7z"/>
					<path class="st6" d="M321.3,422c0.3,0,0.7,0,1.3,0C322.1,422,321.7,422,321.3,422z"/>
					<path class="st6" d="M271.5,480c0.1,0.7,0.3,1.4,0.4,2.1c0.1-0.9,0.3-1.9,0.4-2.8L271.5,480z"/>
					<path class="st6" d="M276.1,475.4l-1.8,4.9c0.8-1.3,1.6-2.7,2.4-4.1C276.4,476.4,275.8,476.6,276.1,475.4z"/>
					<path class="st6" d="M298.3,414.2l0.2-1.2c0.1-1.4,0-1.5-0.1-1.7C298.4,412.3,298.4,413.2,298.3,414.2z"/>
					<polygon class="st6" points="294.3,410.5 294.4,410.6 293.4,406 					"/>
					<path class="st6" d="M293.1,417.1c0.2,0.1-0.1-0.9,0-0.7C293.3,417.2,290.7,411.7,293.1,417.1z"/>
				</g>
			</g>
		</g>
	</g>
</g>
<radialGradient id="SVGID_7_" cx="294.0957" cy="359.001" r="20.0016" fx="294.2479" fy="369.4853" gradientTransform="matrix(0.8256 0.1612 0.1285 -0.6578 7.6142 637.6814)" gradientUnits="userSpaceOnUse">
	<stop  offset="0" style="stop-color:#FFFFFF"/>
	<stop  offset="6.925797e-02" style="stop-color:#FFFBF4;stop-opacity:0.9931"/>
	<stop  offset="0.5119" style="stop-color:#FDE1B3;stop-opacity:0.9488"/>
	<stop  offset="0.834" style="stop-color:#FBD08B;stop-opacity:0.9166"/>
	<stop  offset="1" style="stop-color:#FBCA7B;stop-opacity:0.9"/>
</radialGradient>
<path class="st7" d="M309.8,456.1c-0.3,1.4-0.9,2.6-1.8,3.7c-1.3,1.5-3.1,2.8-5.2,3.5c-2.8,1-6,1.1-9.2,0.4l0,0l-0.3-0.1
	c-3.3-0.7-6.4-2.1-8.5-4.3c-1.4-1.4-2.5-3-3-4.7c-0.4-1.3-0.5-2.7-0.2-4.1c0.6-3.3,3.2-5.8,6.8-7.1c2.1-0.8,3.9-1.9,5.1-3.5l3.9-5
	c1.2-1.5,4-1,4.5,0.9l1.7,6.4c0.5,1.8,1.6,3.5,3.1,4.9C309.1,449.8,310.4,453,309.8,456.1z"/>
<path class="st4" d="M496.7,263.5v15.6h-6.6v-15.6c0-1.1,1.5-2,3.3-2C495.2,261.5,496.7,262.4,496.7,263.5z"/>
<g class="st5">
	<circle class="st6" cx="496.1" cy="229" r="51.1"/>
	<g>
		<g>
			<g>
				<g>
					<path class="st6" d="M470,294.6c-0.5-0.5-1.5,2.7-1.9,3.2C469.5,297.5,470.3,293.7,470,294.6z"/>
					<path class="st6" d="M482,290.3l-0.5,1.3c0.7-1,1.4-2,2.1-2.9C483.1,289.2,482.6,289.8,482,290.3z"/>
					<path class="st6" d="M490.9,291.8c-0.2-2.9-1-2.8-1.9-2.2c-0.9,0.6-2.1,1.6-2.7,0.5v-1.3c-0.5,1.5-1,3-1.5,4.4
						c1.1-0.2,2.4-1,3.5-1.5C489.3,291.2,490.3,291,490.9,291.8z"/>
					<path class="st6" d="M495.6,304.3c-0.3-2.2,1.2-1.9-1.3-0.7c0.1,0.2,0.2,0.4,0.2,0.6C494.8,304.2,495.1,304.2,495.6,304.3z"/>
					<path class="st6" d="M494.5,304.2C493.4,304.3,495.2,306.1,494.5,304.2L494.5,304.2z"/>
					<path class="st6" d="M499.7,302.8c-0.5,0.7-0.9,1.4-1.4,2.1c0.3,1.3,1.7,1.5,1.3,2.5C501.1,306.2,500.7,304.9,499.7,302.8z"/>
					<path class="st6" d="M500.8,298.6l-0.7,0.9C500.3,300,500.5,300.2,500.8,298.6z"/>
					<path class="st6" d="M498.7,301.3c0.5-0.6,1-1.2,1.5-1.9c-0.3-0.9-0.4-2.8-0.7,0.7C499.5,298.5,499.3,300.1,498.7,301.3z"/>
					<path class="st6" d="M497.8,300.5c-0.8-1.2-1.8-2-0.5-4c-1.3,0.4-1.8,1.6-1.8,2.6C495.6,300.1,496.4,301,497.8,300.5z"/>
					<path class="st6" d="M491.8,285.9c-0.2-0.6-0.5-1.1-0.7-1.7l-0.9,1.8c0.2-0.4,0.6,0,0.9,0.3
						C491.5,286.7,491.8,286.8,491.8,285.9z"/>
					<path class="st6" d="M509.3,304.7c-0.1-1.2-1.1-3.1-1.4-4.6l-0.8,1.6C507.7,302.4,508.9,303,509.3,304.7z"/>
					<path class="st6" d="M507.9,300.1c0.4-0.8,0.8-1.5,1.2-2.3C507.7,297.8,507.6,298.8,507.9,300.1z"/>
					<path class="st6" d="M500.6,292.2c-0.7,1.5-1.4,3-2.1,4.5c0.9-1.5,1.8-3.1,2.6-4.6L500.6,292.2z"/>
					<path class="st6" d="M515.6,303.5l-0.2,3c0.2-1.5,0.4-3,0.6-4.5L515.6,303.5z"/>
					<path class="st6" d="M519.6,301.9c0,2.5,2.2,3.4,1.9,5c1-0.8,1.4-3.1,1.6-5.1C522.5,303.1,521.4,303.2,519.6,301.9z"/>
					<path class="st6" d="M523.5,298.9c-0.2,0.7-0.3,1.8-0.5,3C523.3,301.2,523.5,300.3,523.5,298.9z"/>
					<path class="st6" d="M511.8,297.8c0.3,0.7,0.9,2.5,2,3.1l-1.4-3.2C512.2,297.8,512,297.8,511.8,297.8z"/>
					<path class="st6" d="M512.3,297.6L512.3,297.6c0.7,0,1.2,0,1.4,0C513.5,297.6,513.1,297.6,512.3,297.6z"/>
					<path class="st6" d="M511.6,297.9c0.1,0,0.1,0,0.2,0C511.6,297.5,511.6,297.4,511.6,297.9z"/>
					<path class="st6" d="M504.6,295c0.6-2,1.9-4.3-0.1-6.9C504.3,290.4,505.5,291.9,504.6,295z"/>
					<path class="st6" d="M510,293.9c-0.6-0.1-1.1-0.3-1.7-0.5c0.2,0.9,0.7,2.1,0.5,3.1C509.2,295.6,509.6,294.8,510,293.9z"/>
					<polygon class="st6" points="510.5,292.6 510,293.9 510.6,294 					"/>
					<path class="st6" d="M519.7,296.9c0.2-1.7,0.9-2,1.6-2.6c-1.1-0.3-2.1-0.3-3,0C518.5,295.4,518.7,297.4,519.7,296.9z"/>
					<path class="st6" d="M516,297.1c0-0.1,0.1-0.1,0.1-0.2C515.9,296.6,515.8,296.5,516,297.1z"/>
					<path class="st6" d="M529.1,290.8c-0.1-0.2-0.3-0.3-0.4-0.5c0.1,0.2,0.2,0.3,0.2,0.5H529.1z"/>
					<path class="st6" d="M517.9,293.8c-0.9-0.4-1,0.5-1,1.7c0.4-0.5,0.8-0.9,1.4-1.1C518.2,293.8,518.1,293.5,517.9,293.8z"/>
					<path class="st6" d="M525.3,296.5c-0.6-0.5-1.3-0.9-1.9-1.2C524.1,296.1,525.5,297.3,525.3,296.5z"/>
					<path class="st6" d="M516.6,297.7c0,0.1,0,0.1-0.1,0.2C517,298.5,516.8,298.2,516.6,297.7z"/>
					<path class="st6" d="M516.6,297.7c0.2-0.6,0.2-1.5,0.3-2.3c-0.3,0.4-0.6,0.8-0.8,1.4C516.3,297.1,516.4,297.4,516.6,297.7z"/>
					<path class="st6" d="M520.3,270.6c0.8,1.4,1.2,2.9,1.1,3.8c0,0.4-0.2,0.7-0.6,0.7c-0.3,0-0.8-0.3-1.5-0.9
						c0.1,2.6,5.3,11.7,9.3,16.2c-0.6-1.2-1.2-2.3-0.8-4.8c-0.7-0.6-1.8-1.1-2.9-1.9c-1.1-0.8-2-1.8-2.1-3.3c0.4-1.1,0.8-1,1.4-0.6
						c0.6,0.5,1.2,1.4,2,1.9c-1.3-1.5-1.5-3.1-1.9-4.8c-0.3-1.7-0.8-3.7-2.5-6c0,0.8-0.1,1.6-0.1,2.4
						C521.3,272.6,521,271.1,520.3,270.6z"/>
					<path class="st6" d="M525.8,291.4l-0.4,0.6c0.9,0.2,1.9,1.1,4,2.9c0.3-1.9,0-3-0.4-4l-3.1,1L525.8,291.4L525.8,291.4z"/>
					<path class="st6" d="M522.7,293.2c-0.8-3.3-0.1-5.3-2.4-8.4c-1.5,0.9,0,3.1-0.4,4.9c1.2-0.9,1.2-0.4,1.2,0.5s0,2.1,1.5,2.6
						c-0.3,0.8-0.8,1.1-1.2,1.4c0.7,0.2,1.4,0.5,2.1,0.9c-0.1-0.1-0.1-0.1-0.2-0.2l0,0l0,0c-0.3-0.4-0.4-0.6-0.2-0.4v-0.1
						C522.9,294.1,522.8,293.7,522.7,293.2c1.1,0.4,0.5,0.8,0.4,1.3c0.1,0.2,0.1,0.3,0.2,0.5l0,0c0.8-0.9,1.4-2,2.1-3
						C524.5,291.8,523.9,292.3,522.7,293.2z"/>
					<path class="st6" d="M504.7,280.5c0.1,0.3,0.2,0.5,0.2,0.8C505,280.8,505,280.5,504.7,280.5z"/>
					<path class="st6" d="M506.1,282.4c-0.1,0.5,0,1.9-0.6,1.6c-0.7-0.9-0.3-1.6-0.5-2.7c-0.2,1-0.8,2.6,0.6,4.1l0.1-0.5
						c1.2,1,3.4,5,3.4,5.5C508,287.4,507.3,285.3,506.1,282.4z"/>
					<path class="st6" d="M513.5,287.5c0.6-0.7,1.1-1.5,1.6-2.3c-0.7-0.8-1.3-1.6-2-2.5l0.6,1.7
						C512.4,284.1,513.3,286.1,513.5,287.5z"/>
					<path class="st6" d="M530.1,292.2l1.4,3.4c-0.3-1.7-0.7-3.5-1.1-5.3L530.1,292.2z"/>
					<polygon class="st6" points="532.9,290.1 534.4,292.8 534.2,290.7 					"/>
					<path class="st6" d="M491.3,197.4l-0.2,0.9C491.3,198,491.3,197.7,491.3,197.4z"/>
					<path class="st6" d="M493.9,197.3v-1.6C493.8,196.6,493.8,197.3,493.9,197.3z"/>
					<path class="st6" d="M566,217.1c2.7-1.6,7-3.9,3.5-3l-3.3,1C566.9,215.8,566.6,216.5,566,217.1z"/>
					<path class="st6" d="M523.8,187.1c-0.1,0.3-0.3,0.7-0.4,1c0.8-0.9,1.6-1.7,2.3-2.4C525.1,186.1,524.5,186.6,523.8,187.1z"/>
					<path class="st6" d="M515.5,198.9c0.2-0.8,0.4-1.5,0.5-2.3C515.8,197.4,515.6,198.1,515.5,198.9z"/>
					<path class="st6" d="M480.4,205.4c0.5,1,1.1,2.1,1.7,3.1C482.5,208.2,481.3,206.9,480.4,205.4z"/>
					<path class="st6" d="M556.5,264.3c1.7-0.2,2.6-0.6,3.1-1.1C557.2,263.3,554.2,262.6,556.5,264.3z"/>
					<path class="st6" d="M488,160.6c-0.4,0.7-0.5,1.4-0.4,2.2C488,162.2,488.2,161.5,488,160.6z"/>
					<path class="st6" d="M560.8,260.7c-0.4,0-0.6,0.1-1,0.1c0.2,0.9,0.3,1.8-0.3,2.5C561.3,263.2,562.6,262.6,560.8,260.7z"/>
					<path class="st6" d="M470.1,246.5c-0.1,0.1-0.1,0.2-0.3,0.3C470.3,246.5,470.2,246.5,470.1,246.5z"/>
					<path class="st6" d="M463.2,286.5c-0.4,0-0.8-0.2-1.2-0.4C462.1,286.4,462.4,286.6,463.2,286.5z"/>
					<path class="st6" d="M545.1,282.8C544.7,283.5,545.3,283.2,545.1,282.8L545.1,282.8z"/>
					<path class="st6" d="M533.7,274.7c-0.1-0.4-0.4-0.8-0.9-1.5C533.3,273.9,533.5,274.4,533.7,274.7z"/>
					<path class="st6" d="M543.5,246.4L543.5,246.4C542.8,246.3,542.9,246.3,543.5,246.4z"/>
					<path class="st6" d="M543.2,282.4c0.5,0.1,1,0.2,1.4,0.1C544.3,282.4,543.9,282.4,543.2,282.4z"/>
					<path class="st6" d="M544.4,283.5c-0.3,0.1-0.5,0.1-0.7,0.2C544,284.2,544.3,284.4,544.4,283.5z"/>
					<path class="st6" d="M545.8,282c-0.3,0.3-0.7,0.5-1.1,0.6c0.3,0.1,0.4,0.2,0.5,0.3C545.2,282.7,545.4,282.4,545.8,282z"/>
					<path class="st6" d="M456.9,218.9c-0.1,0-0.2,0-0.3,0C457.8,219.6,457.7,219.4,456.9,218.9z"/>
					<path class="st6" d="M527.7,214.3c0,0,0.1,0,0.2,0l0.1-0.1L527.7,214.3z"/>
					<path class="st6" d="M524.8,214.3c4.1-1.5,3.8-0.9,3.1-0.1c3-1.5,5.9-3.1,8.8-4.7C532.7,210.9,528.7,212.6,524.8,214.3z"/>
					<path class="st6" d="M485.7,199.8c0.6,0.9,1.2,1.8,1.7,2.7c0.8,5.2-0.1,3.6,1.8,7.6c-0.9-2.6-1.2-4-1.2-4.8s0.2-1.1,0.5-1.3
						c0.6-0.4,1.1-0.9-0.1-6.1c0.4,0.7,0.7,1.4,1,2.1c-0.2-0.1,0,0.6-0.2,0.5c1.1,2.4,0.7,0.4,0.5-2c-0.3-2.4-0.5-5.3,0.4-4.6
						c0.7,0.7,1.2,2.2,1.1,3.6c0.2-0.9,0.5-1.9,0.7-2.9c0.4,0.2,0.5,2,0.1,1.9c0.5-0.4,1.1-0.6,1.6-1v0.3c0.1-1.7,0.6-4.4,0.9-5.5
						c0.5,1.5-0.2,1.2,0,2.5c0.3-0.9,0.6-1.8,1-2.7c0.2,1.4,0.1,2.8-0.1,3.8s-0.6,1.6-0.9,1.4c0.6,5.4,0.7,4.7,1,3.4
						c0.2-1.2,0.8-3,1.6,0.2c-0.3,0.4-0.6,0.9-0.8,1.3c0.2,3.1,0.4,4.1,0.6,4.8s0.5,1.1,0.7,3c0-1-0.1-3.4-0.3-5.9
						c-0.1-2.5-0.3-5.1,0.3-6.4c0.3,0.8,0.6,1.2,1.3-0.9c-0.3,3.9,0.2,3,0.9,2.9l-0.7,5.1c0.8-1.4,1.1-4,1.9-6.2
						c0.7,0.6,0.2,4.5-0.3,7.8c0.4,0.5,0.6-1.1,0.8-2.9c0.2-1.8,0.4-3.9,1.2-4.1c0.3,1.1,0.7,1.1,1.3,0.6c0.6-0.5,1.5-1.7,2.6-2.9
						c0.2,2-1.1,2.9-1.3,4.4c0.6-1.2,1.2-2.4,1.9-3.7c0.1,0.2-0.3,1.3-0.6,1.9c1.1-1.3,1.7-4.8,3.2-5.8c1.1-2.6,1-0.5,0.8,1.6
						c-0.1,2.1-0.3,4.1,1.6,1.5c-0.4,1.4-1.5,2.8-2.2,4.6c1.6-1.6,2.3-2.1,3-2.8s1.5-1.5,3.5-3.6c-0.2,1.2-0.4,2.4-0.6,3.5
						c0.6-1.9,1.7-3.6,3.1-5.2c1.4-1.6,3-3,4.6-4.2c0.7-1.8,1.2-3.3,1.4-4.1c1.1-0.4,2.3-0.8,3.5-1c-0.2,0.9-1.5,2.2-2.9,3.7
						c0.4-0.3,0.7-0.5,1-0.8c-0.4,2-2.5,4.2-4.5,6.2c0.4-1,0.8-2,1.2-3c-2.2,2.3-4.4,5-5.9,7.6c0.4-0.4,0.9-0.8,1.2-0.9
						c-0.6,0.7-1,1.2-1.3,1.7s0.5-0.4,1.5-1.3c-1,1.7-1.9,3.3-2.9,4.9l1.4-1.8c-0.1,1.4-0.3,2.7-0.6,4c1.1-0.9,2.4-2,3.8-3
						c1.3-1,2.7-2,4-2.9c2.7-1.7,5.5-3,7.4-2.7c-3.5,2.4-4.9,4.7-8.5,8.1c1.7-2.1,0.8-2-0.3-1.6c-1.2,0.4-2.6,1.2-2.7,0.4
						c0.1,0.8-1.6,2.5-2.2,3c1.5-0.8,3.1-1.5,4.8-2.1c-2.9,2.9-1.8,2.5-2.7,4c5.5-5.9,4.9-2.5,7.4-3.4c-2,1.8-4.3,3.4-4.5,2.2
						c-1.9,2.4,0.1,1.1,2.3-0.2s4.4-2.6,2.8-0.5c-0.2-0.2,0-0.6-1.1,0.2c2.3-1,1.7,1.5-0.4,2.6l-0.2-0.2c0.1,0.5,0.3,1,0.7,1.4
						s0.9,0.9,1.6,1.1c1.4,0.5,3.7,0.4,6.7-1c-0.8,0.4-7.3,3.6-8.6,4.2c7.1-2.8,14.5-5,22.2-6.7c-2.8,1-7.1,3.3-11.4,5.2
						c-4.2,1.9-8.2,3.5-10,3.6c-0.6,0.7-1.2,1.4,0.9,1.4c0.7-0.5,7.5-4,8.2-3.8c-2.8,1.8-3.6,2.3-4.2,2.8c-0.6,0.5-1.1,1-3.5,2.5
						c0.5-0.4,3-1.3,5.3-1.9c2.3-0.7,4.5-1.1,4.5-0.7c-1.3,0.3-8.6,2.9-9.5,3c3-0.5,6.1-0.8,9.1-1.1c-1.7,0-7.3,2.1-9.7,3.1
						c1.7-0.6,0.2,1.3,1.1,1.5c0.6-0.4,1.2-0.7,1.9-1.1c-0.4,1,2.8,0.8,6.1,0.6c3.3-0.1,6.7-0.1,6.7,1.1c-1.9-0.1-11.4,1.2-12.4,2.2
						c2.3-0.1,7.9-0.4,13.4-0.1c5.4,0.3,10.8,1.1,12.6,2.4l-2.6,0.6c1,0.6,2.1,1.3,3.1,2c-3.4-0.7-8.9-1.7-14.2-2.5
						s-10.4-1.2-13.2-1.4c-2,0.9-3.1,0.5-2.8,1.4c-2.4,0.5-3.8-0.2-3.9-0.4c-0.5,0.7-1,1.3-1.5,1.9c2.7-0.2,4.1,0.2,5.3,0.5
						c1.2,0.4,2.3,0.8,4.6,0.8c-1.8-0.9-3.8-1.6-5.7-2.2c2.7-0.2,6.5-0.1,9.6,0.4c1.5,0.3,2.9,0.7,3.8,1.1c0.9,0.5,1.3,1,1,1.5
						c-1.1,0.2-3.5,0.1-5.8-0.1c-2.3-0.2-4.6-0.4-5.5-0.4c1.8,0.2,3.5,1.7,2.2,1.8c-1-0.3-1.9-0.6-2.9-0.8c-1,0.4,0.8,0.8,2.1,1.3
						c1.4,0.5,2.3,1.1-0.3,1.3c-0.2,0.2-2,0.2-3.3,0.3c-1.3,0-2.2,0.1-0.6,0.3c6.1,0.4,25,2.6,29.5,3.9c-0.2,0.1-1.8,0.7-3.7,1.3
						s-4.2,1-5.7,1c-2.5-0.1-5.2-1-7.8-1.9s-5.2-1.6-7.3-1.8c1.4,0.3,3.1,1,3.7,1.3c-1.3,0.2-4.4-1.1-4-0.1c5.3,1.4-0.9,1.8,4.4,1.5
						c0.6,0.7,0.3,0.9-0.2,1c-0.5,0.2-1.1,0.3-1.2,0.9c1.7,0.3,4.5,1.4,7,2.8c2.5,1.3,4.6,2.8,5.1,3.7c-1.3-0.5-3.1-0.9-3.9-1.1
						c-0.3,0.5-0.7,1-1.2,1.3s-1,0.6-1.5,0.9c-1,0.5-1.9,1-2.4,2c-1.3-0.4-3.1-0.3-5-1.7c0.7,0.7,2.2,1.8,2,2.4
						c-4.7-1.3,0.1-1.5-5.4-3.5c2.7,1.6,3.1,3.4,4.3,5.2c2.1,1.2,2.6,0.8,2.4,0c-0.2-0.9-1.2-2.2-1.8-3c3,1.6,5.8,3.6,8,5.7
						c2.2,2.1,3.8,4.5,4.4,6.6c0.1,1.5-1,1-2,0.4c-1-0.7-1.9-1.5-1.6-1.1c-1.7,1.3,0.2,3.7,1.6,5.9c0.7,1.1,1.4,2.1,1.4,2.9
						c0.1,0.8-0.5,1.2-2,1.1c-2.1-0.9-3.7-2.3-5.1-3.7c-1.4-1.4-2.6-2.8-3.9-3.7c-0.1-1.1,0.9-1.1,1.9-1s2.1,0.3,2.4-0.2
						c-0.8,0-1.6-0.1-2.4-0.1c-0.8-1.3-1-2.8,0.3-2.5c-0.9-0.4-1.6-0.3-2.3,0c-0.3,0.2-0.6,0.4-0.9,0.7c-0.3,0.2-0.6,0.5-0.9,0.8
						c-1.3,1.1-2.6,2.6-4.8,2.1c0.7,1.3,1,3,2.5,4l0.3-1c1.5,1,2,2.1,2.4,3.1s0.6,1.8,1.6,2c0.3,1.3,0.8,3,0.9,4.3
						c0,0.7-0.1,1.2-0.3,1.6c-0.3,0.4-0.8,0.6-1.5,0.5l-3.3-3.7c0.9,1.1,2.8,1.5,2.3,0c0.4,1.1-1.3,0.3-2.5-0.2
						c-1.3-0.5-2.2-0.5-0.6,2.3c1,0.7,2.1,1.3,3.1,1.9c0.2,1.4,0.6,3.5,0.7,5.2c0.1,1.7-0.3,3-1.5,2.9c1.7,1.8,1.7,1.6,1.9,1.5
						c0.1-0.1,0.4-0.2,2.6,1.8c-2.5-2.6-1.4-3.3-0.4-3.9c1-0.7,1.8-1.3-1.1-3.7c2.5,2.2,3.5,2.4,4.4,2.4s1.8-0.1,4.4,1.4
						c-1.1-1.2-2.5-1.9-0.7-2.5c-0.3-0.4-0.5-1-0.7-1.3c0.1,0,0.1,0,0.2,0c-0.1,0-0.1-0.1-0.2-0.1c-0.1-0.2-0.1-0.3-0.1,0
						c-0.8-0.3-1.6-0.7-2.3-1.3c-1.8-3.4,0.1-4.9-0.6-6.9c1.2-0.1,1,1.6,2.6,2.5c-0.3-1-0.7-1.9-1.1-2.9c1.3,1.2,2.8,1.8,4,2.4
						s2,1.4,2,3l1.6-1.5c2.3,0.4,4.2-0.5,3.8-2.3c1.3-0.4-1.6-4.5,0.1-2.1c0.1-1.4,0.2-2.7,0.2-4l0.8,0.5c1.2-1.2,0.8-3.5,1.1-5.4
						c0.2-1.9,1.2-3.3,4.8-3.6c-0.3-1.4-0.9-2.9,0.8-4.2l3,0.9c-0.2-0.9,0.9-1.6,1.7-2.4c0.8-0.8,1.4-1.6-0.1-2.4
						c2.1,0.3,3.4,0,4.3-0.6c0.4-0.3,0.7-0.7,0.9-1.1c0.2-0.4,0.3-1,0.3-1.5c0.1-2.1-0.6-4.5,0.4-5.6l-4-0.9c0.6-1.7-0.4-3.6-1.7-6
						l-3.6-0.3c-1.4-1-0.5-2,0.4-3.2c1-1.2,2.3-2.6,2.2-4c1.4,0.2,1,0.9,0.1,1.4c2.1-0.8,2.7-1.7,2.7-2.7c-0.1-0.9-1-1.8-1.9-2.7
						s-1.9-1.6-2.3-2.4c-0.4-0.8-0.2-1.6,1.1-2.5c-1.4-0.6-1.1-1.2-0.3-1.9c0,0.1,0.1,0.1,0.2,0.2c0-0.1,0-0.2,0-0.3
						c0.6-0.4,1.2-0.9,1.7-1.4c-0.8,0.5-1.5,0.9-1.7,1.2c-0.2-0.6-0.8-1.4-1.8-2.1l3.7-1.1c-0.1-0.1-0.1-0.1-0.1-0.2
						c1.2-1.2-1.9-0.3-4.7,0.7c-0.7-0.3-1.5-0.5-2.5-0.6c3-1,2.3-1.5,1.7-1.9c-0.6-0.5-1.2-0.9,1.9-2.3c-1.6,0.1-2.5-0.8-3.8-1.4
						c-1.4-0.7-3.1-1.1-6.4-0.2c0.8-0.3,1.1-0.7,1.4-0.3c0.4-1.1,0.8-2.2-1.2-2.2l4.4-2.2c-1.1,0.1-2.3,0.2-3.4,0.3
						c-1.1,0.1-2.3,0.3-3.4,0.4c2.3-2.2,3.6-3.5,7.5-3.9c-3.3-0.2-4-0.4-4.7-0.7c-0.7-0.2-1.4-0.5-4.5-0.1l2.8-1.4
						c-0.6-0.7-4.9,0.3-2.9-1.5c1-1.2,1.3-2.3,1.1-3.5s-1-2.3-1.7-3.5c-1.5-2.5-3.6-4.8-3.4-8.8c-3,3.6-2.6,2.5-2.2,1
						c0.4-1.4,0.7-3.2-1.8-0.7c1.3-1.8,1.6-3.2,3.5-4c-1.8-0.2-2-1.5-2.4-2.4s-1.2-1.4-3.9,0.4c1.1-1.9,2.5-2.2,3.1-3.4
						c-0.5,0.2-1.9,1-1.3-0.3c0.6-1.2,1.5-1.2,2.4-1.7c-2.7-1.6-6.9,3.8-10.7,8.9c0.4-1.6,0.3-2.4-0.2-2.5c-0.5,0-1.5,0.7-3,2.3
						c0.8-2,1.2-4.2,3-4c-0.3-0.4-1.1-1.8-2.2-2.5c-1.1-0.8-2.4-0.9-3.7,1.4c0.3-1.3-1-0.9-1.4-0.4c-1.7-1.1-1.7-1.6-3.6-2l0.2,1
						c-1.6,2.7-2,2.8-2.3,2.4c-0.3-0.5-0.5-1.6-1.4-1.5l0.3-0.6c-0.9-2.7-1.5-2.3-2-2c-0.2,0.2-0.5,0.3-0.8,0s-0.6-1-1.2-2.4
						l-0.8,3.7c-1.3,3.9-1.6,2.6-2.1,0.6s-1.2-4.8-2.5-3.4l0.3,2.3c-0.8,1.2-1-1.6-1.3-5s-0.7-7.2-1.3-7.8c-0.2-0.8,0.6-1.1,1.1-1.5
						c-2.9-5.3-1.1,4.9-3.6,5.8c-0.2-2.7,1.3-6.8-0.5-7.5c-0.4-1.1-1.9,1-3.3,2.8c-0.7,0.9-1.5,1.7-2.2,1.9c-0.4,0.1-0.7,0.1-1-0.1
						c-0.3-0.2-0.7-0.6-1-1.2c0.6,2.1,1.1,4.1,0,5.7c-0.8,0.4-2-1.5-3.3-2.6c-1.2-1.2-2.5-1.6-2.8,1.8c-0.3-0.5-0.4-1.1-0.5-1.6
						c-1.1,1.9-3.8,3.5-3.7,7.1c-1.9-6.4-3.6-4.3-4.9-2.1c-0.6,1.1-1.2,2.1-1.8,2.3c-0.6,0.1-1.3-0.7-2.3-3.6l-3.5,2l-0.4-1.2
						c-1.4,0.1-1.9,1-2.1,2.2s0.1,2.7,0.3,4.2c-0.9-0.5-1-1.7-1.2-2.3c-2.2-0.3-3.4-0.3-3.9,0.7s-0.5,2.9-0.1,6.2l-2.4-3.2
						c0.1,0.6-0.3,0.7-1,0.7s-1.7-0.1-2.8-0.2c-1.1,0-2.2,0.1-3,0.6c-0.9,0.5-1.4,1.4-1.4,2.9c-0.3-0.4-0.7-1-0.8-1.6
						c0,1.6-0.9,2.3-2.2,2.6c-1.2,0.4-2.9,0.4-4.2,0.7c-2.6,0.6-4.3,2,0.8,7.2c0.3,1.4,0.8,2.9,1.2,4.3c1.4-1,2.5,0.2,3.7,1.5
						c1.1,1.4,2.3,2.9,3.6,3.2c0,0.7-1.3,0.6-2.5,0.2c-1.3-0.4-2.6-1.2-2.4-2l0.7,0.3c-2.8-2.5-4-2.1-4.9-1.4
						c-0.9,0.6-1.7,1.5-3.8,0.1c-0.8,1.5-1.8,2.8-3,4.1c-0.6,0.6-1.1,1.3-1.7,1.9c-0.6,0.7-1.2,1.3-1.7,2c-0.6,0.7-1.2,1.3-1.8,2
						c-0.5,0.7-1,1.4-1.5,2.1c-0.9,1.4-1.9,2.9-2.4,4.5c1.9,0.3,3.9,0.6,5.8,0.9c-0.3,0.6-0.6,1.3-0.9,2c-1.4,0.2-4.6-0.3-4-1.9
						c-1.7,0-1.2,0.9-0.1,1.7c1.1,0.9,2.8,1.7,3.4,1.9c-1.5,1.2-3.1,0.6-4.4-0.3c-1.3-0.9-2.2-2-2.4-1.5l0.1,1.5l0.7-0.2
						c1,0.8,2.2,1.3,3,1.9c0.8,0.6,1.2,1.1,1,2.1c-1.3,1-3.7,0.1-3.9,0.5c-0.4-0.1-0.6,0.1-0.3,0.7l-0.9,2.9
						c1.6-0.2,3.2-0.5,4.7-0.7c2.1,1.5-0.5,2.5,4.8,1.8c-4.1,0.5-4.9,3.1-5,5.6c0,2.5,0.9,4.8-0.3,5.5c0.9,0.4,1.5,0.7,2,1.1
						c0.5,0.4,0.9,0.7,1.1,1.2c0.5,0.8,0.5,1.7,0.5,2.8c0.9-0.7,5.9-1.8,5.6-0.1c-5.3,0.7-6.4,1.7-6.9,2.9s-0.6,2.6-4.1,4.4
						c2.3-1.3,2.9-0.1,3.8,0.9s2.1,1.7,5.2-0.3c-0.3,1.6-3.8,1.3-5.8,3.2c1.3,0.5,2,1.3,2.3,2.3c0.2,0.5,0.2,1,0.3,1.5
						c0.1,0.5,0.1,1.1,0.1,1.7c0,2.3-0.3,5.2,1.6,6.8c1.2-0.7,2.7-2.4,5-2.6c-1.6,1.8-3.2,3.8-4.8,5.7c0.5,0.2,2.4-0.7,3.6-1.2
						c1.3-0.5,2-0.5,0.5,1.5c0.8-0.9,2.1-2.1,2.8-1.9c-0.1,1.3,0.1,2.6,0.5,3.6c0.2,0.5,0.4,1.1,0.7,1.6c0.3,0.5,0.7,0.9,1,1.3
						c0.7,0.8,1.6,1.6,2.5,2.3c0.4,0.3,0.9,0.7,1.3,1l1.4,0.9c1.9,1.3,3.5,2.7,4.9,4.6c0.7,1,1.2,2.1,1.6,3.5s0.8,3,1,5
						c0.3-3,1.2-2.8,2.1-2.4c-0.2-0.9,1.8-3,2.7-4.7c0.1,2.1,0.3,4.3,0.6,6.5c1.5-2.2,2.5-1.9,3.3-1.5c0.9,0.3,1.7,0.7,2.9-1.5
						l-1.4,0.4c1.9-2.4,2.8-5.7,3.8-9.1s2.1-7.1,3.9-10.4c-1,1.4-1.4,1.5-1.6,0.9c-0.1-0.6,0.1-1.8,0.3-3c0.3-2.3,0.7-4.2-2.7-0.5
						c0.5-1.5,1.6-1.9,2.4-3.5c-2.2,2.6-3,2.7-3,1l0.6-0.6c-1.3-0.5-1.8-1.5-1.9-3c0-0.7,0-1.5,0-2.3s0-1.6-0.1-2.5l-2.6,2.8
						c-0.1-0.8,0.7-1.7,1.2-2.6c-4.7,3.3,0.9,1.5-4.1,5.4c2.4-3,1.8-3.9,1.1-4.8c-0.6-0.9-1-2,2.4-4.8c-0.5-0.7-3.4,2.8-3.9,2
						l1.8-1.6l-2.7,1.5c0-0.8,2.4-2.7,4.1-3.8c-0.1,0.2,0.7,0,0.9,0.1c1-1.1,0.6-1.4-0.1-1.5c-0.6-0.1-1.4-0.1-1.1-0.4
						c-0.3,0.5-0.6,0.9-0.8,1.4c-0.8-0.2-1.3-0.6-1.7-1.2c-0.4-0.6-0.6-1.2-1-1.8c-0.2-0.3-0.4-0.6-0.6-0.8
						c-0.2-0.3-0.4-0.5-0.7-0.8c-0.6-0.5-1.5-0.8-2.9-1.1l-1.6,0.7c-1-0.2-1.4-0.5-1.4-0.8c-0.1-0.3,0.2-0.6,0.5-0.9
						c0.6-0.6,1.4-1.3,0.3-2.2h0.4c-1.9,0-2.8-0.5-2.7-1.2c1.1,0.1,2-0.4,3-0.8c1-0.4,2-0.8,3.2-0.6c-1.9-0.7-2.7-0.9-3.8-0.9
						c-1.1,0-2.6,0.1-6-0.4l2.9-0.7c-2.7-0.3-4.1-0.2-5-1.5c1.3,0.5,2.4,0.2,3.6-0.1c1.2-0.2,2.5-0.4,4.3,0c1.6-0.7,2-1.1,1.8-1.5
						s-0.9-0.8-1.5-1.1c-1.2-0.7-2.1-1.4,2.6-1.6c-8.2-1.6-4.6,1.8-6.4,1.1c-1.4,0.2-2.9,0-4-0.5s-1.7-1.2-1.3-1.6
						c0.1-0.4,2.7-0.6,5.4-0.9c2.6-0.2,5.2-0.5,5.3-1.3c-0.1,0.2,0.6,0.3,0.5,0.4c1.1-0.2,0.4-0.6-0.1-1c-0.2-0.2-0.5-0.4-0.4-0.6
						c0.1-0.2,0.5-0.3,1.3-0.3c-2.4-0.7-2.2-1-2.3-1.2c0-0.2-0.3-0.5-3.3-1.3c0.3,0.7,0.7,1.4,1,2.1c-0.7-0.6-2.8-1.6-4.2-2.6
						c-1.4-1-2.2-2-0.2-2.4c1.2,0.5,2.7,1.5,3.5,2c1.9,0-1-1.3,1-1.2c3,1,3.2,1.6,3.2,2.2c0,0.6-0.2,1.3,2.1,2.3
						c1.4,0.1,0.3-0.6-0.2-1.1s-0.6-0.7,2.7,0.4c-4.2-1.4-3.8-1.8-3.2-2.1c0.7-0.3,1.6-0.5-1.4-2.2l3.6,1.3
						c-0.5-0.4-2.1-1.3-1.9-1.6c1.5,0.8,3,1.5,4.4,2.2c-1.8-1.1-0.8-1.2,0.4-1.2c1.2,0,2.7,0.3,1.8-0.5c-0.3,0.7-1.4,0.4-2.8-0.2
						c-1.4-0.6-3.1-1.5-4.5-1.6c-1.9-2.1,0.6-1.5,3.4-0.6s5.9,2,5.5,0.6c0.3,0.5-2.5,0-3.9-1.2c0.9-0.1,2.5,0.1,4.3,0.9
						c0-0.8-0.8-1.3-1.9-1.7c-1.1-0.5-2.4-0.9-3.3-1.7c4.3,1.9-1.2-1.6-2-3.2l3.3,2.1c0.4,0,0.6-0.1,0.6-0.3c0-0.1,0-0.3-0.2-0.6
						c-0.4-0.5-1.2-1.1-1.9-1.7c-1.5-1.2-3-2.4-1.2-2.3c1.3,1.3,2.6,2.5,3.9,3.8c-0.2-0.5-0.4-1-0.6-1.5l3.4,2.8
						c-1-1.3-1.3-2-1.2-2.2c0.1-0.3,0.7-0.2,1.5-0.1c-2.2-1.6-5.3-4.6-4.7-5.4c2.1,1.1,2.5,2.7,2.9,1.4c1.5,1.9,3.6,4.1,0.6,2.1
						c0.9,0.9,1.6,1.8,2.5,2.6c2.3,1.3,1.3-0.6,1.6-0.9c-0.2,0-0.5,0-0.9-0.3c-0.5-0.8-0.9-1.7-1.4-2.5c-0.4-0.8-0.8-1.7-1.2-2.5
						c1.2,0.9,1.8,1.9,2.5,2.8c0-0.5-1.1-2-0.9-2.6c2,2.4,4.2,4.8,4.7,6.3c-0.5-1.1-0.9-2.3-1.3-3.5c1,0.9,2.9,2.4,3.5,3.4
						c0.9,0.5,0.2-0.9-0.2-2.4c-0.5-1.4-0.8-3,0.3-2.2c-0.3-0.5-0.5-1.1-0.5-1.6c0.6,0,1.6,0.8,2.3,1c0.3,0.1,0.6,0,0.7-0.3
						s0.1-0.9-0.1-2c1.1,1.6,2.1,3.2,3,4.8c0.1-0.8-0.8-2.3-1.8-3.9c-0.9-1.6-1.9-3.4-1.5-4.7c0.4-2.2,2.3,4.2,3.3,5.5
						c-0.3-1.4-0.7-3.5-0.7-4.8s0.5-1.8,1.7,0.2C486.4,200,485.9,199.3,485.7,199.8z M497.7,195.6c-0.3,0.8-0.8,3.3-1,1
						C497.1,192.2,497.4,194.3,497.7,195.6z M521.7,194.8c-1,0.9-0.9,0.2-0.4-1.3C521.7,193.4,521.9,193.7,521.7,194.8z
						 M548.5,274.9c0-0.1-0.1-0.1-0.1-0.2C550.3,274.8,549.6,274.7,548.5,274.9z M545.7,275.5c0.2,0.5,0.6,0.9,1.1,1.2
						c-0.6-0.8-0.3-1.2,0.3-1.5C546.2,274.7,545.5,274.4,545.7,275.5z M430.3,219.5l1.1-0.3C432.3,220.3,431.4,219.9,430.3,219.5z"
						/>
					<path class="st6" d="M516.5,197.5c0.3-0.6,0.7-1.2,1-1.8C517,196.2,516.6,196.8,516.5,197.5z"/>
					<path class="st6" d="M480.1,204.8L480.1,204.8c0.1,0.2,0.2,0.4,0.3,0.6L480.1,204.8z"/>
					<path class="st6" d="M530.5,236.4c0.6-0.1,1.3-0.1,2.1-0.1C531.7,236.2,530.9,236.1,530.5,236.4z"/>
					<path class="st6" d="M540.1,289.2l0.7-1.8c-0.5,0.6-1.3,0.1-1.9-0.1C539.5,287.9,540.5,288.8,540.1,289.2z"/>
					<path class="st6" d="M517.6,274.9c0.1,0.5-0.3,0.2-0.2,0.7l0.8,1.6C518.7,276.8,518.5,275.3,517.6,274.9z"/>
					<path class="st6" d="M531.5,279.6c-2-2.6-1.9-1.2-2.4-0.2l0.1-0.1C531.5,283.3,531.6,281.4,531.5,279.6z"/>
					<path class="st6" d="M528.9,279.6c-0.2,0.3-0.4,0.5-0.7,0.5C529.1,281.7,528.8,280.3,528.9,279.6z"/>
					<path class="st6" d="M545.1,279.3c-1-0.2,2.6,3.2,1.5,2.5c1.2,1.7,1,0.2,0.4-1.3c-0.3-0.7-0.7-1.5-1.1-1.8
						C545.5,278.3,545.2,278.4,545.1,279.3z"/>
					<polygon class="st6" points="524.9,271.2 527.4,274.3 525.9,271.4 					"/>
					<path class="st6" d="M531.8,269.5l-1.7,0.1c0.4,0.5,0.6,0.9,0.6,1.3C531.4,270.4,532.6,270.4,531.8,269.5z"/>
					<path class="st6" d="M530.6,270.9c-0.4,0.2-0.7,0.5-0.5,1.2C530.4,271.9,530.7,271.5,530.6,270.9z"/>
					<polygon class="st6" points="525.5,269.2 526.3,269.6 527.2,269.3 					"/>
					<path class="st6" d="M541.9,259l-0.2-1.9c-1.1-0.8-2-1-1.8-0.2C540.5,257.7,540.7,258.5,541.9,259z"/>
					<path class="st6" d="M530.6,255.9c0.8,0.2,1.6,0.8,2.7,1.4l-3.9-3L530.6,255.9z"/>
					<path class="st6" d="M531.7,252.5c-1.1-0.9-2.5-3.5-2.9-2.2C529.9,251.1,530.2,252.7,531.7,252.5z"/>
					<polygon class="st6" points="544.3,237.3 544.3,237.7 552.3,239 					"/>
					<path class="st6" d="M524.9,223.4c-1.8,1.3,5-0.7,2.7,0.7c1.9,0,1.8-1.1,3.5-1.1C529.1,222.6,530.2,222.1,524.9,223.4z"/>
					<path class="st6" d="M531.2,222.9c0.3,0.1,0.7,0.1,1.3,0.2C531.9,223,531.5,222.9,531.2,222.9z"/>
					<path class="st6" d="M465.8,292.8l0.6,2.2c0.1-1,0.2-1.9,0.3-2.9L465.8,292.8z"/>
					<path class="st6" d="M470.7,288.4l-1.7,4.9c0.9-1.3,1.7-2.7,2.6-4C471.2,289.4,470.5,289.6,470.7,288.4z"/>
					<path class="st6" d="M498.5,206.1l0.2-1.2c0.1-1.4,0-1.5-0.3-1.7C498.5,204.1,498.5,205.1,498.5,206.1z"/>
					<polygon class="st6" points="491.4,202.5 491.5,202.6 490.5,198 					"/>
					<path class="st6" d="M487.7,209.8c0.2,0.1,0.1-1,0.4-0.8C487.9,209.9,485.3,204.5,487.7,209.8z"/>
				</g>
			</g>
		</g>
	</g>
</g>
<radialGradient id="SVGID_8_" cx="483.1303" cy="559.0193" r="32.4456" fx="483.3769" fy="576.0266" gradientTransform="matrix(0.5741 0.1443 0.1315 -0.523 146.8511 480.4326)" gradientUnits="userSpaceOnUse">
	<stop  offset="0" style="stop-color:#FFFFFF"/>
	<stop  offset="6.925797e-02" style="stop-color:#FFFBF4;stop-opacity:0.9931"/>
	<stop  offset="0.5119" style="stop-color:#FDE1B3;stop-opacity:0.9488"/>
	<stop  offset="0.834" style="stop-color:#FBD08B;stop-opacity:0.9166"/>
	<stop  offset="1" style="stop-color:#FBCA7B;stop-opacity:0.9"/>
</radialGradient>
<path class="st8" d="M512.2,267.5c-0.4,1.8-1.3,3.4-2.4,4.7c-1.6,2-3.8,3.5-6.3,4.4c-3.3,1.2-7,1.2-10.6,0.3l0,0l-0.3-0.1
	c-3.7-1-7.1-3-9.3-5.8c-1.5-1.9-2.5-4-3-6.2c-0.3-1.8-0.3-3.6,0.1-5.4c1.1-4.2,4.3-7.4,8.5-9c2.5-0.9,4.7-2.4,6.2-4.3l5-6.3
	c1.6-2,4.7-1.1,5.1,1.3l1.3,8.4c0.3,2.3,1.4,4.5,3,6.5C512,259.3,513.2,263.5,512.2,267.5z"/>
<rect x="167.5" y="68.4" class="st9" width="447.8" height="188.9"/>
</svg>
