<?xml version="1.0" encoding="utf-8"?>
<!-- Generator: Adobe Illustrator 24.1.3, SVG Export Plug-In . SVG Version: 6.00 Build 0)  -->
<svg version="1.1" id="Layer_1" xmlns="http://www.w3.org/2000/svg" xmlns:xlink="http://www.w3.org/1999/xlink" x="0px" y="0px"
	 viewBox="0 0 800 800" style="enable-background:new 0 0 800 800;" xml:space="preserve">
<style type="text/css">
	.st0{fill:url(#SVGID_1_);}
	.st1{fill:url(#SVGID_2_);stroke:url(#SVGID_3_);stroke-width:4;stroke-miterlimit:10;}
	.st2{fill:#7F7D7A;}
	.st3{opacity:0.25;}
	.st4{fill:#FFFFFF;}
	.st5{fill:url(#SVGID_4_);}
</style>
<g>
	
		<radialGradient id="SVGID_1_" cx="399.5432" cy="441.4883" r="88.1627" fx="399.5372" fy="450.7491" gradientUnits="userSpaceOnUse">
		<stop  offset="0.1083" style="stop-color:#FFF9F0"/>
		<stop  offset="0.3056" style="stop-color:#FFF5E5"/>
		<stop  offset="0.634" style="stop-color:#FEF0DB"/>
		<stop  offset="1" style="stop-color:#FEEFD7"/>
	</radialGradient>
	<path class="st0" d="M520.6,422.6c0,16.1-54.2,29.1-121.1,29.1c-66.9,0-121.1-13-121.1-29.1c0-16.1,54.2-29.1,121.1-29.1
		C466.4,393.5,520.6,406.5,520.6,422.6z"/>
	<g>
		
			<image style="overflow:visible;" width="246.2" height="62.2" xlink:href="34BD574DCBC2A0CB.png"  transform="matrix(1 0 0 1 276.4548 391.5085)"/>
	</g>
</g>
<linearGradient id="SVGID_2_" gradientUnits="userSpaceOnUse" x1="278.4543" y1="592.1333" x2="520.6321" y2="592.1333">
	<stop  offset="0" style="stop-color:#FDDFB0"/>
	<stop  offset="0.5053" style="stop-color:#FBDDAF"/>
	<stop  offset="0.6873" style="stop-color:#F4D8AC"/>
	<stop  offset="0.817" style="stop-color:#E9CFA6"/>
	<stop  offset="0.9211" style="stop-color:#D8C19D"/>
	<stop  offset="1" style="stop-color:#C5B294"/>
</linearGradient>
<linearGradient id="SVGID_3_" gradientUnits="userSpaceOnUse" x1="276.4543" y1="593.1333" x2="522.6321" y2="593.1333">
	<stop  offset="0" style="stop-color:#FDDFB0"/>
	<stop  offset="0.5053" style="stop-color:#FBDDAF"/>
	<stop  offset="0.6873" style="stop-color:#F4D8AC"/>
	<stop  offset="0.817" style="stop-color:#E9CFA6"/>
	<stop  offset="0.9211" style="stop-color:#D8C19D"/>
	<stop  offset="1" style="stop-color:#C5B294"/>
</linearGradient>
<path class="st1" d="M520.6,422.6v309.9c0,16.1-54.2,29.1-121.1,29.1c-66.9,0-121.1-13-121.1-29.1V422.6
	c0,16.1,54.2,29.1,121.1,29.1C466.4,451.7,520.6,438.7,520.6,422.6z"/>
<path class="st2" d="M406.8,434.1v15.6h-6.6v-15.6c0-1.1,1.5-2,3.3-2C405.3,432.1,406.8,433,406.8,434.1z"/>
<g class="st3">
	<circle class="st4" cx="402.8" cy="390.3" r="59.3"/>
	<g>
		<g>
			<g>
				<g>
					<path class="st4" d="M373.7,463.5c-0.6-0.5-1.6,2.7-1.9,3.2C373.3,466.5,374,462.7,373.7,463.5z"/>
					<path class="st4" d="M386.9,459.7l-0.5,1.3c0.8-1,1.6-2,2.3-2.9C388.1,458.6,387.5,459.1,386.9,459.7z"/>
					<path class="st4" d="M397,461.3c-0.2-2.9-1.1-2.8-2.2-2.2c-1.1,0.6-2.4,1.5-3.1,0.4l-0.1-1.3c-0.5,1.5-1,2.9-1.6,4.4
						c1.2-0.2,2.6-0.9,3.9-1.4C395.2,460.7,396.3,460.4,397,461.3z"/>
					<path class="st4" d="M402.3,473.9c-0.4-2.2,1.4-1.9-1.5-0.7c0.1,0.2,0.2,0.4,0.3,0.6C401.4,473.7,401.7,473.7,402.3,473.9z"/>
					<path class="st4" d="M401.1,473.7C399.8,473.9,401.9,475.6,401.1,473.7L401.1,473.7z"/>
					<path class="st4" d="M406.9,472.4c-0.5,0.7-1,1.4-1.6,2c0.4,1.3,1.9,1.5,1.4,2.5C408.4,475.8,407.9,474.5,406.9,472.4z"/>
					<path class="st4" d="M408.1,468.1c-0.2,0.3-0.5,0.6-0.8,0.9C407.6,469.6,407.8,469.8,408.1,468.1z"/>
					<path class="st4" d="M405.7,470.9l1.7-1.8c-0.3-0.9-0.4-2.8-0.8,0.7C406.7,468,406.4,469.6,405.7,470.9z"/>
					<path class="st4" d="M404.7,470c-0.9-1.2-2-2-0.5-4c-1.4,0.4-2.1,1.6-2,2.6C402.3,469.6,403.2,470.5,404.7,470z"/>
					<path class="st4" d="M397.9,455.5c-0.3-0.6-0.6-1.2-0.8-1.7l-1,1.8C396.6,454.6,397.8,457.3,397.9,455.5z"/>
					<path class="st4" d="M417.5,474.2c-0.1-1.2-1.1-3.1-1.5-4.6c-0.3,0.5-0.6,1-1,1.6C415.8,471.9,417.1,472.4,417.5,474.2z"/>
					<path class="st4" d="M416,469.6c0.5-0.8,0.9-1.6,1.3-2.4C415.8,467.2,415.7,468.3,416,469.6z"/>
					<path class="st4" d="M407.9,461.8c-0.8,1.5-1.6,3-2.4,4.5c1-1.5,2-3,2.9-4.6L407.9,461.8z"/>
					<path class="st4" d="M424.5,472.8c-0.1,1-0.2,2-0.3,3c0.3-1.5,0.5-3.1,0.8-4.6L424.5,472.8z"/>
					<path class="st4" d="M428.9,471c0,2.5,2.3,3.4,1.9,5c1.2-0.8,1.6-3.1,1.9-5.1C432,472.2,430.8,472.3,428.9,471z"/>
					<path class="st4" d="M433.3,467.9c-0.3,0.7-0.4,1.8-0.6,3C433,470.2,433.3,469.3,433.3,467.9z"/>
					<path class="st4" d="M420.4,467.2c0.3,0.7,1,2.5,2.2,3.1l-1.5-3.2C420.8,467.1,420.6,467.1,420.4,467.2z"/>
					<path class="st4" d="M421,467L421,467c0.8,0,1.3,0,1.5-0.1C422.3,466.9,421.9,466.9,421,467z"/>
					<path class="st4" d="M420.2,467.2c0.1,0,0.1,0,0.2,0C420.2,466.9,420.1,466.8,420.2,467.2z"/>
					<path class="st4" d="M412.5,464.4c0.7-2,2.2-4.3,0-6.9C412.2,459.9,413.5,461.4,412.5,464.4z"/>
					<path class="st4" d="M418.5,463.2c-0.6-0.1-1.2-0.3-1.9-0.4c0.2,0.9,0.8,2.1,0.5,3.1C417.6,465,418,464.1,418.5,463.2z"/>
					<polygon class="st4" points="419,462 418.5,463.2 419.1,463.3 					"/>
					<path class="st4" d="M429.1,466c0.3-1.7,1-2.1,1.9-2.7c-1.2-0.2-2.3-0.2-3.3,0.1C427.9,464.5,428.1,466.5,429.1,466z"/>
					<path class="st4" d="M425.1,466.3c0-0.1,0.1-0.1,0.1-0.2C425,465.8,424.9,465.7,425.1,466.3z"/>
					<path class="st4" d="M439.7,459.4c-0.1-0.2-0.3-0.3-0.4-0.5c0.1,0.2,0.2,0.3,0.2,0.5L439.7,459.4z"/>
					<path class="st4" d="M427.3,462.9c-0.9-0.4-1.1,0.6-1.2,1.7c0.5-0.5,1-0.9,1.6-1.1C427.6,463,427.5,462.6,427.3,462.9z"/>
					<path class="st4" d="M435.3,465.3c-0.7-0.5-1.3-0.9-2-1.2C434,465,435.5,466.2,435.3,465.3z"/>
					<path class="st4" d="M425.7,466.9c0,0.1,0,0.1-0.1,0.2C426.1,467.7,426,467.4,425.7,466.9z"/>
					<path class="st4" d="M425.7,466.9c0.3-0.6,0.3-1.5,0.4-2.3c-0.4,0.4-0.7,0.9-0.9,1.5C425.4,466.3,425.6,466.6,425.7,466.9z"/>
					<path class="st4" d="M431.2,439c0.8,1.4,1.2,2.9,1,3.8c-0.2,0.9-0.9,1.2-2.3,0c-0.1,2.7,5.2,11.7,9.4,16.1
						c-0.6-1.2-1.2-2.4-0.6-4.8c-0.7-0.6-2-1-3.1-1.8c-1.1-0.7-2.1-1.7-2.1-3.3c1-2.4,2,0.2,3.7,1.2c-1.4-1.5-1.5-3.1-1.8-4.8
						c-0.3-1.8-0.7-3.8-2.4-6.1c-0.1,0.9-0.2,1.7-0.3,2.6C432.2,441,432,439.5,431.2,439z"/>
					<path class="st4" d="M436.1,460.1l-0.5,0.7c1,0.2,2.1,1,4.2,2.7c0.4-2,0.1-3.1-0.3-4.1c-1.2,0.4-2.3,0.9-3.4,1.2L436.1,460.1z"
						/>
					<path class="st4" d="M432.6,462.1c-0.8-3.4,0.1-5.4-2.3-8.4c-1.7,1-0.1,3.2-0.7,5c1.4-1,1.3-0.5,1.3,0.4c0,0.9,0,2.2,1.5,2.6
						c-0.4,0.8-0.9,1.2-1.4,1.5c0.7,0.2,1.5,0.4,2.3,0.8c-0.1-0.1-0.1-0.1-0.2-0.2l0,0c0,0,0,0,0,0c-0.3-0.3-0.5-0.6-0.2-0.4
						c0,0,0-0.1,0-0.1C432.8,463,432.7,462.6,432.6,462.1c1.2,0.3,0.5,0.8,0.4,1.3c0.1,0.2,0.1,0.3,0.2,0.5c0,0,0,0,0,0
						c0.9-1,1.7-2.1,2.5-3.1C434.7,460.7,433.9,461.2,432.6,462.1z"/>
					<path class="st4" d="M412.9,449.9c0.1,0.3,0.2,0.5,0.2,0.8C413.2,450.3,413.2,450,412.9,449.9z"/>
					<path class="st4" d="M414.3,451.8c-0.1,0.5,0,1.9-0.8,1.7c-0.7-0.9-0.3-1.6-0.5-2.7c-0.2,1-1,2.7,0.5,4.1l0.1-0.5
						c1.3,1,3.8,4.9,3.7,5.4C416.4,456.7,415.7,454.6,414.3,451.8z"/>
					<path class="st4" d="M422.6,456.7c0.7-0.8,1.3-1.6,1.9-2.4c-0.7-0.8-1.4-1.6-2.1-2.4l0.6,1.7
						C421.5,453.3,422.4,455.3,422.6,456.7z"/>
					<path class="st4" d="M440.8,460.7l1.4,3.4c-0.3-1.8-0.6-3.6-0.9-5.4L440.8,460.7z"/>
					<polygon class="st4" points="444,458.4 445.5,461.2 445.4,459 					"/>
					<path class="st4" d="M396.9,350.5l-0.3,0.9C396.7,351.1,396.8,350.8,396.9,350.5z"/>
					<path class="st4" d="M400.1,350.4l0-1.6C399.9,349.7,399.9,350.3,400.1,350.4z"/>
					<path class="st4" d="M480.9,377.1c2.7-1.7,6.9-4.2,3.4-3.3l-3.3,1.1C481.8,375.6,481.5,376.4,480.9,377.1z"/>
					<path class="st4" d="M435.1,341.5c-0.1,0.3-0.2,0.7-0.4,1c0.9-0.9,1.7-1.7,2.4-2.4C436.5,340.6,435.8,341.1,435.1,341.5z"/>
					<path class="st4" d="M426.7,353.3c0.1-0.8,0.3-1.6,0.4-2.4C426.9,351.6,426.8,352.4,426.7,353.3z"/>
					<path class="st4" d="M382.6,359.8c0.5,1.1,1,2.1,1.6,3.2C384.8,362.6,383.5,361.3,382.6,359.8z"/>
					<path class="st4" d="M470.4,429.8c1.7-0.3,2.6-0.8,3.2-1.4C471.2,428.7,468.1,428,470.4,429.8z"/>
					<path class="st4" d="M393.8,313.8c-0.4,0.7-0.6,1.4-0.5,2.2C393.8,315.3,394,314.6,393.8,313.8z"/>
					<path class="st4" d="M475,425.6c-0.4,0-0.6,0.1-1,0.2c0.2,1,0.2,1.9-0.5,2.7C475.4,428.3,476.7,427.6,475,425.6z"/>
					<path class="st4" d="M370.1,412.4c-0.1,0.1-0.1,0.2-0.3,0.3C370.2,412.5,370.2,412.4,370.1,412.4z"/>
					<path class="st4" d="M365.9,455c-0.4,0-0.9-0.2-1.4-0.5C364.6,454.9,365,455.1,365.9,455z"/>
					<path class="st4" d="M457.4,450.3C457,451,457.6,450.6,457.4,450.3L457.4,450.3z"/>
					<path class="st4" d="M445.6,442.3c-0.1-0.4-0.4-0.9-0.9-1.5C445.3,441.5,445.5,442,445.6,442.3z"/>
					<path class="st4" d="M458,410.6C458,410.5,458,410.5,458,410.6C457.3,410.4,457.4,410.5,458,410.6z"/>
					<path class="st4" d="M455.5,449.9c0.5,0.1,1,0.1,1.5,0.1C456.6,449.9,456.2,449.9,455.5,449.9z"/>
					<path class="st4" d="M456.7,451c-0.3,0.1-0.5,0.2-0.8,0.2C456.2,451.8,456.5,452,456.7,451z"/>
					<path class="st4" d="M458.2,449.3c-0.3,0.4-0.7,0.6-1.2,0.7c0.3,0.1,0.5,0.2,0.5,0.3C457.6,450,457.8,449.8,458.2,449.3z"/>
					<path class="st4" d="M355.6,378.1c-0.1,0-0.2,0-0.3,0C356.6,379,356.4,378.7,355.6,378.1z"/>
					<path class="st4" d="M441.9,372.1c0,0,0.1,0,0.2,0c0,0,0.1-0.1,0.1-0.1L441.9,372.1z"/>
					<path class="st4" d="M438.9,371.8c4.1-1.4,3.9-0.7,3.3,0.1c2.9-1.6,5.9-3.2,8.8-4.8C446.9,368.6,442.9,370.2,438.9,371.8z"/>
					<path class="st4" d="M389.7,353.3c0.7,0.9,1.3,1.8,1.9,2.6c0.5,5.2-0.6,3.7,1.6,7.6c-1.8-5.1-1.1-5.7-0.3-6.2
						c0.4-0.2,0.8-0.5,0.9-1.4c0.1-0.8,0-2.3-0.6-4.9c0.4,0.7,0.8,1.4,1.2,2.1c-0.2-0.1-0.1,0.6-0.3,0.5c1.2,2.4,0.9,0.4,0.8-2
						c-0.2-2.4-0.4-5.3,0.7-4.7c0.8,0.7,1.4,2.2,1.2,3.6c0.3-0.9,0.7-1.9,1-2.9c0.4,0.2,0.5,2,0.1,1.9c0.7-0.4,1.3-0.7,2-1.1l0,0.3
						c0.2-1.7,0.8-4.4,1.1-5.5c0.7,1.5-0.3,1.2-0.1,2.5c0.4-0.9,0.8-1.8,1.2-2.7c0.3,1.4,0.1,2.8-0.1,3.8c-0.3,1-0.7,1.6-1.1,1.4
						c0.8,5.4,0.9,4.7,1.2,3.4c0.3-1.2,1-3,2,0.1c-0.4,0.4-0.7,0.9-1,1.4c0.3,3.1,0.6,4,0.9,4.8c0.3,0.7,0.7,1.1,1,3.1
						c0-1-0.3-3.4-0.5-6c-0.2-2.5-0.4-5.1,0.3-6.4c0.3,0.8,0.7,1.2,1.6-0.9c-0.3,3.9,0.4,3,1.2,2.8l-0.7,5.1
						c0.9-1.4,1.3-3.9,2.1-6.1c0.9,0.7,0.4,4.6-0.1,7.9c0.5,0.5,0.7-1.1,0.8-2.9c0.2-1.8,0.3-3.9,1.3-4.1c0.4,1.1,1,1.2,1.7,0.7
						c0.7-0.5,1.7-1.6,3-2.8c0.4,2-1.1,2.9-1.2,4.4c0.7-1.2,1.4-2.4,2.1-3.6c0.2,0.2-0.3,1.3-0.5,1.9c1.2-1.3,1.7-4.8,3.4-5.7
						c1.1-2.6,1.1-0.4,1.1,1.7c0,2.2,0,4.1,2,1.6c-0.3,1.5-1.5,2.8-2.3,4.6c1.7-1.5,2.5-2,3.3-2.6c0.8-0.7,1.6-1.5,3.8-3.5
						c-0.1,1.2-0.2,2.4-0.4,3.7c0.5-1.9,1.7-3.7,3.1-5.3c1.4-1.6,3.2-2.9,4.9-4.1c0.6-1.8,1.1-3.4,1.3-4.2c1.2-0.3,2.5-0.6,3.7-0.8
						c-0.2,0.9-1.4,2.2-3,3.7c0.4-0.3,0.8-0.5,1.1-0.7c-0.3,2.1-2.5,4.2-4.5,6.2c0.4-1,0.7-2.1,1.1-3.1c-2.2,2.3-4.5,4.9-6,7.5
						c0.4-0.4,0.9-0.7,1.3-0.8c-0.6,0.6-1.1,1.2-1.3,1.7c-0.2,0.5,0.6-0.4,1.6-1.3c-0.9,1.7-1.9,3.3-2.9,5l1.4-1.8
						c0,1.5,0,2.9-0.2,4.3c1.2-0.9,2.5-1.9,3.9-2.9c1.4-1,2.8-1.9,4.3-2.8c2.9-1.7,5.7-2.7,7.8-2.2c-3.6,2.3-5,4.7-8.5,8.1
						c1.6-2.1,0.7-2.2-0.5-1.8c-1.2,0.3-2.8,1-3,0.2c0.2,0.9-1.5,2.6-2.2,3.1c1.7-0.7,3.3-1.3,5.1-1.8c-2.9,2.9-1.7,2.5-2.5,4.2
						c5.4-6,5.2-2.3,7.8-3c-2,1.8-4.3,3.4-4.6,2c-1.8,2.5,0.2,1.3,2.4,0.1c2.2-1.3,4.5-2.4,3-0.2c-0.3-0.2-0.1-0.6-1.2,0.1
						c1.2-0.4,1.7,0,1.7,0.7c-0.1,0.7-0.7,1.6-1.8,2.1l-0.2-0.2c0.1,0.6,0.4,1.2,0.9,1.7c0.4,0.6,1,1.1,1.8,1.4
						c1.5,0.7,3.8,0.8,6.9-0.6c-0.8,0.4-7.4,3.6-8.6,4.2c7.2-2.6,14.8-4.7,22.5-6.1c-2.8,1-7.1,3.3-11.3,5.2
						c-4.2,1.9-8.2,3.5-10,3.5c-0.6,0.8-1.2,1.7,1.1,1.8c0.7-0.6,7.5-4.1,8.2-3.8c-2.7,1.9-3.5,2.4-4.1,3c-0.6,0.5-1,1-3.4,2.7
						c0.5-0.4,3-1.3,5.3-2c2.3-0.6,4.6-1,4.6-0.5c-1.3,0.3-8.5,2.9-9.5,3c3-0.4,6.1-0.6,9.2-0.7c-1.7-0.1-7.3,2.1-9.7,3.2
						c0.8-0.3,0.9,0.1,0.9,0.6c0,0.5-0.1,1.1,0.3,1.3c0.6-0.4,1.2-0.9,1.8-1.3c-0.4,1.2,2.8,1.1,6.1,1c3.3,0,6.8,0.1,6.8,1.5
						c-1.9-0.1-11.4,1.1-12.4,2.3c2.3-0.1,7.9-0.2,13.4,0.2c5.4,0.4,10.9,1.4,12.7,2.9l-2.6,0.7c1,0.7,2.1,1.5,3,2.3
						c-3.4-0.7-8.9-2-14.2-2.9c-5.3-0.9-10.4-1.5-13.3-1.9c-2,1-3.1,0.6-2.7,1.7c-2.4,0.6-3.8-0.3-4-0.5c-0.5,0.8-0.9,1.7-1.4,2.4
						c2.7-0.2,4.1,0.3,5.3,0.7c1.2,0.5,2.3,1,4.6,1c-1.8-1.1-3.8-2-5.6-2.8c2.7-0.2,6.5-0.1,9.6,0.6c3.1,0.7,5.3,1.9,4.8,3.1
						c-1.1,0.3-3.5,0.1-5.8-0.1c-2.3-0.2-4.7-0.5-5.5-0.5c1.9,0.3,3.5,2.1,2.1,2.2c-0.9-0.4-1.9-0.7-2.8-1c-1,0.5,0.7,1,2.1,1.6
						c1.4,0.6,2.3,1.3-0.3,1.6c-0.2,0.2-1.9,0.3-3.3,0.4c-1.3,0.1-2.2,0.2-0.6,0.5c6.2,0.3,25.1,2.4,29.5,3.9
						c-0.2,0.1-1.8,0.9-3.8,1.5c-1.9,0.7-4.2,1.2-5.8,1.3c-2.5,0-5.2-1-7.8-1.9c-2.6-0.9-5.2-1.8-7.3-1.8c1.4,0.3,3.1,1.1,3.6,1.5
						c-1.3,0.3-4.4-1.2-4,0c5.3,1.5-1.1,2.2,4.3,1.6c1.2,1.5-1.4,0.9-1.6,2.3c1.8,0.3,4.5,1.5,7,2.9c2.4,1.4,4.6,3,5,4
						c-1.3-0.5-3.1-0.9-3.9-1c-0.4,0.6-0.8,1.1-1.3,1.5c-0.5,0.4-1.1,0.8-1.6,1.1c-1,0.7-2,1.3-2.6,2.4c-1.3-0.4-3.2-0.1-5.1-1.6
						c0.7,0.7,2.2,1.9,1.9,2.6c-4.8-1.1,0.1-1.7-5.3-3.6c2.7,1.6,3,3.7,4.1,5.6c2.2,1.2,2.7,0.7,2.5-0.2c-0.2-1-1.1-2.4-1.7-3.3
						c3,1.6,5.8,3.6,8,5.9c2.2,2.3,3.7,4.7,4.1,7c0,3.1-4.2-1.5-3.7-0.6c-0.9,0.8-0.9,1.8-0.5,2.9c0.4,1.1,1.2,2.3,1.8,3.5
						c1.4,2.3,2.4,4.3-0.9,4.4c-2.2-0.8-3.8-2.2-5.2-3.6c-1.4-1.4-2.6-2.8-3.9-3.7c0-1.2,1-1.3,2.1-1.3c1.1,0,2.3,0.2,2.6-0.4
						c-0.9,0-1.7,0-2.6,0c-0.7-1.4-0.9-3,0.5-2.8c-1-0.3-1.7-0.2-2.4,0.2c-0.7,0.4-1.3,1.1-2.1,1.8c-0.7,0.7-1.5,1.4-2.3,2
						c-0.9,0.5-1.9,0.9-3.1,0.7c0.6,1.4,0.9,3.2,2.4,4.2l0.3-1.2c1.5,0.9,2,2.1,2.3,3.2c0.3,1,0.5,1.9,1.6,2
						c0.3,1.4,0.7,3.1,0.6,4.5c0,1.4-0.6,2.4-2.1,2.4l-3.3-3.6c0.9,1.1,2.9,1.4,2.5-0.1c0.3,1.1-1.4,0.4-2.7,0
						c-1.3-0.4-2.3-0.4-0.9,2.5c1.1,0.6,2.2,1.2,3.3,1.8c0.1,1.5,0.5,3.6,0.4,5.3c0,1.8-0.5,3.1-1.8,3.1c3.5,3.5,0.1-0.7,4.6,3.1
						c-2.5-2.5-1.3-3.3-0.2-4c1.1-0.7,2.1-1.5-1-3.8c2.6,2.2,3.6,2.3,4.6,2.2c1,0,1.9-0.2,4.6,1.2c-1.1-1.2-2.6-1.9-0.6-2.5
						c-0.2-0.4-0.5-1-0.6-1.4c0.1,0,0.1,0,0.2,0c-0.1,0-0.1-0.1-0.2-0.1c-0.1-0.2-0.1-0.3-0.1,0c-0.8-0.2-1.6-0.6-2.3-1.2
						c-0.9-1.7-0.7-3-0.5-4.1c0.2-1.1,0.6-2.1,0.2-3.1c1.3-0.2,1,1.6,2.6,2.5c-0.3-1-0.7-2-1-3c1.3,1.2,2.9,1.7,4.1,2.4
						c1.2,0.6,2.1,1.3,1.9,3.1l1.8-1.7c2.4,0.3,4.4-0.8,4-2.7c1.4-0.5-1.3-4.8,0.3-2.2c0.2-1.5,0.4-2.9,0.5-4.4l0.8,0.5
						c1.3-1.4,1-3.8,1.4-5.8c0.3-2.1,1.3-3.7,5.1-4.1c-0.1-0.8-0.3-1.5-0.2-2.3c0.1-0.8,0.4-1.5,1.2-2.3l3,0.8c-0.2-1,1-1.8,1.9-2.7
						c0.9-0.9,1.5-1.8,0-2.6c4.2,0.5,5.4-1.4,5.6-3.7c0.2-2.3-0.5-4.9,0.5-6.2l-4-0.9c0.3-0.9,0.2-2-0.1-3.1
						c-0.3-1.1-0.8-2.3-1.5-3.5l-3.6-0.3c-1.4-1.1-0.6-2.3,0.5-3.6c0.5-0.7,1.1-1.4,1.6-2.2c0.4-0.8,0.7-1.6,0.6-2.4
						c1.4,0.2,1,1.1,0.2,1.6c2-0.9,2.7-1.9,2.6-3c-0.1-1-1-2-1.9-3c-0.9-1-1.9-1.9-2.4-2.7c-0.4-0.9-0.3-1.8,1.1-2.8
						c-1.4-0.7-1.1-1.3-0.3-2.1c0,0.1,0.1,0.1,0.2,0.2c0-0.1,0-0.2,0-0.4c0.6-0.5,1.2-1,1.7-1.5c-0.8,0.5-1.4,1-1.7,1.3
						c-0.2-0.7-0.8-1.6-1.9-2.4l3.7-1.2c-0.1-0.1-0.1-0.1-0.1-0.2c1.2-1.3-1.9-0.4-4.7,0.7c-0.7-0.4-1.6-0.6-2.5-0.7
						c2.9-1,2.3-1.6,1.7-2.1c-0.6-0.5-1.2-1.1,1.9-2.5c-1.7,0.1-2.6-0.9-3.9-1.7c-1.4-0.8-3.2-1.4-6.5-0.5c0.8-0.3,1.1-0.7,1.4-0.3
						c0.4-1.2,0.8-2.4-1.4-2.6l4.4-2.2c-2.3,0.1-4.6,0.3-6.9,0.5c2.2-2.4,3.5-3.7,7.5-4c-3.3-0.4-4.1-0.7-4.9-1
						c-0.8-0.3-1.5-0.6-4.6-0.4l2.8-1.4c-0.6-0.8-5,0-3.1-1.8c2-2.5,0.7-5-1.1-7.7c-1.8-2.7-4.1-5.5-4.2-9.6
						c-2.9,3.7-2.7,2.5-2.3,0.9c0.3-1.5,0.6-3.4-1.9-0.8c1.3-1.8,1.5-3.3,3.5-4.1c-1.9-0.3-2.2-1.7-2.8-2.7c-0.6-1-1.4-1.5-4.1,0.2
						c1.1-2,2.5-2.1,3.1-3.4c-0.5,0.2-2,0.9-1.4-0.4c0.5-1.2,1.5-1.2,2.5-1.6c-1.5-0.9-3.3,0-5.2,1.8c-1.9,1.8-3.9,4.4-5.8,6.9
						c0.6-3.3-0.4-3.4-3.5-0.4c0.7-2,1.1-4.4,3.1-4c-0.4-0.4-1.3-2-2.6-2.7c-1.3-0.8-2.8-1-4,1.3c0.3-1.3-1.1-1-1.6-0.6
						c-1.9-1.3-1.9-1.7-4.2-2.2l0.2,1c-1.6,2.7-2.1,2.8-2.5,2.3c-0.4-0.5-0.6-1.7-1.6-1.6l0.3-0.6c-1.1-2.8-1.8-2.4-2.3-2.1
						c-0.6,0.3-1,0.5-2.3-2.5l-0.8,3.8c-1.3,3.9-1.7,2.6-2.3,0.5c-0.6-2-1.5-4.8-2.9-3.5l0.4,2.3c-0.9,1.2-1.2-1.6-1.5-5
						c-0.4-3.4-0.9-7.3-1.5-7.9c-0.2-0.7,0.6-1.1,1.2-1.5c-1.6-2.7-2-1.4-2.2,0.6c-0.2,2-0.4,4.8-1.8,5.2c-0.3-2.7,1.3-6.8-0.6-7.5
						c-0.4-1.1-2,1-3.7,2.7c-1.7,1.8-3.3,3.2-4.7,0.7c0.6,2.1,1.2,4.1,0,5.7c-0.9,0.4-2.3-1.5-3.6-2.7c-1.4-1.1-2.8-1.5-3.2,1.9
						c-0.3-0.5-0.5-1.1-0.5-1.6c-0.6,1-1.7,1.8-2.6,2.9c-0.9,1.1-1.7,2.5-1.7,4.3c-1.9-6.4-4-4.3-5.4-2c-1.5,2.2-2.6,4.6-4.5-1.2
						c-1.4,0.7-2.7,1.4-4,2.2l-0.4-1.2c-1.5,0.1-2.2,1.1-2.5,2.3c-0.3,1.2-0.1,2.7,0.1,4.3c-0.9-0.5-1-1.7-1.2-2.3
						c-2.4-0.2-3.7-0.1-4.3,1c-0.6,1-0.7,2.9-0.4,6.4l-2.4-3.2c0.2,1.2-1.8,0.7-4.1,0.8c-1.2,0-2.4,0.2-3.3,0.8
						c-0.9,0.6-1.6,1.5-1.6,3.1c-0.3-0.4-0.7-1-0.8-1.7c-0.1,1.7-1.2,2.4-2.5,2.9c-1.3,0.5-3.1,0.6-4.5,1c-2.9,0.7-4.6,2.3,0.4,7.6
						c0.2,1.5,0.6,3,0.9,4.5c1.6-1.1,2.7,0,3.8,1.4c1.1,1.4,2.2,3,3.6,3.2c-0.1,0.8-1.4,0.7-2.7,0.3c-1.3-0.4-2.6-1.1-2.4-2l0.7,0.2
						c-2.8-2.5-4-2-5-1.2c-1,0.8-1.8,1.8-3.9,0.4c-1.9,3.3-4.5,6.1-7,9.1c-2.5,3-4.8,6.2-6.1,9.8c2,0.3,3.9,0.5,5.8,0.8
						c-0.3,0.7-0.6,1.5-1,2.3c-1.5,0.3-4.7-0.3-4-2c-1.7,0-1.3,1-0.2,1.9c1.1,0.9,2.8,1.9,3.4,2c-1.5,1.4-3.1,0.8-4.4-0.2
						c-1.3-1-2.2-2.2-2.3-1.7l0.1,1.6l0.7-0.2c2.1,1.7,4.5,2.3,3.9,4.3c-1.4,1.1-3.7,0.1-4,0.6c-0.4-0.1-0.6,0.1-0.3,0.8
						c-0.3,1.1-0.6,2.2-0.9,3.2c1.6-0.3,3.2-0.6,4.7-0.8c2.1,1.6-0.5,2.9,4.8,1.9c-4.1,0.6-5.1,3.5-5.1,6.3c0,1.4,0.2,2.8,0.3,3.9
						c0.1,1.1,0,1.9-0.6,2.3c1.8,0.8,2.7,1.6,3.2,2.6c0.5,0.9,0.5,2,0.5,3.1c0.8-0.7,5.9-1.9,5.6,0c-5.3,0.7-6.3,1.8-6.8,3.1
						c-0.5,1.4-0.6,2.9-4,4.8c2.3-1.4,3,0,3.9,1.1c0.9,1.2,2.2,2,5.3-0.2c-0.3,1.8-3.8,1.3-5.8,3.4c1.3,0.7,2,1.5,2.4,2.6
						c0.4,1.1,0.4,2.3,0.5,3.6c0,1.3,0,2.7,0.3,4c0.2,1.3,0.7,2.6,1.7,3.5c1.3-0.7,2.7-2.4,5-2.6c-1.6,1.9-3.1,3.9-4.6,6
						c0.6,0.3,2.4-0.6,3.7-1.1c1.3-0.4,2-0.5,0.6,1.7c0.8-0.9,2.1-2.2,2.8-1.9c0,1.5,0.2,2.8,0.8,4c0.5,1.2,1.2,2.3,2,3.2
						c0.4,0.5,0.9,0.9,1.3,1.4c0.5,0.4,1,0.8,1.5,1.2c1,0.8,2,1.5,3.1,2.3c2.1,1.5,4,3,5.6,5.1c1.6,2.1,2.7,4.9,3.3,9
						c0.2-3.1,1.2-2.8,2.1-2.3c-0.3-0.9,1.8-3,2.7-4.7c0.3,2.2,0.6,4.4,1.1,6.7c1.6-2.2,2.6-1.8,3.6-1.3c1,0.4,2,0.8,3.2-1.4
						l-1.5,0.3c2-2.4,2.8-5.6,3.7-9.1c0.9-3.5,1.9-7.2,3.7-10.6c-1.1,1.4-1.5,1.4-1.7,0.8c-0.2-0.6,0-1.9,0.1-3.1
						c0.2-2.3,0.4-4.3-3.2-0.8c0.5-1.6,1.7-1.9,2.4-3.5c-2.2,2.5-3.2,2.6-3.3,0.7l0.6-0.6c-1.6-0.7-2.2-1.9-2.4-3.4
						c-0.1-0.8-0.2-1.6-0.3-2.5c-0.1-0.9-0.2-1.8-0.4-2.8l-2.6,2.8c-0.2-0.9,0.6-1.8,1-2.7c-4.9,3.2,1.3,1.8-3.9,5.6
						c1.2-1.6,1.6-2.6,1.5-3.3c0-0.8-0.4-1.3-0.8-1.9c-0.7-1.1-1.3-2.4,2-5.2c-0.6-0.9-3.3,2.9-4,1.9l1.8-1.6l-2.7,1.5
						c-0.1-0.9,2.3-2.9,3.9-4c-0.1,0.3,0.7,0.1,1,0.2c0.9-1.2,0.4-1.5-0.3-1.7c-0.7-0.2-1.5-0.3-1.2-0.7c-0.3,0.5-0.5,1.1-0.7,1.6
						c-1.7-0.7-2.4-2.3-3.1-3.8c-0.2-0.4-0.4-0.7-0.7-1.1c-0.2-0.4-0.5-0.7-0.9-1c-0.7-0.6-1.6-1.1-3-1.5l-1.6,0.8
						c-2-0.7-1.6-1.4-1.1-2.1c0.5-0.7,1.3-1.5,0.3-2.6l0.4,0c-1.9-0.1-2.9-0.7-2.8-1.5c1.1,0.2,2-0.4,3-0.8c1-0.5,2-0.9,3.2-0.7
						c-2-0.9-2.7-1.2-3.8-1.2c-1.1-0.1-2.6,0-6-0.6l2.9-0.7c-2.7-0.4-4.2-0.3-5-1.9c1.3,0.6,2.4,0.2,3.6,0c1.2-0.3,2.6-0.5,4.3,0
						c1.6-0.8,2-1.4,1.8-1.9c-0.2-0.5-0.9-1-1.5-1.4c-1.3-0.8-2.1-1.6,2.7-2c-8.1-1.8-4.7,2.2-6.4,1.4c-1.3,0.3-2.9,0-4-0.6
						c-1.1-0.6-1.7-1.4-1.2-1.9c0.1-0.5,2.8-0.8,5.4-1.1c2.7-0.3,5.2-0.7,5.3-1.8c-0.1,0.2,0.5,0.3,0.5,0.5c1.1-0.2,0.5-0.7,0-1.2
						c-0.5-0.5-0.8-1,1-1.2c-2.4-0.8-2.2-1.1-2.3-1.4c0-0.3-0.3-0.6-3.3-1.4l1,2.4c-0.7-0.7-2.8-1.8-4.2-2.9
						c-1.4-1.1-2.1-2.2-0.1-2.8c1.2,0.5,2.6,1.6,3.4,2.2c2-0.1-0.9-1.5,1.1-1.5c3,1,3.2,1.7,3.1,2.4c0,0.4-0.1,0.8,0.1,1.2
						c0.2,0.4,0.7,0.9,1.9,1.5c1.4,0,0.3-0.8-0.2-1.3c-0.5-0.5-0.5-0.8,2.7,0.3c-4.1-1.5-3.7-2-3-2.4c0.7-0.4,1.6-0.8-1.3-2.6
						l3.6,1.3c-0.5-0.4-2-1.4-1.8-1.8c1.4,0.8,2.9,1.6,4.4,2.3c-1.8-1.2-0.7-1.4,0.5-1.5c1.2-0.1,2.7,0.1,1.9-0.8
						c-0.4,1-1.5,0.6-2.8,0c-1.4-0.6-3-1.5-4.5-1.5c-1.8-2.4,0.7-1.9,3.5-1c2.8,0.8,6,1.9,5.8,0.2c0.3,0.6-2.7,0.3-4-1.1
						c0.9-0.2,2.6-0.1,4.5,0.6c0.1-1-0.8-1.4-1.9-1.8c-1.1-0.4-2.5-0.7-3.3-1.7c4.3,1.7-1.1-1.8-1.8-3.5l3.3,2.1
						c3.4-0.6-6.3-5-2.5-5.3c1.2,1.3,2.5,2.6,3.8,3.9c-0.2-0.6-0.3-1.2-0.5-1.7l3.4,2.8c-1.9-2.8-1-2.7,0.7-2.8
						c-2.3-1.5-5.2-4.6-4.5-5.6c2.2,1,2.4,2.8,3.1,1.3c1.5,1.9,3.5,4.2,0.5,2.3c0.9,0.9,1.6,1.8,2.5,2.7c2.4,1.2,1.6-0.9,1.9-1.3
						c-0.2,0-0.5,0.1-1-0.2c-0.8-1.7-1.6-3.5-2.3-5.3c1.3,0.8,1.8,1.9,2.4,2.9c0-0.6-1-2.1-0.7-2.8c2,2.4,4.1,4.8,4.6,6.4
						c-0.4-1.3-0.7-2.5-1-3.8c1,0.9,3.1,2.3,3.7,3.3c0.9,0.4,0.4-1.1,0.1-2.6c-0.3-1.5-0.5-3.1,0.7-2.5c-0.3-0.5-0.5-1.1-0.5-1.6
						c0.4,0,0.8,0.1,1.3,0.3c0.5,0.2,1,0.4,1.4,0.5c0.8,0.1,1.3-0.3,1-2.5c1.1,1.5,2.2,3.1,3.2,4.7c0.2-0.8-0.8-2.3-1.7-3.9
						c-1-1.6-2-3.4-1.4-4.8c0.7-2.3,2.4,4.2,3.5,5.4c-0.2-1.4-0.6-3.6-0.5-5c0.1-1.4,0.7-1.9,2.1,0.1
						C390.6,353.5,390,352.8,389.7,353.3z M404.9,348.6c-0.4,0.8-1,3.3-1.2,1C404.2,345.2,404.4,347.3,404.9,348.6z M433.4,349.4
						c-1,0.8-1,0.1-0.5-1.4C433.3,348,433.6,348.3,433.4,349.4z M461.5,441.6c0-0.1-0.1-0.1-0.1-0.2
						C463.4,441.4,462.6,441.4,461.5,441.6z M458.4,442.5c0.2,0.6,0.6,0.9,1.1,1.2c-0.6-0.8-0.2-1.3,0.5-1.6
						C459.1,441.6,458.4,441.3,458.4,442.5z M328.9,379.6l1.1-0.4C330.9,380.5,329.9,380.1,328.9,379.6z"/>
					<path class="st4" d="M427.7,351.9c0.3-0.6,0.6-1.2,1-1.8C428.2,350.5,427.8,351.2,427.7,351.9z"/>
					<path class="st4" d="M382.3,359.2C382.3,359.2,382.3,359.2,382.3,359.2c0,0.2,0.2,0.4,0.3,0.6L382.3,359.2z"/>
					<path class="st4" d="M445.4,399.5c0.6-0.2,1.3-0.2,2.1-0.2C446.5,399.1,445.7,399.1,445.4,399.5z"/>
					<path class="st4" d="M451.8,457.1c0.3-0.6,0.6-1.3,0.9-1.9c-0.6,0.7-1.3,0.2-2.1,0C451.1,455.9,452.2,456.7,451.8,457.1z"/>
					<path class="st4" d="M427.8,443.7c0,0.5-0.4,0.2-0.3,0.7l0.8,1.6C429,445.6,428.9,444,427.8,443.7z"/>
					<path class="st4" d="M443,447.6c-2-2.6-2.1-1.1-2.7-0.1c0,0,0.1-0.1,0.2-0.1C442.7,451.4,442.9,449.5,443,447.6z"/>
					<path class="st4" d="M440.2,447.8c-0.2,0.3-0.4,0.6-0.8,0.6C440.3,450,439.9,448.5,440.2,447.8z"/>
					<path class="st4" d="M457.6,446.5c-1-0.2,2.6,3.2,1.5,2.5c1.2,1.7,1.1,0.1,0.5-1.4C459,446,458,444.6,457.6,446.5z"/>
					<polygon class="st4" points="436.3,439.3 438.8,442.4 437.4,439.4 					"/>
					<path class="st4" d="M444,437l-1.9,0.2c0.4,0.5,0.6,0.9,0.6,1.3C443.5,438,444.8,437.9,444,437z"/>
					<path class="st4" d="M442.6,438.5c-0.4,0.3-0.8,0.6-0.6,1.3C442.3,439.6,442.7,439.1,442.6,438.5z"/>
					<path class="st4" d="M437.2,437.2l0.8,0.4l1-0.4C438.4,437.2,437.8,437.2,437.2,437.2z"/>
					<path class="st4" d="M455.6,424.8l-0.1-2.1c-1.1-0.9-2-0.9-1.9-0.1C454.2,423.5,454.3,424.3,455.6,424.8z"/>
					<path class="st4" d="M443.9,422.3c0.9,0.2,1.6,0.7,2.8,1.3l-3.9-3L443.9,422.3z"/>
					<path class="st4" d="M445.3,418.3c-1.1-0.9-2.3-3.8-2.9-2.2C443.5,416.9,443.7,418.7,445.3,418.3z"/>
					<polygon class="st4" points="459.2,400 459.2,400.4 467.2,401.8 					"/>
					<path class="st4" d="M439.8,383.1c-1.7,1.5,5-0.6,2.8,1c2,0,1.8-1.3,3.5-1.3C443.9,382.3,445,381.7,439.8,383.1z"/>
					<path class="st4" d="M446.1,382.8c0.3,0.1,0.8,0.2,1.3,0.2C446.8,382.9,446.4,382.8,446.1,382.8z"/>
					<path class="st4" d="M369,461.6c0.2,0.8,0.5,1.5,0.8,2.2c0-1,0.1-2,0.2-2.9L369,461.6z"/>
					<path class="st4" d="M374.2,457.3l-1.7,4.9c0.9-1.3,1.8-2.6,2.7-4C374.8,458.3,374,458.5,374.2,457.3z"/>
					<path class="st4" d="M406.2,359.2l0.2-1.2c0-1.4-0.1-1.5-0.4-1.7C406,357.2,406.1,358.2,406.2,359.2z"/>
					<polygon class="st4" points="396.7,355.7 396.9,355.8 395.7,351.2 					"/>
					<path class="st4" d="M391.1,363.6c0.3,0.1,0.2-1,0.6-0.9C391.5,363.6,388.7,358.3,391.1,363.6z"/>
				</g>
			</g>
		</g>
	</g>
</g>
<radialGradient id="SVGID_4_" cx="403.432" cy="419.8486" r="23.3682" fx="403.6097" fy="432.0977" gradientUnits="userSpaceOnUse">
	<stop  offset="0" style="stop-color:#FFFFFF"/>
	<stop  offset="6.925797e-02" style="stop-color:#FFFBF4;stop-opacity:0.9931"/>
	<stop  offset="0.5119" style="stop-color:#FDE1B3;stop-opacity:0.9488"/>
	<stop  offset="0.834" style="stop-color:#FBD08B;stop-opacity:0.9166"/>
	<stop  offset="1" style="stop-color:#FBCA7B;stop-opacity:0.9"/>
</radialGradient>
<path class="st5" d="M423.4,427.7c0,2.4-0.5,4.8-1.4,6.9c-1.3,3.1-3.4,5.7-6.2,7.8c-3.5,2.6-7.9,3.9-12.4,3.8l0,0l-0.4,0
	c-4.7,0-9.2-1.5-12.7-4.4c-2.3-1.9-4.2-4.3-5.4-7.1c-0.9-2.2-1.4-4.5-1.4-7c0-5.8,2.8-11,7.3-14.5c2.7-2,4.8-4.6,6-7.6l4-9.8
	c1.2-3.1,5.2-3,6.4,0.1l4,10.4c1.1,2.9,3,5.4,5.5,7.4C420.8,417.1,423.4,422.1,423.4,427.7z"/>
</svg>
