<?xml version="1.0" encoding="utf-8"?>
<!-- Generator: Adobe Illustrator 24.1.3, SVG Export Plug-In . SVG Version: 6.00 Build 0)  -->
<svg version="1.1" id="Layer_1" xmlns="http://www.w3.org/2000/svg" xmlns:xlink="http://www.w3.org/1999/xlink" x="0px" y="0px"
	 viewBox="0 0 800 800" style="enable-background:new 0 0 800 800;" xml:space="preserve">
<style type="text/css">
	.st0{fill:#7E694D;}
	.st1{fill:url(#SVGID_1_);}
	.st2{fill:url(#SVGID_2_);}
	.st3{fill:url(#SVGID_3_);}
	.st4{fill:url(#SVGID_4_);}
	.st5{fill:#F3CCC1;}
	.st6{fill:url(#SVGID_5_);}
	.st7{fill:url(#SVGID_6_);}
	.st8{fill:url(#SVGID_7_);}
	.st9{fill:url(#SVGID_8_);}
	.st10{fill:url(#SVGID_9_);}
	.st11{fill:url(#SVGID_10_);}
	.st12{fill:url(#SVGID_11_);}
	.st13{fill:url(#SVGID_12_);}
	.st14{fill:url(#SVGID_13_);}
	.st15{fill:#F3CCC0;}
	.st16{fill:url(#SVGID_14_);}
</style>
<path class="st0" d="M60.5,122.8c-0.6,2.1-1.4,4-2.3,5.7c-1.5,2.7-3.3,4.9-5.5,6.6c-0.7,0.6-1.5,1.1-2.3,1.5
	c-0.3-1.7-0.5-3.2-0.8-4.8c-0.1-0.8-0.3-1.6-0.5-2.4c0,0,0,0,0.1,0c2.1-1.1,3.9-3.2,5.1-5.9c0.1-0.2,0.2-0.5,0.3-0.7H60.5z"/>
<path class="st0" d="M112.7,122.8c-0.6,2.1-1.4,4-2.3,5.7c-1.5,2.7-3.3,4.9-5.5,6.6c-0.7,0.6-1.5,1.1-2.3,1.5
	c-0.3-1.7-0.5-3.2-0.8-4.8c-0.1-0.8-0.3-1.6-0.5-2.4c0,0,0,0,0.1,0c2.1-1.1,3.9-3.2,5.1-5.9c0.1-0.2,0.2-0.5,0.3-0.7H112.7z"/>
<path class="st0" d="M162.5,122.8c-0.6,2.1-1.4,4-2.3,5.7c-1.5,2.7-3.3,4.9-5.5,6.6c-0.7,0.6-1.5,1.1-2.3,1.5
	c-0.3-1.7-0.5-3.2-0.8-4.8c-0.1-0.8-0.3-1.6-0.5-2.4c0,0,0,0,0.1,0c2.1-1.1,3.9-3.2,5.1-5.9c0.1-0.2,0.2-0.5,0.3-0.7H162.5z"/>
<path class="st0" d="M211.5,122.8c-0.6,2.1-1.4,4-2.3,5.7c-1.5,2.7-3.3,4.9-5.5,6.6c-0.7,0.6-1.5,1.1-2.3,1.5
	c-0.3-1.7-0.5-3.2-0.8-4.8c-0.1-0.8-0.3-1.6-0.5-2.4c0,0,0,0,0.1,0c2.1-1.1,3.9-3.2,5.1-5.9c0.1-0.2,0.2-0.5,0.3-0.7H211.5z"/>
<linearGradient id="SVGID_1_" gradientUnits="userSpaceOnUse" x1="395.18" y1="122.81" x2="395.18" y2="99.23">
	<stop  offset="0" style="stop-color:#AA824B"/>
	<stop  offset="6.233076e-02" style="stop-color:#AE8751"/>
	<stop  offset="0.1483" style="stop-color:#B89563"/>
	<stop  offset="0.2479" style="stop-color:#CAAB80"/>
	<stop  offset="0.357" style="stop-color:#E2CBA9"/>
	<stop  offset="0.4635" style="stop-color:#FEEFD7"/>
	<stop  offset="1" style="stop-color:#AA824B"/>
</linearGradient>
<path class="st1" d="M760.6,111c0,3.2-1.3,6.2-3.5,8.3c-2.1,2.1-5.1,3.5-8.3,3.5h-15.1v-4.7h-6.7c-2.2,0-4.4,0.3-6.5,0.8
	c0.3,1.4,0.6,2.6,1.1,3.8h-680c-6.5,0-11.8-5.3-11.8-11.8c0-3.2,1.3-6.2,3.5-8.3c2.1-2.1,5.1-3.5,8.3-3.5h707.2
	C755.3,99.2,760.6,104.5,760.6,111z"/>
<linearGradient id="SVGID_2_" gradientUnits="userSpaceOnUse" x1="36.5" y1="132.695" x2="46.76" y2="132.695">
	<stop  offset="0" style="stop-color:#F3CCC0"/>
	<stop  offset="0.5" style="stop-color:#F5D6CD"/>
	<stop  offset="1" style="stop-color:#F3CCC0"/>
</linearGradient>
<path class="st2" d="M45.8,130.4c-0.1,0-0.1,0-0.2,0c-2.5,0-4.8-1.3-6.6-3.5c-0.9,2.7-1.7,5.9-2.5,9.6c0.5,0.3,1.1,0.6,1.7,0.9
	c1.7,0.8,3.6,1.2,5.5,1.2c0.2,0,0.4,0,0.5,0c0-0.4,0-0.8,0.1-1.2c0.3-3.5,1.2-6.2,2.3-7c0,0,0.1-0.1,0.2-0.1
	C46.5,130.3,46.1,130.4,45.8,130.4z"/>
<linearGradient id="SVGID_3_" gradientUnits="userSpaceOnUse" x1="34.26" y1="431.54" x2="63.18" y2="431.54">
	<stop  offset="0" style="stop-color:#F3CCC0"/>
	<stop  offset="2.202052e-02" style="stop-color:#F3CDC2"/>
	<stop  offset="0.2103" style="stop-color:#F5D4CA"/>
	<stop  offset="0.5" style="stop-color:#F5D6CD"/>
	<stop  offset="0.7774" style="stop-color:#F4D3CA"/>
	<stop  offset="1" style="stop-color:#F3CCC0"/>
</linearGradient>
<path class="st3" d="M63.2,195.5V745c-0.5-3.4-1-7.1-1.5-11.2c0,0,0,0,0,0c0-0.3-0.1-0.7-0.1-1c0,0,0,0,0,0
	c-0.1-1.2-0.2-2.4-0.4-3.6v-0.1c0-0.2-0.1-0.5-0.1-0.7c0,0,0,0,0,0c-2.4-21.8-6.6-36.4-11.4-36.4h-4.5c-4.5,0-8.5,12.8-11,32.3
	c1.1-11.2,1.7-24.2,1.7-37.9V139c0.2-0.9,0.3-1.7,0.5-2.5c0.5,0.3,1.1,0.6,1.7,0.9c1.7,0.8,3.6,1.2,5.5,1.2c0.2,0,0.4,0,0.5,0
	c0,0.6-0.1,1.2-0.1,1.9c0,5.6,1.4,10.2,3.1,10.2c1.7,0,3.1-4.6,3.1-10.2c0-1.2-0.1-2.4-0.2-3.5c-0.2-1.5-0.4-2.8-0.8-3.8
	c-0.5-1.7-1.2-2.7-2-2.9h0c0,0-0.1,0-0.1,0c-0.1,0-0.1,0-0.2,0c-0.1,0-0.2,0.1-0.3,0.1c-0.3,0.1-0.6,0.1-1,0.1c-0.1,0-0.1,0-0.2,0
	c-2.5,0-4.8-1.3-6.6-3.5c0.5-1.6,1-2.9,1.6-4.1c0.1-0.2,0.2-0.3,0.2-0.5c0.9-1.7,1.7-2.9,2.7-3.6c0.6-0.4,1.2-0.7,1.8-0.7h4.5
	c1.6,0,3.2,1.7,4.7,4.8c1.9,4.1,3.6,10.6,5,18.8c0.1,0.5,0.2,1,0.2,1.5c0.1,0.4,0.1,0.9,0.2,1.3c0.5,3.1,0.9,6.5,1.3,10v0
	c0,0.1,0,0.3,0,0.4c0,0.1,0,0.3,0,0.4c0,0.1,0,0.1,0,0.2c0.1,1.1,0.2,2.2,0.3,3.3c0,0,0,0,0,0c0,0.3,0.1,0.7,0.1,1.1c0,0,0,0,0,0
	C62.6,170.7,63.2,182.8,63.2,195.5z"/>
<linearGradient id="SVGID_4_" gradientUnits="userSpaceOnUse" x1="61.5669" y1="452.345" x2="84.7769" y2="452.345">
	<stop  offset="0" style="stop-color:#F3CCC0"/>
	<stop  offset="0.1714" style="stop-color:#E9C3B8"/>
	<stop  offset="0.467" style="stop-color:#CDACA2"/>
	<stop  offset="0.5" style="stop-color:#C9A99F"/>
	<stop  offset="0.6425" style="stop-color:#DAB7AC"/>
	<stop  offset="0.8523" style="stop-color:#ECC6BB"/>
	<stop  offset="1" style="stop-color:#F3CCC0"/>
</linearGradient>
<path class="st4" d="M84.8,140.9v545.4c0,13.9-0.5,27-1.4,38.3c-0.2,2.2-0.4,4.3-0.6,6.3c0,0.1,0,0.1,0,0.2
	c-0.5,5.1-1.1,9.8-1.8,13.9c-1.9,11.7-4.4,18.7-7.1,18.7h-3.6c-2.7,0-5.2-7-7.1-18.6c0-0.1,0-0.1,0-0.2V195.5
	c0-12.8-0.5-24.9-1.5-35.5c0,0,0,0,0,0c0-0.4-0.1-0.7-0.1-1.1c0,0.4,0.1,0.7,0.1,1.1c0,0,0,0,0,0c2,18.1,5.1,29.8,8.6,29.8h3.6
	c3.2,0,6.2-10.2,8.2-26.3c0.5-4,0.9-8.3,1.3-13c0.4-3.1,0.8-6,1.3-8.7c0,0,0,0,0-0.1C84.7,141.5,84.7,141.2,84.8,140.9z"/>
<path class="st5" d="M34.3,150.3c-0.2,2.5-0.5,4.9-0.8,7.3C33.7,155.1,34,152.6,34.3,150.3z"/>
<linearGradient id="SVGID_5_" gradientUnits="userSpaceOnUse" x1="86" y1="131.15" x2="95.87" y2="131.15">
	<stop  offset="0" style="stop-color:#F3CCC0"/>
	<stop  offset="2.202052e-02" style="stop-color:#F3CDC2"/>
	<stop  offset="0.2103" style="stop-color:#F5D4CA"/>
	<stop  offset="0.5" style="stop-color:#F5D6CD"/>
	<stop  offset="0.7774" style="stop-color:#F4D3CA"/>
	<stop  offset="1" style="stop-color:#F3CCC0"/>
</linearGradient>
<path class="st6" d="M95.8,130.1c-2.7-0.7-5.1-2.9-6.7-6.1c-1.1,2.7-2.2,6.3-3.1,10.6c0.3,0.3,0.6,0.5,1,0.8c1.8,1.4,3.9,2.3,6,2.8
	c0.1-1,0.2-1.9,0.3-2.8C93.8,132.4,94.8,130.3,95.8,130.1C95.8,130.1,95.8,130.1,95.8,130.1z"/>
<linearGradient id="SVGID_6_" gradientUnits="userSpaceOnUse" x1="83.34" y1="431.33" x2="112.31" y2="431.33">
	<stop  offset="0" style="stop-color:#F3CCC0"/>
	<stop  offset="2.202052e-02" style="stop-color:#F3CDC2"/>
	<stop  offset="0.2103" style="stop-color:#F5D4CA"/>
	<stop  offset="0.5" style="stop-color:#F5D6CD"/>
	<stop  offset="0.7774" style="stop-color:#F4D3CA"/>
	<stop  offset="1" style="stop-color:#F3CCC0"/>
</linearGradient>
<path class="st7" d="M112.3,195.5v549.1c-0.6-3.6-1.2-7.7-1.6-12.1c0,0,0,0,0-0.1c-0.1-1.3-0.2-2.5-0.4-3.8
	c-2.4-22-6.7-36.7-11.5-36.7h-4.5c-4.5,0-8.6,12.9-11,32.6c0.9-11.3,1.4-24.4,1.4-38.3V140.9c0.4-2.2,0.8-4.3,1.2-6.2
	c0.3,0.3,0.6,0.5,1,0.8c1.8,1.4,3.9,2.3,6,2.8c-0.1,0.7-0.1,1.4-0.1,2.2c0,5.6,1.4,10.2,3.1,10.2c1.7,0,3.1-4.6,3.1-10.2
	c0-0.8,0-1.6-0.1-2.3c-0.1-1-0.2-2-0.3-2.9c-0.4-2.4-1.2-4.2-2-4.8c0,0-0.1,0-0.1-0.1c-0.2-0.1-0.3-0.2-0.5-0.2H96c0,0-0.1,0-0.1,0
	c0,0,0,0-0.1,0c-2.7-0.7-5.1-2.9-6.7-6.1c0.2-0.4,0.4-0.9,0.6-1.3c0.3-0.7,0.6-1.3,1-1.8c0.9-1.4,1.8-2.4,2.7-2.7
	c0.3-0.1,0.6-0.2,1-0.2h4.5c1.6,0,3.2,1.7,4.7,4.8c1.9,4,3.6,10.3,4.9,18.4c0.7,4,1.3,8.5,1.8,13.3v0c0.1,1.4,0.3,2.8,0.4,4.1
	C111.7,169.6,112.3,182.2,112.3,195.5z"/>
<path class="st5" d="M61.2,155.5c0.1,1.1,0.2,2.2,0.3,3.3C61.4,157.8,61.3,156.7,61.2,155.5z"/>
<path class="st0" d="M47.4,130.1L47.4,130.1c-0.2,0.1-0.5,0.1-0.7,0.1c-0.3,0.1-0.6,0.1-1,0.1c-0.1,0-0.1,0-0.2,0
	c-2.5,0-4.8-1.3-6.6-3.5c-1-1.1-1.8-2.5-2.4-4.1c-0.5-1.3-0.9-2.6-1.2-4.1c-0.2-1.2-0.3-2.6-0.3-3.9c0-0.2,0-0.5,0-0.7
	c0.2-6.7,3.2-12.2,7.3-14.2c0,0,0,0,0,0c0.9-0.4,1.8-0.7,2.7-0.7c0.2,0,0.3,0,0.5,0c0.1,0,0.3,0,0.4,0c0.1,0,0.1,0,0.2,0
	c0.1,0,0.1,0,0.2,0H58c-3.3-5.8-8.5-9.5-14.3-9.5s-11,3.7-14.3,9.5c-2.4,4.1-3.7,9.3-3.7,14.9c0,2.9,0.4,5.7,1,8.2
	c0,0.2,0.1,0.3,0.1,0.5c1.7,6.1,5.2,11.1,9.7,13.7c0.5,0.3,1.1,0.6,1.7,0.9c1.7,0.8,3.6,1.2,5.5,1.2c0.2,0,0.4,0,0.5,0
	c2.1-0.1,4.1-0.7,6-1.6c-0.2-1.5-0.4-2.8-0.8-3.8C48.9,131.3,48.2,130.3,47.4,130.1z"/>
<linearGradient id="SVGID_7_" gradientUnits="userSpaceOnUse" x1="110.6711" y1="452.52" x2="134.7586" y2="452.52">
	<stop  offset="0" style="stop-color:#F3CCC0"/>
	<stop  offset="0.1714" style="stop-color:#E9C3B8"/>
	<stop  offset="0.467" style="stop-color:#CDACA2"/>
	<stop  offset="0.5" style="stop-color:#C9A99F"/>
	<stop  offset="0.6425" style="stop-color:#DAB7AC"/>
	<stop  offset="0.8523" style="stop-color:#ECC6BB"/>
	<stop  offset="1" style="stop-color:#F3CCC0"/>
</linearGradient>
<path class="st8" d="M134.8,141.3v544.9c0,16.6-0.8,32-2.1,44.7c0,0,0,0.1,0,0.1c-0.5,5-1.1,9.5-1.8,13.5c-2,11.9-4.6,19.2-7.4,19.2
	h-3.7c-2.8,0-5.4-7.2-7.4-19.1V195.5c0-13.3-0.6-25.9-1.6-36.9c2.1,18.9,5.4,31.1,9,31.1h3.7c3.8,0,7.2-13,9.2-33
	C133.3,151.2,134,146,134.8,141.3L134.8,141.3z"/>
<linearGradient id="SVGID_8_" gradientUnits="userSpaceOnUse" x1="136.04" y1="131.22" x2="146.19" y2="131.22">
	<stop  offset="0" style="stop-color:#F3CCC0"/>
	<stop  offset="2.202052e-02" style="stop-color:#F3CDC2"/>
	<stop  offset="0.2103" style="stop-color:#F5D4CA"/>
	<stop  offset="0.5" style="stop-color:#F5D6CD"/>
	<stop  offset="0.7774" style="stop-color:#F4D3CA"/>
	<stop  offset="1" style="stop-color:#F3CCC0"/>
</linearGradient>
<path class="st9" d="M145.8,130.1c-2.7-0.7-5.1-2.9-6.6-6c-1.1,2.7-2.2,6.3-3.1,10.6c0.3,0.3,0.6,0.5,0.9,0.8c2,1.5,4.2,2.5,6.6,2.9
	c0-1,0.2-2,0.3-2.9c0.5-2.8,1.3-4.8,2.3-5.2C146,130.2,145.9,130.2,145.8,130.1z"/>
<linearGradient id="SVGID_9_" gradientUnits="userSpaceOnUse" x1="132.68" y1="431.78" x2="162.36" y2="431.78">
	<stop  offset="0" style="stop-color:#F3CCC0"/>
	<stop  offset="2.202052e-02" style="stop-color:#F3CDC2"/>
	<stop  offset="0.2103" style="stop-color:#F5D4CA"/>
	<stop  offset="0.5" style="stop-color:#F5D6CD"/>
	<stop  offset="0.7774" style="stop-color:#F4D3CA"/>
	<stop  offset="1" style="stop-color:#F3CCC0"/>
</linearGradient>
<path class="st10" d="M162.4,195.5v550c-0.5-3.1-1-6.5-1.4-10.3c0,0,0,0,0,0c-0.2-2.6-0.5-5.2-0.8-7.6v0
	c-2.4-21.4-6.6-35.6-11.4-35.6h-4.5c-5,0-9.4,15.7-11.7,38.9c1.3-12.6,2.1-28.1,2.1-44.7v-545c0.4-2.3,0.8-4.6,1.3-6.6
	c0.3,0.3,0.6,0.5,0.9,0.8c2,1.5,4.2,2.5,6.6,2.9c0,0.7-0.1,1.3-0.1,2c0,5.6,1.4,10.2,3.1,10.2c1.7,0,3.1-4.6,3.1-10.2
	c0-0.9,0-1.7-0.1-2.5c-0.1-1-0.2-1.9-0.3-2.7c-0.4-2.4-1.2-4.2-2.1-4.8c-0.2-0.2-0.4-0.2-0.6-0.2h-0.1c-0.1,0-0.2,0-0.3,0.1
	c-0.1,0-0.3,0-0.4-0.1c-2.7-0.7-5.1-2.9-6.6-6c0.2-0.5,0.4-0.9,0.6-1.3c0.5-1,1-1.9,1.5-2.6c0.9-1.2,1.8-2,2.8-2.2
	c0.1,0,0.3,0,0.4,0h4.5c1.6,0,3.2,1.7,4.7,4.8c1.9,4.1,3.7,10.6,5,18.9c0.6,3.6,1.2,7.6,1.7,11.9c0.2,2.6,0.5,5.2,0.8,7.6
	C161.8,171.6,162.4,183.2,162.4,195.5z"/>
<path class="st5" d="M61.1,154.5L61.1,154.5c-0.4-4.1-1-7.9-1.5-11.4C60.2,146.6,60.7,150.4,61.1,154.5L61.1,154.5
	c0,0.3,0.1,0.6,0.1,0.9C61.2,155.1,61.2,154.8,61.1,154.5z"/>
<path class="st0" d="M96.7,130.4c0,0-0.1,0-0.1-0.1c-0.2,0-0.5-0.1-0.7-0.1c0,0,0,0-0.1,0c-2.7-0.7-5.1-2.9-6.7-6.1
	c-0.2-0.4-0.4-0.8-0.6-1.3c-0.6-1.4-1-2.9-1.2-4.6c-0.2-1.1-0.3-2.2-0.3-3.4c0-0.2,0-0.5,0-0.7c0.2-6.7,3.2-12.2,7.3-14.2
	c0,0,0,0,0,0c0.9-0.4,1.8-0.7,2.7-0.7c0.2,0,0.3,0,0.5,0c0.1,0,0.3,0,0.4,0c0.1,0,0.1,0,0.2,0c0.1,0,0.1,0,0.2,0H110
	c-3.3-5.8-8.5-9.5-14.3-9.5s-11,3.7-14.3,9.5c-2.4,4.1-3.7,9.3-3.7,14.9c0,2.4,0.2,4.7,0.7,6.9c0.1,0.6,0.3,1.2,0.5,1.8
	c1.4,4.9,3.9,9.1,7.2,11.9c0.3,0.3,0.6,0.5,1,0.8c1.8,1.4,3.9,2.3,6,2.8c0.9,0.2,1.8,0.3,2.7,0.3c1.2,0,2.3-0.1,3.4-0.4
	c-0.1-1-0.2-2-0.3-2.9C98.3,132.7,97.5,130.9,96.7,130.4z"/>
<linearGradient id="SVGID_10_" gradientUnits="userSpaceOnUse" x1="160.9484" y1="452.6325" x2="183.3388" y2="452.6325">
	<stop  offset="0" style="stop-color:#F3CCC0"/>
	<stop  offset="0.1714" style="stop-color:#E9C3B8"/>
	<stop  offset="0.467" style="stop-color:#CDACA2"/>
	<stop  offset="0.5" style="stop-color:#C9A99F"/>
	<stop  offset="0.6425" style="stop-color:#DAB7AC"/>
	<stop  offset="0.8523" style="stop-color:#ECC6BB"/>
	<stop  offset="1" style="stop-color:#F3CCC0"/>
</linearGradient>
<path class="st11" d="M183.3,141.5v544.7c0,14.7-0.6,28.5-1.6,40.2c-0.4,3.1-0.7,6.4-1,9.8l0,0c-0.4,3.4-0.8,6.6-1.3,9.5
	c-1.8,11.2-4.2,18-6.8,18h-3.5c-2.6,0-5-6.9-6.8-18.2v-550c0-12.3-0.5-24-1.4-34.3c2,17.4,4.9,28.6,8.2,28.6h3.5
	c3.2,0,6.1-10.7,8.1-27.4c0.4-3.1,0.7-6.4,1-9.9C182.2,148.6,182.8,144.9,183.3,141.5z"/>
<path class="st5" d="M83.3,150.6c-0.4,4.6-0.8,9-1.3,12.9C82.4,159,82.8,154.6,83.3,150.6z"/>
<path class="st5" d="M110.7,158.7c-0.1-1.3-0.3-2.7-0.4-4.1C110.4,155.9,110.5,157.3,110.7,158.7z"/>
<linearGradient id="SVGID_11_" gradientUnits="userSpaceOnUse" x1="184.72" y1="131" x2="195.03" y2="131">
	<stop  offset="0" style="stop-color:#F3CCC0"/>
	<stop  offset="2.202052e-02" style="stop-color:#F3CDC2"/>
	<stop  offset="0.2103" style="stop-color:#F5D4CA"/>
	<stop  offset="0.5" style="stop-color:#F5D6CD"/>
	<stop  offset="0.7774" style="stop-color:#F4D3CA"/>
	<stop  offset="1" style="stop-color:#F3CCC0"/>
</linearGradient>
<path class="st12" d="M194.8,130.1c-2.8-0.7-5.3-3.1-6.8-6.4c-1.2,2.7-2.2,6.3-3.2,10.7c0.4,0.4,0.8,0.7,1.2,1
	c1.9,1.4,4.1,2.4,6.3,2.8c0.1-1,0.2-2,0.3-2.8c0.5-2.9,1.4-4.9,2.4-5.3C195,130.2,194.9,130.2,194.8,130.1z"/>
<linearGradient id="SVGID_12_" gradientUnits="userSpaceOnUse" x1="181.78" y1="431.95" x2="210.98" y2="431.95">
	<stop  offset="0" style="stop-color:#F3CCC0"/>
	<stop  offset="2.202052e-02" style="stop-color:#F3CDC2"/>
	<stop  offset="0.2103" style="stop-color:#F5D4CA"/>
	<stop  offset="0.5" style="stop-color:#F5D6CD"/>
	<stop  offset="0.7774" style="stop-color:#F4D3CA"/>
	<stop  offset="1" style="stop-color:#F3CCC0"/>
</linearGradient>
<path class="st13" d="M211,195.5v550.3c-0.5-3.1-0.9-6.5-1.4-10.2c0,0,0,0,0,0c0,0,0,0,0-0.1c-0.2-2.5-0.5-5-0.7-7.4c0,0,0,0,0,0
	c-2.4-21.7-6.6-36.2-11.4-36.2H193c-4.7,0-8.8,13.7-11.2,34.5c1-11.7,1.6-25.5,1.6-40.2V141.5c0.4-2.5,0.9-4.9,1.4-7.1
	c0.4,0.4,0.8,0.7,1.2,1c1.9,1.4,4.1,2.4,6.3,2.8c0,0.7-0.1,1.4-0.1,2.1c0,5.6,1.4,10.2,3.1,10.2c1.7,0,3.1-4.6,3.1-10.2
	c0-0.8,0-1.6-0.1-2.4c-0.1-1-0.2-2-0.3-2.8c-0.4-2.4-1.2-4.2-2-4.8c0,0,0,0,0,0c-0.2-0.1-0.4-0.2-0.6-0.2h-0.1c-0.1,0-0.2,0-0.3,0
	c-0.1,0-0.2,0-0.2,0c-2.8-0.7-5.3-3.1-6.8-6.4c0.1-0.3,0.3-0.6,0.4-0.9c0.5-1.1,1-2,1.6-2.7c0.9-1.2,1.8-1.9,2.8-2
	c0.1,0,0.2,0,0.3,0h4.5c1.6,0,3.2,1.7,4.7,4.8c2,4.1,3.7,10.8,5.1,19.3c0.6,3.7,1.2,7.7,1.6,12v0c0.2,2.7,0.5,5.2,0.8,7.6
	C210.5,172,211,183.4,211,195.5z"/>
<path class="st0" d="M147.2,130.4c-0.3,0-0.7,0-1-0.1c-0.1,0-0.3,0-0.4-0.1c-2.7-0.7-5.1-2.9-6.6-6c-0.2-0.4-0.4-0.9-0.6-1.3
	c-0.6-1.4-1-3-1.3-4.7c-0.2-1.1-0.2-2.1-0.2-3.3c0-0.2,0-0.5,0-0.7c0.2-6.7,3.2-12.2,7.3-14.2c0,0,0,0,0,0c0.9-0.4,1.8-0.7,2.7-0.7
	c0.2,0,0.3,0,0.5,0c0.1,0,0.3,0,0.4,0c0.1,0,0.1,0,0.2,0c0.1,0,0.1,0,0.2,0H160c-3.3-5.8-8.5-9.5-14.3-9.5s-11,3.7-14.3,9.5
	c-2.4,4.1-3.7,9.3-3.7,14.9c0,2.1,0.2,4.2,0.6,6.1c0.2,0.9,0.4,1.7,0.6,2.6c1.4,4.9,3.9,9.1,7.2,11.9c0.3,0.3,0.6,0.5,0.9,0.8
	c2,1.5,4.2,2.5,6.6,2.9c0.7,0.1,1.4,0.2,2.1,0.2c1.4,0,2.7-0.2,3.9-0.6c-0.1-1-0.2-1.9-0.3-2.7C148.8,132.7,148.1,130.9,147.2,130.4
	z"/>
<path class="st5" d="M160.9,161.2c-0.3-2.4-0.5-4.9-0.8-7.6C160.5,156.1,160.7,158.6,160.9,161.2z"/>
<linearGradient id="SVGID_13_" gradientUnits="userSpaceOnUse" x1="209.6171" y1="453.0516" x2="231.2424" y2="453.0516">
	<stop  offset="0" style="stop-color:#F3CCC0"/>
	<stop  offset="0.1714" style="stop-color:#E9C3B8"/>
	<stop  offset="0.467" style="stop-color:#CDACA2"/>
	<stop  offset="0.5" style="stop-color:#C9A99F"/>
	<stop  offset="0.6425" style="stop-color:#DAB7AC"/>
	<stop  offset="0.8523" style="stop-color:#ECC6BB"/>
	<stop  offset="1" style="stop-color:#F3CCC0"/>
</linearGradient>
<path class="st14" d="M231.2,142.4v543.9c0,16.2-0.7,31.3-1.8,43.7c-0.1,1.3-0.3,2.6-0.4,4c0,0,0,0,0,0.1c-0.5,4.3-1,8.2-1.5,11.7
	c-1.8,11.2-4.1,18-6.6,18h-3.4c-2.5,0-4.8-6.7-6.6-17.9V195.5c0-12.1-0.5-23.6-1.4-33.8c1.9,17.1,4.7,28.1,7.9,28.1h3.4
	c3.3,0,6.2-11.7,8.1-29.8c0.1-1.3,0.3-2.5,0.4-3.8C229.9,151.2,230.6,146.5,231.2,142.4z"/>
<path class="st0" d="M196,130.4C196,130.3,196,130.3,196,130.4c-0.3,0-0.6-0.1-0.9-0.2c-0.1,0-0.2,0-0.2,0c-2.8-0.7-5.3-3.1-6.8-6.4
	c-0.1-0.3-0.3-0.6-0.4-0.9c-0.6-1.5-1-3-1.3-4.8c-0.2-1-0.2-2.1-0.2-3.3c0-0.2,0-0.5,0-0.7c0.2-6.7,3.2-12.2,7.3-14.2c0,0,0,0,0,0
	c0.9-0.4,1.8-0.7,2.7-0.7c0.2,0,0.3,0,0.5,0c0.1,0,0.3,0,0.4,0c0.1,0,0.1,0,0.2,0c0.1,0,0.1,0,0.2,0H209c-3.3-5.8-8.5-9.5-14.3-9.5
	s-11,3.7-14.3,9.5c-2.4,4.1-3.7,9.3-3.7,14.9c0,2.1,0.2,4.1,0.5,6c0.2,0.9,0.4,1.8,0.6,2.7c1.3,4.8,3.8,8.8,6.9,11.6
	c0.4,0.4,0.8,0.7,1.2,1c1.9,1.4,4.1,2.4,6.3,2.8c0.8,0.1,1.6,0.2,2.4,0.2c1.3,0,2.5-0.2,3.7-0.5c-0.1-1-0.2-2-0.3-2.8
	C197.6,132.7,196.8,130.9,196,130.4z"/>
<path class="st15" d="M247.5,136.7c-0.9,0.5-1.8,0.9-2.8,1.2c-0.1-1-0.2-1.9-0.3-2.7c-0.3-1.5-0.6-2.7-1.1-3.5
	c-0.1-0.1-0.1-0.2-0.2-0.3c-0.2-0.4-0.5-0.7-0.8-0.9c0,0,0,0,0,0c-0.2-0.2-0.4-0.2-0.6-0.2h-0.1c-0.1,0-0.2,0-0.4,0.1c0,0,0,0,0,0
	c-0.1,0-0.3-0.1-0.4-0.1c-2.2-0.6-4.1-2.1-5.6-4.3c0.4-1.1,0.8-2.2,1.2-3c0,0,0,0,0,0c0.8-1.8,1.7-3,2.6-3.8c0.6-0.6,1.3-0.8,2-0.8
	h2.1V118c0,0,0,0.1,0,0.1c0,0.1,0.1,0.2,0.1,0.4c0.5,1.3,0.9,2.7,1.3,4.3c0.1,0.2,0.1,0.5,0.2,0.7c0.4,1.5,0.8,3.2,1.2,5
	c0.1,0.3,0.1,0.6,0.2,0.9c0.2,0.8,0.3,1.6,0.5,2.4C247,133.4,247.2,135,247.5,136.7z"/>
<path class="st5" d="M243.3,149.1v542.9H241c-4.9,0-9.2,15.2-11.6,37.9c1.1-12.5,1.8-27.5,1.8-43.7V142.4c0.4-2.3,0.8-4.5,1.2-6.5
	c0.8-3.9,1.7-7.3,2.7-10c1.5,2.2,3.4,3.7,5.6,4.3c0.1,0,0.3,0.1,0.4,0.1c-1,0.4-1.8,2.4-2.3,5.2c-0.1,0.9-0.2,1.9-0.3,2.9
	c0,0.7-0.1,1.3-0.1,2c0,5.6,1.4,10.2,3.1,10.2c0.5,0,1-0.4,1.4-1.2C243.2,149.4,243.2,149.2,243.3,149.1z"/>
<path class="st15" d="M28.1,182.8c2.1-5.6,4-14.4,5.3-25.2c0,0,0,0,0,0c0.3-2.3,0.6-4.8,0.8-7.3c0,0,0,0,0-0.1
	c0.5-4,1.1-7.8,1.7-11.2v547.3c0,13.7-0.6,26.7-1.7,37.9c0,0,0,0,0,0c-0.3,2.3-0.6,4.8-0.8,7.3c-0.5,4.1-1.1,7.9-1.7,11.3
	c-1.1,5.7-2.3,10.4-3.6,13.9L28.1,182.8z"/>
<path class="st0" d="M243.3,131.6c-0.1-0.1-0.1-0.2-0.2-0.3c-0.2-0.4-0.5-0.7-0.8-0.9c-0.4,0-0.7-0.1-1-0.1c0,0,0,0,0,0
	c-0.1,0-0.3-0.1-0.4-0.1c-2.2-0.6-4.1-2.1-5.6-4.3c-0.6-0.9-1.2-1.9-1.6-3c-0.5-1.2-0.8-2.5-1.1-3.8c-0.2-1.3-0.4-2.7-0.4-4.2
	c0-0.2,0-0.5,0-0.7c0.2-6.7,3.2-12.2,7.3-14.2c0,0,0,0,0,0c0.9-0.4,1.8-0.7,2.7-0.7c0.2,0,0.3,0,0.5,0c0.1,0,0.3,0,0.4,0
	c0.1,0,0.1,0,0.2,0c0.1,0,0.1,0,0.2,0H255c-3.3-5.8-8.5-9.5-14.3-9.5s-11,3.7-14.3,9.5c-2.4,4.1-3.7,9.3-3.7,14.9
	c0,3.1,0.4,6,1.2,8.7v0c1.5,5.4,4.4,9.9,8.1,12.6c0.2,0.1,0.3,0.2,0.5,0.4c1.9,1.3,3.9,2.2,6.1,2.5c0.7,0.1,1.4,0.2,2.1,0.2
	c1.4,0,2.7-0.2,4-0.6c-0.1-1-0.2-1.9-0.3-2.7C244.1,133.7,243.7,132.5,243.3,131.6z"/>
<path class="st0" d="M257.5,122.8c-0.6,2.1-1.4,4-2.3,5.7c-1.5,2.7-3.3,4.9-5.5,6.6c-0.7,0.6-1.5,1.1-2.3,1.5
	c-0.3-1.7-0.5-3.2-0.8-4.8c-0.1-0.8-0.3-1.6-0.5-2.4c0,0,0,0,0.1,0c2.1-1.1,3.9-3.2,5.1-5.9c0.1-0.2,0.2-0.5,0.3-0.7H257.5z"/>
<path class="st15" d="M251,188.4v547.4c-0.6-3.4-1.2-7.2-1.7-11.2c0,0,0,0,0,0c-0.2-2.5-0.5-5-0.8-7.3c0,0,0,0,0,0
	c-1.4-10.7-3.2-19.4-5.3-25.1c0,0,0-0.1,0-0.1V149.5c0.1-0.1,0.1-0.2,0.2-0.3c0.9-1.8,1.5-5.1,1.5-8.8c0-0.9,0-1.7-0.1-2.5
	c1-0.3,1.9-0.7,2.8-1.2c0.3,2.1,0.6,4.3,0.9,6.5c0.2,2.5,0.5,5,0.8,7.3c0,0,0,0,0,0C250.3,161.8,251,174.7,251,188.4z"/>
<path class="st5" d="M181.8,152.5c-0.3,3.5-0.6,6.8-1,9.9C181.1,158.9,181.4,155.6,181.8,152.5z"/>
<path class="st5" d="M209.6,161.7c-0.3-2.4-0.5-4.9-0.7-7.6C209.1,156.6,209.4,159.1,209.6,161.7z"/>
<path class="st5" d="M157.2,818.3v0.2c-1.8-3.4-3.5-7.2-5-11.3c0,0,0,0,0,0c-0.1-0.4-0.2-0.7-0.3-1c0.1,0.4,0.2,0.7,0.4,1
	c0,0,0,0,0,0C153.7,811.2,155.4,814.9,157.2,818.3z"/>
<path class="st5" d="M229,160c0.1-1.3,0.2-2.6,0.4-3.8C229.3,157.4,229.2,158.7,229,160z"/>
<path class="st5" d="M150.7,802.4c0.4,1.2,0.8,2.4,1.2,3.6C151.5,804.9,151.1,803.7,150.7,802.4z"/>
<path class="st5" d="M311.7,801.9c0.5,1.3,0.9,2.5,1.3,3.8C312.6,804.5,312.1,803.2,311.7,801.9z"/>
<path class="st5" d="M475.6,800.8c0.9,2.4,1.7,5,2.5,7.6C477.2,806,476.4,803.5,475.6,800.8z"/>
<path class="st5" d="M546.5,799.7c-1,3.5-2,6.7-3.2,9.8C544.2,806.1,545.3,802.8,546.5,799.7z"/>
<path class="st5" d="M635.4,801.4c0.9,2.4,1.7,4.8,2.4,7.4C636.9,806.5,636.1,804,635.4,801.4z"/>
<path class="st5" d="M62.3,797.5c-0.8,2.5-1.7,5-2.7,7.3C60.4,802.3,61.3,799.8,62.3,797.5z"/>
<linearGradient id="SVGID_14_" gradientUnits="userSpaceOnUse" x1="557.475" y1="122.81" x2="557.475" y2="99.23">
	<stop  offset="0" style="stop-color:#AA824B"/>
	<stop  offset="6.233076e-02" style="stop-color:#AE8751"/>
	<stop  offset="0.1483" style="stop-color:#B89563"/>
	<stop  offset="0.2479" style="stop-color:#CAAB80"/>
	<stop  offset="0.357" style="stop-color:#E2CBA9"/>
	<stop  offset="0.4635" style="stop-color:#FEEFD7"/>
	<stop  offset="1" style="stop-color:#AA824B"/>
</linearGradient>
<path class="st16" d="M760.6,111c0,3.2-1.3,6.2-3.5,8.3c-2.1,2.1-5.1,3.5-8.3,3.5H363.2c-4.8,0-8.8-5.3-8.8-11.8
	c0-3.2,1-6.2,2.6-8.3c1.6-2.1,3.8-3.5,6.2-3.5h385.6C755.3,99.2,760.6,104.5,760.6,111z"/>
</svg>
