<?xml version="1.0" encoding="utf-8"?>
<!-- Generator: Adobe Illustrator 24.1.3, SVG Export Plug-In . SVG Version: 6.00 Build 0)  -->
<svg version="1.1" id="Layer_1" xmlns="http://www.w3.org/2000/svg" xmlns:xlink="http://www.w3.org/1999/xlink" x="0px" y="0px"
	 viewBox="0 0 800 800" style="enable-background:new 0 0 800 800;" xml:space="preserve">
<style type="text/css">
	.st0{fill:url(#SVGID_1_);}
	.st1{fill:url(#SVGID_2_);}
	.st2{fill:url(#SVGID_3_);}
	.st3{fill:url(#SVGID_4_);}
	.st4{fill:#F3CCC1;}
	.st5{fill:url(#SVGID_5_);}
	.st6{fill:url(#SVGID_6_);}
	.st7{fill:#7E694D;}
	.st8{fill:url(#SVGID_7_);}
	.st9{fill:url(#SVGID_8_);}
	.st10{fill:url(#SVGID_9_);}
	.st11{fill:url(#SVGID_10_);}
	.st12{fill:url(#SVGID_11_);}
	.st13{fill:url(#SVGID_12_);}
	.st14{fill:url(#SVGID_13_);}
	.st15{fill:#F3CCC0;}
</style>
<linearGradient id="SVGID_1_" gradientUnits="userSpaceOnUse" x1="395.18" y1="122.81" x2="395.18" y2="99.23">
	<stop  offset="0" style="stop-color:#AA824B"/>
	<stop  offset="6.233076e-02" style="stop-color:#AE8751"/>
	<stop  offset="0.1483" style="stop-color:#B89563"/>
	<stop  offset="0.2479" style="stop-color:#CAAB80"/>
	<stop  offset="0.357" style="stop-color:#E2CBA9"/>
	<stop  offset="0.4635" style="stop-color:#FEEFD7"/>
	<stop  offset="1" style="stop-color:#AA824B"/>
</linearGradient>
<path class="st0" d="M760.6,111c0,3.2-1.3,6.2-3.5,8.3c-2.1,2.1-5.1,3.5-8.3,3.5H41.6c-6.5,0-11.8-5.3-11.8-11.8
	c0-3.2,1.3-6.2,3.5-8.3c2.1-2.1,5.1-3.5,8.3-3.5h707.2C755.3,99.2,760.6,104.5,760.6,111z"/>
<linearGradient id="SVGID_2_" gradientUnits="userSpaceOnUse" x1="68.93" y1="127.68" x2="114.14" y2="127.68">
	<stop  offset="0" style="stop-color:#F3CCC0"/>
	<stop  offset="0.5" style="stop-color:#F5D6CD"/>
	<stop  offset="1" style="stop-color:#F3CCC0"/>
</linearGradient>
<path class="st1" d="M79.5,122.8h34.6c-4.8-3.1-9.9-4.8-15.3-4.8H84.2c-2,0-3.9,0.2-5.8,0.7c-3,0.7-5.9,1.9-8.7,3.6
	c-0.3,0.2-0.5,0.3-0.8,0.5h0.9c1.9,6.9,6.1,12.3,11.3,14.5c1.1-3.5,4-6.2,7.6-7c-0.1,0-0.1,0-0.2,0
	C84.8,130.4,81.4,127.3,79.5,122.8z"/>
<linearGradient id="SVGID_3_" gradientUnits="userSpaceOnUse" x1="48.26" y1="433.93" x2="143.19" y2="433.93">
	<stop  offset="0" style="stop-color:#F3CCC0"/>
	<stop  offset="2.202052e-02" style="stop-color:#F3CDC2"/>
	<stop  offset="0.2103" style="stop-color:#F5D4CA"/>
	<stop  offset="0.5" style="stop-color:#F5D6CD"/>
	<stop  offset="0.7774" style="stop-color:#F4D3CA"/>
	<stop  offset="1" style="stop-color:#F3CCC0"/>
</linearGradient>
<path class="st2" d="M143.2,195.5V745c-1.8-3.4-3.5-7.1-4.9-11.2c0,0,0,0,0,0c-0.1-0.3-0.2-0.7-0.4-1c0,0,0,0,0,0
	c-0.4-1.2-0.8-2.4-1.2-3.6c0,0,0-0.1,0-0.1c-0.1-0.2-0.2-0.5-0.3-0.7c0,0,0,0,0,0c-7.9-21.8-21.8-36.4-37.5-36.4H84.2
	c-14.7,0-27.9,12.8-36,32.3c3.6-11.2,5.7-24.2,5.7-37.9V139c4.3-7,9.4-12.6,15-16.2h0.9c1.9,6.9,6.1,12.3,11.3,14.5
	c-0.3,1-0.5,2-0.5,3c0,5.6,4.6,10.2,10.2,10.2c5.7,0,10.2-4.6,10.2-10.2c0-2.9-1.2-5.5-3.1-7.4c-1.8-1.8-4.3-2.9-7.1-2.9
	c-0.2,0-0.4,0-0.6,0c-0.5,0-1.1,0.1-1.6,0.2c-0.1,0-0.1,0-0.2,0c-3.8,0-7.2-3-9.1-7.6h34.6c6.3,4.1,11.9,10.6,16.5,18.8
	c0.3,0.5,0.5,1,0.8,1.5c0.2,0.4,0.5,0.9,0.7,1.3c1.6,3.1,3,6.5,4.3,10v0c0.1,0.1,0.1,0.3,0.2,0.4c0,0.1,0.1,0.3,0.1,0.4
	c0,0.1,0,0.1,0.1,0.2c0.3,1.1,0.7,2.2,1.1,3.3c0,0,0,0,0,0c0.1,0.3,0.2,0.7,0.3,1.1c0,0,0,0,0,0
	C141.4,170.7,143.2,182.8,143.2,195.5z"/>
<linearGradient id="SVGID_4_" gradientUnits="userSpaceOnUse" x1="137.88" y1="452.345" x2="214.06" y2="452.345">
	<stop  offset="0" style="stop-color:#F3CCC0"/>
	<stop  offset="0.1714" style="stop-color:#E9C3B8"/>
	<stop  offset="0.467" style="stop-color:#CDACA2"/>
	<stop  offset="0.5" style="stop-color:#C9A99F"/>
	<stop  offset="0.6425" style="stop-color:#DAB7AC"/>
	<stop  offset="0.8523" style="stop-color:#ECC6BB"/>
	<stop  offset="1" style="stop-color:#F3CCC0"/>
</linearGradient>
<path class="st3" d="M214.1,140.9v545.4c0,13.9-1.7,27-4.7,38.3c-0.6,2.2-1.2,4.3-1.9,6.3c0,0.1,0,0.1-0.1,0.2
	c-1.7,5.1-3.7,9.8-5.9,13.9c-6.3,11.7-14.4,18.7-23.3,18.7h-11.8c-8.8,0-16.9-7-23.2-18.6c0-0.1-0.1-0.1-0.1-0.2V195.5
	c0-12.8-1.8-24.9-5-35.5c0,0,0,0,0,0c-0.1-0.4-0.2-0.7-0.3-1.1c0.1,0.4,0.3,0.7,0.4,1.1c0,0,0,0,0,0c6.6,18.1,16.8,29.8,28.2,29.8
	h11.8c10.6,0,20.2-10.2,26.8-26.3c1.6-4,3.1-8.3,4.3-13c1.3-3.1,2.7-6,4.1-8.7c0,0,0,0,0-0.1C213.7,141.5,213.9,141.2,214.1,140.9z"
	/>
<path class="st4" d="M48.3,150.3c-0.8,2.5-1.7,4.9-2.7,7.3C46.4,155.1,47.3,152.6,48.3,150.3z"/>
<linearGradient id="SVGID_5_" gradientUnits="userSpaceOnUse" x1="230.17" y1="126.745" x2="275.37" y2="126.745">
	<stop  offset="0" style="stop-color:#F3CCC0"/>
	<stop  offset="2.202052e-02" style="stop-color:#F3CDC2"/>
	<stop  offset="0.2103" style="stop-color:#F5D4CA"/>
	<stop  offset="0.5" style="stop-color:#F5D6CD"/>
	<stop  offset="0.7774" style="stop-color:#F4D3CA"/>
	<stop  offset="1" style="stop-color:#F3CCC0"/>
</linearGradient>
<path class="st5" d="M243.5,122.8h31.8c-4.8-3.1-9.9-4.8-15.3-4.8h-14.7c-1,0-2.1,0.1-3.1,0.2c-3.1,0.4-6.1,1.3-8.9,2.7
	c-1.1,0.5-2.2,1.2-3.2,1.8h3.7c1.5,5.4,4.4,9.9,8.1,12.6c1.7-3.1,5-5.3,8.8-5.3C247.7,129.4,245.1,126.6,243.5,122.8z"/>
<linearGradient id="SVGID_6_" gradientUnits="userSpaceOnUse" x1="209.34" y1="433.72" x2="304.42" y2="433.72">
	<stop  offset="0" style="stop-color:#F3CCC0"/>
	<stop  offset="2.202052e-02" style="stop-color:#F3CDC2"/>
	<stop  offset="0.2103" style="stop-color:#F5D4CA"/>
	<stop  offset="0.5" style="stop-color:#F5D6CD"/>
	<stop  offset="0.7774" style="stop-color:#F4D3CA"/>
	<stop  offset="1" style="stop-color:#F3CCC0"/>
</linearGradient>
<path class="st6" d="M304.4,195.5v549.1c-2-3.6-3.8-7.7-5.4-12.1c0,0,0,0,0-0.1c-0.4-1.3-0.8-2.5-1.3-3.8
	c-7.8-22-21.8-36.7-37.6-36.7h-14.7c-14.8,0-28,12.9-36.1,32.6c3-11.3,4.7-24.4,4.7-38.3V140.9c4.5-7.9,10-14.2,16.1-18.1h3.7
	c1.5,5.4,4.4,9.9,8.1,12.6c-0.8,1.5-1.2,3.1-1.2,4.9c0,5.6,4.6,10.2,10.2,10.2c5.7,0,10.2-4.6,10.2-10.2c0-1.9-0.5-3.7-1.4-5.2
	c-1.4-2.4-3.9-4.2-6.7-4.8c-0.7-0.2-1.4-0.2-2.1-0.2h-0.2c-3.1-0.8-5.7-3.5-7.2-7.3h31.8c6.2,4,11.7,10.3,16.3,18.4
	c2.3,4,4.3,8.5,6,13.3v0c0.4,1.4,0.9,2.8,1.4,4.1C302.5,169.6,304.4,182.2,304.4,195.5z"/>
<path class="st4" d="M136.8,155.5c0.4,1.1,0.7,2.2,1.1,3.3C137.5,157.8,137.1,156.7,136.8,155.5z"/>
<path class="st7" d="M90.4,130.1c-0.5,0.1-1,0.2-1.6,0.2c-0.1,0-0.1,0-0.2,0c-3.8,0-7.2-3-9.1-7.6c-0.5-1.3-0.9-2.6-1.2-4.1
	c-0.2-1.2-0.3-2.6-0.3-3.9c0-0.2,0-0.5,0-0.7c0.2-6.7,3.2-12.2,7.3-14.2c0,0,0,0,0,0c0.9-0.4,1.8-0.7,2.7-0.7c0.2,0,0.3,0,0.5,0
	c0.1,0,0.3,0,0.4,0c0.1,0,0.1,0,0.2,0c0.1,0,0.1,0,0.2,0H101c-3.3-5.8-8.5-9.5-14.3-9.5s-11,3.7-14.3,9.5c-2.4,4.1-3.7,9.3-3.7,14.9
	c0,2.9,0.4,5.7,1,8.2c0,0.2,0.1,0.3,0.1,0.5c1.9,6.9,6.1,12.3,11.3,14.5c1.7,0.8,3.6,1.2,5.5,1.2c4.3,0,8.3-2,11.4-5.5
	c-1.8-1.8-4.3-2.9-7.1-2.9C90.8,130.1,90.6,130.1,90.4,130.1z"/>
<linearGradient id="SVGID_7_" gradientUnits="userSpaceOnUse" x1="299.05" y1="452.52" x2="378.11" y2="452.52">
	<stop  offset="0" style="stop-color:#F3CCC0"/>
	<stop  offset="0.1714" style="stop-color:#E9C3B8"/>
	<stop  offset="0.467" style="stop-color:#CDACA2"/>
	<stop  offset="0.5" style="stop-color:#C9A99F"/>
	<stop  offset="0.6425" style="stop-color:#DAB7AC"/>
	<stop  offset="0.8523" style="stop-color:#ECC6BB"/>
	<stop  offset="1" style="stop-color:#F3CCC0"/>
</linearGradient>
<path class="st8" d="M378.1,141.3v544.9c0,16.6-2.5,32-6.8,44.7c0,0,0,0.1,0,0.1c-1.7,5-3.7,9.5-5.9,13.5
	c-6.5,11.9-15.1,19.2-24.4,19.2h-12.3c-9.3,0-17.8-7.2-24.3-19.1V195.5c0-13.3-2-25.9-5.4-36.9c6.8,18.9,17.6,31.1,29.7,31.1H341
	c12.5,0,23.6-13,30.3-33C373.2,151.2,375.5,146,378.1,141.3L378.1,141.3z"/>
<linearGradient id="SVGID_8_" gradientUnits="userSpaceOnUse" x1="394.41" y1="126.745" x2="439.62" y2="126.745">
	<stop  offset="0" style="stop-color:#F3CCC0"/>
	<stop  offset="2.202052e-02" style="stop-color:#F3CDC2"/>
	<stop  offset="0.2103" style="stop-color:#F5D4CA"/>
	<stop  offset="0.5" style="stop-color:#F5D6CD"/>
	<stop  offset="0.7774" style="stop-color:#F4D3CA"/>
	<stop  offset="1" style="stop-color:#F3CCC0"/>
</linearGradient>
<path class="st9" d="M409.5,122.8h30.1c-4.8-3.1-9.9-4.8-15.3-4.8h-14.7c-0.5,0-0.9,0-1.4,0c-3.1,0.2-6.1,0.9-9.1,2.2
	c-1.6,0.7-3.2,1.6-4.8,2.6h5.4c1.5,5.4,4.4,9.9,8.1,12.6c1.7-3.1,5-5.3,8.8-5.3C413.7,129.4,411.1,126.6,409.5,122.8z"/>
<linearGradient id="SVGID_9_" gradientUnits="userSpaceOnUse" x1="371.29" y1="434.17" x2="468.69" y2="434.17">
	<stop  offset="0" style="stop-color:#F3CCC0"/>
	<stop  offset="2.202052e-02" style="stop-color:#F3CDC2"/>
	<stop  offset="0.2103" style="stop-color:#F5D4CA"/>
	<stop  offset="0.5" style="stop-color:#F5D6CD"/>
	<stop  offset="0.7774" style="stop-color:#F4D3CA"/>
	<stop  offset="1" style="stop-color:#F3CCC0"/>
</linearGradient>
<path class="st10" d="M468.7,195.5v550c-1.7-3.1-3.2-6.5-4.6-10.3c0,0,0,0,0,0c-0.7-2.6-1.6-5.2-2.5-7.6v0
	c-7.9-21.4-21.7-35.6-37.3-35.6h-14.7c-16.4,0-30.7,15.7-38.4,38.9c4.3-12.6,6.8-28.1,6.8-44.7v-545c4.5-8.1,10.1-14.5,16.3-18.5
	h5.4c1.5,5.4,4.4,9.9,8.1,12.6c-0.8,1.5-1.2,3.1-1.2,4.9c0,5.6,4.6,10.2,10.2,10.2c5.7,0,10.2-4.6,10.2-10.2c0-1.9-0.5-3.7-1.4-5.2
	c-1.4-2.4-3.9-4.2-6.7-4.8c-0.7-0.2-1.4-0.2-2.1-0.2h-0.2c-3.1-0.8-5.7-3.5-7.2-7.3h30.1c6.3,4.1,12,10.6,16.6,18.9
	c2,3.6,3.8,7.6,5.4,11.9c0.8,2.6,1.6,5.2,2.5,7.6C467,171.6,468.7,183.2,468.7,195.5z"/>
<path class="st4" d="M136.4,154.5L136.4,154.5c-1.5-4.1-3.1-7.9-5-11.4C133.3,146.6,135,150.4,136.4,154.5L136.4,154.5
	c0.1,0.3,0.2,0.6,0.3,0.9C136.6,155.1,136.5,154.8,136.4,154.5z"/>
<path class="st7" d="M253,130.4c-0.1,0-0.3,0-0.4,0c-0.6,0-1.2-0.1-1.8-0.2c-3.1-0.8-5.7-3.5-7.2-7.3c-0.6-1.4-1-2.9-1.2-4.6
	c-0.2-1.1-0.3-2.2-0.3-3.4c0-0.2,0-0.5,0-0.7c0.2-6.7,3.2-12.2,7.3-14.2c0,0,0,0,0,0c0.9-0.4,1.8-0.7,2.7-0.7c0.2,0,0.3,0,0.5,0
	c0.1,0,0.3,0,0.4,0c0.1,0,0.1,0,0.2,0c0.1,0,0.1,0,0.2,0H265c-3.3-5.8-8.5-9.5-14.3-9.5s-11,3.7-14.3,9.5c-2.4,4.1-3.7,9.3-3.7,14.9
	c0,2.4,0.2,4.7,0.7,6.9c0.1,0.6,0.3,1.2,0.5,1.8c1.5,5.4,4.4,9.9,8.1,12.6c2.6,1.9,5.6,3,8.7,3c3.3,0,6.4-1.2,9.1-3.3
	C258.3,132.7,255.9,130.9,253,130.4z"/>
<linearGradient id="SVGID_10_" gradientUnits="userSpaceOnUse" x1="464.0701" y1="452.6325" x2="537.5601" y2="452.6325">
	<stop  offset="0" style="stop-color:#F3CCC0"/>
	<stop  offset="0.1714" style="stop-color:#E9C3B8"/>
	<stop  offset="0.467" style="stop-color:#CDACA2"/>
	<stop  offset="0.5" style="stop-color:#C9A99F"/>
	<stop  offset="0.6425" style="stop-color:#DAB7AC"/>
	<stop  offset="0.8523" style="stop-color:#ECC6BB"/>
	<stop  offset="1" style="stop-color:#F3CCC0"/>
</linearGradient>
<path class="st11" d="M537.6,141.5v544.7c0,14.7-1.9,28.5-5.1,40.2c-1.2,3.1-2.3,6.4-3.2,9.8l0,0c-1.3,3.4-2.7,6.6-4.3,9.5
	c-6.1,11.2-13.8,18-22.3,18h-11.5c-8.5,0-16.3-6.9-22.4-18.2v-550c0-12.3-1.7-24-4.6-34.3c6.4,17.4,16.2,28.6,27,28.6h11.5
	c10.6,0,20.2-10.7,26.6-27.4c1.2-3.1,2.3-6.4,3.2-9.9C534,148.6,535.7,144.9,537.6,141.5z"/>
<path class="st4" d="M209.4,150.6c-1.2,4.6-2.7,9-4.3,12.9C206.3,159,207.7,154.6,209.4,150.6z"/>
<path class="st4" d="M299,158.7c-0.5-1.3-1-2.7-1.4-4.1C298.2,155.9,298.6,157.3,299,158.7z"/>
<linearGradient id="SVGID_11_" gradientUnits="userSpaceOnUse" x1="554" y1="126.745" x2="599.24" y2="126.745">
	<stop  offset="0" style="stop-color:#F3CCC0"/>
	<stop  offset="2.202052e-02" style="stop-color:#F3CDC2"/>
	<stop  offset="0.2103" style="stop-color:#F5D4CA"/>
	<stop  offset="0.5" style="stop-color:#F5D6CD"/>
	<stop  offset="0.7774" style="stop-color:#F4D3CA"/>
	<stop  offset="1" style="stop-color:#F3CCC0"/>
</linearGradient>
<path class="st12" d="M569.5,122.8h29.7c-4.8-3.1-9.9-4.8-15.3-4.8h-14.7c-0.3,0-0.7,0-1,0c-3.1,0.1-6.2,0.8-9.1,2
	c-1.8,0.7-3.5,1.6-5.2,2.7h5.8c1.5,5.4,4.4,9.9,8.1,12.6c1.7-3.1,5-5.3,8.8-5.3C573.7,129.4,571.1,126.6,569.5,122.8z"/>
<linearGradient id="SVGID_12_" gradientUnits="userSpaceOnUse" x1="532.46" y1="434.34" x2="628.27" y2="434.34">
	<stop  offset="0" style="stop-color:#F3CCC0"/>
	<stop  offset="2.202052e-02" style="stop-color:#F3CDC2"/>
	<stop  offset="0.2103" style="stop-color:#F5D4CA"/>
	<stop  offset="0.5" style="stop-color:#F5D6CD"/>
	<stop  offset="0.7774" style="stop-color:#F4D3CA"/>
	<stop  offset="1" style="stop-color:#F3CCC0"/>
</linearGradient>
<path class="st13" d="M628.3,195.5v550.3c-1.6-3.1-3.1-6.5-4.5-10.2c0,0,0,0,0,0c0,0,0,0,0-0.1c-0.7-2.5-1.5-5-2.4-7.4c0,0,0,0,0,0
	c-7.9-21.7-21.7-36.2-37.5-36.2h-14.7c-15.3,0-28.9,13.7-36.8,34.5c3.2-11.7,5.1-25.5,5.1-40.2V141.5c4.6-8.2,10.2-14.7,16.4-18.7
	h5.8c1.5,5.4,4.4,9.9,8.1,12.6c-0.8,1.5-1.2,3.1-1.2,4.9c0,5.6,4.6,10.2,10.2,10.2c5.7,0,10.2-4.6,10.2-10.2c0-1.9-0.5-3.7-1.4-5.2
	c-1.4-2.4-3.9-4.2-6.7-4.8c-0.7-0.2-1.4-0.2-2.1-0.2h-0.2c-3.1-0.8-5.7-3.5-7.2-7.3h29.7c6.4,4.1,12.1,10.8,16.8,19.3
	c2,3.7,3.8,7.7,5.4,12v0c0.8,2.7,1.6,5.2,2.4,7.6C626.7,172,628.3,183.4,628.3,195.5z"/>
<path class="st7" d="M419,130.4c-0.1,0-0.3,0-0.4,0c-0.6,0-1.2-0.1-1.8-0.2c-3.1-0.8-5.7-3.5-7.2-7.3c-0.6-1.4-1-3-1.3-4.7
	c-0.2-1.1-0.2-2.1-0.2-3.3c0-0.2,0-0.5,0-0.7c0.2-6.7,3.2-12.2,7.3-14.2c0,0,0,0,0,0c0.9-0.4,1.8-0.7,2.7-0.7c0.2,0,0.3,0,0.5,0
	c0.1,0,0.3,0,0.4,0c0.1,0,0.1,0,0.2,0c0.1,0,0.1,0,0.2,0H431c-3.3-5.8-8.5-9.5-14.3-9.5s-11,3.7-14.3,9.5c-2.4,4.1-3.7,9.3-3.7,14.9
	c0,2.1,0.2,4.2,0.6,6.1c0.2,0.9,0.4,1.7,0.6,2.6c1.5,5.4,4.4,9.9,8.1,12.6c2.6,1.9,5.6,3,8.7,3c3.3,0,6.4-1.2,9.1-3.3
	C424.3,132.7,421.9,130.9,419,130.4z"/>
<path class="st4" d="M464.1,161.2c-0.9-2.4-1.7-4.9-2.5-7.6C462.5,156.1,463.3,158.6,464.1,161.2z"/>
<linearGradient id="SVGID_13_" gradientUnits="userSpaceOnUse" x1="623.8105" y1="453.0516" x2="694.7891" y2="453.0516">
	<stop  offset="0" style="stop-color:#F3CCC0"/>
	<stop  offset="0.1714" style="stop-color:#E9C3B8"/>
	<stop  offset="0.467" style="stop-color:#CDACA2"/>
	<stop  offset="0.5" style="stop-color:#C9A99F"/>
	<stop  offset="0.6425" style="stop-color:#DAB7AC"/>
	<stop  offset="0.8523" style="stop-color:#ECC6BB"/>
	<stop  offset="1" style="stop-color:#F3CCC0"/>
</linearGradient>
<path class="st14" d="M694.8,142.4v543.9c0,16.2-2.2,31.3-5.9,43.7c-0.4,1.3-0.9,2.6-1.3,4c0,0,0,0,0,0.1c-1.5,4.3-3.1,8.2-5,11.7
	c-5.9,11.2-13.4,18-21.6,18h-11.2c-8.2,0-15.7-6.7-21.5-17.9V195.5c0-12.1-1.6-23.6-4.5-33.8c6.2,17.1,15.6,28.1,26,28.1H661
	c10.8,0,20.4-11.7,26.6-29.8c0.4-1.3,0.8-2.5,1.2-3.8C690.5,151.2,692.5,146.5,694.8,142.4z"/>
<path class="st7" d="M579,130.4c-0.1,0-0.3,0-0.4,0c-0.6,0-1.2-0.1-1.8-0.2c-3.1-0.8-5.7-3.5-7.2-7.3c-0.6-1.5-1-3-1.3-4.8
	c-0.2-1-0.2-2.1-0.2-3.3c0-0.2,0-0.5,0-0.7c0.2-6.7,3.2-12.2,7.3-14.2c0,0,0,0,0,0c0.9-0.4,1.8-0.7,2.7-0.7c0.2,0,0.3,0,0.5,0
	c0.1,0,0.3,0,0.4,0c0.1,0,0.1,0,0.2,0c0.1,0,0.1,0,0.2,0H591c-3.3-5.8-8.5-9.5-14.3-9.5s-11,3.7-14.3,9.5c-2.4,4.1-3.7,9.3-3.7,14.9
	c0,2.1,0.2,4.1,0.5,6c0.2,0.9,0.4,1.8,0.6,2.7c1.5,5.4,4.4,9.9,8.1,12.6c2.6,1.9,5.6,3,8.7,3c3.3,0,6.4-1.2,9.1-3.3
	C584.3,132.7,581.9,130.9,579,130.4z"/>
<path class="st4" d="M733.7,122.8v8.5c-0.8-0.4-1.7-0.7-2.6-0.9c-0.7-0.2-1.4-0.2-2.1-0.2h-0.2c-3.1-0.8-5.7-3.5-7.2-7.3H733.7z"/>
<path class="st4" d="M734.2,118.1v13.5c-0.2-0.1-0.4-0.2-0.6-0.3v-8.5h-12.1c1.5,3.8,4.2,6.5,7.2,7.3c-3.8,0.1-7.1,2.2-8.8,5.3
	c-0.8,1.5-1.2,3.1-1.2,4.9c0,5.6,4.6,10.2,10.2,10.2c1.7,0,3.3-0.4,4.7-1.2c0.2-0.1,0.4-0.2,0.6-0.3v542.9h-7.3
	c-16.1,0-30.3,15.2-38.1,37.9c3.7-12.5,5.9-27.5,5.9-43.7V142.4c4.7-8.6,10.5-15.4,17-19.6c0,0,0,0,0,0c2.8-1.8,5.6-3,8.6-3.8
	c2.1-0.6,4.3-0.8,6.5-0.8H734.2z"/>
<path class="st15" d="M28.1,182.8c7-5.6,13-14.4,17.4-25.2c0,0,0,0,0,0c1-2.3,1.9-4.8,2.7-7.3c0,0,0,0,0-0.1c1.7-4,3.6-7.8,5.7-11.2
	v547.3c0,13.7-2.1,26.7-5.7,37.9c0,0,0,0,0,0c-1,2.3-1.9,4.8-2.7,7.3c-1.7,4.1-3.6,7.9-5.7,11.3c-3.4,5.7-7.4,10.4-11.7,13.9
	L28.1,182.8z"/>
<path class="st7" d="M739.7,122.8c-0.1,0.2-0.2,0.5-0.3,0.7c-1.2,2.7-3,4.8-5.1,5.9c-0.2,0.1-0.4,0.2-0.6,0.3v1.6
	c-0.8-0.4-1.7-0.7-2.6-0.9c-0.1,0-0.3,0-0.4,0c-0.6,0-1.2-0.1-1.8-0.2c-3.1-0.8-5.7-3.5-7.2-7.3c-0.5-1.2-0.8-2.5-1.1-3.8
	c-0.2-1.3-0.4-2.7-0.4-4.2c0-0.2,0-0.5,0-0.7c0.2-6.7,3.2-12.2,7.3-14.2c0,0,0,0,0,0c0.9-0.4,1.8-0.7,2.7-0.7c0.2,0,0.3,0,0.5,0
	c0.1,0,0.3,0,0.4,0c0.1,0,0.1,0,0.2,0c0.1,0,0.1,0,0.2,0H743c-3.3-5.8-8.5-9.5-14.3-9.5s-11,3.7-14.3,9.5c-2.4,4.1-3.7,9.3-3.7,14.9
	c0,3.1,0.4,6,1.2,8.7v0c1.5,5.4,4.4,9.9,8.1,12.6c2.6,1.9,5.6,3,8.7,3c3.3,0,6.4-1.2,9.1-3.3c2.1-1.7,4-3.9,5.5-6.6
	c0.9-1.7,1.7-3.7,2.3-5.7H739.7z"/>
<path class="st15" d="M759.5,188.4v547.4c-2.1-3.4-4-7.2-5.7-11.2c0,0,0,0,0,0c-0.8-2.5-1.7-5-2.7-7.3c0,0,0,0,0,0
	c-4.4-10.7-10.4-19.4-17.3-25.1c0,0-0.1-0.1-0.1-0.1V149.5c0.2-0.1,0.4-0.2,0.6-0.3c3-1.8,5-5.1,5-8.8c0-1.9-0.5-3.7-1.4-5.2
	c-0.9-1.5-2.1-2.7-3.5-3.5c-0.2-0.1-0.4-0.2-0.6-0.3V118c0.1,0,0.1,0.1,0.2,0.1c0.1,0.1,0.3,0.2,0.4,0.4c1.5,1.3,3,2.7,4.4,4.3
	c0.2,0.2,0.5,0.5,0.7,0.7c1.3,1.5,2.6,3.2,3.9,5c0.8,1.1,1.5,2.2,2.2,3.4c2.1,3.4,4,7.2,5.7,11.3c0.8,2.5,1.7,5,2.7,7.3c0,0,0,0,0,0
	C757.4,161.8,759.5,174.7,759.5,188.4z"/>
<path class="st4" d="M532.5,152.5c-1,3.5-2,6.8-3.2,9.9C530.2,158.9,531.3,155.6,532.5,152.5z"/>
<path class="st4" d="M623.8,161.7c-0.9-2.4-1.7-4.9-2.4-7.6C622.3,156.6,623.1,159.1,623.8,161.7z"/>
<path class="st4" d="M157.2,818.3v0.2c-1.8-3.4-3.5-7.2-5-11.3c0,0,0,0,0,0c-0.1-0.4-0.2-0.7-0.3-1c0.1,0.4,0.2,0.7,0.4,1
	c0,0,0,0,0,0C153.7,811.2,155.4,814.9,157.2,818.3z"/>
<path class="st4" d="M687.6,160c0.4-1.3,0.8-2.6,1.2-3.8C688.4,157.4,688,158.7,687.6,160z"/>
<path class="st4" d="M150.7,802.4c0.4,1.2,0.8,2.4,1.2,3.6C151.5,804.9,151.1,803.7,150.7,802.4z"/>
<path class="st4" d="M311.7,801.9c0.5,1.3,0.9,2.5,1.3,3.8C312.6,804.5,312.1,803.2,311.7,801.9z"/>
<path class="st4" d="M475.6,800.8c0.9,2.4,1.7,5,2.5,7.6C477.2,806,476.4,803.5,475.6,800.8z"/>
<path class="st4" d="M546.5,799.7c-1,3.5-2,6.7-3.2,9.8C544.2,806.1,545.3,802.8,546.5,799.7z"/>
<path class="st4" d="M635.4,801.4c0.9,2.4,1.7,4.8,2.4,7.4C636.9,806.5,636.1,804,635.4,801.4z"/>
<path class="st4" d="M62.3,797.5c-0.8,2.5-1.7,5-2.7,7.3C60.4,802.3,61.3,799.8,62.3,797.5z"/>
</svg>
