<?xml version="1.0" encoding="utf-8"?>
<!-- Generator: Adobe Illustrator 24.1.3, SVG Export Plug-In . SVG Version: 6.00 Build 0)  -->
<svg version="1.1" id="Layer_1" xmlns="http://www.w3.org/2000/svg" xmlns:xlink="http://www.w3.org/1999/xlink" x="0px" y="0px"
	 viewBox="0 0 800 800" style="enable-background:new 0 0 800 800;" xml:space="preserve">
<style type="text/css">
	.st0{fill:#F1F8F6;}
	.st1{fill:#75BDA7;}
	.st2{fill:#BADED3;}
	.st3{fill:#D5E2DE;}
	.st4{fill:none;stroke:#ACC1BA;stroke-miterlimit:10;}
	.st5{fill:#808080;}
	.st6{font-family:'SavoyeLetPlain';}
	.st7{font-size:127.2543px;}
</style>
<path class="st0" d="M594.7,591.8v76.5c0,11.2-9.2,20.4-20.4,20.4H345.7c-11.2,0-20.4-9.2-20.4-20.4v-76.5c0-0.8,0-1.6,0.2-2.4
	h269.1C594.7,590.2,594.7,591,594.7,591.8z"/>
<path class="st1" d="M622.2,142.8L595,552.2H325l-27.2-409.4c-1.5-22.4-1.3-45.5,0-65.4c2.1-31,7.1-54.1,13.2-54.1h297.9
	c6.2,0,11.1,23.1,13.2,54.1C623.5,97.3,623.7,120.5,622.2,142.8z"/>
<path class="st2" d="M622.2,142.8L595,552.2H325l-27.2-409.4c-1.5-22.4-1.3-45.5,0-65.4h324.4C623.5,97.3,623.7,120.5,622.2,142.8z"
	/>
<polygon class="st1" points="595,552.2 593.4,575.2 592.9,583.3 592.5,589.4 327.5,589.4 327.1,583.5 326.6,575.2 325,552.2 "/>
<path class="st3" d="M492.2,655.3h-64.4c-10.2,0-18.5-8.3-18.5-18.5l0,0c0-10.2,8.3-18.5,18.5-18.5h64.4c10.2,0,18.5,8.3,18.5,18.5
	l0,0C510.7,647,502.4,655.3,492.2,655.3z"/>
<line class="st4" x1="325.2" y1="636.5" x2="594.8" y2="636.5"/>
<text transform="matrix(1.0234 -0.4227 0.3817 0.9243 351.1167 379.1944)" class="st5 st6 st7">Lotion</text>
</svg>
