<?xml version="1.0" encoding="utf-8"?>
<!-- Generator: Adobe Illustrator 24.1.3, SVG Export Plug-In . SVG Version: 6.00 Build 0)  -->
<svg version="1.1" id="Layer_1" xmlns="http://www.w3.org/2000/svg" xmlns:xlink="http://www.w3.org/1999/xlink" x="0px" y="0px"
	 viewBox="0 0 800 800" style="enable-background:new 0 0 800 800;" xml:space="preserve">
<style type="text/css">
	.st0{fill:#F1F8F6;}
	.st1{fill:url(#SVGID_1_);}
	.st2{fill:#75BDA7;}
	.st3{fill:#BADED3;}
	.st4{fill:#D5E2DE;}
	.st5{fill:none;stroke:#ACC1BA;stroke-miterlimit:10;}
	.st6{fill:#808080;}
	.st7{font-family:'SavoyeLetPlain';}
	.st8{font-size:127.2543px;}
	.st9{fill:url(#SVGID_2_);}
	.st10{fill:url(#SVGID_3_);}
	.st11{fill:url(#SVGID_4_);}
</style>
<path class="st0" d="M712.8,619.4c0.4,36.5-20.8,79.4-59.1,112.2c-38.3,32.7-84,47-120,40.9c-17.6-3-33-10.8-44-23.7l-18.8-22l1.1-1
	c2.4,2.8,5,5.3,7.9,7.5c22.5,17.7,58.5,18.3,95.3,3.6c17.5-7,35.2-17.4,51.8-31.1c0.9-0.8,1.9-1.5,2.8-2.3c1.6-1.4,3.2-2.8,4.7-4.1
	c15.2-13.8,27.6-29,36.8-44.6c20.3-34.2,25.2-69.8,11.2-94.7c-1.8-3.2-3.8-6.1-6.2-8.9l1.1-1l18.8,22l0.1,0.1
	C707.3,585.2,712.7,601.6,712.8,619.4z"/>
<radialGradient id="SVGID_1_" cx="581.8845" cy="647.3934" r="125.0558" gradientTransform="matrix(0.7411 -0.6713 0.4288 0.4734 -126.9744 731.5743)" gradientUnits="userSpaceOnUse">
	<stop  offset="0" style="stop-color:#F1F8F6"/>
	<stop  offset="0.5808" style="stop-color:#EFF7F4"/>
	<stop  offset="0.79" style="stop-color:#E8F1EF"/>
	<stop  offset="0.9386" style="stop-color:#DDE8E4"/>
	<stop  offset="1" style="stop-color:#D5E2DE"/>
</radialGradient>
<path class="st1" d="M671.3,654.9c-9.2,15.5-21.6,30.8-36.8,44.6c-1.5,1.4-3.1,2.8-4.7,4.1c-0.9,0.8-1.9,1.6-2.8,2.3
	c-16.6,13.7-34.3,24.1-51.8,31.1c-36.9,14.7-72.9,14.1-95.3-3.6c-1.6-3.5-2.9-7.1-3.9-10.9c-10.8-40,10.4-93.7,56.3-132.9
	c45.8-39.2,102.3-51.9,140.1-35c3.6,1.6,7,3.4,10.2,5.6C696.6,585.1,691.6,620.8,671.3,654.9z"/>
<path class="st0" d="M621.9,481.8l-63.8,54.6l-77.1,66L417.1,657l-0.2-0.2l-29-34c-0.5-0.6-1-1.3-1.5-2L591,445.9
	c0.6,0.5,1.2,1.1,1.7,1.8l29.1,34L621.9,481.8z"/>
<path class="st2" d="M321.7,88.6l245.4,328.9L362,592.9L75.2,299.4c-15.7-16-30.6-33.7-42.5-49.7c-18.6-24.9-29.8-45.7-25.1-49.7
	L234,6.3c4.7-4,23.5,10.3,45.2,32.5C293.1,53.1,308.3,70.6,321.7,88.6z"/>
<path class="st3" d="M321.7,88.6l245.4,328.9L362,592.9L75.2,299.4c-15.7-16-30.6-33.7-42.5-49.7L279.2,38.9
	C293.1,53.1,308.3,70.6,321.7,88.6z"/>
<polygon class="st2" points="567.1,417.4 580.9,435.9 585.7,442.4 589.4,447.3 388,619.5 383.9,615.2 378.1,609.3 362,592.9 "/>
<path class="st4" d="M558.1,536.4l-32.6,27.9l-18.1,15.5l-26.5,22.6c-0.1-0.1-0.1-0.1-0.2-0.2l26.4-22.6l18.1-15.5l32.6-27.9
	C558,536.3,558,536.3,558.1,536.4z"/>
<path class="st4" d="M557.9,536.2l-32.6,27.9l-18.1,15.5l-26.4,22.6c-2.8-3.4-4.3-7.6-4.3-11.8c0-5.2,2.2-10.5,6.5-14.1l49-41.9
	C539.6,527.8,551.2,528.7,557.9,536.2z"/>
<line class="st5" x1="621.8" y1="481.6" x2="557.9" y2="536.2"/>
<line class="st5" x1="480.8" y1="602.2" x2="416.9" y2="656.8"/>
<text transform="matrix(0.5031 -0.9864 0.8908 0.4544 269.3671 444.3934)" class="st6 st7 st8">Lotion</text>
<rect x="481.5" y="568.6" transform="matrix(0.76 -0.6499 0.6499 0.76 -246.7814 476.7614)" class="st4" width="81.3" height="7.9"/>
<g>
	
		<radialGradient id="SVGID_2_" cx="574.2182" cy="638.5918" r="134.8825" gradientTransform="matrix(0.7411 -0.6713 0.4288 0.4734 -125.1848 721.7924)" gradientUnits="userSpaceOnUse">
		<stop  offset="0" style="stop-color:#D5E2DE"/>
		<stop  offset="0.5808" style="stop-color:#D7E3E0"/>
		<stop  offset="0.79" style="stop-color:#DEE9E5"/>
		<stop  offset="0.9386" style="stop-color:#E9F2F0"/>
		<stop  offset="1" style="stop-color:#F1F8F6"/>
	</radialGradient>
	<path class="st9" d="M671.3,654.9c-9.2,15.5-21.6,30.8-36.8,44.6c-1.5,1.4-3.1,2.8-4.7,4.1c-0.9,0.8-1.9,1.6-2.8,2.3
		c-16.6,13.7-34.3,24.1-51.8,31.1c-36.9,14.7-72.9,14.1-95.3-3.6c-2.8-2.2-5.5-4.8-7.9-7.5c-30.7-35.9-9.9-104.1,46.5-152.4
		c56.4-48.2,127-58.2,157.7-22.3c2.4,2.8,4.5,5.8,6.2,8.9C696.6,585.1,691.6,620.8,671.3,654.9z"/>
	<g>
		
			<image style="overflow:visible;" width="235.6" height="220.8" xlink:href="4E85E49D097613F0.png"  transform="matrix(1 0 0 1 456.417 528.2019)"/>
	</g>
</g>
<path class="st4" d="M668.2,657.7c-8.2,14.6-19.5,28.9-33.6,41.8c-1.5,1.4-3.1,2.8-4.7,4.1c-0.9,0.8-1.9,1.6-2.8,2.3
	c-15.5,12.8-32.2,22.3-48.6,28.4c-35.2,13.1-69,10.1-87-11c-2.3-2.7-4.3-5.7-6-8.8c-17.5-32.9,1.7-86.2,46.9-124.8
	c45.2-38.7,100.8-49.4,130.6-27c2.8,2.1,5.4,4.6,7.8,7.3C688.8,591.1,686.5,624.9,668.2,657.7z"/>
<path class="st5" d="M590.8,647.9c-0.9,1.6-2.2,3.2-3.8,4.7c-0.2,0.2-0.3,0.3-0.5,0.5c-0.1,0.1-0.2,0.2-0.3,0.3
	c-1.7,1.4-3.6,2.5-5.4,3.2c-3.9,1.5-7.7,1.1-9.7-1.2c-0.3-0.3-0.5-0.6-0.7-1c-2-3.7,0.2-9.6,5.2-13.9c5-4.3,11.2-5.5,14.6-3
	c0.3,0.2,0.6,0.5,0.9,0.8C593.1,640.5,592.8,644.2,590.8,647.9z"/>
<linearGradient id="SVGID_3_" gradientUnits="userSpaceOnUse" x1="433.7824" y1="746.1758" x2="588.3469" y2="656.9379">
	<stop  offset="0" style="stop-color:#FFFFFF"/>
	<stop  offset="0.5942" style="stop-color:#FDFDFD"/>
	<stop  offset="0.808" style="stop-color:#F6F6F6"/>
	<stop  offset="0.9601" style="stop-color:#EBEBEB"/>
	<stop  offset="1" style="stop-color:#E6E6E6"/>
</linearGradient>
<path class="st10" d="M634,742.8c0,18-19.1,32.6-42.7,32.6c-3.8,0-7.5-0.4-11.1-1.1c-2.6-0.5-5.3,1-6,3.6
	c-2.5,8.1-11.9,12.8-23.4,12.8c-4.4,0-9-0.7-13.7-2.1c-11.2-3.5-19.8-10.4-23.4-18c-0.9-2-3.1-3.1-5.2-2.8
	c-36.8,5.1-65.5,0.8-68.3-11.6c-3.5-15,32.5-36.1,80.3-47.3c5.1-1.2,10.1-2.2,15-3.1c2.8-0.5,4.6-3.1,4-5.9l-10-52.5L517,581.9
	l-0.5-2.5c-0.6-2.9-0.7-5.4-0.5-7.4l6.4-5.5c1.6,0.7,3.3,2.2,5.1,4.5c0.8,1,1.5,2.2,2.3,3.5l34.7,60.2l41.4,71.8
	c0.4,0.7,0.8,1.4,1.1,2.1c0.5,0.9,0.9,1.9,1.4,2.8c0.5,1.2,1.5,2.1,2.7,2.6c0.6,0.2,1.2,0.5,1.9,0.8
	C625.5,720.4,634,730.9,634,742.8z"/>
<linearGradient id="SVGID_4_" gradientUnits="userSpaceOnUse" x1="507.19" y1="573.7293" x2="527.8593" y2="573.7293">
	<stop  offset="0" style="stop-color:#D5E2DE"/>
	<stop  offset="7.279712e-02" style="stop-color:#CFDDD9"/>
	<stop  offset="0.3765" style="stop-color:#BCCEC8"/>
	<stop  offset="0.6843" style="stop-color:#B0C4BD"/>
	<stop  offset="1" style="stop-color:#ACC1BA"/>
</linearGradient>
<path class="st11" d="M527.5,571c-0.3,0.8-0.7,1.4-1.3,2l-9.1,8.7c0,0-0.1,0.1-0.1,0.1c-2.2,2-5.7,1.9-7.8-0.2l-1.8-1.9l-0.2-0.2
	l8.8-7.6l6.4-5.5l2.9-2.5l0.2,0.2l0.8,0.9C527.8,566.8,528.2,569.1,527.5,571z"/>
</svg>
