<?xml version="1.0" encoding="utf-8"?>
<!-- Generator: Adobe Illustrator 24.1.3, SVG Export Plug-In . SVG Version: 6.00 Build 0)  -->
<svg version="1.1" id="Layer_1" xmlns="http://www.w3.org/2000/svg" xmlns:xlink="http://www.w3.org/1999/xlink" x="0px" y="0px"
	 viewBox="0 0 1500 1500" style="enable-background:new 0 0 1500 1500;" xml:space="preserve">
<style type="text/css">
	.st0{fill:#F4E1E3;}
	.st1{fill:#769299;}
	.st2{fill:url(#SVGID_1_);}
	.st3{fill:url(#SVGID_2_);}
	.st4{fill:url(#SVGID_3_);}
	.st5{fill:#D8979D;}
	.st6{fill:#808080;}
	.st7{font-family:'SnellRoundhand-Black';}
	.st8{font-size:79px;}
</style>
<path class="st0" d="M1318,870.5c0,173.9-176.7,314.8-394.7,314.8s-394.7-140.9-394.7-314.8c0-47.8,13.4-93.1,37.3-133.7h714.8
	C1304.6,777.4,1318,822.7,1318,870.5z"/>
<rect x="918.5" y="537.9" class="st1" width="9.7" height="532.2"/>
<radialGradient id="SVGID_1_" cx="923.3" cy="-520.8163" r="379.8218" gradientTransform="matrix(1 0 0 0.849 0 1306.473)" gradientUnits="userSpaceOnUse">
	<stop  offset="0" style="stop-color:#FFFFFF;stop-opacity:0.5"/>
	<stop  offset="0.4977" style="stop-color:#FDFDFD;stop-opacity:0.6493"/>
	<stop  offset="0.7689" style="stop-color:#F5F5F5;stop-opacity:0.7307"/>
	<stop  offset="0.9853" style="stop-color:#E7E7E7;stop-opacity:0.7956"/>
	<stop  offset="1" style="stop-color:#E6E6E6;stop-opacity:0.8"/>
</radialGradient>
<ellipse class="st2" cx="923.3" cy="864.3" rx="419.9" ry="334.9"/>
<linearGradient id="SVGID_2_" gradientUnits="userSpaceOnUse" x1="835.8" y1="-713.8" x2="1010.8" y2="-713.8" gradientTransform="matrix(1 0 0 1 0 1176)">
	<stop  offset="0" style="stop-color:#FFFFFF"/>
	<stop  offset="9.300000e-03" style="stop-color:#FEFCFA"/>
	<stop  offset="0.1028" style="stop-color:#F0E5CB"/>
	<stop  offset="0.202" style="stop-color:#E4D1A1"/>
	<stop  offset="0.3053" style="stop-color:#DAC07E"/>
	<stop  offset="0.4138" style="stop-color:#D1B261"/>
	<stop  offset="0.5293" style="stop-color:#CBA74B"/>
	<stop  offset="0.655" style="stop-color:#C69F3B"/>
	<stop  offset="0.7987" style="stop-color:#C49A32"/>
	<stop  offset="1" style="stop-color:#C3992F"/>
</linearGradient>
<path class="st3" d="M987.3,554h-128c-12.9,0-23.5-10.6-23.5-23.5V393.9c0-12.9,10.6-23.5,23.5-23.5h128c12.9,0,23.5,10.6,23.5,23.5
	v136.6C1010.8,543.4,1000.2,554,987.3,554z"/>
<linearGradient id="SVGID_3_" gradientUnits="userSpaceOnUse" x1="1018.4396" y1="-702.4855" x2="1032.5818" y2="-726.9547" gradientTransform="matrix(1 0 0 1 0 1176)">
	<stop  offset="0" style="stop-color:#C3992F"/>
	<stop  offset="0.2013" style="stop-color:#C49A32"/>
	<stop  offset="0.345" style="stop-color:#C69F3B"/>
	<stop  offset="0.4707" style="stop-color:#CBA74B"/>
	<stop  offset="0.5862" style="stop-color:#D1B261"/>
	<stop  offset="0.6947" style="stop-color:#DAC07E"/>
	<stop  offset="0.798" style="stop-color:#E4D1A1"/>
	<stop  offset="0.8972" style="stop-color:#F0E5CB"/>
	<stop  offset="0.9907" style="stop-color:#FEFCFA"/>
	<stop  offset="1" style="stop-color:#FFFFFF"/>
</linearGradient>
<rect x="1010.8" y="448.1" class="st4" width="28.3" height="28.3"/>
<ellipse class="st5" cx="1262.1" cy="456.6" rx="227.8" ry="137.9"/>
<circle class="st1" cx="869.5" cy="435.7" r="12.4"/>
<path class="st5" d="M1121,973.3H725.2c-20.9,0-38-17.1-38-38V798.9c0-20.9,17.1-38,38-38H1121c20.9,0,38,17.1,38,38v136.5
	C1159,956.2,1141.9,973.3,1121,973.3z"/>
<text transform="matrix(1 0 0 1 767.9096 886.1723)" class="st6 st7 st8">Perfume</text>
</svg>
