<?xml version="1.0" encoding="utf-8"?>
<!-- Generator: Adobe Illustrator 24.1.3, SVG Export Plug-In . SVG Version: 6.00 Build 0)  -->
<svg version="1.1" id="Layer_1" xmlns="http://www.w3.org/2000/svg" xmlns:xlink="http://www.w3.org/1999/xlink" x="0px" y="0px"
	 viewBox="0 0 800 800" style="enable-background:new 0 0 800 800;" xml:space="preserve">
<style type="text/css">
	.st0{fill:#4C7246;}
	.st1{fill:#2A3F27;}
	.st2{fill:url(#SVGID_1_);}
	.st3{fill:url(#SVGID_2_);}
	.st4{fill:none;stroke:#4C7246;stroke-width:5;stroke-miterlimit:10;}
	.st5{fill:none;stroke:#2A3F27;stroke-width:5;stroke-miterlimit:10;}
	.st6{fill:none;stroke:#5C8B55;stroke-width:5;stroke-miterlimit:10;}
	.st7{fill:#5C8B55;}
	.st8{fill:none;stroke:#5C8B55;stroke-width:3;stroke-miterlimit:10;}
</style>
<ellipse class="st0" cx="527.3" cy="172.8" rx="6.5" ry="16.6"/>
<ellipse transform="matrix(0.3202 -0.9474 0.9474 0.3202 141.0495 600.0698)" class="st1" cx="488.6" cy="201.8" rx="10.5" ry="4.8"/>
<ellipse transform="matrix(0.897 -0.442 0.442 0.897 -42.3021 247.5804)" class="st1" cx="510.2" cy="214.6" rx="5.2" ry="9.6"/>
<ellipse transform="matrix(6.572372e-02 -0.9978 0.9978 6.572372e-02 285.7176 690.5161)" class="st1" cx="511.6" cy="192.7" rx="11.3" ry="5.8"/>
<ellipse transform="matrix(0.951 -0.3093 0.3093 0.951 -38.2997 178.0747)" class="st1" cx="542.5" cy="209.8" rx="5.1" ry="10.6"/>
<linearGradient id="SVGID_1_" gradientUnits="userSpaceOnUse" x1="239.0244" y1="362.9268" x2="560.9756" y2="362.9268">
	<stop  offset="0" style="stop-color:#E07A5F"/>
	<stop  offset="0.3115" style="stop-color:#DD795F"/>
	<stop  offset="0.5317" style="stop-color:#D4765E"/>
	<stop  offset="0.7238" style="stop-color:#C4725C"/>
	<stop  offset="0.8987" style="stop-color:#AE6B59"/>
	<stop  offset="1" style="stop-color:#9E6657"/>
</linearGradient>
<path class="st2" d="M523,495.9H277c-20.9,0-38-17.1-38-38V268c0-20.9,17.1-38,38-38h246c20.9,0,38,17.1,38,38v189.9
	C561,478.8,543.9,495.9,523,495.9z"/>
<linearGradient id="SVGID_2_" gradientUnits="userSpaceOnUse" x1="227.6549" y1="248.1763" x2="572.7768" y2="248.1763">
	<stop  offset="0" style="stop-color:#E07A5F"/>
	<stop  offset="0.3115" style="stop-color:#DD795F"/>
	<stop  offset="0.5317" style="stop-color:#D4765E"/>
	<stop  offset="0.7238" style="stop-color:#C4725C"/>
	<stop  offset="0.8987" style="stop-color:#AE6B59"/>
	<stop  offset="1" style="stop-color:#9E6657"/>
</linearGradient>
<path class="st3" d="M553.7,277.4H246.8c-10.5,0-19.1-8.6-19.1-19.1V238c0-10.5,8.6-19.1,19.1-19.1h306.9c10.5,0,19.1,8.6,19.1,19.1
	v20.3C572.8,268.8,564.2,277.4,553.7,277.4z"/>
<path class="st4" d="M449.2,218.2c0,0,10-45,34.4-53.5c24.4-8.5,21.5-7.5,41.2-8.1c18.6-0.5,61.9-3.5,97.3,73.3
	s28.5,169.3,28.5,176.6s-5.3,163.5-5.3,163.5"/>
<path class="st5" d="M472.3,218.2c29.5-12,70.8-25.7,88.7-17.3c17.8,8.4,25.2,32.7,29.4,64.3s20,230.6,20,230.6"/>
<path class="st6" d="M458.6,218.2c0,0,40.1-47.9,61.2-26.8s30.4,16.7,33.7,85.3c3.2,68.7,8.5,160.4-12.1,259.6
	s-33.8,144.5-33.8,144.5"/>
<path class="st4" d="M423.8,218.2l11.6-19.9c0,0,6.3-11.1,23.2,38.5s15.8,28.3,19,126.5s0,187.8,0,187.8"/>
<path class="st4" d="M384.8,218.2c-32.7-44.7-35.9-61.9-60.1-61.7s-33.8,1.2-57,23.4s-57,57-69.6,90.7
	c-12.7,33.8-23.2,86.5-23.2,115c0,28.5,0,147.7,0,147.7s2.1,11.6,6.3,23.2"/>
<path class="st5" d="M373.1,218.2c0,0-7.4-29.1-30.6-32.2s-45.4-5.9-62.8,16.1s-48,58.9-57.5,139.1s0,3.2-9.5,80.2
	c-9.5,77-7.4,117.1-6.3,129.7c1.1,12.7,5.3,42.2,5.3,42.2"/>
<path class="st4" d="M346.8,218.2c-17.9-5.7-27.4-11.2-35.9,0c-8.4,11.2-11.6,66-11.6,75.5s-4.1,195.1-10,234.1
	s-9.5,106.5-9.5,106.5"/>
<path class="st6" d="M400,218.2c-22.4-10-39.5,13.6-40.6,29.3s4.2,126.7,4.2,126.7"/>
<ellipse transform="matrix(0.9829 -0.1839 0.1839 0.9829 -101.0956 43.2669)" class="st0" cx="182.8" cy="566.7" rx="6.3" ry="13.7"/>
<ellipse transform="matrix(8.822526e-02 -0.9961 0.9961 8.822526e-02 -53.5587 713.398)" class="st7" cx="362.9" cy="386" rx="13.7" ry="6.3"/>
<ellipse transform="matrix(0.897 -0.442 0.442 0.897 -126.1312 193.8004)" class="st7" cx="352.9" cy="367.6" rx="12.1" ry="4.7"/>
<ellipse transform="matrix(0.2486 -0.9686 0.9686 0.2486 -71.8506 635.9644)" class="st7" cx="374" cy="364.3" rx="6.8" ry="10.8"/>
<ellipse transform="matrix(0.897 -0.442 0.442 0.897 -100.7496 185.0095)" class="st7" cx="346.7" cy="308.7" rx="14" ry="6.6"/>
<ellipse transform="matrix(8.822526e-02 -0.9961 0.9961 8.822526e-02 37.335 651.571)" class="st7" cx="374.6" cy="305.4" rx="5.2" ry="14.4"/>
<ellipse transform="matrix(0.897 -0.442 0.442 0.897 -86.8355 180.8317)" class="st7" cx="344.7" cy="276.8" rx="16.2" ry="6.8"/>
<ellipse transform="matrix(0.2684 -0.9633 0.9633 0.2684 2.3091 564.8724)" class="st7" cx="373" cy="280.9" rx="6" ry="13.8"/>
<ellipse transform="matrix(0.6506 -0.7594 0.7594 0.6506 -34.5132 351.3551)" class="st7" cx="364.6" cy="213.2" rx="5.1" ry="13.1"/>
<ellipse transform="matrix(0.7071 -0.7071 0.7071 0.7071 -51.9392 336.5287)" class="st7" cx="380.3" cy="231" rx="4.7" ry="12.4"/>
<ellipse class="st7" cx="347.9" cy="238.6" rx="13" ry="5.7"/>
<ellipse transform="matrix(0.866 -0.5 0.5 0.866 -75.3171 218.6919)" class="st7" cx="370.4" cy="249.9" rx="5.9" ry="14.3"/>
<ellipse transform="matrix(0.9714 -0.2373 0.2373 0.9714 -70.3722 92.607)" class="st7" cx="349.4" cy="338.6" rx="13" ry="5.6"/>
<ellipse transform="matrix(0.4021 -0.9156 0.9156 0.4021 -83.2924 544.4053)" class="st7" cx="375.2" cy="336" rx="5.8" ry="13.4"/>
<ellipse transform="matrix(0.9469 -0.3215 0.3215 0.9469 -183.5629 101.8398)" class="st1" cx="216.6" cy="606.7" rx="7" ry="16"/>
<ellipse transform="matrix(0.3047 -0.9524 0.9524 0.3047 -394.9035 612.659)" class="st1" cx="222.2" cy="576.8" rx="6.7" ry="13.5"/>
<ellipse transform="matrix(0.7071 -0.7071 0.7071 0.7071 -348.6882 308.7117)" class="st1" cx="198.3" cy="575.3" rx="10.9" ry="6.5"/>
<ellipse transform="matrix(0.2486 -0.9686 0.9686 0.2486 -361.4743 620.7274)" class="st1" cx="219.4" cy="543.4" rx="7.8" ry="13.8"/>
<ellipse transform="matrix(0.7071 -0.7071 0.7071 0.7071 -325.8466 295.9957)" class="st1" cx="194.4" cy="541.3" rx="12.4" ry="6.4"/>
<ellipse transform="matrix(0.3482 -0.9374 0.9374 0.3482 -332.5584 536.3301)" class="st1" cx="219.4" cy="507.3" rx="7.5" ry="12.9"/>
<ellipse transform="matrix(0.897 -0.442 0.442 0.897 -204.9241 138.7886)" class="st1" cx="195.4" cy="509.2" rx="12.7" ry="6.3"/>
<ellipse transform="matrix(0.4021 -0.9156 0.9156 0.4021 -307.3083 490.8446)" class="st1" cx="222.2" cy="480.7" rx="7.4" ry="16.8"/>
<ellipse transform="matrix(0.897 -0.442 0.442 0.897 -189.1086 135.104)" class="st1" cx="195.4" cy="473.4" rx="12.6" ry="8.2"/>
<ellipse transform="matrix(0.3047 -0.9524 0.9524 0.3047 -270.0643 525.0845)" class="st1" cx="224.6" cy="447.5" rx="8.7" ry="13.8"/>
<ellipse transform="matrix(0.897 -0.442 0.442 0.897 -172.8939 132.678)" class="st1" cx="198.3" cy="437.4" rx="12.7" ry="8.2"/>
<ellipse transform="matrix(0.5859 -0.8104 0.8104 0.5859 -237.6348 354.8409)" class="st1" cx="228.4" cy="410" rx="7" ry="14"/>
<ellipse class="st1" cx="202.4" cy="403.6" rx="12.6" ry="7"/>
<ellipse transform="matrix(0.3047 -0.9524 0.9524 0.3047 -189.1082 478.3901)" class="st1" cx="233.1" cy="368.7" rx="5.8" ry="13.3"/>
<ellipse transform="matrix(0.9469 -0.3215 0.3215 0.9469 -107.4685 86.6302)" class="st1" cx="208.6" cy="368.7" rx="10.3" ry="7.2"/>
<ellipse class="st1" cx="236.4" cy="330.5" rx="11.4" ry="6.4"/>
<ellipse transform="matrix(0.866 -0.5 0.5 0.866 -136.9352 149.9281)" class="st1" cx="211.3" cy="330.5" rx="13.1" ry="6.4"/>
<ellipse class="st1" cx="223.9" cy="284.2" rx="10.3" ry="5.8"/>
<ellipse transform="matrix(0.3696 -0.9292 0.9292 0.3696 -109.617 404.8992)" class="st1" cx="243.6" cy="283.2" rx="4.8" ry="9.3"/>
<ellipse transform="matrix(0.2262 -0.9741 0.9741 0.2262 -47.7073 420.5453)" class="st1" cx="240.8" cy="240.3" rx="5" ry="10.3"/>
<ellipse transform="matrix(0.7071 -0.7071 0.7071 0.7071 -103.484 256.7661)" class="st1" cx="258.2" cy="253.3" rx="6.1" ry="9.6"/>
<ellipse class="st1" cx="259" cy="213" rx="10.2" ry="4.3"/>
<ellipse class="st1" cx="273.8" cy="223.6" rx="4.6" ry="9.2"/>
<ellipse transform="matrix(0.3343 -0.9425 0.9425 0.3343 6.9957 388.1891)" class="st1" cx="278.3" cy="189.1" rx="4.5" ry="9.7"/>
<ellipse class="st1" cx="289.3" cy="204.6" rx="4.1" ry="10.6"/>
<ellipse transform="matrix(0.9892 -0.1467 0.1467 0.9892 -22.5756 46.9019)" class="st1" cx="306.8" cy="176.5" rx="4.2" ry="8.6"/>
<ellipse class="st1" cx="313.6" cy="195" rx="4.6" ry="9.3"/>
<ellipse transform="matrix(0.1402 -0.9901 0.9901 0.1402 114.8521 480.4958)" class="st1" cx="334.1" cy="174.1" rx="9.8" ry="4.3"/>
<ellipse class="st1" cx="338.2" cy="196.3" rx="5" ry="9.3"/>
<ellipse transform="matrix(0.897 -0.442 0.442 0.897 -227.4535 130.2832)" class="st0" cx="165.9" cy="553.3" rx="13.2" ry="6.5"/>
<ellipse class="st0" cx="191.4" cy="548.9" rx="10.9" ry="7.5"/>
<ellipse transform="matrix(0.9469 -0.3215 0.3215 0.9469 -158.897 80.0261)" class="st0" cx="162.9" cy="521.1" rx="12" ry="6.7"/>
<ellipse transform="matrix(0.4021 -0.9156 0.9156 0.4021 -365.8755 481.9935)" class="st0" cx="186.1" cy="521.1" rx="6.9" ry="10.9"/>
<ellipse transform="matrix(0.897 -0.442 0.442 0.897 -198.4876 121.879)" class="st0" cx="162.3" cy="486.9" rx="12.5" ry="6.2"/>
<ellipse transform="matrix(0.1804 -0.9836 0.9836 0.1804 -326.3974 582.173)" class="st0" cx="186.1" cy="486.9" rx="7" ry="12.9"/>
<ellipse class="st0" cx="163.4" cy="453.1" rx="12" ry="7.9"/>
<ellipse transform="matrix(0.3047 -0.9524 0.9524 0.3047 -297.6878 490.5018)" class="st0" cx="187.1" cy="449.1" rx="8" ry="14"/>
<ellipse transform="matrix(0.9469 -0.3215 0.3215 0.9469 -126.3642 73.9635)" class="st0" cx="160.8" cy="419.6" rx="14.1" ry="6.6"/>
<ellipse transform="matrix(0.3047 -0.9524 0.9524 0.3047 -270.2446 469.0081)" class="st0" cx="186.1" cy="419.6" rx="7" ry="11.2"/>
<ellipse transform="matrix(0.9633 -0.2684 0.2684 0.9633 -97.1593 57.3958)" class="st0" cx="161.3" cy="384" rx="13.5" ry="8.3"/>
<ellipse transform="matrix(0.4021 -0.9156 0.9156 0.4021 -243.9767 403.6975)" class="st0" cx="187.1" cy="388.7" rx="5.5" ry="12.6"/>
<ellipse transform="matrix(0.2486 -0.9686 0.9686 0.2486 -200.0084 449.5298)" class="st0" cx="189.7" cy="353.7" rx="7.5" ry="11.2"/>
<ellipse transform="matrix(0.9898 -0.1423 0.1423 0.9898 -47.7564 27.1336)" class="st0" cx="165.9" cy="347.6" rx="12.6" ry="6.5"/>
<ellipse class="st0" cx="194.4" cy="324.1" rx="11.8" ry="6.6"/>
<ellipse transform="matrix(0.9898 -0.1423 0.1423 0.9898 -43.9194 27.4019)" class="st0" cx="169.7" cy="320.9" rx="13.1" ry="5.9"/>
<ellipse transform="matrix(0.1804 -0.9836 0.9836 0.1804 -131.5044 410.6394)" class="st0" cx="180.6" cy="284.2" rx="6.6" ry="11"/>
<ellipse transform="matrix(0.3047 -0.9524 0.9524 0.3047 -139.2525 397.1001)" class="st0" cx="202.4" cy="293.9" rx="6.2" ry="11.8"/>
<ellipse class="st0" cx="195.9" cy="246.8" rx="15.4" ry="6.5"/>
<ellipse class="st0" cx="213.6" cy="260.7" rx="6.4" ry="12.6"/>
<ellipse class="st0" cx="216.5" cy="215.6" rx="14.1" ry="6.9"/>
<ellipse transform="matrix(0.9892 -0.1467 0.1467 0.9892 -31.1715 36.9144)" class="st0" cx="234.8" cy="229.8" rx="6.8" ry="12.5"/>
<ellipse transform="matrix(0.3047 -0.9524 0.9524 0.3047 -13.2127 361.2675)" class="st0" cx="240.8" cy="189.7" rx="5.5" ry="12.3"/>
<ellipse class="st0" cx="259.9" cy="203.1" rx="5.5" ry="12.1"/>
<ellipse transform="matrix(0.4427 -0.8966 0.8966 0.4427 3.0618 331.2335)" class="st0" cx="268" cy="163.2" rx="6" ry="13.5"/>
<ellipse class="st0" cx="278.2" cy="184" rx="5.1" ry="12.6"/>
<ellipse transform="matrix(0.9772 -0.2124 0.2124 0.9772 -23.9056 67.8919)" class="st0" cx="304.1" cy="145.2" rx="7.4" ry="10.8"/>
<ellipse class="st0" cx="306.9" cy="168.8" rx="6.4" ry="11"/>
<ellipse transform="matrix(0.4427 -0.8966 0.8966 0.4427 57.6164 390.7796)" class="st0" cx="343.2" cy="149" rx="10.2" ry="7.2"/>
<ellipse class="st0" cx="341.7" cy="171.4" rx="5.1" ry="8.8"/>
<ellipse transform="matrix(0.9388 -0.3446 0.3446 0.9388 -39.9087 139.9712)" class="st0" cx="373.8" cy="182.3" rx="10.9" ry="5.7"/>
<ellipse class="st0" cx="280.8" cy="647.4" rx="8.5" ry="16.3"/>
<ellipse transform="matrix(0.4463 -0.8949 0.8949 0.4463 -395.0849 609.918)" class="st0" cx="295.3" cy="624.2" rx="8.7" ry="15.7"/>
<ellipse class="st0" cx="264.5" cy="624.8" rx="16.3" ry="9.7"/>
<ellipse transform="matrix(0.4463 -0.8949 0.8949 0.4463 -364.2577 595.1453)" class="st0" cx="298.8" cy="591.9" rx="9.7" ry="17"/>
<ellipse transform="matrix(0.866 -0.5 0.5 0.866 -258.6068 213.3324)" class="st0" cx="268.8" cy="589.2" rx="15.6" ry="8.2"/>
<ellipse transform="matrix(0.9633 -0.2684 0.2684 0.9633 -135.2927 92.1604)" class="st0" cx="269.4" cy="540.9" rx="18.4" ry="8.8"/>
<ellipse transform="matrix(0.4463 -0.8949 0.8949 0.4463 -315.9355 573.3829)" class="st0" cx="305.4" cy="542" rx="10.5" ry="20.7"/>
<ellipse transform="matrix(0.7657 -0.6432 0.6432 0.7657 -254.0205 294.3476)" class="st0" cx="277" cy="495.9" rx="20.9" ry="10.5"/>
<ellipse transform="matrix(0.4021 -0.9156 0.9156 0.4021 -267.8593 581.5201)" class="st0" cx="311.3" cy="495.9" rx="11.2" ry="19"/>
<ellipse transform="matrix(0.9469 -0.3215 0.3215 0.9469 -126.9009 111.7583)" class="st0" cx="274.9" cy="440.1" rx="19.5" ry="9"/>
<ellipse transform="matrix(0.3047 -0.9524 0.9524 0.3047 -207.4413 609.335)" class="st0" cx="313.6" cy="446.7" rx="7.2" ry="20.5"/>
<ellipse transform="matrix(0.9772 -0.2124 0.2124 0.9772 -78.1265 68.4968)" class="st0" cx="279.8" cy="397.9" rx="16.8" ry="9.3"/>
<ellipse transform="matrix(0.1804 -0.9836 0.9836 0.1804 -129.9324 627.1208)" class="st0" cx="311.3" cy="391.5" rx="9.2" ry="13.7"/>
<ellipse transform="matrix(0.8319 -0.5549 0.5549 0.8319 -148.4718 213.768)" class="st0" cx="278.6" cy="352" rx="20.8" ry="9.8"/>
<ellipse transform="matrix(0.2486 -0.9686 0.9686 0.2486 -102.0971 567.3647)" class="st0" cx="314.7" cy="349.5" rx="9.8" ry="18"/>
<ellipse transform="matrix(0.7922 -0.6103 0.6103 0.7922 -125.3658 236.652)" class="st0" cx="284.8" cy="302.4" rx="14.6" ry="9.4"/>
<ellipse transform="matrix(0.5 -0.866 0.866 0.5 -109.311 426.443)" class="st0" cx="314.7" cy="307.9" rx="9.7" ry="17"/>
<ellipse transform="matrix(0.9892 -0.1467 0.1467 0.9892 -34.0652 44.5686)" class="st0" cx="285.2" cy="253.3" rx="17.4" ry="8.4"/>
<ellipse class="st0" cx="317.5" cy="258.1" rx="15.6" ry="8.2"/>
<ellipse transform="matrix(0.6506 -0.7594 0.7594 0.6506 -50.0298 301.26)" class="st0" cx="302.4" cy="205" rx="7.9" ry="16.9"/>
<ellipse transform="matrix(0.7922 -0.6103 0.6103 0.7922 -71.9136 245.4994)" class="st0" cx="324.5" cy="228.3" rx="7.1" ry="14.9"/>
<path class="st8" d="M283.2,219c-2.2-17.9-13.9-32.6-29.7-37.5c-10.9-3.4-23.8-1.8-32.6,3.7c-37.7,23.8-21.2,131.7,6.3,204.6
	c11.5,30.5,18.2,37,27.9,70c13.3,45.2,15.9,84.6,16,111.5"/>
<ellipse class="st7" cx="271.4" cy="585.7" rx="8.6" ry="15.5"/>
<ellipse transform="matrix(0.9469 -0.3215 0.3215 0.9469 -168.2279 112.0614)" class="st7" cx="255.2" cy="565.4" rx="16.2" ry="5.9"/>
<ellipse transform="matrix(0.3047 -0.9524 0.9524 0.3047 -337.5294 660.6964)" class="st7" cx="283.8" cy="561.5" rx="5.9" ry="12.5"/>
<ellipse transform="matrix(0.9306 -0.366 0.366 0.9306 -178.5063 130.223)" class="st7" cx="254.2" cy="535.9" rx="15.2" ry="6.1"/>
<ellipse transform="matrix(0.2486 -0.9686 0.9686 0.2486 -302.8214 669.2197)" class="st7" cx="279.9" cy="529.8" rx="7.4" ry="11.9"/>
<ellipse transform="matrix(0.9772 -0.2124 0.2124 0.9772 -100.9236 65.4026)" class="st7" cx="254" cy="502.5" rx="12.9" ry="6.7"/>
<ellipse transform="matrix(0.2486 -0.9686 0.9686 0.2486 -274.3145 643.7703)" class="st7" cx="277.8" cy="498.7" rx="7.4" ry="13.4"/>
<ellipse transform="matrix(0.8319 -0.5549 0.5549 0.8319 -220.2867 215.162)" class="st7" cx="245" cy="471.2" rx="13.3" ry="5.8"/>
<ellipse transform="matrix(9.805334e-02 -0.9952 0.9952 9.805334e-02 -224.0074 688.5394)" class="st7" cx="267.9" cy="467.9" rx="6.6" ry="10.9"/>
<ellipse transform="matrix(0.9306 -0.366 0.366 0.9306 -143.8383 116.8927)" class="st7" cx="236.4" cy="437.8" rx="11.4" ry="6.2"/>
<ellipse transform="matrix(0.2486 -0.9686 0.9686 0.2486 -223.9959 572.8008)" class="st7" cx="257.2" cy="430.8" rx="6.2" ry="13.3"/>
<ellipse transform="matrix(0.866 -0.5 0.5 0.866 -172.3256 163.7477)" class="st7" cx="219.4" cy="403.4" rx="12.3" ry="6.6"/>
<ellipse class="st7" cx="243.6" cy="399.8" rx="13.4" ry="7.4"/>
<ellipse transform="matrix(0.1804 -0.9836 0.9836 0.1804 -164.1794 521.5319)" class="st7" cx="230.8" cy="359.3" rx="5.6" ry="14.2"/>
<ellipse transform="matrix(0.9469 -0.3215 0.3215 0.9469 -105.9425 85.3756)" class="st7" cx="205.5" cy="363.5" rx="13.5" ry="7.7"/>
<ellipse transform="matrix(0.1804 -0.9836 0.9836 0.1804 -129.4868 474.599)" class="st7" cx="220" cy="315" rx="6.5" ry="14.3"/>
<ellipse transform="matrix(0.7071 -0.7071 0.7071 0.7071 -170.4345 232.8988)" class="st7" cx="195.9" cy="322.2" rx="12.9" ry="5.8"/>
<ellipse class="st7" cx="211.7" cy="277.2" rx="10.8" ry="7"/>
<ellipse transform="matrix(0.897 -0.442 0.442 0.897 -101.3989 111.3167)" class="st7" cx="188.2" cy="273.3" rx="12.7" ry="7"/>
<ellipse transform="matrix(0.5 -0.866 0.866 0.5 -99.1282 298.945)" class="st7" cx="209.3" cy="235.3" rx="6.7" ry="10.7"/>
<ellipse class="st7" cx="188.2" cy="236.8" rx="11.7" ry="6.7"/>
<ellipse transform="matrix(0.1402 -0.9901 0.9901 0.1402 -21.0514 363.643)" class="st7" cx="198.8" cy="193.9" rx="6.3" ry="11.7"/>
<ellipse class="st7" cx="213.6" cy="206.5" rx="6.1" ry="12"/>
<ellipse transform="matrix(0.9469 -0.3215 0.3215 0.9469 -42.0351 83.0992)" class="st7" cx="230.6" cy="168.8" rx="5.5" ry="12"/>
<ellipse class="st7" cx="241" cy="194.6" rx="6.3" ry="15"/>
<ellipse transform="matrix(0.3343 -0.9425 0.9425 0.3343 10.8417 367.1965)" class="st7" cx="265.3" cy="175.9" rx="10.7" ry="5.3"/>
<ellipse class="st0" cx="477.1" cy="565.8" rx="8.6" ry="17.9"/>
<ellipse transform="matrix(0.5 -0.866 0.866 0.5 -220.0568 697.7338)" class="st0" cx="494.2" cy="539.4" rx="9.6" ry="17.3"/>
<ellipse transform="matrix(0.9488 -0.3158 0.3158 0.9488 -147.5503 173.287)" class="st0" cx="460.8" cy="541.8" rx="15.3" ry="9"/>
<ellipse transform="matrix(0.6031 -0.7977 0.7977 0.6031 -205.7452 594.2297)" class="st0" cx="494.2" cy="503.9" rx="9.2" ry="17.2"/>
<ellipse transform="matrix(0.866 -0.5 0.5 0.866 -192.5649 298.7364)" class="st0" cx="461.2" cy="508.7" rx="18.8" ry="8.2"/>
<ellipse transform="matrix(0.2486 -0.9686 0.9686 0.2486 -69.0185 826.1661)" class="st0" cx="498" cy="457.6" rx="10.1" ry="19"/>
<ellipse transform="matrix(0.9613 -0.2756 0.2756 0.9613 -108.1852 145.3216)" class="st0" cx="462.9" cy="457.6" rx="18.7" ry="10.8"/>
<ellipse transform="matrix(0.6692 -0.7431 0.7431 0.6692 -144.2761 504.9814)" class="st0" cx="495" cy="414.5" rx="7.7" ry="21.2"/>
<ellipse class="st0" cx="458.6" cy="411.3" rx="20.4" ry="9.1"/>
<ellipse transform="matrix(0.2486 -0.9686 0.9686 0.2486 21.5024 754.4565)" class="st0" cx="497" cy="363.4" rx="10.3" ry="18.9"/>
<ellipse transform="matrix(0.9613 -0.2756 0.2756 0.9613 -83.6782 141.0573)" class="st0" cx="460" cy="368.2" rx="17.5" ry="7"/>
<ellipse class="st0" cx="459.8" cy="328.1" rx="19.1" ry="10.4"/>
<ellipse transform="matrix(0.2486 -0.9686 0.9686 0.2486 59.0295 719.1205)" class="st0" cx="493" cy="321.5" rx="9.9" ry="18.8"/>
<ellipse transform="matrix(0.951 -0.3093 0.3093 0.951 -61.129 165.0256)" class="st0" cx="489.9" cy="275.3" rx="17.6" ry="7.8"/>
<ellipse transform="matrix(0.897 -0.442 0.442 0.897 -77.2395 231.6678)" class="st0" cx="458.6" cy="281.6" rx="17" ry="9"/>
<ellipse transform="matrix(0.951 -0.3093 0.3093 0.951 -49.1226 159.1949)" class="st0" cx="477.5" cy="234.5" rx="17.5" ry="9.7"/>
<ellipse transform="matrix(0.9388 -0.3446 0.3446 0.9388 -56.3381 167.4239)" class="st0" cx="442.8" cy="242.2" rx="17.2" ry="7.7"/>
<ellipse transform="matrix(0.6506 -0.7594 0.7594 0.6506 14.71 409.5046)" class="st0" cx="452.4" cy="188.8" rx="16.1" ry="8.1"/>
<ellipse transform="matrix(0.4427 -0.8966 0.8966 0.4427 50.1585 483.1989)" class="st0" cx="413.8" cy="201.2" rx="6.9" ry="17.1"/>
<ellipse transform="matrix(0.9892 -0.1467 0.1467 0.9892 -27.0313 66.4315)" class="st0" cx="437" cy="216.5" rx="15.9" ry="7.4"/>
<ellipse transform="matrix(0.3858 -0.9226 0.9226 0.3858 -325.9088 888.4653)" class="st7" cx="504.3" cy="689" rx="15.2" ry="7.7"/>
<ellipse transform="matrix(0.2411 -0.9705 0.9705 0.2411 -248.8473 1020.8074)" class="st7" cx="528.3" cy="669.5" rx="9.6" ry="16.5"/>
<ellipse class="st7" cx="497" cy="660.2" rx="18.1" ry="9.4"/>
<ellipse transform="matrix(0.3145 -0.9492 0.9492 0.3145 -232.3759 943.9714)" class="st7" cx="537.4" cy="632.9" rx="9.4" ry="17.2"/>
<ellipse transform="matrix(0.9806 -0.196 0.196 0.9806 -112.8376 110.9583)" class="st7" cx="504.3" cy="625.7" rx="17.2" ry="11.1"/>
<ellipse transform="matrix(0.2411 -0.9705 0.9705 0.2411 -162.7949 982.0358)" class="st7" cx="546.6" cy="595.1" rx="9.8" ry="16.8"/>
<ellipse transform="matrix(0.9613 -0.2756 0.2756 0.9613 -142.177 163.447)" class="st7" cx="510.4" cy="587.6" rx="21.9" ry="9.5"/>
<ellipse transform="matrix(0.9925 -0.1223 0.1223 0.9925 -62.9268 67.86)" class="st7" cx="521.4" cy="546.6" rx="17.1" ry="8.1"/>
<ellipse transform="matrix(0.3827 -0.9239 0.9239 0.3827 -166.5296 852.6958)" class="st7" cx="554.9" cy="551" rx="9.1" ry="17.4"/>
<ellipse class="st7" cx="531" cy="503.3" rx="18" ry="8.6"/>
<ellipse transform="matrix(0.6692 -0.7431 0.7431 0.6692 -195.3372 589.0063)" class="st7" cx="563.9" cy="513.9" rx="8.6" ry="19.5"/>
<ellipse transform="matrix(0.8453 -0.5342 0.5342 0.8453 -153.2002 388.2273)" class="st1" cx="593.9" cy="458.7" rx="14.2" ry="7.5"/>
<ellipse transform="matrix(0.9613 -0.2756 0.2756 0.9613 -106.5084 165.1339)" class="st7" cx="534.3" cy="461.5" rx="17.6" ry="8.9"/>
<ellipse transform="matrix(0.3054 -0.9522 0.9522 0.3054 -41.8985 861.5797)" class="st7" cx="569.6" cy="459.5" rx="9.4" ry="17.4"/>
<ellipse transform="matrix(0.897 -0.442 0.442 0.897 -129.9487 280.2505)" class="st7" cx="536.5" cy="419" rx="20.4" ry="8.5"/>
<ellipse transform="matrix(0.9613 -0.2756 0.2756 0.9613 -94.4328 179.5577)" class="st1" cx="591.6" cy="425.8" rx="13.6" ry="7.2"/>
<ellipse transform="matrix(0.4021 -0.9156 0.9156 0.4021 -44.2908 772.9463)" class="st7" cx="569.7" cy="420.4" rx="7.8" ry="15.4"/>
<ellipse transform="matrix(0.9892 -0.1467 0.1467 0.9892 -49.4565 83.4155)" class="st7" cx="541" cy="377.1" rx="15.5" ry="8.9"/>
<ellipse class="st7" cx="572.6" cy="372.4" rx="15.5" ry="8.4"/>
<ellipse transform="matrix(0.897 -0.442 0.442 0.897 -80.6038 289.8528)" class="st1" cx="581.8" cy="317.9" rx="14.2" ry="6"/>
<ellipse transform="matrix(0.897 -0.442 0.442 0.897 -89.4801 272.1827)" class="st7" cx="539.4" cy="328.1" rx="15.8" ry="8.6"/>
<ellipse transform="matrix(8.822526e-02 -0.9961 0.9961 8.822526e-02 194.844 864.5599)" class="st7" cx="569.7" cy="325.8" rx="8.1" ry="15.8"/>
<ellipse transform="matrix(0.9655 -0.2606 0.2606 0.9655 -53.1138 160.4367)" class="st1" cx="578.6" cy="280.5" rx="12.8" ry="6.6"/>
<ellipse transform="matrix(0.9388 -0.3446 0.3446 0.9388 -67.1231 203.177)" class="st7" cx="538" cy="290.4" rx="14.6" ry="6.4"/>
<ellipse transform="matrix(0.4072 -0.9133 0.9133 0.4072 73.2726 686.8929)" class="st7" cx="565.8" cy="287" rx="7.6" ry="11.1"/>
<ellipse transform="matrix(0.897 -0.442 0.442 0.897 -55.0927 262.5581)" class="st7" cx="536" cy="249.5" rx="14.6" ry="7.3"/>
<ellipse class="st1" cx="576.3" cy="255" rx="12.6" ry="6.1"/>
<ellipse transform="matrix(0.2486 -0.9686 0.9686 0.2486 183.0716 731.0275)" class="st7" cx="562.7" cy="247.5" rx="6.5" ry="12.6"/>
<ellipse class="st1" cx="561.9" cy="211.8" rx="4.9" ry="9.8"/>
<ellipse transform="matrix(0.897 -0.442 0.442 0.897 -36.1889 267.7404)" class="st7" cx="556.5" cy="211.5" rx="14.2" ry="5.8"/>
<ellipse transform="matrix(0.9207 -0.3903 0.3903 0.9207 -43.1986 224.5151)" class="st7" cx="530.8" cy="218.6" rx="12.7" ry="7"/>
<ellipse transform="matrix(0.8323 -0.5543 0.5543 0.8323 -11.0527 322.165)" class="st7" cx="526.9" cy="179.3" rx="14.5" ry="6.4"/>
<ellipse class="st7" cx="514.4" cy="199.7" rx="6.9" ry="10.9"/>
<ellipse class="st7" cx="477.5" cy="186.1" rx="7.5" ry="12"/>
<ellipse class="st7" cx="399.3" cy="225.2" rx="6.4" ry="9.3"/>
<ellipse class="st7" cx="394.4" cy="204.3" rx="6.3" ry="10.4"/>
<ellipse class="st0" cx="465.2" cy="214.6" rx="13.8" ry="8"/>
<ellipse transform="matrix(0.1402 -0.9901 0.9901 0.1402 91.1654 521.509)" class="st0" cx="345.8" cy="208.3" rx="11.7" ry="6.4"/>
<ellipse transform="matrix(0.9925 -0.1223 0.1223 0.9925 -57.5223 78.6592)" class="st1" cx="612" cy="507.9" rx="6.4" ry="15.5"/>
<ellipse transform="matrix(0.3827 -0.9239 0.9239 0.3827 -62.3889 874.4674)" class="st1" cx="623.2" cy="483.9" rx="7.3" ry="12.8"/>
<ellipse transform="matrix(0.897 -0.442 0.442 0.897 -154.9775 314.7481)" class="st1" cx="598" cy="490" rx="12.9" ry="6.8"/>
<ellipse class="st1" cx="619.3" cy="452.3" rx="13.4" ry="7.4"/>
<ellipse class="st1" cx="619.3" cy="419" rx="14.1" ry="7.7"/>
<ellipse transform="matrix(0.4021 -0.9156 0.9156 0.4021 14.6542 796.6986)" class="st1" cx="617.3" cy="387.1" rx="8.1" ry="17.7"/>
<ellipse transform="matrix(0.866 -0.5 0.5 0.866 -117.8262 346.2218)" class="st1" cx="587.1" cy="393" rx="16.5" ry="7"/>
<ellipse transform="matrix(0.2486 -0.9686 0.9686 0.2486 123.2579 856.5151)" class="st1" cx="613.7" cy="348.8" rx="7.6" ry="16.3"/>
<ellipse transform="matrix(0.9388 -0.3446 0.3446 0.9388 -85.9664 223.0287)" class="st1" cx="584.5" cy="353.4" rx="14.8" ry="6.3"/>
<ellipse transform="matrix(0.2486 -0.9686 0.9686 0.2486 147.3313 829.7626)" class="st1" cx="608.5" cy="319.9" rx="6.2" ry="14.5"/>
<ellipse class="st1" cx="608.5" cy="287" rx="14.8" ry="6.8"/>
<ellipse transform="matrix(0.4427 -0.8966 0.8966 0.4427 103.2106 683.9597)" class="st1" cx="601.9" cy="258.9" rx="6.9" ry="12.5"/>
<ellipse transform="matrix(0.9655 -0.2606 0.2606 0.9655 -37.1989 162.692)" class="st1" cx="595" cy="221.7" rx="14.3" ry="5.7"/>
<ellipse transform="matrix(0.9655 -0.2606 0.2606 0.9655 -38.8406 155.9147)" class="st1" cx="568.6" cy="224.5" rx="11.4" ry="5.5"/>
<ellipse transform="matrix(0.7699 -0.6382 0.6382 0.7699 8.5835 411.1035)" class="st1" cx="574.4" cy="193.6" rx="13.4" ry="6"/>
<ellipse class="st1" cx="542.8" cy="185.9" rx="4.7" ry="11.8"/>
<ellipse class="st0" cx="644.8" cy="582.7" rx="8.1" ry="15.7"/>
<ellipse transform="matrix(0.3827 -0.9239 0.9239 0.3827 -110.6027 955.9882)" class="st0" cx="660.1" cy="560.8" rx="6.6" ry="14.3"/>
<ellipse transform="matrix(0.9613 -0.2756 0.2756 0.9613 -128.852 196.2841)" class="st0" cx="633.9" cy="556.6" rx="12.5" ry="7.8"/>
<ellipse transform="matrix(0.3827 -0.9239 0.9239 0.3827 -81.3405 938.5961)" class="st0" cx="661.7" cy="530.2" rx="7.7" ry="14.8"/>
<ellipse transform="matrix(0.9708 -0.2399 0.2399 0.9708 -108.1261 167.585)" class="st0" cx="634.3" cy="528" rx="14.1" ry="6.6"/>
<ellipse transform="matrix(0.3054 -0.9522 0.9522 0.3054 -8.8939 973.3935)" class="st0" cx="662.8" cy="492.8" rx="9" ry="15.4"/>
<ellipse transform="matrix(0.9613 -0.2756 0.2756 0.9613 -111.2719 194.1073)" class="st0" cx="635" cy="492.9" rx="14" ry="8"/>
<ellipse transform="matrix(0.9613 -0.2756 0.2756 0.9613 -101.7677 192.2619)" class="st0" cx="633.2" cy="458.2" rx="16.8" ry="7.9"/>
<ellipse transform="matrix(0.1813 -0.9834 0.9834 0.1813 99.5982 1025.752)" class="st0" cx="665.9" cy="453.1" rx="8" ry="17.5"/>
<ellipse transform="matrix(0.3054 -0.9522 0.9522 0.3054 67.0574 922.495)" class="st0" cx="665.9" cy="415.3" rx="7.3" ry="15.8"/>
<ellipse transform="matrix(0.9806 -0.1962 0.1962 0.9806 -69.9762 132.6299)" class="st0" cx="634.3" cy="419.4" rx="16.2" ry="8"/>
<ellipse transform="matrix(0.4021 -0.9156 0.9156 0.4021 52.6537 838.0433)" class="st0" cx="668" cy="378.7" rx="7.7" ry="16.8"/>
<ellipse transform="matrix(0.9613 -0.2756 0.2756 0.9613 -79.7274 189.4767)" class="st0" cx="634.3" cy="378.4" rx="17.1" ry="7.1"/>
<ellipse transform="matrix(0.1813 -0.9834 0.9834 0.1813 210.788 934.6959)" class="st0" cx="666.8" cy="340.7" rx="7.2" ry="19.8"/>
<ellipse transform="matrix(0.9806 -0.1962 0.1962 0.9806 -54.2191 130.9132)" class="st0" cx="633.5" cy="339.1" rx="16.2" ry="7.5"/>
<ellipse transform="matrix(0.9986 -5.373051e-02 5.373051e-02 0.9986 -15.2669 35.8074)" class="st0" cx="658.3" cy="301.8" rx="17.5" ry="9"/>
<ellipse transform="matrix(0.9613 -0.2756 0.2756 0.9613 -59.4358 184.6005)" class="st0" cx="627.1" cy="303.8" rx="16.8" ry="7.9"/>
<ellipse transform="matrix(0.9892 -0.1467 0.1467 0.9892 -31.8232 98.8267)" class="st0" cx="654.3" cy="265.2" rx="18.5" ry="8.4"/>
<ellipse transform="matrix(0.897 -0.442 0.442 0.897 -55.3093 301.3716)" class="st0" cx="619.1" cy="269.4" rx="17.4" ry="8.2"/>
<ellipse transform="matrix(0.9655 -0.2606 0.2606 0.9655 -36.5528 174.5521)" class="st0" cx="640.1" cy="225.1" rx="18.8" ry="7.3"/>
<ellipse transform="matrix(0.866 -0.5 0.5 0.866 -37.1654 335.8081)" class="st0" cx="608" cy="237.3" rx="18.3" ry="7.3"/>
<ellipse transform="matrix(0.9892 -0.1467 0.1467 0.9892 -22.0754 93.4716)" class="st0" cx="622.8" cy="196.4" rx="19" ry="9"/>
<ellipse transform="matrix(0.897 -0.442 0.442 0.897 -26.3504 277.6412)" class="st0" cx="582.7" cy="195.4" rx="17.6" ry="8.2"/>
<ellipse transform="matrix(0.8323 -0.5543 0.5543 0.8323 11.2887 352.0739)" class="st0" cx="587.5" cy="157.4" rx="19.7" ry="10"/>
<ellipse class="st0" cx="568.3" cy="183.2" rx="10.3" ry="16.5"/>
<ellipse transform="matrix(0.2486 -0.9686 0.9686 0.2486 270.7875 626.6608)" class="st0" cx="539.3" cy="138.8" rx="19" ry="8.4"/>
<ellipse class="st0" cx="493.3" cy="143.5" rx="8.3" ry="18.7"/>
<ellipse transform="matrix(0.897 -0.442 0.442 0.897 -33.0584 229.8688)" class="st0" cx="476.8" cy="185.9" rx="6.8" ry="15.7"/>
<ellipse transform="matrix(0.9388 -0.3446 0.3446 0.9388 -27.2272 168.1171)" class="st0" cx="459.4" cy="160.7" rx="8.3" ry="19.7"/>
</svg>
