<?xml version="1.0" encoding="utf-8"?>
<!-- Generator: Adobe Illustrator 24.1.3, SVG Export Plug-In . SVG Version: 6.00 Build 0)  -->
<svg version="1.1" id="Layer_1" xmlns="http://www.w3.org/2000/svg" xmlns:xlink="http://www.w3.org/1999/xlink" x="0px" y="0px"
	 viewBox="0 0 800 800" style="enable-background:new 0 0 800 800;" xml:space="preserve">
<style type="text/css">
	.st0{fill:#AA824B;}
	.st1{fill:#DDCDB7;}
	.st2{fill:#A7B3B4;}
	.st3{fill:#BB9B6F;}
	.st4{fill:#CECECE;}
	.st5{fill:#FFFFFF;}
	.st6{fill:none;stroke:#B2BEB2;stroke-width:3;stroke-miterlimit:10;}
	.st7{fill:#81A189;stroke:#B2BEB2;stroke-width:3;stroke-miterlimit:10;}
</style>
<polygon class="st0" points="73.1,83.5 61.3,83.5 36.2,69 48,69 "/>
<polygon class="st1" points="79.7,123.7 79.7,123.7 61.3,123.7 36.2,109.2 36.2,69 61.3,83.5 61.3,123.7 "/>
<polygon class="st2" points="750,83.5 724.9,83.5 724.9,69 724.9,69 "/>
<polygon class="st0" points="750,83.5 724.9,83.5 724.9,69 724.9,69 "/>
<polygon class="st3" points="763.8,83.5 763.8,123.7 61.3,123.7 61.3,83.5 750,83.5 724.9,69 738.7,69 "/>
<path class="st4" d="M145.5,188.7c2.3-38,10.4-64.9,10.4-64.9h498.5l6.9,417.8c0,0-28.8,56.4-131.6,63.7
	c-102.7,7.4-216.9,15.9-274.6,6.1s-116.6-22.1-116.6-35.5s-4.6,47.8,1.2-136C145.5,256,145.5,188.7,145.5,188.7z"/>
<path class="st5" d="M166.2,83.5c7.5-24.4,22.4-24.4,22.4-24.4C220,46.1,338.1,38,381.5,47.7S617.7,25,628.2,42.8
	C638.7,60.7,688,59.1,688,174.5s17.9,307.2,1.5,310.4c-16.4,3.3-354.4,52-403.7,21.1S223,138.7,217,124.1
	C211,109.5,166.2,83.5,166.2,83.5z"/>
<g>
	<path class="st6" d="M302.5,443.4c2.4-0.7,7.3-1.8,9.4-0.4"/>
	<path class="st6" d="M316.4,442.4c2.4-0.7,7.3-1.8,9.4-0.4"/>
	<path class="st6" d="M331.1,441.6c2.4-0.7,7.3-1.8,9.4-0.4"/>
	<path class="st6" d="M346.5,441.1c2.4-0.7,7.3-1.8,9.4-0.4"/>
	<path class="st6" d="M361.1,440.2c2.4-0.7,7.3-1.8,9.4-0.4"/>
	<path class="st6" d="M376.6,439.5c2.4-0.7,7.3-1.8,9.4-0.4"/>
	<path class="st6" d="M392.6,438.1c2.4-0.7,7.3-1.8,9.4-0.4"/>
	<path class="st6" d="M407.1,437.4c2.4-0.4,7.3-1,9.4-0.3"/>
	<path class="st6" d="M422.7,437.1c2.4-0.7,7.3-1.8,9.4-0.4"/>
	<path class="st6" d="M288.5,444.6c2.4-0.7,7.3-1.8,9.4-0.4"/>
	<path class="st6" d="M273.5,445.7c2.4-0.5,7.3-1.3,9.4-0.3"/>
	<path class="st6" d="M438.2,436c2.4-0.7,7.3-1.8,9.4-0.4"/>
	<path class="st6" d="M453.6,435.3c2.4-0.7,7.3-1.8,9.4-0.4"/>
	<path class="st6" d="M469.4,433.6c2.4-0.7,7.3-1.8,9.4-0.4"/>
	<path class="st6" d="M485.3,433.2c2.4-0.7,7.3-1.8,9.4-0.4"/>
	<path class="st6" d="M500.8,431.2c2.4-0.7,7.3-1.8,9.4-0.4"/>
	<path class="st6" d="M515.5,429.8c2.4-0.7,7.3-1.8,9.4-0.4"/>
	<path class="st6" d="M529.6,428.2c2.4-0.7,7.3-1.8,9.4-0.4"/>
	<path class="st6" d="M545.8,426.5c2.4-0.7,7.3-1.8,9.4-0.4"/>
	<path class="st6" d="M562,424.9c2.4-0.7,7.3-1.8,9.4-0.4"/>
	<path class="st6" d="M578.9,422.8c2.4-0.7,7.3-1.8,9.4-0.4"/>
	<path class="st6" d="M595.4,421.4c2.4-0.7,7.3-1.8,9.4-0.4"/>
	<path class="st6" d="M611.4,419.5c2.4-0.7,7.3-1.8,9.4-0.4"/>
	<path class="st6" d="M627.2,417.6c2.4-0.7,7.3-1.8,9.4-0.4"/>
	<path class="st6" d="M643.6,416.3c2.4-0.7,7.3-1.8,9.4-0.4"/>
	<path class="st6" d="M658.3,414.2c2.4-0.7,7.3-1.8,9.4-0.4"/>
	<path class="st6" d="M671.7,413c2.4-0.7,7.3-1.8,9.4-0.4"/>
</g>
<g>
	<path class="st6" d="M304.5,458.8c2.4-0.7,7.3-1.8,9.4-0.4"/>
	<path class="st6" d="M318.4,457.9c2.4-0.7,7.3-1.8,9.4-0.4"/>
	<path class="st6" d="M333.1,457.1c2.4-0.7,7.3-1.8,9.4-0.4"/>
	<path class="st6" d="M348.5,456.7c2.4-0.7,7.3-1.8,9.4-0.4"/>
	<path class="st6" d="M363.1,455.8c2.4-0.7,7.3-1.8,9.4-0.4"/>
	<path class="st6" d="M378.6,455.2c2.4-0.7,7.3-1.8,9.4-0.4"/>
	<path class="st6" d="M394.6,453.9c2.4-0.7,7.3-1.8,9.4-0.4"/>
	<path class="st6" d="M409.1,453.2c2.4-0.4,7.3-0.9,9.4-0.2"/>
	<path class="st6" d="M424.7,453c2.4-0.7,7.3-1.8,9.4-0.4"/>
	<path class="st6" d="M290.5,460c2.4-0.7,7.3-1.8,9.4-0.4"/>
	<path class="st6" d="M275.5,461c2.4-0.5,7.3-1.2,9.4-0.3"/>
	<path class="st6" d="M440.2,451.9c2.4-0.7,7.3-1.8,9.4-0.4"/>
	<path class="st6" d="M455.6,451.3c2.4-0.7,7.3-1.8,9.4-0.4"/>
	<path class="st6" d="M471.4,449.6c2.4-0.7,7.3-1.8,9.4-0.4"/>
	<path class="st6" d="M487.4,449.3c2.4-0.7,7.3-1.8,9.4-0.4"/>
	<path class="st6" d="M502.8,447.3c2.4-0.7,7.3-1.8,9.4-0.4"/>
	<path class="st6" d="M517.6,446c2.4-0.7,7.3-1.8,9.4-0.4"/>
	<path class="st6" d="M531.7,444.4c2.4-0.7,7.3-1.8,9.4-0.4"/>
	<path class="st6" d="M547.8,442.8c2.4-0.7,7.3-1.8,9.4-0.4"/>
	<path class="st6" d="M564.1,441.2c2.4-0.7,7.3-1.8,9.4-0.4"/>
	<path class="st6" d="M581,439.2c2.4-0.7,7.3-1.8,9.4-0.4"/>
	<path class="st6" d="M597.5,437.9c2.4-0.7,7.3-1.8,9.4-0.4"/>
	<path class="st6" d="M613.5,436c2.4-0.7,7.3-1.8,9.4-0.4"/>
	<path class="st6" d="M629.3,434.1c2.4-0.7,7.3-1.8,9.4-0.4"/>
	<path class="st6" d="M645.6,432.9c2.4-0.7,7.3-1.8,9.4-0.4"/>
	<path class="st6" d="M660.4,430.9c2.4-0.7,7.3-1.8,9.4-0.4"/>
	<path class="st6" d="M673.8,429.7c2.4-0.7,7.3-1.8,9.4-0.4"/>
</g>
<g>
	<path class="st7" d="M216.1,553.3c2.6-0.6,7.9-1.3,10,0.2"/>
	<path class="st7" d="M231,553.3c2.6-0.6,7.9-1.3,10,0.2"/>
	<path class="st7" d="M246.6,553.4c2.6-0.6,7.9-1.3,10,0.2"/>
	<path class="st7" d="M262.9,554c2.6-0.6,7.9-1.3,10,0.2"/>
	<path class="st7" d="M278.5,554c2.6-0.6,7.9-1.3,10,0.2"/>
	<path class="st7" d="M294.9,554.4c2.6-0.6,7.9-1.3,10,0.2"/>
	<path class="st7" d="M312,554.1c2.6-0.6,7.9-1.3,10,0.2"/>
	<path class="st7" d="M327.4,554.3c2.6-0.2,7.8-0.5,10,0.3"/>
	<path class="st7" d="M344,555.1c2.6-0.6,7.9-1.3,10,0.2"/>
	<path class="st7" d="M201.3,553.6c2.6-0.6,7.9-1.3,10,0.2"/>
	<path class="st7" d="M185.3,553.7c2.6-0.3,7.8-0.8,10,0.3"/>
	<path class="st7" d="M360.4,555c2.6-0.6,7.9-1.3,10,0.2"/>
	<path class="st7" d="M376.8,555.3c2.6-0.6,7.9-1.3,10,0.2"/>
	<path class="st7" d="M393.6,554.7c2.6-0.6,7.9-1.3,10,0.2"/>
	<path class="st7" d="M410.6,555.3c2.6-0.6,7.9-1.3,10,0.2"/>
	<path class="st7" d="M427.1,554.3c2.6-0.6,7.9-1.3,10,0.2"/>
	<path class="st7" d="M442.8,553.9c2.6-0.6,7.9-1.3,10,0.2"/>
	<path class="st7" d="M457.8,553.2c2.6-0.6,7.9-1.3,10,0.2"/>
	<path class="st7" d="M475,552.7c2.6-0.6,7.9-1.3,10,0.2"/>
	<path class="st7" d="M492.4,552.1c2.6-0.6,7.9-1.3,10,0.2"/>
	<path class="st7" d="M510.4,551.2c2.6-0.6,7.9-1.3,10,0.2"/>
	<path class="st7" d="M528,550.9c2.6-0.6,7.9-1.3,10,0.2"/>
	<path class="st7" d="M545,550c2.6-0.6,7.9-1.3,10,0.2"/>
	<path class="st7" d="M561.9,549.2c2.6-0.6,7.9-1.3,10,0.2"/>
	<path class="st7" d="M579.3,548.9c2.6-0.6,7.9-1.3,10,0.2"/>
	<path class="st7" d="M595,547.9c2.6-0.6,7.9-1.3,10,0.2"/>
	<path class="st7" d="M609.4,547.5c2.6-0.6,7.9-1.3,10,0.2"/>
</g>
<g>
	<path class="st7" d="M216.6,536.6c2.6-0.6,7.9-1.3,10,0.2"/>
	<path class="st7" d="M231.5,536.6c2.6-0.6,7.9-1.3,10,0.2"/>
	<path class="st7" d="M247.1,536.8c2.6-0.6,7.9-1.3,10,0.2"/>
	<path class="st7" d="M263.4,537.3c2.6-0.6,7.9-1.3,10,0.2"/>
	<path class="st7" d="M279,537.3c2.6-0.6,7.9-1.3,10,0.2"/>
	<path class="st7" d="M295.4,537.7c2.6-0.6,7.9-1.3,10,0.2"/>
	<path class="st7" d="M312.4,537.4c2.6-0.6,7.9-1.3,10,0.2"/>
	<path class="st7" d="M327.9,537.6c2.6-0.2,7.8-0.5,10,0.3"/>
	<path class="st7" d="M344.4,538.4c2.6-0.6,7.9-1.3,10,0.2"/>
	<path class="st7" d="M201.7,537c2.6-0.6,7.9-1.3,10,0.2"/>
	<path class="st7" d="M185.7,537c2.6-0.3,7.8-0.8,10,0.3"/>
	<path class="st7" d="M360.9,538.3c2.6-0.6,7.9-1.3,10,0.2"/>
	<path class="st7" d="M377.2,538.7c2.6-0.6,7.9-1.3,10,0.2"/>
	<path class="st7" d="M394.1,538c2.6-0.6,7.9-1.3,10,0.2"/>
	<path class="st7" d="M411,538.7c2.6-0.6,7.9-1.3,10,0.2"/>
	<path class="st7" d="M427.5,537.7c2.6-0.6,7.9-1.3,10,0.2"/>
	<path class="st7" d="M443.2,537.2c2.6-0.6,7.9-1.3,10,0.2"/>
	<path class="st7" d="M458.3,536.5c2.6-0.6,7.9-1.3,10,0.2"/>
	<path class="st7" d="M475.5,536c2.6-0.6,7.9-1.3,10,0.2"/>
	<path class="st7" d="M492.8,535.5c2.6-0.6,7.9-1.3,10,0.2"/>
	<path class="st7" d="M510.8,534.5c2.6-0.6,7.9-1.3,10,0.2"/>
	<path class="st7" d="M528.5,534.2c2.6-0.6,7.9-1.3,10,0.2"/>
	<path class="st7" d="M545.5,533.3c2.6-0.6,7.9-1.3,10,0.2"/>
	<path class="st7" d="M562.4,532.5c2.6-0.6,7.9-1.3,10,0.2"/>
	<path class="st7" d="M579.8,532.3c2.6-0.6,7.9-1.3,10,0.2"/>
	<path class="st7" d="M595.5,531.2c2.6-0.6,7.9-1.3,10,0.2"/>
	<path class="st7" d="M609.8,530.8c2.6-0.6,7.9-1.3,10,0.2"/>
</g>
</svg>
