<?xml version="1.0" encoding="utf-8"?>
<!-- Generator: Adobe Illustrator 24.1.3, SVG Export Plug-In . SVG Version: 6.00 Build 0)  -->
<svg version="1.1" id="Layer_1" xmlns="http://www.w3.org/2000/svg" xmlns:xlink="http://www.w3.org/1999/xlink" x="0px" y="0px"
	 viewBox="0 0 800 800" style="enable-background:new 0 0 800 800;" xml:space="preserve">
<style type="text/css">
	.st0{fill:#AA824B;}
	.st1{fill:#DDCDB7;}
	.st2{fill:#A7B3B4;}
	.st3{fill:#BB9B6F;}
	.st4{fill:#CECECE;}
	.st5{fill:#B2BEB2;stroke:#B2BEB2;stroke-miterlimit:10;}
	.st6{fill:#B2BEB2;stroke:#B2BEB2;stroke-width:3;stroke-miterlimit:10;}
	.st7{fill:#FFFFFF;}
	.st8{fill:none;stroke:#B2BEB2;stroke-width:3;stroke-miterlimit:10;}
</style>
<polygon class="st0" points="73.1,83.5 61.3,83.5 36.2,69 48,69 "/>
<polygon class="st1" points="79.7,123.7 79.7,123.7 61.3,123.7 36.2,109.2 36.2,69 61.3,83.5 61.3,123.7 "/>
<polygon class="st2" points="750,83.5 724.9,83.5 724.9,69 724.9,69 "/>
<polygon class="st0" points="750,83.5 724.9,83.5 724.9,69 724.9,69 "/>
<polygon class="st3" points="763.8,83.5 763.8,123.7 61.3,123.7 61.3,83.5 750,83.5 724.9,69 738.7,69 "/>
<path class="st4" d="M163.9,124l490.5-0.3l6.9,190.6c0,0-28.8,25.7-131.6,29.1s-216.9,7.3-274.6,2.8c-57.7-4.5-137.7,9.1-116.6-16.2
	S163.9,124,163.9,124z"/>
<g>
	<path class="st5" d="M196,294.4c2.6-0.4,7.9-1,10,0.6"/>
	<path class="st5" d="M210.9,295.1c2.6-0.4,7.9-1,10,0.6"/>
	<path class="st5" d="M226.5,295.9c2.6-0.4,7.9-1,10,0.6"/>
	<path class="st5" d="M242.7,297.2c2.6-0.4,7.9-1,10,0.6"/>
	<path class="st5" d="M258.3,297.9c2.6-0.4,7.9-1,10,0.6"/>
	<path class="st5" d="M274.7,299c2.6-0.4,7.9-1,10,0.6"/>
	<path class="st5" d="M291.7,299.4c2.6-0.4,7.9-1,10,0.6"/>
	<path class="st5" d="M307.1,300.3c2.6-0.1,7.8-0.1,10,0.8"/>
	<path class="st5" d="M323.6,301.8c2.6-0.4,7.9-1,10,0.6"/>
	<path class="st5" d="M181.2,294.1c2.6-0.4,7.9-1,10,0.6"/>
	<path class="st5" d="M165.2,293.5c2.6-0.2,7.9-0.4,10,0.7"/>
	<path class="st5" d="M340.1,302.5c2.6-0.4,7.9-1,10,0.6"/>
	<path class="st5" d="M356.4,303.6c2.6-0.4,7.9-1,10,0.6"/>
	<path class="st5" d="M373.2,303.6c2.6-0.4,7.9-1,10,0.6"/>
	<path class="st5" d="M390.2,305c2.6-0.4,7.9-1,10,0.6"/>
	<path class="st5" d="M406.7,304.8c2.6-0.4,7.9-1,10,0.6"/>
	<path class="st5" d="M422.4,305c2.6-0.4,7.9-1,10,0.6"/>
	<path class="st5" d="M437.5,305c2.6-0.4,7.9-1,10,0.6"/>
	<path class="st5" d="M454.7,305.2c2.6-0.4,7.9-1,10,0.6"/>
	<path class="st5" d="M472,305.4c2.6-0.4,7.9-1,10,0.6"/>
	<path class="st5" d="M490.1,305.3c2.6-0.4,7.9-1,10,0.6"/>
	<path class="st5" d="M507.7,305.8c2.6-0.4,7.9-1,10,0.6"/>
	<path class="st5" d="M524.7,305.6c2.6-0.4,7.9-1,10,0.6"/>
	<path class="st5" d="M541.6,305.5c2.6-0.4,7.9-1,10,0.6"/>
	<path class="st5" d="M559,306.1c2.6-0.4,7.9-1,10,0.6"/>
	<path class="st5" d="M574.8,305.7c2.6-0.4,7.9-1,10,0.6"/>
	<path class="st5" d="M589.1,306c2.6-0.4,7.9-1,10,0.6"/>
</g>
<g>
	<path class="st6" d="M194.8,311.1c2.6-0.4,7.9-1,10,0.6"/>
	<path class="st6" d="M209.7,311.7c2.6-0.4,7.9-1,10,0.6"/>
	<path class="st6" d="M225.3,312.6c2.6-0.4,7.9-1,10,0.6"/>
	<path class="st6" d="M241.5,313.8c2.6-0.4,7.9-1,10,0.6"/>
	<path class="st6" d="M257.1,314.5c2.6-0.4,7.9-1,10,0.6"/>
	<path class="st6" d="M273.5,315.6c2.6-0.4,7.9-1,10,0.6"/>
	<path class="st6" d="M290.5,316.1c2.6-0.4,7.9-1,10,0.6"/>
	<path class="st6" d="M305.9,316.9c2.6-0.1,7.8-0.1,10,0.8"/>
	<path class="st6" d="M322.4,318.5c2.6-0.4,7.9-1,10,0.6"/>
	<path class="st6" d="M180,310.8c2.6-0.4,7.9-1,10,0.6"/>
	<path class="st6" d="M164,310.1c2.6-0.2,7.9-0.4,10,0.7"/>
	<path class="st6" d="M338.9,319.1c2.6-0.4,7.9-1,10,0.6"/>
	<path class="st6" d="M355.2,320.2c2.6-0.4,7.9-1,10,0.6"/>
	<path class="st6" d="M372.1,320.3c2.6-0.4,7.9-1,10,0.6"/>
	<path class="st6" d="M389,321.7c2.6-0.4,7.9-1,10,0.6"/>
	<path class="st6" d="M405.5,321.4c2.6-0.4,7.9-1,10,0.6"/>
	<path class="st6" d="M421.2,321.7c2.6-0.4,7.9-1,10,0.6"/>
	<path class="st6" d="M436.3,321.6c2.6-0.4,7.9-1,10,0.6"/>
	<path class="st6" d="M453.5,321.9c2.6-0.4,7.9-1,10,0.6"/>
	<path class="st6" d="M470.8,322.1c2.6-0.4,7.9-1,10,0.6"/>
	<path class="st6" d="M488.9,321.9c2.6-0.4,7.9-1,10,0.6"/>
	<path class="st6" d="M506.5,322.4c2.6-0.4,7.9-1,10,0.6"/>
	<path class="st6" d="M523.5,322.3c2.6-0.4,7.9-1,10,0.6"/>
	<path class="st6" d="M540.4,322.2c2.6-0.4,7.9-1,10,0.6"/>
	<path class="st6" d="M557.8,322.7c2.6-0.4,7.9-1,10,0.6"/>
	<path class="st6" d="M573.6,322.4c2.6-0.4,7.9-1,10,0.6"/>
	<path class="st6" d="M587.9,322.6c2.6-0.4,7.9-1,10,0.6"/>
</g>
<path class="st7" d="M172.4,83.5c1.7-7.5-1.7-14.8,59.3-18.1s377.7-15.3,391.5-7.3c17.8,10.2,62.7,12,62.7,170.3s16.7,393.3-8.7,406
	c-25.4,12.7-377.7,78.9-427,36.5c-22.7-19.5-21-134.4-15.9-246.1c5.1-111.7-16.2-254.7-19.4-265.5C209,139.2,172.4,83.5,172.4,83.5z
	"/>
<g>
	<path class="st8" d="M290.9,617.7c2.4-0.8,7.2-2.1,9.4-0.8"/>
	<path class="st8" d="M304.8,616.2c2.4-0.8,7.2-2.1,9.4-0.8"/>
	<path class="st8" d="M319.5,614.8c2.4-0.8,7.2-2.1,9.4-0.8"/>
	<path class="st8" d="M334.8,613.7c2.4-0.8,7.2-2.1,9.4-0.8"/>
	<path class="st8" d="M349.4,612.1c2.4-0.8,7.2-2.1,9.4-0.8"/>
	<path class="st8" d="M364.8,610.8c2.4-0.8,7.2-2.1,9.4-0.8"/>
	<path class="st8" d="M380.7,608.7c2.4-0.8,7.2-2.1,9.4-0.8"/>
	<path class="st8" d="M395.2,607.4c2.4-0.5,7.3-1.3,9.4-0.7"/>
	<path class="st8" d="M410.8,606.5c2.4-0.8,7.2-2.1,9.4-0.8"/>
	<path class="st8" d="M277,619.6c2.4-0.8,7.2-2.1,9.4-0.8"/>
	<path class="st8" d="M262.1,621.3c2.4-0.6,7.3-1.6,9.4-0.7"/>
	<path class="st8" d="M426.2,604.7c2.4-0.8,7.2-2.1,9.4-0.8"/>
	<path class="st8" d="M441.5,603.4c2.4-0.8,7.2-2.1,9.4-0.8"/>
	<path class="st8" d="M457.2,601c2.4-0.8,7.2-2.1,9.4-0.8"/>
	<path class="st8" d="M473.2,599.9c2.4-0.8,7.2-2.1,9.4-0.8"/>
	<path class="st8" d="M488.6,597.3c2.4-0.8,7.2-2.1,9.4-0.8"/>
	<path class="st8" d="M503.2,595.2c2.4-0.8,7.2-2.1,9.4-0.8"/>
	<path class="st8" d="M517.2,593c2.4-0.8,7.2-2.1,9.4-0.8"/>
	<path class="st8" d="M533.3,590.7c2.4-0.8,7.2-2.1,9.4-0.8"/>
	<path class="st8" d="M549.5,588.4c2.4-0.8,7.2-2.1,9.4-0.8"/>
	<path class="st8" d="M566.2,585.6c2.4-0.8,7.2-2.1,9.4-0.8"/>
	<path class="st8" d="M582.7,583.5c2.4-0.8,7.2-2.1,9.4-0.8"/>
	<path class="st8" d="M598.6,580.9c2.4-0.8,7.2-2.1,9.4-0.8"/>
	<path class="st8" d="M614.3,578.3c2.4-0.8,7.2-2.1,9.4-0.8"/>
	<path class="st8" d="M630.6,576.4c2.4-0.8,7.2-2.1,9.4-0.8"/>
	<path class="st8" d="M645.2,573.7c2.4-0.8,7.2-2.1,9.4-0.8"/>
	<path class="st8" d="M658.6,571.9c2.4-0.8,7.2-2.1,9.4-0.8"/>
</g>
<g>
	<path class="st8" d="M293.6,633.1c2.4-0.8,7.2-2.1,9.4-0.8"/>
	<path class="st8" d="M307.5,631.6c2.4-0.8,7.2-2.1,9.4-0.8"/>
	<path class="st8" d="M322.1,630.2c2.4-0.8,7.2-2.1,9.4-0.8"/>
	<path class="st8" d="M337.5,629.1c2.4-0.8,7.2-2.1,9.4-0.8"/>
	<path class="st8" d="M352.1,627.6c2.4-0.8,7.2-2.1,9.4-0.8"/>
	<path class="st8" d="M367.5,626.3c2.4-0.8,7.2-2.1,9.4-0.8"/>
	<path class="st8" d="M383.4,624.4c2.4-0.8,7.2-2.1,9.4-0.8"/>
	<path class="st8" d="M397.9,623c2.4-0.5,7.3-1.2,9.4-0.6"/>
	<path class="st8" d="M413.5,622.2c2.4-0.8,7.2-2.1,9.4-0.8"/>
	<path class="st8" d="M279.7,634.9c2.4-0.8,7.2-2.1,9.4-0.8"/>
	<path class="st8" d="M264.7,636.5c2.4-0.6,7.3-1.6,9.4-0.7"/>
	<path class="st8" d="M428.9,620.5c2.4-0.8,7.2-2.1,9.4-0.8"/>
	<path class="st8" d="M444.2,619.2c2.4-0.8,7.2-2.1,9.4-0.8"/>
	<path class="st8" d="M459.9,616.9c2.4-0.8,7.2-2.1,9.4-0.8"/>
	<path class="st8" d="M475.9,615.9c2.4-0.8,7.2-2.1,9.4-0.8"/>
	<path class="st8" d="M491.3,613.3c2.4-0.8,7.2-2.1,9.4-0.8"/>
	<path class="st8" d="M505.9,611.3c2.4-0.8,7.2-2.1,9.4-0.8"/>
	<path class="st8" d="M520,609.1c2.4-0.8,7.2-2.1,9.4-0.8"/>
	<path class="st8" d="M536,606.9c2.4-0.8,7.2-2.1,9.4-0.8"/>
	<path class="st8" d="M552.2,604.6c2.4-0.8,7.2-2.1,9.4-0.8"/>
	<path class="st8" d="M569,601.9c2.4-0.8,7.2-2.1,9.4-0.8"/>
	<path class="st8" d="M585.5,599.9c2.4-0.8,7.2-2.1,9.4-0.8"/>
	<path class="st8" d="M601.3,597.3c2.4-0.8,7.2-2.1,9.4-0.8"/>
	<path class="st8" d="M617.1,594.8c2.4-0.8,7.2-2.1,9.4-0.8"/>
	<path class="st8" d="M633.3,592.9c2.4-0.8,7.2-2.1,9.4-0.8"/>
	<path class="st8" d="M648,590.3c2.4-0.8,7.2-2.1,9.4-0.8"/>
	<path class="st8" d="M661.4,588.5c2.4-0.8,7.2-2.1,9.4-0.8"/>
</g>
</svg>
